<svg viewBox="-4 0 512 512.00007" xmlns="http://www.w3.org/2000/svg"><path d="m360.957031 109.472656-188.957031-108.449218c-2.433594-1.394532-5.144531-1.28125-7.324219-.15625l-.035156-.054688-160.847656 93 .011719.015625c-2.222657 1.292969-3.804688 3.679687-3.804688 6.617187v178.464844c0 5.691406 3.042969 10.953125 7.976562 13.789063l200.503907 115.085937 160.515625-91.632812v-192.78125c0-5.738282-3.066406-11.039063-8.039063-13.898438zm0 0" fill="#ededed"/><path d="m208.691406 222.851562 160.304688-99.480468v192.78125l-160.515625 91.632812zm0 0" fill="#cecece"/><path d="m336.601562 510.386719c.492188-.246094 42.179688-24.363281 42.179688-24.363281l-36.46875-25.65625c-5.367188-13.410157-14.300781-25.324219-24.425781-31.171876-16.410157-9.472656-29.714844.582032-29.714844 22.464844 0 21.878906 13.300781 47.296875 29.714844 56.773438 7.09375 4.097656 13.605469 4.535156 18.714843 1.953125zm0 0" fill="#23292e"/><path d="m491.558594 339.007812-53.113282-42.234374-11.648437-41.222657c-5.753906-20.351562-19.226563-37.65625-37.546875-48.226562l-31.117188-17.71875c-3.324218-1.917969-7.152343-1.667969-10.09375.109375l-120.375 67.90625c-2.71875 1.28125-4.871093 3.777344-5.511718 7.070312l-.277344 135.359375 145.332031 83.738281c9.976563 5.75 21.945313 6.929688 32.855469 3.242188l11.109375-3.753906c31.871094-10.769532 60.996094-28.292969 85.40625-51.316406 4.914063-4.632813 7.613281-11.152344 7.613281-17.90625v-49.511719c0-10.019531-4.671875-19.460938-12.632812-25.535157zm0 0" fill="#ededed"/><path d="m382.34375 220.074219-31.609375-18.25-88.792969 51.261719v10.207031l31.351563 18.101562 89.050781-51.414062zm0 0" fill="#cecece"/><path d="m261.941406 253.085938v10.207031l31.351563 18.101562v-9.90625zm0 0" fill="#525e65"/><path d="m293.292969 271.488281 89.050781-51.414062v9.90625l-89.050781 51.414062zm0 0" fill="#627681"/><path d="m108.386719 379.683594c.492187-.25 42.179687-24.363282 42.179687-24.363282l-36.46875-25.65625c-5.363281-13.410156-14.300781-25.324218-24.425781-31.171874-16.410156-9.472657-29.714844.582031-29.714844 22.464843 0 21.878907 13.304688 47.296875 29.714844 56.773438 7.097656 4.097656 13.605469 4.535156 18.714844 1.953125zm0 0" fill="#23292e"/><path d="m501.132812 385.902344c0 6.304687-2.886718 12.261718-7.832031 16.167968l-4.316406 3.414063-3.648437 19.898437c-16.722657 13.066407-34.933594 24.03125-54.175782 32.863282l-16.738281-9.714844-13.523437 4.621094c-3.609376 1.230468-7.503907-.863282-8.460938-4.558594l-9.535156.816406v-16.476562c0-10.015625-4.671875-19.457032-12.636719-25.535156l-52.714844-40.828126-12.046875-42.625c-5.753906-20.355468-19.226562-37.660156-37.546875-48.226562l-31.113281-17.722656c-5.898438-3.402344-13.390625.015625-14.691406 6.699218l-.277344 135.355469 145.332031 83.738281c9.976563 5.75 21.945313 6.933594 32.855469 3.246094l11.109375-3.757812c31.871094-10.769532 60.996094-28.289063 85.40625-51.316406 4.914063-4.632813 7.613281-11.148438 7.613281-17.902344v-29.921875zm0 0" fill="#82a5b9"/><path d="m347.597656 485.972656c0 21.878906-13.300781 31.9375-29.714844 22.460938-16.410156-9.472656-29.710937-34.894532-29.710937-56.773438s13.300781-31.9375 29.710937-22.464844c16.414063 9.476563 29.714844 34.894532 29.714844 56.777344zm0 0" fill="#3e474c"/><path d="m332.496094 477.25c0 10.757812-6.542969 15.703125-14.609375 11.042969-8.070313-4.65625-14.609375-17.15625-14.609375-27.914063 0-10.757812 6.539062-15.703125 14.609375-11.042968 8.066406 4.660156 14.609375 17.15625 14.609375 27.914062zm0 0" fill="#cecece"/><path d="m325.808594 473.390625c0 5.835937-3.546875 8.515625-7.925782 5.988281-4.375-2.527344-7.921874-9.304687-7.921874-15.136718 0-5.835938 3.546874-8.519532 7.921874-5.992188 4.378907 2.527344 7.925782 9.304688 7.925782 15.140625zm0 0" fill="#627681"/><path d="m491.558594 339.007812-53.113282-42.234374 50.535157 82.039062 15.210937-14.273438c0-10.015624-4.671875-19.457031-12.632812-25.53125zm0 0" fill="#cecece"/><path d="m395.214844 429.417969c6.503906-1.855469 12.902344-4.003907 19.207031-6.375l-96.871094-56.472657 52.714844 40.828126c7.960937 6.074218 12.636719 15.519531 12.636719 25.53125zm0 0" fill="#cecece"/><path d="m488.984375 405.484375v-26.671875l.015625-.015625c-22.0625 19.03125-47.308594 34.023437-74.578125 44.277344v25.457031l16.738281 9.714844c19.238282-8.832032 37.453125-19.796875 54.175782-32.863282zm0 0" fill="#23292e"/><path d="m400.898438 453.152344 13.523437-4.621094v-25.488281c-6.304687 2.371093-12.703125 4.519531-19.207031 6.375l-12.3125 3.515625v16.476562l9.535156-.816406c.957031 3.695312 4.851562 5.789062 8.460938 4.558594zm0 0" fill="#fff"/><path d="m504.191406 364.539062-15.210937 14.273438v26.671875l4.316406-3.410156c4.949219-3.910157 7.832031-9.867188 7.832031-16.167969l3.0625-1.769531zm0 0" fill="#fff"/><path d="m488.984375 405.207031v-9.9375c-16.429687 15.796875-35.671875 28.382813-56.726563 37.050781l-17.835937 7.339844v8.871094l.019531.011719 21.363282-9.121094c19.507812-8.332031 37.484374-19.910156 53.179687-34.214844zm0 0" fill="#2e373d"/><path d="m404.691406 228.488281-109.382812 62.921875c7.148437 8.621094 12.519531 18.695313 15.621094 29.675782l10.125 35.820312 109.425781-62.101562-10.449219-36.964844c-3.0625-10.835938-8.328125-20.800782-15.339844-29.351563zm0 0" fill="#304e75"/><path d="m230.6875 317.273438 73.890625 42.667968-6.910156-29.550781c-4.207031-17.984375-15.667969-33.425781-31.660157-42.660156l-35.320312-20.398438zm0 0" fill="#243b58"/><path d="m400.382812 230.96875-40.359374 23.214844 63.414062 36.617187-6.914062-29.550781c-2.675782-11.441406-8.296876-21.84375-16.140626-30.28125zm0 0" fill="#59718b"/><path d="m208.480469 407.785156v-191.636718c0-5.738282-3.066407-11.039063-8.039063-13.898438l-188.960937-108.449219c-5.105469-2.933593-11.480469.753907-11.480469 6.644531v178.464844c0 5.695313 3.042969 10.953125 7.976562 13.789063zm0 0" fill="#82a5b9"/><path d="m119.386719 355.265625c0 21.882813-13.300781 31.9375-29.714844 22.464844-16.410156-9.476563-29.714844-34.894531-29.714844-56.773438 0-21.882812 13.304688-31.941406 29.714844-22.464843 16.414063 9.476562 29.714844 34.894531 29.714844 56.773437zm0 0" fill="#3e474c"/><path d="m104.285156 346.546875c0 10.757813-6.542968 15.703125-14.609375 11.042969-8.070312-4.65625-14.609375-17.15625-14.609375-27.914063 0-10.757812 6.539063-15.703125 14.609375-11.042969 8.066407 4.65625 14.609375 17.15625 14.609375 27.914063zm0 0" fill="#cecece"/><path d="m97.597656 342.6875c0 5.832031-3.546875 8.515625-7.925781 5.988281-4.375-2.527343-7.921875-9.304687-7.921875-15.140625 0-5.832031 3.546875-8.515625 7.921875-5.988281 4.378906 2.527344 7.925781 9.304687 7.925781 15.140625zm0 0" fill="#627681"/><g fill="#872e02"><path d="m382.902344 432.933594-161.027344-92.96875v16.941406l161.027344 92.503906zm0 0"/><path d="m208.070312 346.105469-208.070312-120.507813v15.457032l208.070312 120.453124zm0 0"/><path d="m200.441406 202.25-188.960937-108.449219c-5.105469-2.9375-11.480469.75-11.480469 6.644531l208.480469 122.28125v-6.578124c0-5.738282-3.066407-11.039063-8.039063-13.898438zm0 0"/></g><path d="m358.816406 189.875-1.585937-.914062c-2.609375-1.507813-4.996094-1.625-6.84375-.605469l-.050781-.089844-37.820313 21.832031-33.675781 19.445313c-2.425782 1.191406-3.984375 4.269531-3.984375 8.738281v12.058594l22.8125 13.167968 71.761719-41.296874v-12.054688c0-7.816406-4.75-16.894531-10.613282-20.28125zm0 0" fill="#243b58"/><path d="m358.816406 189.875-1.585937-.914062c-2.609375-1.507813-4.996094-1.625-6.84375-.605469l-.050781-.089844-37.820313 21.832031s4.835937-1.796875 7.960937.011719l1.585938.914063c5.859375 3.382812 10.613281 12.464843 10.613281 20.28125v12.054687l36.753907-21.148437v-12.054688c0-7.816406-4.75-16.894531-10.613282-20.28125zm0 0" fill="#e33400"/><path d="m322.0625 211.023438-1.585938-.914063c-3.125-1.808594-5.929687-1.609375-7.871093.136719l-.089844-.144532-33.675781 19.441407c1.816406-.894531 4.121094-.730469 6.632812.71875l1.582032.914062c5.863281 3.382813 10.613281 12.460938 10.613281 20.277344v12.054687l35.007812-20.148437v-12.054687c0-7.816407-4.753906-16.898438-10.613281-20.28125zm0 0" fill="#304e75"/><path d="m66.613281 185.355469-17.695312-10.21875v-23.597657l-23.144531-13.363281v23.597657l-17.699219-10.21875v30.859374l17.699219 10.21875v23.597657l23.144531 13.363281v-23.597656l17.695312 10.214844zm0 0" fill="#872e02"/><path d="m195.625 324.5625-61.746094-35.648438v-82.320312l61.746094 35.644531zm0 0" fill="#243b58"/></svg>