<svg id="Laag_1" data-name="Laag 1" xmlns="http://www.w3.org/2000/svg" viewBox="0 0 13.62 8.77"><path d="M8.21,8.8H4.64L3.83,11H2.67L5.93,2.5h1L10.18,11H9ZM5,7.88h2.9l-1.46-4Z" transform="translate(-2.67 -2.38)"/><path d="M12.62,6.24h.82a1.74,1.74,0,0,0,1.2-.41,1.32,1.32,0,0,0,.44-1.06,1.32,1.32,0,0,0-1.49-1.5,1.58,1.58,0,0,0-1.12.4,1.42,1.42,0,0,0-.42,1.07H11a2.16,2.16,0,0,1,.74-1.69,2.72,2.72,0,0,1,1.88-.67A2.68,2.68,0,0,1,15.48,3a2.31,2.31,0,0,1,.69,1.78,1.83,1.83,0,0,1-.36,1.07,2.17,2.17,0,0,1-1,.78,2.08,2.08,0,0,1,1.08.74,2.05,2.05,0,0,1,.39,1.26,2.32,2.32,0,0,1-.75,1.82,2.81,2.81,0,0,1-2,.68,2.91,2.91,0,0,1-2-.65,2.18,2.18,0,0,1-.75-1.72H12a1.41,1.41,0,0,0,.44,1.08,1.66,1.66,0,0,0,1.18.4,1.62,1.62,0,0,0,1.2-.41,1.59,1.59,0,0,0,.41-1.17,1.46,1.46,0,0,0-.45-1.15,2.06,2.06,0,0,0-1.32-.41h-.82Z" transform="translate(-2.67 -2.38)"/></svg>