<svg id="Laag_1" data-name="Laag 1" xmlns="http://www.w3.org/2000/svg" viewBox="0 0 10.75 8.57"><path d="M3.5,11V2.5H6.29a3.26,3.26,0,0,1,2.09.57,2.07,2.07,0,0,1,.7,1.7,1.72,1.72,0,0,1-.34,1.06,2.23,2.23,0,0,1-.93.71,2,2,0,0,1,1.1.74,2.15,2.15,0,0,1,.4,1.29,2.25,2.25,0,0,1-.75,1.8,3,3,0,0,1-2.1.66ZM4.63,6.14H6.32a1.84,1.84,0,0,0,1.19-.37,1.26,1.26,0,0,0,.44-1,1.21,1.21,0,0,0-.41-1,2.05,2.05,0,0,0-1.25-.32H4.63Zm0,.9v3.07H6.48A1.78,1.78,0,0,0,7.72,9.7a1.43,1.43,0,0,0,.46-1.12C8.18,7.55,7.62,7,6.5,7Z" transform="translate(-3.5 -2.46)"/><path d="M14.25,11H13.16V3.81L11,4.61v-1l3.1-1.16h.17Z" transform="translate(-3.5 -2.46)"/></svg>