<svg id="Laag_1" data-name="Laag 1" xmlns="http://www.w3.org/2000/svg" viewBox="0 0 11.38 8.77"><path d="M9.78,8.32a3.15,3.15,0,0,1-1,2.09,3.29,3.29,0,0,1-2.24.74,3,3,0,0,1-2.42-1.09,4.34,4.34,0,0,1-.91-2.9V6.34a4.9,4.9,0,0,1,.42-2.09A3.21,3.21,0,0,1,4.84,2.87a3.28,3.28,0,0,1,1.8-.49,3.11,3.11,0,0,1,2.18.76,3.18,3.18,0,0,1,1,2.1H8.64A2.4,2.4,0,0,0,8,3.76,1.91,1.91,0,0,0,6.64,3.3,2,2,0,0,0,5,4.1a3.65,3.65,0,0,0-.61,2.27V7.2a3.76,3.76,0,0,0,.58,2.21,1.88,1.88,0,0,0,1.62.82A2.12,2.12,0,0,0,8,9.8a2.3,2.3,0,0,0,.66-1.48Z" transform="translate(-3.21 -2.38)"/><path d="M14.59,11H13.5V3.81l-2.18.8v-1l3.1-1.16h.17Z" transform="translate(-3.21 -2.38)"/></svg>