<svg id="Laag_1" data-name="Laag 1" xmlns="http://www.w3.org/2000/svg" viewBox="0 0 13.07 8.77"><path d="M9.78,8.32a3.15,3.15,0,0,1-1,2.09,3.29,3.29,0,0,1-2.24.74,3,3,0,0,1-2.42-1.09,4.34,4.34,0,0,1-.91-2.9V6.34a4.9,4.9,0,0,1,.42-2.09A3.21,3.21,0,0,1,4.84,2.87a3.28,3.28,0,0,1,1.8-.49,3.11,3.11,0,0,1,2.18.76,3.18,3.18,0,0,1,1,2.1H8.64A2.4,2.4,0,0,0,8,3.76,1.91,1.91,0,0,0,6.64,3.3,2,2,0,0,0,5,4.1a3.65,3.65,0,0,0-.61,2.27V7.2a3.76,3.76,0,0,0,.58,2.21,1.88,1.88,0,0,0,1.62.82A2.12,2.12,0,0,0,8,9.8a2.3,2.3,0,0,0,.66-1.48Z" transform="translate(-3.21 -2.38)"/><path d="M12.61,6.24h.81a1.79,1.79,0,0,0,1.21-.41,1.35,1.35,0,0,0,.44-1.06,1.33,1.33,0,0,0-1.5-1.5,1.58,1.58,0,0,0-1.12.4A1.42,1.42,0,0,0,12,4.74H11a2.16,2.16,0,0,1,.74-1.69,2.72,2.72,0,0,1,1.88-.67,2.71,2.71,0,0,1,1.9.64,2.34,2.34,0,0,1,.68,1.78,1.83,1.83,0,0,1-.36,1.07,2.17,2.17,0,0,1-1,.78,2.15,2.15,0,0,1,1.09.74,2.11,2.11,0,0,1,.38,1.26,2.32,2.32,0,0,1-.75,1.82,2.81,2.81,0,0,1-1.95.68,2.93,2.93,0,0,1-2-.65,2.18,2.18,0,0,1-.75-1.72H12a1.41,1.41,0,0,0,.44,1.08,1.67,1.67,0,0,0,1.18.4,1.62,1.62,0,0,0,1.2-.41,1.55,1.55,0,0,0,.42-1.17,1.47,1.47,0,0,0-.46-1.15,2.06,2.06,0,0,0-1.32-.41h-.81Z" transform="translate(-3.21 -2.38)"/></svg>