<svg id="Laag_1" data-name="Laag 1" xmlns="http://www.w3.org/2000/svg" viewBox="0 0 12.78 8.65"><path d="M3.5,11V2.5H6.29a3.26,3.26,0,0,1,2.09.57,2.07,2.07,0,0,1,.7,1.7,1.72,1.72,0,0,1-.34,1.06,2.23,2.23,0,0,1-.93.71,2,2,0,0,1,1.1.74,2.15,2.15,0,0,1,.4,1.29,2.25,2.25,0,0,1-.75,1.8,3,3,0,0,1-2.1.66ZM4.63,6.14H6.32a1.84,1.84,0,0,0,1.19-.37,1.26,1.26,0,0,0,.44-1,1.21,1.21,0,0,0-.41-1,2.05,2.05,0,0,0-1.25-.32H4.63Zm0,.9v3.07H6.48A1.78,1.78,0,0,0,7.72,9.7a1.43,1.43,0,0,0,.46-1.12C8.18,7.55,7.62,7,6.5,7Z" transform="translate(-3.5 -2.38)"/><path d="M16.28,11H10.69v-.78l3-3.28a7.36,7.36,0,0,0,.91-1.21,2.08,2.08,0,0,0,.25-1,1.54,1.54,0,0,0-.41-1.1,1.44,1.44,0,0,0-1.08-.43,1.7,1.7,0,0,0-1.25.46A1.77,1.77,0,0,0,11.61,5H10.53a2.52,2.52,0,0,1,.75-1.9,2.81,2.81,0,0,1,2-.73A2.71,2.71,0,0,1,15.2,3a2.12,2.12,0,0,1,.69,1.66,4.89,4.89,0,0,1-1.61,3L12,10.15h4.28Z" transform="translate(-3.5 -2.38)"/></svg>