<svg id="Laag_1" data-name="Laag 1" xmlns="http://www.w3.org/2000/svg" viewBox="0 0 13.96 8.65"><path d="M8.21,8.8H4.64L3.83,11H2.67L5.93,2.5h1L10.18,11H9ZM5,7.88h2.9l-1.46-4Z" transform="translate(-2.67 -2.38)"/><path d="M16.64,11H11.05v-.78L14,7a7.36,7.36,0,0,0,.91-1.21,2.07,2.07,0,0,0,.24-1,1.54,1.54,0,0,0-.4-1.1,1.44,1.44,0,0,0-1.08-.43,1.67,1.67,0,0,0-1.25.46A1.77,1.77,0,0,0,12,5H10.88a2.53,2.53,0,0,1,.76-1.9,2.79,2.79,0,0,1,2-.73A2.67,2.67,0,0,1,15.55,3a2.12,2.12,0,0,1,.69,1.66,4.87,4.87,0,0,1-1.6,3l-2.29,2.48h4.29Z" transform="translate(-2.67 -2.38)"/></svg>