<?xml version="1.0" encoding="utf-8"?>
<!-- Generator: Adobe Illustrator 24.3.0, SVG Export Plug-In . SVG Version: 6.00 Build 0)  -->
<svg version="1.1" id="Capa_1" xmlns="http://www.w3.org/2000/svg" xmlns:xlink="http://www.w3.org/1999/xlink" x="0px" y="0px"
	 viewBox="0 0 374.7 512" style="enable-background:new 0 0 374.7 512;" xml:space="preserve">
<style type="text/css">
	.st0{fill:#4D873D;}
	.st1{fill:#467536;}
	.st2{fill:#FECA9C;}
	.st3{fill:#742E00;}
	.st4{fill:#3F1A00;}
	.st5{fill:#3F5C6C;}
	.st6{fill:#80B4FB;}
	.st7{fill:#0290CF;}
	.st8{fill:#9DC6FB;}
</style>
<g id="_x3C_Group_x3E__79_">
	<g>
		<path class="st0" d="M324.9,512H46.8c-10.9,0-19.7-8.8-19.7-19.7c0-67.4,54.6-122,122-121.9c12.4,0,24.1,0,34.3,0
			c11.7,0,25.1,0,39.2,0c67.4,0,122,54.6,122,121.9C344.6,503.2,335.7,512,324.9,512z"/>
		<path class="st0" d="M39.2,285.7c-13.9-0.5-26.6-9.6-30.9-23.7l-7.2-23.4c-3.9-12.8,3.3-26.4,16.1-30.4c5.4-1.6,10.8-2.2,16.1-1.8
			l28.3,32.1l-19.8,47.1h-2.6V285.7z"/>
		<path class="st0" d="M335.5,285.7c13.9-0.5,26.6-9.6,30.9-23.7l7.2-23.4c3.9-12.8-3.3-26.4-16.1-30.4c-5.4-1.6-10.8-2.2-16.1-1.8
			l-26.1-0.1l7.4,80.3L335.5,285.7z"/>
	</g>
	<path class="st1" d="M373.7,238.7l-7.2,23.4c-4.3,14-17,23.2-30.9,23.7l-12.7,1l-2-21.7h14.7c13.9-0.5,26.6-9.6,30.9-23.7l6.1-19.8
		C374.9,226.8,375.5,232.8,373.7,238.7L373.7,238.7z"/>
	<path class="st1" d="M346.1,491.3c0,0-251.4-0.1-291.4-0.2c-2.9,0-5.3-2.5-5.1-5.4c2.2-40.4,24-75.6,56.1-96.2
		c1.7-1.1,3.8-1.2,5.5-0.1c24.1,14.5,50.4,22.2,76.9,22.2c30.1,0,59.2-10.2,86.6-30.3c-15.4-7-32.5-11-50.6-11
		c-14.1,0-27.5,0-39.2,0c-20.5,0.4-46.3-1.9-67.3,4.5c-47.7,13.4-83.5,55-88.4,105.7c-0.4,3.8-0.5,7.7-0.6,11.5
		c0,10.9,8.8,19.9,19.7,19.9H69h257.4c5.4,0,10.3-2.2,13.9-5.8c3.6-3.6,5.8-8.5,5.8-13.9C346.1,492,346.1,491.6,346.1,491.3
		L346.1,491.3z"/>
	<path class="st0" d="M340.9,221.7c0-84.7-69.7-153.3-154.3-153.3S33.2,137,33.2,221.7c0,1.6,2.1,18.9,5.3,41.3
		c0.8,6,1.6,11.3,2.3,15.6c0.6,4,1.1,8,1.3,12c1.5,28.2,17.6,50.2,42.3,62.4c7.7,3.8,15.1,8.1,22,13.2
		c23.3,17.3,50.8,27.9,80.1,27.9c28.5,0,54.1-10.5,76.6-27.2c7.7-5.7,16.1-10.4,24.8-14.6c25.9-12.4,44.4-33.5,45.4-63.3
		c0.1-3.1,0.4-6.1,0.6-9.2c0.4-5,1-11,1.7-17.9C338.1,239.5,340.9,223.8,340.9,221.7L340.9,221.7z"/>
	<path class="st2" d="M267.5,363.8c-1.5,1-2.9,2-4.3,3.1c-22.5,16.6-48.1,27.2-76.6,27.2c-29.4,0-56.8-10.6-80.1-27.9
		c-6.9-5.1-14.3-9.4-22-13.2c-24.7-12.2-40.8-34.2-42.3-62.4c-0.2-4-0.7-8-1.3-12c-0.7-4.3-1.4-9.6-2.3-15.6
		c-3.2-22.4-5.3-39.7-5.3-41.3c0-1,0-1.9,0-2.9c0-0.8,0-1.6,0.1-2.4c0-1.3,0.1-2.6,0.2-3.9c0-0.7,0.1-1.4,0.1-2.2
		c0.1-0.7,0.1-1.5,0.2-2.2c0-0.1,0-0.1,0-0.2c0.1-0.7,0.1-1.3,0.2-1.9c0.1-0.6,0.1-1.3,0.2-1.9c0.1-1.3,0.3-2.6,0.5-3.9
		c0.1-0.6,0.2-1.2,0.3-1.9c0.1-0.6,0.2-1.3,0.3-1.9c0.1-0.9,0.3-1.8,0.5-2.6c0.1-0.8,0.3-1.6,0.5-2.4c0.2-0.9,0.4-1.8,0.5-2.6
		c0.1-0.6,0.3-1.2,0.4-1.7c0.9-3.8,1.9-7.5,3-11.1c0.2-0.5,0.3-1.1,0.5-1.6c0.2-0.6,0.4-1.2,0.6-1.8c0.3-0.8,0.6-1.7,0.9-2.5
		c0.2-0.7,0.5-1.3,0.7-2c0.6-1.6,1.2-3.2,1.9-4.8c0.2-0.4,0.3-0.8,0.5-1.2c0.6-1.5,1.3-3,1.9-4.4c0.3-0.6,0.6-1.2,0.9-1.8
		c0.3-0.7,0.7-1.5,1.1-2.2c0.2-0.4,0.4-0.8,0.6-1.2c0.6-1.3,1.3-2.5,1.9-3.7c0.2-0.4,0.5-0.9,0.7-1.3c0.1-0.2,0.2-0.4,0.4-0.7
		c0.2-0.4,0.5-0.8,0.7-1.3c0.3-0.5,0.6-1.1,0.9-1.6c0.3-0.4,0.5-0.9,0.8-1.3c0.3-0.4,0.5-0.9,0.8-1.3c0.4-0.6,0.8-1.3,1.2-1.9
		c0.1-0.1,0.1-0.2,0.2-0.4c-8.3,19.2-12.8,40.5-12.8,62.8c0,1.7,2.2,19.6,5.5,42.9c0.9,6.2,1.7,11.7,2.4,16.2
		c0.6,4.1,1.1,8.3,1.4,12.4c1.5,29.3,18.3,52.1,43.9,64.8c8,4,15.7,8.4,22.9,13.7c24.2,18,52.7,29,83.2,29
		c21.5,0,41.4-5.8,59.6-15.5C263.6,365,265.2,364.5,267.5,363.8L267.5,363.8z"/>
	<path class="st1" d="M267.5,363.8c-1.5,1-2.9,2-4.3,3.1c-22.5,16.6-51.2,36.4-79.7,36.4c-24.5,0-44.5-16.5-65-29
		c-4.1-2.5-8.1-5.2-12.1-8.1c-6.9-5.1-14.3-9.4-22-13.2c-24.7-12.2-40.8-34.2-42.3-62.4c-0.2-4-0.7-8-1.3-12
		c-0.7-4.3-1.4-9.6-2.3-15.6c-3.2-22.4-5.3-39.7-5.3-41.3c-0.1-29.2,8.4-58.2,24.2-82.7c-8.3,19.2-12.8,40.5-12.8,62.8
		c0,1.7,2.2,19.6,5.5,42.9c0.9,6.2,1.7,11.7,2.4,16.2c0.6,4.1,1.1,8.3,1.4,12.4c1.5,29.3,18.3,52.1,43.9,64.8
		c8,4,15.7,8.4,22.9,13.7c24.2,18,52.7,29,83.2,29c21.5,0,41.4-5.8,59.6-15.5C263.6,365,265.2,364.5,267.5,363.8L267.5,363.8z"/>
	<path class="st3" d="M231.7,41.8C228.3,20,211.3,9,208.9,7.4c-14-8.7-28.1-7.9-35.1-6.7c-1,0.2,1.1,1.1,2.1,1.5
		c10.7,4.2,16.9,15.5,17.2,23.5l0.1,1c-1,6.5-9.5,12.5-16,13.4c-4.7,0.6-7.3,2.6-11,8.9c-6.9,11.7-11.6,17.7-4.2,27.8
		c5.2,7.2,11.4,18,17,19.6c4.1,1.1,7.4,1.4,8.7,1.4c20.5,0.8,33.4-16.9,36.5-21.7C234.2,60.6,232.1,44.8,231.7,41.8L231.7,41.8z"/>
	<path class="st4" d="M210.8,31.3c-0.5,3.1-2,5.8-4.2,7.7s-5,3.1-8.1,3.2c-9.6,0.2-17.1,3.3-22.6,12.6c-7.7,12.9-6.2,28.9,1.9,40.1
		c0.4,0.5,0.7,1,1.1,1.5c-5.6-1.6-12.7-4.9-18-12.1c-7.4-10.1-8.7-24.6-1.8-36.3c5-8.4,11.8-11.2,20.5-11.4c2.8-0.1,5.4-1.1,7.3-2.9
		c2-1.8,3.4-4.2,3.8-7c-0.3-7.9-6.6-19.8-17.3-24c-1-0.4-0.8-1.8,0.2-2c3.6-0.6,9.2-1.1,15.7-0.3C201.5,6,210.5,22.6,210.8,31.3
		L210.8,31.3z"/>
	<g>
		<path class="st5" d="M92.8,228.6c-0.8,0-1.5-0.1-2.3-0.4c-4.1-1.3-6.4-5.6-5.1-9.7c5.2-16.8,20.6-28.1,38.2-28.1
			c17.4,0,32.7,11.1,38,27.6c1.3,4.1-0.9,8.5-5,9.8s-8.5-0.9-9.8-5c-3.3-10.1-12.6-16.9-23.3-16.9c-10.8,0-20.2,6.9-23.4,17.2
			C99.1,226.4,96.1,228.6,92.8,228.6L92.8,228.6z"/>
	</g>
	<g>
		<path class="st5" d="M214.7,228.6c-0.8,0-1.5-0.1-2.3-0.4c-4.1-1.3-6.4-5.6-5.1-9.7c5.2-16.8,20.6-28.1,38.2-28.1
			c17.4,0,32.7,11.1,38,27.6c1.3,4.1-0.9,8.5-5,9.8s-8.5-0.9-9.8-5c-3.3-10.1-12.6-16.9-23.3-16.9c-10.8,0-20.2,6.9-23.4,17.2
			C221,226.4,218,228.6,214.7,228.6L214.7,228.6z"/>
	</g>
	<path class="st1" d="M50.1,265.9l-8.4,19.9h-2.5c-13.9-0.5-26.6-9.6-30.9-23.7l-7.2-23.4c-1.8-5.9-1.3-11.9,1.1-17.1l6.1,19.8
		c4.3,14,17,23.2,30.9,23.7L50.1,265.9z"/>
	<path class="st6" d="M187.1,368.7c-30.3,0-54.9-24.7-54.9-55c0-12,9.8-21.8,21.7-21.8h12.4c4.3,0,7.8,3.5,7.8,7.8s-3.5,7.8-7.8,7.8
		h-12.4c-3.4,0-6.2,2.8-6.2,6.3c0,21.8,17.7,39.5,39.4,39.5s39.4-17.7,39.4-39.5c0-3.5-2.8-6.3-6.2-6.3h-12.6
		c-4.3,0-7.8-3.5-7.8-7.8s3.5-7.8,7.8-7.8h12.6c12,0,21.7,9.8,21.7,21.8C242,344,217.3,368.7,187.1,368.7L187.1,368.7z"/>
	<path class="st7" d="M174,299.7c0,4.3-3.5,7.8-7.8,7.8h-12.4c-1.7,0-3.3,0.7-4.5,1.9c-0.8-3.1-1.2-6.3-1.2-9.7
		c0-2.5,0.2-4.8,0.7-7.2c1.6-0.4,3.3-0.6,5-0.6h12.4C170.6,291.9,174,295.4,174,299.7z"/>
	<path class="st7" d="M225.9,299.7c0,3.3-0.4,6.6-1.2,9.7c-1.1-1.2-2.7-1.9-4.5-1.9h-12.6c-4.3,0-7.8-3.5-7.8-7.8s3.5-7.8,7.8-7.8
		h12.6c1.7,0,3.4,0.2,5,0.6C225.7,294.9,225.9,297.2,225.9,299.7z"/>
	<circle class="st8" cx="187.1" cy="299.7" r="28.5"/>
	<path class="st6" d="M213.4,310.5c-4.3,10.4-14.5,17.6-26.4,17.6c-15.7,0-28.5-12.8-28.5-28.5c0-11.9,7.3-22.1,17.6-26.3
		c-1.4,3.3-2.1,7-2.1,10.8c0,15.7,12.8,28.5,28.5,28.5C206.4,312.7,210.1,311.9,213.4,310.5L213.4,310.5z"/>
</g>
</svg>
