<?xml version="1.0" encoding="utf-8"?>
<!-- Generator: Adobe Illustrator 24.3.0, SVG Export Plug-In . SVG Version: 6.00 Build 0)  -->
<svg version="1.1" id="Capa_1" xmlns="http://www.w3.org/2000/svg" xmlns:xlink="http://www.w3.org/1999/xlink" x="0px" y="0px"
	 viewBox="0 0 373.6 512" style="enable-background:new 0 0 373.6 512;" xml:space="preserve">
<style type="text/css">
	.st0{fill:#4D873D;}
	.st1{fill:#467536;}
	.st2{fill:#FECA9C;}
	.st3{fill:#3F5C6C;}
	.st4{fill:#DF75A5;}
	.st5{fill:#DD5790;}
	.st6{fill:#80B4FB;}
	.st7{fill:#0290CF;}
	.st8{fill:#9DC6FB;}
</style>
<g id="_x3C_Group_x3E__78_">
	<g>
		<path class="st0" d="M323.9,512H46.7c-10.8,0-19.6-8.8-19.6-19.6c0-67.2,54.5-121.6,121.6-121.6c12.4,0,24,0,34.2,0
			c11.7,0,25,0,39.1,0c67.2,0,121.6,54.4,121.6,121.6C343.5,503.2,334.7,512,323.9,512z"/>
		<path class="st0" d="M39.1,286.4c-13.9-0.5-26.5-9.6-30.8-23.6l-7.2-23.3c-3.9-12.8,3.2-26.3,16-30.3c5.3-1.6,10.8-2.2,16-1.8
			l28.2,32l-19.8,47H39.1z"/>
		<path class="st0" d="M334.5,286.4c13.9-0.5,26.5-9.6,30.8-23.6l7.2-23.3c3.9-12.8-3.2-26.3-16-30.3c-5.3-1.6-10.8-2.2-16-1.8
			l-26-0.1l7.4,80L334.5,286.4z"/>
	</g>
	<path class="st1" d="M372.6,239.5l-7.2,23.3c-4.3,14-17,23.1-30.8,23.6l-12.7,1l-2-21.6h14.7c13.9-0.5,26.5-9.6,30.8-23.6l6.1-19.8
		C373.8,227.6,374.4,233.6,372.6,239.5L372.6,239.5z"/>
	<path class="st1" d="M343.5,491.4c0,0-250.7-0.1-290.5-0.2c-2.9,0-5.3-2.5-5.1-5.4c2.1-40.3,23.9-75.4,55.9-95.9
		c1.7-1.1,3.8-1.1,5.5-0.1c24,14.5,50.2,22.1,76.7,22.1c30,0,59.1-10.2,86.4-30.2c-15.4-7-32.4-10.9-50.4-10.9
		c-14.1,0-27.4,0-39.1,0c-20.5,0.4-46.2-1.9-67.1,4.5c-47.5,13.3-83.3,54.9-88.1,105.4c-0.4,3.8-0.5,7.6-0.6,11.5
		c0,10.9,8.8,19.8,19.7,19.8h20.6h256.6c5.4,0,10.3-2.2,13.9-5.7c3.5-3.5,5.7-8.4,5.7-13.9C343.5,492,343.5,491.7,343.5,491.4
		L343.5,491.4z"/>
	<path class="st0" d="M339.9,222.5c0-84.4-69.5-152.8-153.9-152.8S33.1,138.1,33.1,222.5c0,1.6,2.1,18.8,5.3,41.2
		c0.8,6,1.6,11.2,2.3,15.5c0.6,4,1.1,7.9,1.3,11.9c1.5,28.2,17.6,50.1,42.2,62.2c7.7,3.8,15.1,8.1,22,13.2
		c23.2,17.3,50.6,27.8,79.9,27.8c28.4,0,53.9-10.5,76.4-27.1c7.7-5.7,16.1-10.4,24.7-14.5c25.8-12.4,44.2-33.4,45.3-63.1
		c0.1-3.1,0.4-6.1,0.6-9.1c0.4-5,1-11,1.7-17.8C337.1,240.3,339.9,224.6,339.9,222.5L339.9,222.5z"/>
	<path class="st2" d="M266.7,364.3c-1.5,1-2.9,2-4.3,3c-22.5,16.6-48,27.1-76.4,27.1c-29.3,0-56.6-10.5-79.9-27.8
		c-6.9-5.1-14.3-9.4-22-13.2c-24.6-12.2-40.7-34.1-42.2-62.2c-0.2-4-0.7-8-1.3-12c-0.6-4.3-1.4-9.6-2.3-15.5
		c-3.2-22.4-5.2-39.6-5.2-41.2c0-0.9,0-1.9,0-2.8c0-0.8,0-1.6,0.1-2.4c0-1.3,0.1-2.6,0.2-3.9c0-0.7,0.1-1.4,0.1-2.2
		c0.1-0.7,0.1-1.5,0.2-2.2c0-0.1,0-0.1,0-0.2c0.1-0.6,0.1-1.3,0.2-1.9c0.1-0.6,0.1-1.3,0.2-1.9c0.1-1.3,0.3-2.6,0.5-3.9
		c0.1-0.6,0.2-1.2,0.3-1.8c0.1-0.6,0.2-1.3,0.3-1.9c0.1-0.9,0.3-1.8,0.5-2.6c0.1-0.8,0.3-1.6,0.5-2.4c0.2-0.9,0.4-1.8,0.5-2.6
		c0.1-0.6,0.3-1.2,0.4-1.7c0.9-3.8,1.9-7.4,3-11.1c0.2-0.5,0.3-1.1,0.5-1.6c0.2-0.6,0.4-1.2,0.6-1.8c0.3-0.8,0.6-1.7,0.9-2.5
		c0.2-0.7,0.5-1.3,0.7-2c0.6-1.6,1.2-3.2,1.9-4.8c0.2-0.4,0.3-0.8,0.5-1.2c0.6-1.5,1.3-2.9,1.9-4.4c0.3-0.6,0.6-1.2,0.9-1.8
		c0.3-0.7,0.7-1.5,1.1-2.2c0.2-0.4,0.4-0.8,0.6-1.2c0.6-1.2,1.3-2.5,1.9-3.7c0.2-0.4,0.5-0.9,0.7-1.3c0.1-0.2,0.2-0.4,0.4-0.6
		c0.2-0.4,0.5-0.8,0.7-1.3c0.3-0.5,0.6-1.1,0.9-1.6c0.3-0.4,0.5-0.9,0.8-1.3c0.3-0.4,0.5-0.9,0.8-1.3c0.4-0.6,0.8-1.3,1.2-1.9
		c0.1-0.1,0.1-0.2,0.2-0.4c-8.2,19.2-12.8,40.4-12.8,62.6c0,1.7,2.2,19.5,5.4,42.8c0.9,6.2,1.7,11.6,2.4,16.1
		c0.6,4.1,1.1,8.2,1.4,12.4c1.5,29.2,18.3,52,43.8,64.6c8,3.9,15.7,8.4,22.8,13.7c24.1,17.9,52.5,28.9,82.9,28.9
		c21.4,0,41.3-5.8,59.4-15.5C262.8,365.5,264.5,364.9,266.7,364.3L266.7,364.3z"/>
	<path class="st1" d="M266.7,364.3c-1.5,1-2.9,2-4.3,3c-22.5,16.6-51,36.3-79.4,36.3c-24.4,0-44.4-16.5-64.8-28.9
		c-4.1-2.5-8.1-5.2-12-8.1c-6.9-5.1-14.3-9.4-22-13.2c-24.6-12.2-40.7-34.1-42.2-62.2c-0.2-4-0.7-8-1.3-12
		c-0.6-4.3-1.4-9.6-2.3-15.5c-3.2-22.4-5.2-39.6-5.2-41.2c-0.1-29.1,8.4-58.1,24.2-82.5c-8.2,19.2-12.8,40.4-12.8,62.6
		c0,1.7,2.2,19.5,5.4,42.8c0.9,6.2,1.7,11.6,2.4,16.1c0.6,4.1,1.1,8.2,1.4,12.4c1.5,29.2,18.3,52,43.8,64.6
		c8,3.9,15.7,8.4,22.8,13.7c24.1,17.9,52.5,28.9,82.9,28.9c21.4,0,41.3-5.8,59.4-15.5C262.8,365.5,264.5,364.9,266.7,364.3
		L266.7,364.3z"/>
	<g>
		<path class="st3" d="M92.5,229.4c-0.8,0-1.5-0.1-2.3-0.4c-4.1-1.3-6.4-5.6-5.1-9.7c5.2-16.8,20.5-28,38.1-28
			c17.3,0,32.6,11.1,37.9,27.5c1.3,4.1-0.9,8.4-5,9.7c-4.1,1.3-8.4-0.9-9.7-5c-3.3-10.1-12.6-16.8-23.2-16.8
			c-10.7,0-20.1,6.9-23.3,17.1C98.8,227.3,95.8,229.4,92.5,229.4L92.5,229.4z"/>
	</g>
	<g>
		<path class="st3" d="M214,229.4c-0.8,0-1.5-0.1-2.3-0.4c-4.1-1.3-6.4-5.6-5.1-9.7c5.2-16.8,20.5-28,38.1-28
			c17.3,0,32.6,11.1,37.9,27.5c1.3,4.1-0.9,8.4-5,9.7c-4.1,1.3-8.4-0.9-9.7-5c-3.3-10.1-12.6-16.8-23.2-16.8
			c-10.7,0-20.1,6.9-23.3,17.1C220.4,227.3,217.3,229.4,214,229.4L214,229.4z"/>
	</g>
	<path class="st4" d="M99.1,126.9c-16.6,11.6-37.3-2.9-37.3-26.2V65.5V30.3C61.8,7,82.5-7.5,99.1,4.1l25,17.6l62.3,43.8l-62.3,43.8
		L99.1,126.9z"/>
	<path class="st4" d="M274.5,4.1c16.6-11.6,37.3,2.9,37.3,26.2v35.2v35.2c0,23.3-20.7,37.8-37.3,26.2l-25-17.6l-62.3-43.8l62.3-43.8
		L274.5,4.1z"/>
	<g>
		<path class="st5" d="M171.8,55.2l-30.4-21.4c-6,8.8-9.5,19.4-9.5,30.8c0,4.4,0.5,8.7,1.5,12.8c0.6,2.4-0.4,5-2.5,6.4l-6.8,4.8
			l-25,17.6c-16.6,11.6-37.3-2.9-37.3-26.2v20.6c0,23.3,20.7,37.8,37.3,26.2l25-17.6l18-12.7l0,0l44.3-31.1L171.8,55.2L171.8,55.2z"
			/>
		<path class="st5" d="M274.5,106.3l-25-17.6l-6.8-4.8c-2.1-1.4-3.1-4-2.5-6.4c1-4.1,1.5-8.4,1.5-12.8c0-11.4-3.5-22-9.5-30.8
			l-30.4,21.4l0,0l-14.7,10.3l44.3,31.1c0,0,0,0,0,0l18,12.7l25,17.6c16.6,11.6,37.3-2.9,37.3-26.2V80
			C311.8,103.3,291.1,117.9,274.5,106.3z"/>
	</g>
	
		<ellipse transform="matrix(0.2298 -0.9732 0.9732 0.2298 81.0033 231.5901)" class="st4" cx="186.8" cy="64.6" rx="39.5" ry="39.5"/>
	<path class="st5" d="M223.1,80.3c-6.1,14-20,23.9-36.3,23.9c-13.2,0-24.9-6.5-32-16.4c-4.7-6.5-16-14.5-16-23.1
		c0-8.1,10.9-15.7,15.1-21.9c4.2-6.3,10.2-11.3,17.2-14.3c-2.1,4.8-3.2,10.1-3.2,15.6c0,21.8,17.7,39.5,39.5,39.5
		C213,83.5,218.3,82.3,223.1,80.3L223.1,80.3z"/>
	<path class="st1" d="M49.9,266.6l-8.3,19.8h-2.5c-13.9-0.5-26.5-9.6-30.8-23.6l-7.2-23.3c-1.8-5.9-1.3-11.9,1.1-17.1l6.1,19.8
		c4.3,14,17,23.1,30.8,23.6L49.9,266.6z"/>
	<g>
		<path class="st6" d="M186.5,369.4c-30.2,0-54.8-24.6-54.8-54.8c0-12,9.7-21.7,21.7-21.7h12.4c4.3,0,7.7,3.5,7.7,7.7
			s-3.5,7.7-7.7,7.7h-12.4c-3.4,0-6.2,2.8-6.2,6.2c0,21.7,17.6,39.4,39.3,39.4c21.7,0,39.3-17.7,39.3-39.4c0-3.4-2.8-6.2-6.2-6.2
			H207c-4.3,0-7.7-3.5-7.7-7.7s3.5-7.7,7.7-7.7h12.6c12,0,21.7,9.7,21.7,21.7C241.2,344.8,216.7,369.4,186.5,369.4L186.5,369.4z"/>
		<path class="st7" d="M173.5,300.6c0,4.3-3.5,7.7-7.7,7.7h-12.4c-1.7,0-3.3,0.7-4.4,1.9c-0.8-3.1-1.2-6.3-1.2-9.6
			c0-2.4,0.2-4.8,0.7-7.1c1.6-0.4,3.3-0.6,5-0.6h12.4C170.1,292.8,173.5,296.3,173.5,300.6z"/>
		<path class="st7" d="M225.2,300.6c0,3.3-0.4,6.5-1.2,9.6c-1.1-1.2-2.7-1.9-4.4-1.9H207c-4.3,0-7.7-3.5-7.7-7.7
			c0-4.3,3.5-7.7,7.7-7.7h12.6c1.7,0,3.4,0.2,5,0.6C225,295.7,225.2,298.1,225.2,300.6z"/>
		<circle class="st8" cx="186.5" cy="300.6" r="28.4"/>
		<path class="st6" d="M212.8,311.4c-4.3,10.3-14.4,17.6-26.3,17.6c-15.7,0-28.4-12.7-28.4-28.4c0-11.8,7.3-22,17.6-26.3
			c-1.4,3.3-2.1,7-2.1,10.8c0,15.7,12.7,28.4,28.4,28.4C205.8,313.5,209.4,312.7,212.8,311.4L212.8,311.4z"/>
	</g>
</g>
</svg>
