<svg id="Laag_1" data-name="Laag 1" xmlns="http://www.w3.org/2000/svg" xmlns:xlink="http://www.w3.org/1999/xlink" viewBox="0 0 595.28 624.17"><defs><style>.cls-1{fill:#b6d592;}.cls-2{fill:url(#Naamloos_verloop_37);}.cls-3{fill:url(#Naamloos_verloop_37-2);}.cls-4{fill:url(#Naamloos_verloop_37-3);}.cls-5{fill:url(#Naamloos_verloop_37-4);}.cls-6{fill:url(#Naamloos_verloop_37-5);}.cls-7{fill:url(#Naamloos_verloop_37-6);}.cls-8{fill:url(#Naamloos_verloop_37-7);}.cls-9{fill:url(#Naamloos_verloop_37-8);}.cls-10{fill:url(#Naamloos_verloop_37-9);}.cls-11{fill:url(#Naamloos_verloop_37-10);}.cls-12{fill:url(#Naamloos_verloop_37-11);}.cls-13{fill:url(#Naamloos_verloop_37-12);}.cls-14{fill:url(#Naamloos_verloop_37-13);}.cls-15{fill:url(#Naamloos_verloop_37-14);}.cls-16{fill:url(#Naamloos_verloop_37-15);}.cls-17{fill:url(#Naamloos_verloop_37-16);}.cls-18{fill:url(#Naamloos_verloop_37-17);}.cls-19{fill:url(#Naamloos_verloop_37-18);}.cls-20{fill:url(#Naamloos_verloop_37-19);}.cls-21{fill:url(#Naamloos_verloop_37-20);}.cls-22{fill:url(#Naamloos_verloop_37-22);}.cls-23{fill:url(#Naamloos_verloop_37-23);}.cls-24{fill:url(#Naamloos_verloop_37-24);}.cls-25{fill:url(#Naamloos_verloop_37-25);}.cls-26{fill:url(#Naamloos_verloop_37-26);}.cls-27{fill:url(#Naamloos_verloop_37-27);}.cls-28{fill:url(#Naamloos_verloop_37-28);}.cls-29{fill:url(#Naamloos_verloop_37-29);}.cls-30{fill:url(#Naamloos_verloop_37-30);}.cls-31{fill:url(#Naamloos_verloop_31);}.cls-32{fill:url(#Naamloos_verloop_37-31);}.cls-33{fill:url(#Naamloos_verloop_36);}.cls-34{fill:url(#Naamloos_verloop_35);}.cls-35{fill:#b6805f;}.cls-36{fill:#a16f51;}.cls-37{fill:#e3aa75;}.cls-38{fill:#cd916e;}.cls-39{fill:#5e5461;}.cls-40{fill:#706672;}.cls-41{fill:#4c404f;}.cls-42{fill:#f7d291;}.cls-43{fill:#877f89;}.cls-44{fill:#b7b2b8;}.cls-45{fill:#b6d79f;}.cls-46{fill:#cee09d;}.cls-47{fill:#cac6ca;}.cls-48{fill:#ef7e88;}.cls-49{fill:#e6656e;}.cls-50{fill:#a8caec;}.cls-51{fill:#8fb3e0;}.cls-52{fill:#f6ba7d;}.cls-53{fill:#ffe1a0;}.cls-54{fill:#dcdadc;}.cls-55{fill:#9d979f;}.cls-56{fill:#edeff1;}.cls-57{fill:#d29b6e;}.cls-58{fill:#795454;}.cls-59{fill:#6f4949;}.cls-60{fill:#ddebf9;}.cls-61{fill:#c6ddf4;}.cls-62{fill:#edebee;}.cls-63{fill:#759bd1;}.cls-64{fill:#f399a1;}.cls-65{fill:#dd4756;}.cls-66{fill:#fff;}.cls-67{fill:#ffe17f;}.cls-68{fill:#fed166;}.cls-69{fill:#fcc251;}.cls-70{fill:#aea8af;}.cls-71{fill:#f0c382;}</style><linearGradient id="Naamloos_verloop_37" x1="33.09" y1="615.79" x2="33.09" y2="610.33" gradientTransform="matrix(4, 0, 0, -4, 316.8, 2611.17)" gradientUnits="userSpaceOnUse"><stop offset="0" stop-color="#f18775"/><stop offset="0.28" stop-color="#ef8372"/><stop offset="0.58" stop-color="#e8776d"/><stop offset="0.88" stop-color="#db6364"/><stop offset="1" stop-color="#d4575f"/></linearGradient><linearGradient id="Naamloos_verloop_37-2" x1="33.48" y1="615.79" x2="33.48" y2="610.33" xlink:href="#Naamloos_verloop_37"/><linearGradient id="Naamloos_verloop_37-3" x1="33.88" y1="615.79" x2="33.88" y2="610.33" xlink:href="#Naamloos_verloop_37"/><linearGradient id="Naamloos_verloop_37-4" x1="34.28" y1="615.79" x2="34.28" y2="610.33" xlink:href="#Naamloos_verloop_37"/><linearGradient id="Naamloos_verloop_37-5" x1="34.67" y1="615.79" x2="34.67" y2="610.33" xlink:href="#Naamloos_verloop_37"/><linearGradient id="Naamloos_verloop_37-6" x1="35.07" y1="615.79" x2="35.07" y2="610.33" xlink:href="#Naamloos_verloop_37"/><linearGradient id="Naamloos_verloop_37-7" x1="35.46" y1="615.79" x2="35.46" y2="610.33" xlink:href="#Naamloos_verloop_37"/><linearGradient id="Naamloos_verloop_37-8" x1="35.79" y1="615.79" x2="35.79" y2="610.33" xlink:href="#Naamloos_verloop_37"/><linearGradient id="Naamloos_verloop_37-9" x1="36.19" y1="615.79" x2="36.19" y2="610.33" xlink:href="#Naamloos_verloop_37"/><linearGradient id="Naamloos_verloop_37-10" x1="36.59" y1="615.79" x2="36.59" y2="610.33" xlink:href="#Naamloos_verloop_37"/><linearGradient id="Naamloos_verloop_37-11" x1="36.98" y1="615.79" x2="36.98" y2="610.33" xlink:href="#Naamloos_verloop_37"/><linearGradient id="Naamloos_verloop_37-12" x1="37.38" y1="615.79" x2="37.38" y2="610.33" xlink:href="#Naamloos_verloop_37"/><linearGradient id="Naamloos_verloop_37-13" x1="37.78" y1="615.79" x2="37.78" y2="610.33" xlink:href="#Naamloos_verloop_37"/><linearGradient id="Naamloos_verloop_37-14" x1="32.76" y1="615.79" x2="32.76" y2="610.33" xlink:href="#Naamloos_verloop_37"/><linearGradient id="Naamloos_verloop_37-15" x1="33.15" y1="615.79" x2="33.15" y2="610.33" xlink:href="#Naamloos_verloop_37"/><linearGradient id="Naamloos_verloop_37-16" x1="33.55" y1="615.79" x2="33.55" y2="610.33" xlink:href="#Naamloos_verloop_37"/><linearGradient id="Naamloos_verloop_37-17" x1="33.94" y1="615.79" x2="33.94" y2="610.33" xlink:href="#Naamloos_verloop_37"/><linearGradient id="Naamloos_verloop_37-18" x1="34.34" y1="615.79" x2="34.34" y2="610.33" xlink:href="#Naamloos_verloop_37"/><linearGradient id="Naamloos_verloop_37-19" x1="34.74" y1="615.79" x2="34.74" y2="610.33" xlink:href="#Naamloos_verloop_37"/><linearGradient id="Naamloos_verloop_37-20" x1="35.13" y1="615.79" x2="35.13" y2="610.33" xlink:href="#Naamloos_verloop_37"/><linearGradient id="Naamloos_verloop_37-22" x1="35.86" y1="615.79" x2="35.86" y2="610.33" xlink:href="#Naamloos_verloop_37"/><linearGradient id="Naamloos_verloop_37-23" x1="36.26" y1="615.79" x2="36.26" y2="610.33" xlink:href="#Naamloos_verloop_37"/><linearGradient id="Naamloos_verloop_37-24" x1="36.65" y1="615.79" x2="36.65" y2="610.33" xlink:href="#Naamloos_verloop_37"/><linearGradient id="Naamloos_verloop_37-25" x1="37.05" y1="615.79" x2="37.05" y2="610.33" xlink:href="#Naamloos_verloop_37"/><linearGradient id="Naamloos_verloop_37-26" x1="37.45" y1="615.79" x2="37.45" y2="610.33" xlink:href="#Naamloos_verloop_37"/><linearGradient id="Naamloos_verloop_37-27" x1="37.84" y1="615.79" x2="37.84" y2="610.33" xlink:href="#Naamloos_verloop_37"/><linearGradient id="Naamloos_verloop_37-28" x1="38.24" y1="615.79" x2="38.24" y2="610.33" xlink:href="#Naamloos_verloop_37"/><linearGradient id="Naamloos_verloop_37-29" x1="38.17" y1="615.79" x2="38.17" y2="610.33" xlink:href="#Naamloos_verloop_37"/><linearGradient id="Naamloos_verloop_37-30" x1="32.69" y1="615.79" x2="32.69" y2="610.33" xlink:href="#Naamloos_verloop_37"/><linearGradient id="Naamloos_verloop_31" x1="35.46" y1="628.44" x2="35.46" y2="603.21" gradientTransform="matrix(4, 0, 0, -4, 316.8, 2611.17)" gradientUnits="userSpaceOnUse"><stop offset="0" stop-color="#f7d1c0"/><stop offset="1" stop-color="#eeae9b"/></linearGradient><linearGradient id="Naamloos_verloop_37-31" x1="35.46" y1="615.51" x2="35.46" y2="612.91" xlink:href="#Naamloos_verloop_37"/><linearGradient id="Naamloos_verloop_36" x1="35.46" y1="616.14" x2="35.46" y2="612.09" gradientTransform="matrix(4, 0, 0, -4, 316.8, 2611.17)" gradientUnits="userSpaceOnUse"><stop offset="0" stop-color="#e3ddcb"/><stop offset="0.67" stop-color="#f5ebde"/></linearGradient><linearGradient id="Naamloos_verloop_35" x1="35.46" y1="622.7" x2="35.46" y2="614.32" gradientTransform="matrix(4, 0, 0, -4, 316.8, 2611.17)" gradientUnits="userSpaceOnUse"><stop offset="0" stop-color="#ac766b"/><stop offset="1" stop-color="#94644e"/></linearGradient></defs><rect class="cls-1" y="0.55" width="595.28" height="623.62"/><path class="cls-2" d="M449.15,117.32a.3.3,0,0,1-.27-.32v-2.57a.27.27,0,1,1,.53,0V117A.3.3,0,0,1,449.15,117.32Z" transform="translate(0 0.55)"/><path class="cls-3" d="M450.73,117.32a.3.3,0,0,1-.26-.32v-2.57a.27.27,0,1,1,.53,0V117A.3.3,0,0,1,450.73,117.32Z" transform="translate(0 0.55)"/><path class="cls-4" d="M452.32,117.32a.3.3,0,0,1-.27-.32v-2.57a.3.3,0,0,1,.27-.32.29.29,0,0,1,.26.32V117A.29.29,0,0,1,452.32,117.32Z" transform="translate(0 0.55)"/><path class="cls-5" d="M453.9,117.32a.3.3,0,0,1-.26-.32v-2.57a.27.27,0,1,1,.53,0V117A.3.3,0,0,1,453.9,117.32Z" transform="translate(0 0.55)"/><path class="cls-6" d="M455.49,117.32a.29.29,0,0,1-.26-.32v-2.57a.29.29,0,0,1,.26-.32.3.3,0,0,1,.27.32V117A.3.3,0,0,1,455.49,117.32Z" transform="translate(0 0.55)"/><path class="cls-7" d="M457.08,117.32a.3.3,0,0,1-.27-.32v-2.57a.27.27,0,1,1,.53,0V117A.3.3,0,0,1,457.08,117.32Z" transform="translate(0 0.55)"/><path class="cls-8" d="M458.66,117.32a.3.3,0,0,1-.26-.32v-2.57a.27.27,0,1,1,.53,0V117A.3.3,0,0,1,458.66,117.32Z" transform="translate(0 0.55)"/><path class="cls-9" d="M460,117.32a.3.3,0,0,1-.26-.32v-2.57a.27.27,0,1,1,.53,0V117A.3.3,0,0,1,460,117.32Z" transform="translate(0 0.55)"/><path class="cls-10" d="M461.57,117.32a.29.29,0,0,1-.26-.32v-2.57a.27.27,0,1,1,.52,0V117A.29.29,0,0,1,461.57,117.32Z" transform="translate(0 0.55)"/><path class="cls-11" d="M463.16,117.32a.3.3,0,0,1-.27-.32v-2.57a.27.27,0,1,1,.53,0V117A.3.3,0,0,1,463.16,117.32Z" transform="translate(0 0.55)"/><path class="cls-12" d="M464.74,117.32a.3.3,0,0,1-.26-.32v-2.57a.27.27,0,1,1,.53,0V117A.3.3,0,0,1,464.74,117.32Z" transform="translate(0 0.55)"/><path class="cls-13" d="M466.33,117.32a.3.3,0,0,1-.27-.32v-2.57a.27.27,0,1,1,.53,0V117A.3.3,0,0,1,466.33,117.32Z" transform="translate(0 0.55)"/><path class="cls-14" d="M467.91,117.32a.3.3,0,0,1-.26-.32v-2.57a.27.27,0,1,1,.53,0V117A.3.3,0,0,1,467.91,117.32Z" transform="translate(0 0.55)"/><path class="cls-15" d="M447.83,154.52a.3.3,0,0,1-.27-.32v-2.57a.27.27,0,1,1,.53,0v2.57A.3.3,0,0,1,447.83,154.52Z" transform="translate(0 0.55)"/><path class="cls-16" d="M449.41,154.52a.3.3,0,0,1-.26-.32v-2.57a.27.27,0,1,1,.53,0v2.57A.3.3,0,0,1,449.41,154.52Z" transform="translate(0 0.55)"/><path class="cls-17" d="M451,154.52a.3.3,0,0,1-.27-.32v-2.57a.27.27,0,1,1,.53,0v2.57A.3.3,0,0,1,451,154.52Z" transform="translate(0 0.55)"/><path class="cls-18" d="M452.58,154.52a.3.3,0,0,1-.26-.32v-2.57a.27.27,0,1,1,.53,0v2.57A.3.3,0,0,1,452.58,154.52Z" transform="translate(0 0.55)"/><path class="cls-19" d="M454.17,154.52a.3.3,0,0,1-.27-.32v-2.57a.3.3,0,0,1,.27-.32.29.29,0,0,1,.26.32v2.57A.29.29,0,0,1,454.17,154.52Z" transform="translate(0 0.55)"/><path class="cls-20" d="M455.76,154.52a.3.3,0,0,1-.27-.32v-2.57a.27.27,0,1,1,.53,0v2.57A.3.3,0,0,1,455.76,154.52Z" transform="translate(0 0.55)"/><path class="cls-21" d="M457.34,154.52a.29.29,0,0,1-.26-.32v-2.57a.29.29,0,0,1,.26-.32.3.3,0,0,1,.27.32v2.57A.3.3,0,0,1,457.34,154.52Z" transform="translate(0 0.55)"/><path class="cls-8" d="M458.66,154.52a.3.3,0,0,1-.26-.32v-2.57a.27.27,0,1,1,.53,0v2.57A.3.3,0,0,1,458.66,154.52Z" transform="translate(0 0.55)"/><path class="cls-22" d="M460.25,154.52a.3.3,0,0,1-.27-.32v-2.57a.27.27,0,1,1,.53,0v2.57A.3.3,0,0,1,460.25,154.52Z" transform="translate(0 0.55)"/><path class="cls-23" d="M461.83,154.52a.3.3,0,0,1-.26-.32v-2.57a.27.27,0,1,1,.53,0v2.57A.3.3,0,0,1,461.83,154.52Z" transform="translate(0 0.55)"/><path class="cls-24" d="M463.42,154.52a.29.29,0,0,1-.26-.32v-2.57a.27.27,0,1,1,.52,0v2.57A.29.29,0,0,1,463.42,154.52Z" transform="translate(0 0.55)"/><path class="cls-25" d="M465,154.52a.3.3,0,0,1-.27-.32v-2.57a.27.27,0,1,1,.53,0v2.57A.3.3,0,0,1,465,154.52Z" transform="translate(0 0.55)"/><path class="cls-26" d="M466.59,154.52a.3.3,0,0,1-.26-.32v-2.57a.27.27,0,1,1,.53,0v2.57A.3.3,0,0,1,466.59,154.52Z" transform="translate(0 0.55)"/><path class="cls-27" d="M468.18,154.52a.3.3,0,0,1-.27-.32v-2.57a.27.27,0,1,1,.53,0v2.57A.3.3,0,0,1,468.18,154.52Z" transform="translate(0 0.55)"/><path class="cls-28" d="M469.76,154.52a.3.3,0,0,1-.26-.32v-2.57a.27.27,0,1,1,.53,0v2.57A.3.3,0,0,1,469.76,154.52Z" transform="translate(0 0.55)"/><path class="cls-29" d="M469.5,117.32a.3.3,0,0,1-.27-.32v-2.57a.27.27,0,1,1,.53,0V117A.3.3,0,0,1,469.5,117.32Z" transform="translate(0 0.55)"/><path class="cls-30" d="M447.56,117.32a.3.3,0,0,1-.26-.32v-2.57a.27.27,0,1,1,.53,0V117A.3.3,0,0,1,447.56,117.32Z" transform="translate(0 0.55)"/><path class="cls-31" d="M469.5,152.59H447.83a.89.89,0,0,1-.8-1V117a.9.9,0,0,1,.8-1H469.5a.9.9,0,0,1,.79,1v34.63A.89.89,0,0,1,469.5,152.59Z" transform="translate(0 0.55)"/><path class="cls-32" d="M470.29,122.45H447v-3.21h23.26Z" transform="translate(0 0.55)"/><path class="cls-33" d="M470.29,149.38H447v-3.2h23.26Z" transform="translate(0 0.55)"/><path class="cls-34" d="M470.29,126.62H447v-1.93h23.26Z" transform="translate(0 0.55)"/><path class="cls-34" d="M470.29,143.93H447V142h23.26Z" transform="translate(0 0.55)"/><path class="cls-33" d="M470.29,132.71H447v-4.17h23.26Z" transform="translate(0 0.55)"/><path class="cls-32" d="M470.29,140.08H447v-4.16h23.26Z" transform="translate(0 0.55)"/><polygon class="cls-35" points="389.04 304.85 389.04 152.78 376.34 152.78 376.34 316.33 557.31 316.33 557.31 304.85 389.04 304.85"/><polygon class="cls-36" points="382.69 310.57 382.69 152.22 376.34 152.22 376.34 316.33 557.31 316.33 557.31 310.57 382.69 310.57"/><path class="cls-37" d="M389,299.91h-12.7a3.17,3.17,0,0,0-3.17,3.17v12.7a3.17,3.17,0,0,0,3.17,3.18H389a3.18,3.18,0,0,0,3.18-3.18v-12.7A3.17,3.17,0,0,0,389,299.91Z" transform="translate(0 0.55)"/><path class="cls-38" d="M379.52,306.26v-6.35h-3.18a3.17,3.17,0,0,0-3.17,3.17v12.7a3.17,3.17,0,0,0,3.17,3.18H389a3.18,3.18,0,0,0,3.18-3.18v-3.17h-6.35A6.35,6.35,0,0,1,379.52,306.26Z" transform="translate(0 0.55)"/><path class="cls-37" d="M566.83,299.91H554.14a3.17,3.17,0,0,0-3.18,3.17v12.7a3.18,3.18,0,0,0,3.18,3.18h12.69a3.18,3.18,0,0,0,3.18-3.18v-12.7A3.17,3.17,0,0,0,566.83,299.91Z" transform="translate(0 0.55)"/><path class="cls-38" d="M557.31,306.26v-6.35h-3.17a3.17,3.17,0,0,0-3.18,3.17v12.7a3.18,3.18,0,0,0,3.18,3.18h12.69a3.18,3.18,0,0,0,3.18-3.18v-3.17h-6.35A6.35,6.35,0,0,1,557.31,306.26Z" transform="translate(0 0.55)"/><rect class="cls-39" x="520.97" y="69.28" width="3.63" height="1.45"/><rect class="cls-39" x="505.73" y="69.28" width="3.63" height="1.45"/><path class="cls-40" d="M523.87,65.83v5.81a.73.73,0,0,0,1.45,0V65.83Z" transform="translate(0 0.55)"/><rect class="cls-39" x="523.87" y="66.38" width="1.45" height="2.18"/><path class="cls-40" d="M505,65.83v5.81a.72.72,0,0,0,.72.72.73.73,0,0,0,.73-.72V65.83Z" transform="translate(0 0.55)"/><rect class="cls-39" x="505.01" y="66.38" width="1.45" height="2.18"/><rect class="cls-39" x="514.44" y="72.91" width="1.45" height="4.35"/><rect class="cls-41" x="514.44" y="72.91" width="1.45" height="2.18"/><path class="cls-40" d="M508.63,66.56v5.08a1.45,1.45,0,0,0,1.45,1.45h10.16a1.45,1.45,0,0,0,1.45-1.45V66.56Z" transform="translate(0 0.55)"/><path class="cls-40" d="M507.91,77a1,1,0,0,0,.59.92,23.12,23.12,0,0,0,13.32,0,1,1,0,0,0,.6-.92h0a1,1,0,0,0-1-1h-12.5a1,1,0,0,0-1,1Z" transform="translate(0 0.55)"/><rect class="cls-39" x="508.63" y="67.1" width="13.06" height="1.45"/><path class="cls-42" d="M499.2,55V65.11a1.45,1.45,0,0,0,1.45,1.45h26.12a4.36,4.36,0,0,1,4.36,4.35V81.07a1.44,1.44,0,0,0,1.45,1.45h10.15a1.44,1.44,0,0,0,1.45-1.45V55a1.44,1.44,0,0,0-1.45-1.45H500.65A1.45,1.45,0,0,0,499.2,55Z" transform="translate(0 0.55)"/><circle class="cls-43" cx="503.55" cy="59.85" r="1.45"/><path class="cls-39" d="M521.69,55.67H508.63l-1.27-6.38a.72.72,0,0,1,.71-.87h14.19a.72.72,0,0,1,.71.87Z" transform="translate(0 0.55)"/><path class="cls-44" d="M520.24,63.65H510.08a1.45,1.45,0,0,1-1.45-1.45V55.67h13.06V62.2A1.44,1.44,0,0,1,520.24,63.65Z" transform="translate(0 0.55)"/><path class="cls-43" d="M518.79,60h-7.25a.73.73,0,0,1-.73-.73V55.67h8.71V59.3A.73.73,0,0,1,518.79,60Z" transform="translate(0 0.55)"/><path class="cls-45" d="M534.12,63.93a.38.38,0,0,1-.28-.28,2.4,2.4,0,0,1,3.07-2.79,2.39,2.39,0,0,1-2.79,3.07Z" transform="translate(0 0.55)"/><path class="cls-45" d="M536.91,60.86a2.4,2.4,0,0,1,2.79-3.07.35.35,0,0,1,.28.28,2.4,2.4,0,0,1-.64,2.2A2.46,2.46,0,0,1,536.91,60.86Z" transform="translate(0 0.55)"/><path class="cls-46" d="M533.33,57.56a.36.36,0,0,1,.29-.29,2.88,2.88,0,0,1,3.29,3.59,2.87,2.87,0,0,1-3.58-3.3Z" transform="translate(0 0.55)"/><path class="cls-46" d="M536.91,60.86a2.87,2.87,0,0,1,3.59,3.3.36.36,0,0,1-.29.29,2.89,2.89,0,0,1-3.3-3.59Z" transform="translate(0 0.55)"/><path class="cls-41" d="M520.24,55.67H510.08l-.62-5a.72.72,0,0,1,.72-.81h10a.73.73,0,0,1,.72.81Z" transform="translate(0 0.55)"/><path class="cls-47" d="M540.92,78.17h-3.63a.37.37,0,0,1-.36-.37V72.72a.36.36,0,0,1,.36-.36h3.63a.36.36,0,0,1,.36.36V77.8A.37.37,0,0,1,540.92,78.17Z" transform="translate(0 0.55)"/><path class="cls-44" d="M538.38,72.36h-1.09a.36.36,0,0,0-.36.36V77.8a.37.37,0,0,0,.36.37h1.09Z" transform="translate(0 0.55)"/><path class="cls-48" d="M543.82,73.81h-3.63a.36.36,0,0,1-.36-.36V68.37a.36.36,0,0,1,.36-.36h3.63a.37.37,0,0,1,.37.36v5.08A.37.37,0,0,1,543.82,73.81Z" transform="translate(0 0.55)"/><path class="cls-49" d="M541.28,68h-1.09a.36.36,0,0,0-.36.36v5.08a.36.36,0,0,0,.36.36h1.09Z" transform="translate(0 0.55)"/><path class="cls-50" d="M528.59,57.85H525a.36.36,0,0,1-.36-.36V53.13a.36.36,0,0,1,.36-.36h3.63a.36.36,0,0,1,.36.36v4.36A.36.36,0,0,1,528.59,57.85Z" transform="translate(0 0.55)"/><path class="cls-51" d="M526.05,52.77H525a.36.36,0,0,0-.36.36v4.36a.36.36,0,0,0,.36.36h1.09Z" transform="translate(0 0.55)"/><path class="cls-52" d="M526.77,65.11H505a4.36,4.36,0,0,1-4.36-4.36V53.5h0A1.45,1.45,0,0,0,499.2,55V65.11a1.45,1.45,0,0,0,1.45,1.45h26.12a4.36,4.36,0,0,1,4.36,4.35V81.07a1.44,1.44,0,0,0,1.45,1.45h0V70.91A5.8,5.8,0,0,0,526.77,65.11Z" transform="translate(0 0.55)"/><rect class="cls-39" x="473.91" y="226.33" width="3.34" height="1.34"/><rect class="cls-39" x="459.89" y="226.33" width="3.34" height="1.34"/><path class="cls-40" d="M477.91,229.79v-5.34a.66.66,0,0,0-.66-.67.67.67,0,0,0-.67.67v5.34Z" transform="translate(0 0.55)"/><rect class="cls-39" x="476.58" y="228.33" width="1.34" height="2"/><path class="cls-40" d="M460.55,229.79v-5.34a.66.66,0,0,0-.66-.67.67.67,0,0,0-.67.67v5.34Z" transform="translate(0 0.55)"/><rect class="cls-39" x="459.22" y="228.33" width="1.34" height="2"/><rect class="cls-39" x="467.9" y="220.32" width="1.34" height="4.01"/><rect class="cls-41" x="467.9" y="222.32" width="1.34" height="2"/><path class="cls-53" d="M489.26,231.12v13.36a2,2,0,0,1-2,2H449.87a2,2,0,0,1-2-2V231.12a2,2,0,0,1,2-2h37.39A2,2,0,0,1,489.26,231.12Z" transform="translate(0 0.55)"/><path class="cls-54" d="M477,247.18l-1.52-4.06a1,1,0,0,0-.94-.65h-12a1,1,0,0,0-.93.65l-1.53,4.06a.47.47,0,0,0,.44.63h16A.47.47,0,0,0,477,247.18Z" transform="translate(0 0.55)"/><path class="cls-54" d="M471.24,242.47v-1.33a1.34,1.34,0,0,0-1.34-1.34h-2.67a1.33,1.33,0,0,0-1.33,1.34v1.33Z" transform="translate(0 0.55)"/><path class="cls-40" d="M471.24,234.46v2a.67.67,0,0,1-.67.67h-8a.67.67,0,0,1-.67-.67v-2a.67.67,0,0,1,.67-.67h8A.67.67,0,0,1,471.24,234.46Z" transform="translate(0 0.55)"/><path class="cls-40" d="M476.58,235.13v.67a1.34,1.34,0,0,1-1.34,1.33h0a1.34,1.34,0,0,1-1.33-1.33v-.67a1.34,1.34,0,0,1,1.33-1.34h0A1.34,1.34,0,0,1,476.58,235.13Z" transform="translate(0 0.55)"/><path class="cls-40" d="M474.58,229.12v-4.67a1.34,1.34,0,0,0-1.34-1.34h-9.35a1.34,1.34,0,0,0-1.33,1.34v4.67Z" transform="translate(0 0.55)"/><path class="cls-40" d="M461.89,219.52a.92.92,0,0,0,.92.92h11.51a.92.92,0,0,0,.92-.92h0a.92.92,0,0,0-.54-.85,21.33,21.33,0,0,0-12.26,0,.91.91,0,0,0-.55.85Z" transform="translate(0 0.55)"/><path class="cls-45" d="M454,237.57a1.31,1.31,0,1,1-2.28-.33A.33.33,0,0,1,452,237,2.23,2.23,0,0,1,454,237.57Z" transform="translate(0 0.55)"/><path class="cls-45" d="M456.78,240.35a2.23,2.23,0,0,1,.59,2,.33.33,0,0,1-.26.26,2.06,2.06,0,1,1-.33-2.28Z" transform="translate(0 0.55)"/><path class="cls-46" d="M452,240.48a1.54,1.54,0,1,1,1.88,1.89,2.64,2.64,0,0,1-2.35.73.34.34,0,0,1-.27-.26A2.68,2.68,0,0,1,452,240.48Z" transform="translate(0 0.55)"/><path class="cls-46" d="M455.23,237.23a2.64,2.64,0,0,1,2.35-.73.36.36,0,0,1,.27.27,2.67,2.67,0,0,1-.73,2.35,1.54,1.54,0,1,1-1.89-1.89Z" transform="translate(0 0.55)"/><path class="cls-42" d="M455.88,230.46h33.27a2,2,0,0,0-1.89-1.34H449.87a2,2,0,0,0-2,2v13.36a2,2,0,0,0,1.33,1.89v-9.24a6.67,6.67,0,0,1,6.68-6.67Z" transform="translate(0 0.55)"/><path class="cls-41" d="M475.13,245.92l-.45-2.24a.66.66,0,0,0-.65-.54H463.11a.68.68,0,0,0-.66.54l-.45,2.24a.47.47,0,0,0,.46.56h12.21A.47.47,0,0,0,475.13,245.92Z" transform="translate(0 0.55)"/><rect class="cls-47" x="465.9" y="241.69" width="5.34" height="1.34"/><path class="cls-39" d="M471.24,234.46v.67h-9.35v-.67a.67.67,0,0,1,.67-.67h8A.67.67,0,0,1,471.24,234.46Z" transform="translate(0 0.55)"/><path class="cls-39" d="M476.53,236.13a1.26,1.26,0,0,0,.05-.33v-.67a1.34,1.34,0,1,0-2.67,0v.67a1.26,1.26,0,0,0,0,.33,1.33,1.33,0,0,1,2.57,0Z" transform="translate(0 0.55)"/><path class="cls-48" d="M486.59,238.8v4.67a.34.34,0,0,1-.33.34h-3.34a.34.34,0,0,1-.33-.34V238.8a.33.33,0,0,1,.33-.33h3.34A.33.33,0,0,1,486.59,238.8Z" transform="translate(0 0.55)"/><path class="cls-49" d="M483.92,238.47h-1a.33.33,0,0,0-.33.33v4.67a.34.34,0,0,0,.33.34h1Z" transform="translate(0 0.55)"/><path class="cls-44" d="M483.92,236.13v4.67a.34.34,0,0,1-.33.34h-3.34a.34.34,0,0,1-.33-.34v-4.67a.33.33,0,0,1,.33-.33h3.34A.33.33,0,0,1,483.92,236.13Z" transform="translate(0 0.55)"/><path class="cls-55" d="M481.25,235.8h-1a.33.33,0,0,0-.33.33v4.67a.34.34,0,0,0,.33.34h1Z" transform="translate(0 0.55)"/><rect class="cls-39" x="462.56" y="228.33" width="12.02" height="1.34"/><rect class="cls-39" x="522.65" y="157.12" width="1.37" height="3.42"/><rect class="cls-39" x="522.65" y="171.48" width="1.37" height="3.42"/><path class="cls-40" d="M526.76,155.89h-5.47a.69.69,0,1,0,0,1.37h5.47Z" transform="translate(0 0.55)"/><rect class="cls-39" x="524.71" y="156.44" width="2.05" height="1.37"/><path class="cls-40" d="M526.76,173.67h-5.47a.69.69,0,1,0,0,1.37h5.47Z" transform="translate(0 0.55)"/><rect class="cls-39" x="524.71" y="174.22" width="2.05" height="1.37"/><rect class="cls-39" x="516.5" y="165.33" width="4.1" height="1.37"/><rect class="cls-41" x="516.73" y="163.83" width="2.19" height="1.46"/><path class="cls-53" d="M528.13,144.26H541.8a2,2,0,0,1,2.05,2.06v38.29a2,2,0,0,1-2.05,2H528.13a2.05,2.05,0,0,1-2.06-2V146.32A2.06,2.06,0,0,1,528.13,144.26Z" transform="translate(0 0.55)"/><path class="cls-54" d="M544.57,156.82l-4.15,1.56a1,1,0,0,0-.67,1v12.25a1,1,0,0,0,.67,1l4.15,1.56a.48.48,0,0,0,.65-.45v-16.4A.48.48,0,0,0,544.57,156.82Z" transform="translate(0 0.55)"/><path class="cls-54" d="M539.75,162.73h-1.37A1.36,1.36,0,0,0,537,164.1v2.73a1.36,1.36,0,0,0,1.36,1.37h1.37Z" transform="translate(0 0.55)"/><path class="cls-40" d="M531.54,162.73h2.06a.68.68,0,0,1,.68.68v8.21a.68.68,0,0,1-.68.68h-2.06a.68.68,0,0,1-.68-.68v-8.21A.68.68,0,0,1,531.54,162.73Z" transform="translate(0 0.55)"/><path class="cls-40" d="M532.23,157.26h.68a1.36,1.36,0,0,1,1.37,1.36h0a1.37,1.37,0,0,1-1.37,1.37h-.68a1.37,1.37,0,0,1-1.37-1.37h0A1.36,1.36,0,0,1,532.23,157.26Z" transform="translate(0 0.55)"/><path class="cls-40" d="M526.07,159.31h-4.78a1.37,1.37,0,0,0-1.37,1.37v9.57a1.37,1.37,0,0,0,1.37,1.37h4.78Z" transform="translate(0 0.55)"/><path class="cls-40" d="M516.24,172.3a.94.94,0,0,0,.94-.94V159.57a1,1,0,0,0-.94-.95h0a1,1,0,0,0-.87.56,21.89,21.89,0,0,0,0,12.56.93.93,0,0,0,.87.56Z" transform="translate(0 0.55)"/><path class="cls-45" d="M534.73,180.38a1.38,1.38,0,1,1,1.73,1.73,2.28,2.28,0,0,1-2.07.61.36.36,0,0,1-.27-.27A2.28,2.28,0,0,1,534.73,180.38Z" transform="translate(0 0.55)"/><path class="cls-45" d="M537.57,177.54a2.28,2.28,0,0,1,2.07-.61.34.34,0,0,1,.27.26,2.11,2.11,0,1,1-2.34.35Z" transform="translate(0 0.55)"/><path class="cls-46" d="M537.71,182.46a2.72,2.72,0,0,1-.69-2.64,2.71,2.71,0,0,1,3.38,3.11.37.37,0,0,1-.28.28A2.74,2.74,0,0,1,537.71,182.46Z" transform="translate(0 0.55)"/><path class="cls-46" d="M534.38,179.13a2.75,2.75,0,0,1-.75-2.41.37.37,0,0,1,.28-.28,2.71,2.71,0,0,1,3.11,3.38A2.74,2.74,0,0,1,534.38,179.13Z" transform="translate(0 0.55)"/><path class="cls-42" d="M527.44,178.46V144.38a2,2,0,0,0-1.37,1.94v38.29a2.05,2.05,0,0,0,2.06,2H541.8a2.05,2.05,0,0,0,1.94-1.37h-9.46a6.83,6.83,0,0,1-6.84-6.83Z" transform="translate(0 0.55)"/><path class="cls-41" d="M543.28,158.74l-2.3.46a.68.68,0,0,0-.55.67v11.19a.69.69,0,0,0,.55.67l2.3.46a.48.48,0,0,0,.57-.47V159.21A.48.48,0,0,0,543.28,158.74Z" transform="translate(0 0.55)"/><rect class="cls-47" x="538.38" y="163.28" width="1.37" height="5.47"/><path class="cls-39" d="M531.54,162.73h.69v9.57h-.69a.68.68,0,0,1-.68-.68v-8.21A.68.68,0,0,1,531.54,162.73Z" transform="translate(0 0.55)"/><path class="cls-39" d="M533.25,157.31a1.27,1.27,0,0,0-.34-.05h-.68a1.37,1.37,0,1,0,0,2.73h.68a1.27,1.27,0,0,0,.34-.05,1.36,1.36,0,0,1,0-2.63Z" transform="translate(0 0.55)"/><path class="cls-48" d="M536,147h4.79a.34.34,0,0,1,.34.34v3.42a.34.34,0,0,1-.34.34H536a.34.34,0,0,1-.34-.34v-3.42A.34.34,0,0,1,536,147Z" transform="translate(0 0.55)"/><path class="cls-49" d="M535.65,149.73v1a.34.34,0,0,0,.34.34h4.79a.34.34,0,0,0,.34-.34v-1Z" transform="translate(0 0.55)"/><path class="cls-44" d="M533.25,149.73H538a.35.35,0,0,1,.34.35v3.42a.34.34,0,0,1-.34.34h-4.79a.35.35,0,0,1-.34-.34v-3.42A.35.35,0,0,1,533.25,149.73Z" transform="translate(0 0.55)"/><path class="cls-55" d="M532.91,152.47v1a.35.35,0,0,0,.34.34H538a.34.34,0,0,0,.34-.34v-1Z" transform="translate(0 0.55)"/><rect class="cls-39" x="524.71" y="159.86" width="1.37" height="12.31"/><path class="cls-1" d="M426.79,351.66h115.1V565.82H426.79Z" transform="translate(0 0.55)"/><path class="cls-56" d="M425.41,351.66V565.82H541.89V351.66Zm113,8.87a6.38,6.38,0,0,1-3.14-4.23h3.14Zm-42.73-4.23v11.12H471.59V356.3Zm-27.57,0v15.76h31V356.3h11.72v32.44H456.43V356.3Zm29.23,37.08c-2.65,6.77-7.9,11.12-13.72,11.12s-11.07-4.35-13.72-11.12Zm-31.23,0c2.91,9.49,9.79,15.76,17.51,15.76s14.6-6.27,17.51-15.76h13.16V356.3h17.41c.68,4.53,3.34,8.11,6.71,9v91.09H499.06c-.86-10.41-7.44-18.54-15.41-18.54S469.1,446,468.24,456.42H428.86V365.33c3.37-.92,6-4.5,6.72-9H453v37.08Zm5.57,63c.84-7.85,5.87-13.91,11.94-13.91s11.1,6.06,11.94,13.91Zm23.88,4.64c-.84,7.85-5.87,13.9-11.94,13.9s-11.1-6-11.94-13.9ZM432,356.3a6.38,6.38,0,0,1-3.14,4.23V356.3ZM428.86,557a6.38,6.38,0,0,1,3.14,4.23h-3.14Zm42.73,4.23V550.06h24.12v11.12Zm27.57,0V545.42h-31v15.76H456.43V528.73h54.45v32.45ZM469.93,524.1c2.65-6.77,7.9-11.13,13.72-11.13s11.07,4.36,13.72,11.13Zm31.23,0c-2.91-9.49-9.79-15.76-17.51-15.76s-14.6,6.27-17.51,15.76H453v37.08h-17.4c-.69-4.53-3.35-8.11-6.72-9V461.06h39.38c.86,10.41,7.44,18.54,15.41,18.54s14.55-8.13,15.41-18.54h39.38v91.08c-3.37.93-6,4.51-6.71,9H514.32V524.1Zm34.14,37.08a6.38,6.38,0,0,1,3.14-4.23v4.23Z" transform="translate(0 0.55)"/><path class="cls-37" d="M420.24,155.28v91.15a3.13,3.13,0,0,1-3.14,3.14H398.24a3.14,3.14,0,0,1-3.14-3.14V155.28a3.15,3.15,0,0,1,3.14-3.14H417.1A3.14,3.14,0,0,1,420.24,155.28Z" transform="translate(0 0.55)"/><path class="cls-57" d="M415.53,246.43H395.1a3.14,3.14,0,0,0,3.14,3.14H417.1a3.13,3.13,0,0,0,3.14-3.14V155.28a3.14,3.14,0,0,0-3.14-3.14v92.72A1.57,1.57,0,0,1,415.53,246.43Z" transform="translate(0 0.55)"/><path class="cls-58" d="M417.1,156.86v88a1.57,1.57,0,0,1-1.57,1.57H399.81a1.57,1.57,0,0,1-1.57-1.57v-88a1.58,1.58,0,0,1,1.57-1.58h15.72A1.57,1.57,0,0,1,417.1,156.86Z" transform="translate(0 0.55)"/><rect class="cls-59" x="401.39" y="158.97" width="12.57" height="84.86"/><path class="cls-46" d="M417.1,226a16.38,16.38,0,0,0,4.53-8.33.78.78,0,0,0-.91-.91,16.71,16.71,0,0,0-13.05,14A16.36,16.36,0,0,0,417.1,226Z" transform="translate(0 0.55)"/><path class="cls-46" d="M403,240.14a16.32,16.32,0,0,0,4.71-9.42,16.32,16.32,0,0,0-9.43,4.71,16.5,16.5,0,0,0-4.53,8.33.79.79,0,0,0,.92.92A16.56,16.56,0,0,0,403,240.14Z" transform="translate(0 0.55)"/><path class="cls-45" d="M410.36,237.46a9.32,9.32,0,0,0,5.88,2.65.77.77,0,0,0,.82-.83,9.28,9.28,0,0,0-2.64-5.88,9.4,9.4,0,0,0-6.75-2.68A9.44,9.44,0,0,0,410.36,237.46Z" transform="translate(0 0.55)"/><path class="cls-45" d="M400.93,228a9.44,9.44,0,0,0,6.74,2.69,9.14,9.14,0,0,0-8.57-9.4.78.78,0,0,0-.82.83A9.24,9.24,0,0,0,400.93,228Z" transform="translate(0 0.55)"/><circle class="cls-46" cx="407.67" cy="231.26" r="1.57"/><path class="cls-46" d="M417.1,196.14a16.38,16.38,0,0,0,4.53-8.33.78.78,0,0,0-.91-.91,16.71,16.71,0,0,0-13.05,14A16.36,16.36,0,0,0,417.1,196.14Z" transform="translate(0 0.55)"/><path class="cls-46" d="M403,210.29a16.38,16.38,0,0,0,4.71-9.43,16.69,16.69,0,0,0-14,13,.79.79,0,0,0,.92.92A16.54,16.54,0,0,0,403,210.29Z" transform="translate(0 0.55)"/><path class="cls-45" d="M410.36,207.6a9.22,9.22,0,0,0,5.88,2.65.77.77,0,0,0,.82-.83,9.3,9.3,0,0,0-2.64-5.88,9.4,9.4,0,0,0-6.75-2.68A9.44,9.44,0,0,0,410.36,207.6Z" transform="translate(0 0.55)"/><path class="cls-45" d="M400.93,198.17a9.44,9.44,0,0,0,6.74,2.69,9.44,9.44,0,0,0-2.68-6.75,9.3,9.3,0,0,0-5.89-2.64.77.77,0,0,0-.82.82A9.22,9.22,0,0,0,400.93,198.17Z" transform="translate(0 0.55)"/><circle class="cls-46" cx="407.67" cy="201.41" r="1.57"/><path class="cls-46" d="M417.1,166.28a16.38,16.38,0,0,0,4.53-8.33.78.78,0,0,0-.91-.91,16.71,16.71,0,0,0-13.05,14A16.36,16.36,0,0,0,417.1,166.28Z" transform="translate(0 0.55)"/><path class="cls-46" d="M403,180.43a16.38,16.38,0,0,0,4.71-9.43,16.69,16.69,0,0,0-14,13,.79.79,0,0,0,.92.92A16.54,16.54,0,0,0,403,180.43Z" transform="translate(0 0.55)"/><path class="cls-45" d="M410.36,177.74a9.22,9.22,0,0,0,5.88,2.65.77.77,0,0,0,.82-.82,9.3,9.3,0,0,0-2.64-5.89,9.44,9.44,0,0,0-6.75-2.68A9.44,9.44,0,0,0,410.36,177.74Z" transform="translate(0 0.55)"/><path class="cls-45" d="M400.93,168.31a9.44,9.44,0,0,0,6.74,2.69,9.44,9.44,0,0,0-2.68-6.75,9.3,9.3,0,0,0-5.89-2.64.77.77,0,0,0-.82.82A9.22,9.22,0,0,0,400.93,168.31Z" transform="translate(0 0.55)"/><circle class="cls-46" cx="407.67" cy="171.55" r="1.57"/><path class="cls-37" d="M389,151.11h-12.7a3.17,3.17,0,0,0-3.17,3.18V167a3.17,3.17,0,0,0,3.17,3.17H389a3.17,3.17,0,0,0,3.18-3.17v-12.7A3.18,3.18,0,0,0,389,151.11Z" transform="translate(0 0.55)"/><path class="cls-38" d="M379.52,157.46v-6.35h-3.18a3.17,3.17,0,0,0-3.17,3.18V167a3.17,3.17,0,0,0,3.17,3.17H389a3.17,3.17,0,0,0,3.18-3.17v-3.18h-6.35A6.35,6.35,0,0,1,379.52,157.46Z" transform="translate(0 0.55)"/><path class="cls-35" d="M377.48-.5V111.6H389V-.55C385.2.08,381.31-.27,377.48-.5Z" transform="translate(0 0.55)"/><path class="cls-36" d="M377.2-.51V111.6H383V-.21C381-.26,379.11-.4,377.2-.51Z" transform="translate(0 0.55)"/><path class="cls-37" d="M389.73,101.54H377a3.17,3.17,0,0,0-3.17,3.17v12.7a3.17,3.17,0,0,0,3.17,3.18h12.7a3.18,3.18,0,0,0,3.18-3.18v-12.7A3.17,3.17,0,0,0,389.73,101.54Z" transform="translate(0 0.55)"/><path class="cls-38" d="M380.21,107.89v-6.35H377a3.17,3.17,0,0,0-3.17,3.17v12.7a3.17,3.17,0,0,0,3.17,3.18h12.7a3.18,3.18,0,0,0,3.18-3.18v-3.17h-6.35A6.35,6.35,0,0,1,380.21,107.89Z" transform="translate(0 0.55)"/><path class="cls-37" d="M389.57,25.85h-12.7A3.17,3.17,0,0,0,373.69,29v12.7a3.18,3.18,0,0,0,3.18,3.18h12.7a3.17,3.17,0,0,0,3.17-3.18V29A3.17,3.17,0,0,0,389.57,25.85Z" transform="translate(0 0.55)"/><path class="cls-38" d="M380,32.2V25.85h-3.17A3.17,3.17,0,0,0,373.69,29v12.7a3.18,3.18,0,0,0,3.18,3.18h12.7a3.17,3.17,0,0,0,3.17-3.18V38.55h-6.35A6.35,6.35,0,0,1,380,32.2Z" transform="translate(0 0.55)"/><path class="cls-37" d="M420.24,29.55V116a3.06,3.06,0,0,1-3.14,3H398.24a3.07,3.07,0,0,1-3.14-3V29.55a3.07,3.07,0,0,1,3.14-3H417.1A3.06,3.06,0,0,1,420.24,29.55Z" transform="translate(0 0.55)"/><path class="cls-57" d="M415.53,116H395.1a3.07,3.07,0,0,0,3.14,3H417.1a3.06,3.06,0,0,0,3.14-3V29.55a3.06,3.06,0,0,0-3.14-3v87.92A1.53,1.53,0,0,1,415.53,116Z" transform="translate(0 0.55)"/><path class="cls-58" d="M417.1,31v83.45a1.53,1.53,0,0,1-1.57,1.49H399.81a1.54,1.54,0,0,1-1.57-1.49V31a1.54,1.54,0,0,1,1.57-1.49h15.72A1.53,1.53,0,0,1,417.1,31Z" transform="translate(0 0.55)"/><rect class="cls-59" x="401.39" y="33.08" width="12.57" height="80.46"/><path class="cls-46" d="M417.1,96.61a15.35,15.35,0,0,0,4.53-7.9.76.76,0,0,0-.91-.87,16.73,16.73,0,0,0-8.33,4.3,15.24,15.24,0,0,0-4.72,8.94A16.73,16.73,0,0,0,417.1,96.61Z" transform="translate(0 0.55)"/><path class="cls-46" d="M403,110a15.23,15.23,0,0,0,4.71-8.94,16.69,16.69,0,0,0-9.43,4.47,15.42,15.42,0,0,0-4.53,7.9.76.76,0,0,0,.92.86A16.8,16.8,0,0,0,403,110Z" transform="translate(0 0.55)"/><path class="cls-45" d="M410.36,107.47a9.48,9.48,0,0,0,5.88,2.51.75.75,0,0,0,.82-.78,8.6,8.6,0,0,0-2.64-5.58,9.76,9.76,0,0,0-6.75-2.54A8.7,8.7,0,0,0,410.36,107.47Z" transform="translate(0 0.55)"/><path class="cls-45" d="M400.93,98.53a9.71,9.71,0,0,0,6.74,2.55,8.71,8.71,0,0,0-2.68-6.4,9.59,9.59,0,0,0-5.89-2.51.76.76,0,0,0-.82.78A8.57,8.57,0,0,0,400.93,98.53Z" transform="translate(0 0.55)"/><ellipse class="cls-46" cx="407.67" cy="101.63" rx="1.57" ry="1.49"/><path class="cls-46" d="M417.1,68.3a15.35,15.35,0,0,0,4.53-7.9.76.76,0,0,0-.91-.87,16.65,16.65,0,0,0-8.33,4.3,15.21,15.21,0,0,0-4.72,8.94A16.73,16.73,0,0,0,417.1,68.3Z" transform="translate(0 0.55)"/><path class="cls-46" d="M403,81.71a15.23,15.23,0,0,0,4.71-8.94,16.69,16.69,0,0,0-9.43,4.47,15.38,15.38,0,0,0-4.53,7.9.76.76,0,0,0,.92.86A16.8,16.8,0,0,0,403,81.71Z" transform="translate(0 0.55)"/><path class="cls-45" d="M410.36,79.16a9.48,9.48,0,0,0,5.88,2.51.75.75,0,0,0,.82-.78,8.6,8.6,0,0,0-2.64-5.58,9.71,9.71,0,0,0-6.75-2.54A8.7,8.7,0,0,0,410.36,79.16Z" transform="translate(0 0.55)"/><path class="cls-45" d="M400.93,70.22a9.71,9.71,0,0,0,6.74,2.55,8.71,8.71,0,0,0-2.68-6.4,9.54,9.54,0,0,0-5.89-2.51.75.75,0,0,0-.82.78A8.57,8.57,0,0,0,400.93,70.22Z" transform="translate(0 0.55)"/><ellipse class="cls-46" cx="409.24" cy="73.31" rx="1.57" ry="1.49"/><path class="cls-46" d="M418.67,40a15.32,15.32,0,0,0,4.53-7.89.76.76,0,0,0-.91-.87A16.71,16.71,0,0,0,414,35.51a15.27,15.27,0,0,0-4.72,9A16.74,16.74,0,0,0,418.67,40Z" transform="translate(0 0.55)"/><path class="cls-46" d="M404.53,53.4a15.25,15.25,0,0,0,4.71-8.94,16.69,16.69,0,0,0-9.43,4.47,15.39,15.39,0,0,0-4.53,7.89.77.77,0,0,0,.92.87A16.8,16.8,0,0,0,404.53,53.4Z" transform="translate(0 0.55)"/><path class="cls-45" d="M411.93,50.85a9.48,9.48,0,0,0,5.88,2.51.75.75,0,0,0,.82-.78A8.6,8.6,0,0,0,416,47a9.66,9.66,0,0,0-6.75-2.54A8.72,8.72,0,0,0,411.93,50.85Z" transform="translate(0 0.55)"/><path class="cls-45" d="M402.5,41.91a9.71,9.71,0,0,0,6.74,2.55,8.71,8.71,0,0,0-2.68-6.4,9.53,9.53,0,0,0-5.88-2.51.75.75,0,0,0-.83.78A8.57,8.57,0,0,0,402.5,41.91Z" transform="translate(0 0.55)"/><ellipse class="cls-46" cx="409.24" cy="45" rx="1.57" ry="1.49"/><path class="cls-50" d="M24.59,528.91v13.25a5.68,5.68,0,0,0,5.68,5.68H77.58a5.68,5.68,0,0,0,5.68-5.68V528.91a5.68,5.68,0,0,0-5.68-5.67H30.27A5.67,5.67,0,0,0,24.59,528.91Z" transform="translate(0 0.55)"/><path class="cls-51" d="M81.36,536.48a7.56,7.56,0,0,1-7.57,7.57H24.92a5.66,5.66,0,0,0,5.35,3.79H77.58a5.68,5.68,0,0,0,5.68-5.68V528.91a5.67,5.67,0,0,0-1.9-4.22v11.79Z" transform="translate(0 0.55)"/><path class="cls-60" d="M52.54,529.86H64a3.78,3.78,0,0,0,1.91-.52l2.47-1.44a.47.47,0,0,0-.24-.88H46.63a.47.47,0,0,0-.18.91l3.63,1.46A6.68,6.68,0,0,0,52.54,529.86Z" transform="translate(0 0.55)"/><path class="cls-61" d="M64,541.22H52.54a6.68,6.68,0,0,0-2.46.47l-3.63,1.45a.47.47,0,0,0,.18.91H68.14a.47.47,0,0,0,.24-.88l-2.47-1.44A3.77,3.77,0,0,0,64,541.22Z" transform="translate(0 0.55)"/><path class="cls-62" d="M26.23,541.22H24.59v.94a5.68,5.68,0,0,0,5.68,5.68L29,543.27A2.84,2.84,0,0,0,26.23,541.22Z" transform="translate(0 0.55)"/><path class="cls-62" d="M26.23,529.86H24.59v-1a5.67,5.67,0,0,1,5.68-5.67L29,527.8A2.84,2.84,0,0,1,26.23,529.86Z" transform="translate(0 0.55)"/><path class="cls-48" d="M79.63,543.73l-2,4.11a5.68,5.68,0,0,0,5.68-5.68H82.17A2.85,2.85,0,0,0,79.63,543.73Z" transform="translate(0 0.55)"/><path class="cls-48" d="M79.63,527.35l-2-4.11a5.68,5.68,0,0,1,5.68,5.67H82.17A2.84,2.84,0,0,1,79.63,527.35Z" transform="translate(0 0.55)"/><path class="cls-60" d="M51.08,538v-5a1.9,1.9,0,0,0-1.2-1.76l-7.37-2.89a.94.94,0,0,0-1.28.71,37.92,37.92,0,0,0,0,12.87,1,1,0,0,0,1.28.72l7.37-2.9A1.88,1.88,0,0,0,51.08,538Z" transform="translate(0 0.55)"/><path class="cls-60" d="M65.28,532.84v5.4a1.9,1.9,0,0,0,1,1.65l4.67,2.61a1,1,0,0,0,1.4-.66,38.42,38.42,0,0,0,0-12.6,1,1,0,0,0-1.4-.66l-4.67,2.61A1.88,1.88,0,0,0,65.28,532.84Z" transform="translate(0 0.55)"/><path class="cls-61" d="M68.75,538l-3.47-.58v.81a1.9,1.9,0,0,0,1,1.65l4.67,2.61a1,1,0,0,0,1.4-.66,38.42,38.42,0,0,0,0-12.6,1,1,0,0,0-1.37-.68v7.58A1.89,1.89,0,0,1,68.75,538Z" transform="translate(0 0.55)"/><path class="cls-61" d="M47.17,537.09,40.84,539c.09,1,.22,2,.39,3a1,1,0,0,0,1.28.71l7.37-2.9a1.88,1.88,0,0,0,1.2-1.76v-5a1.9,1.9,0,0,0-1.2-1.76l-.69-.27v3.36A2.83,2.83,0,0,1,47.17,537.09Z" transform="translate(0 0.55)"/><rect class="cls-63" x="59.6" y="541.76" width="1.89" height="2.84"/><rect class="cls-51" x="59.6" y="527.57" width="1.89" height="2.84"/><path class="cls-51" d="M284.09,587.05c-.83-.64-4.24-3.28-5.51-7.21-1.07-3.3.6-3.65.67-9.26.07-4.85-1.18-5.23-.94-9.79.22-4.16.34-6.47,2.42-8.61,4.7-4.84,14.95-4.2,16.54-3a3.17,3.17,0,0,0,1.48.65,3.77,3.77,0,0,0,2-.32c2.44-1,9.68-2.17,15.61-1.4,1.22.16.84.2,2.41.44a49.26,49.26,0,0,0,10.77.21c6.25-.4,7.51-1.06,10.22-.21a8.56,8.56,0,0,1,3.63,2,6.07,6.07,0,0,1,1.75,3.88c.25,2.36-1,2.63-1.08,5.27-.08,1.93.56,1.84.94,5.17a14,14,0,0,1,0,4.84c-.52,2.35-1.38,2.39-1.48,4.2-.09,1.55.55,1.5,1.08,4.52.46,2.66.16,3.74,0,4.2a7.16,7.16,0,0,1-1.47,2.48,11.65,11.65,0,0,1-6.19,3.44c-3.49.64-4.05-1.14-8.75-1.4-4.09-.22-4.41,1.1-12.12,1.62a31.61,31.61,0,0,1-5.24,0c-3.15-.26-3.54-1.12-5.78-1.07-2.46.06-2.7,1-5.79,1.3-1.91.2-1.72-.17-5.1-.22-4.31-.06-5.66.51-7.81-.32A12.21,12.21,0,0,1,284.09,587.05Z" transform="translate(0 0.55)"/><rect class="cls-54" x="150.42" y="202.13" width="23.39" height="10.23"/><rect class="cls-47" x="150.42" y="202.13" width="2.19" height="10.23"/><path class="cls-64" d="M173.81,211.09c-11,.73-23.39-4-23.39-4v35.42a1.46,1.46,0,0,0,1.46,1.46h20.47a1.46,1.46,0,0,0,1.46-1.46V211.09Z" transform="translate(0 0.55)"/><path class="cls-48" d="M167.23,210.36H157a2.21,2.21,0,0,1-2.2-2.2v-4.38a2.21,2.21,0,0,1,2.2-2.2h10.23a2.2,2.2,0,0,1,2.19,2.2v4.38A2.2,2.2,0,0,1,167.23,210.36Z" transform="translate(0 0.55)"/><path class="cls-49" d="M157,205.24v-3.66a2.21,2.21,0,0,0-2.2,2.2v4.38a2.21,2.21,0,0,0,2.2,2.2h10.23a2.2,2.2,0,0,0,2.19-2.2h-9.5A2.92,2.92,0,0,1,157,205.24Z" transform="translate(0 0.55)"/><path class="cls-48" d="M152.61,241.06V207.85c-1.38-.44-2.19-.75-2.19-.75v35.42a1.46,1.46,0,0,0,1.46,1.46h20.47a1.46,1.46,0,0,0,1.46-1.46H154.07A1.47,1.47,0,0,1,152.61,241.06Z" transform="translate(0 0.55)"/><path class="cls-65" d="M150.42,207.1v2.53s12.13,5.39,18.92,7.11a1.45,1.45,0,0,0,1.39-.38l3.08-3.08v-2.19C162.85,211.82,150.43,207.1,150.42,207.1Z" transform="translate(0 0.55)"/><path class="cls-37" d="M173.81,201.58H150.42a.72.72,0,0,1-.73-.73v-1.46a.73.73,0,0,1,.73-.73h23.39a.73.73,0,0,1,.73.73v1.46A.73.73,0,0,1,173.81,201.58Z" transform="translate(0 0.55)"/><path class="cls-52" d="M151.15,201.58h22.66a.73.73,0,0,0,.73-.73v-.73H152.61A1.46,1.46,0,0,0,151.15,201.58Z" transform="translate(0 0.55)"/><rect class="cls-65" x="285.43" y="270.12" width="34.23" height="23.61"/><path class="cls-48" d="M310.22,286.69V276.06a1.77,1.77,0,0,1,1.77-1.77h4.72a1.77,1.77,0,0,1,1.77,1.77v10.63a1.77,1.77,0,0,1-1.77,1.77H312A1.77,1.77,0,0,1,310.22,286.69Z" transform="translate(0 0.55)"/><path class="cls-49" d="M315.53,276.65h3v-.59a1.77,1.77,0,0,0-1.77-1.77H312a1.77,1.77,0,0,0-1.77,1.77v10.63a1.77,1.77,0,0,0,1.77,1.77V280.2A3.55,3.55,0,0,1,315.53,276.65Z" transform="translate(0 0.55)"/><path class="cls-64" d="M312.58,269.57H285.43v23.61h22.43C308.45,286.1,312.58,281.38,312.58,269.57Z" transform="translate(0 0.55)"/><circle class="cls-42" cx="302.97" cy="277.61" r="1.18"/><circle class="cls-42" cx="298.33" cy="284.45" r="1.18"/><circle class="cls-42" cx="298.4" cy="275.93" r="1.18"/><circle class="cls-42" cx="295.08" cy="280.82" r="1.18"/><circle class="cls-35" cx="299.43" cy="280.2" r="3.54"/><path class="cls-36" d="M299.18,279.48a4.71,4.71,0,0,0-.72,3.58,3.55,3.55,0,0,0,3.78-5.57A4.75,4.75,0,0,0,299.18,279.48Z" transform="translate(0 0.55)"/><circle class="cls-36" cx="307.27" cy="282.31" r="1.48"/><circle class="cls-36" cx="304.29" cy="286.7" r="1.48"/><circle class="cls-35" cx="303.09" cy="282.68" r="3.54"/><circle class="cls-42" cx="301.64" cy="281.69" r="1.77"/><circle class="cls-39" cx="302.6" cy="282.35" r="0.59"/><circle class="cls-41" cx="304.24" cy="282.04" r="0.59"/><circle class="cls-41" cx="302.92" cy="283.99" r="0.59"/><path class="cls-38" d="M318.48,293.77V269a.6.6,0,0,1,.59-.59h1.18a.59.59,0,0,1,.59.59v24.79a.58.58,0,0,1-.59.59h-1.18A.59.59,0,0,1,318.48,293.77Z" transform="translate(0 0.55)"/><path class="cls-35" d="M319.66,268.39h-.59a.6.6,0,0,0-.59.59v24.79a.59.59,0,0,0,.59.59h.59Z" transform="translate(0 0.55)"/><path class="cls-38" d="M284.25,293.77V269a.59.59,0,0,1,.59-.59H286a.59.59,0,0,1,.59.59v24.79a.58.58,0,0,1-.59.59h-1.18A.58.58,0,0,1,284.25,293.77Z" transform="translate(0 0.55)"/><path class="cls-35" d="M285.43,268.39h-.59a.59.59,0,0,0-.59.59v24.79a.58.58,0,0,0,.59.59h.59Z" transform="translate(0 0.55)"/><rect class="cls-35" x="218.95" y="225.16" width="1.49" height="3.72"/><rect class="cls-35" x="226.39" y="225.16" width="1.49" height="3.72"/><path class="cls-38" d="M228.86,228.79a1.49,1.49,0,0,0-1.46-1.2h-8a1.48,1.48,0,0,0-1.45,1.2l-.51,2.52h11.91Z" transform="translate(0 0.55)"/><path class="cls-38" d="M228.62,225.36H218.2a.74.74,0,0,1-.74-.74.75.75,0,0,1,.74-.75h10.42a.76.76,0,0,1,.75.75A.75.75,0,0,1,228.62,225.36Z" transform="translate(0 0.55)"/><path class="cls-53" d="M253.18,261.08H213a3,3,0,0,1-3-3V234.29a3,3,0,0,1,3-3h40.18a3,3,0,0,1,3,3V258.1A3,3,0,0,1,253.18,261.08Z" transform="translate(0 0.55)"/><path class="cls-42" d="M219,259.59a7.44,7.44,0,0,1-7.44-7.44V231.71a3,3,0,0,0-1.49,2.58V258.1a3,3,0,0,0,3,3h40.18a3,3,0,0,0,2.58-1.49Z" transform="translate(0 0.55)"/><circle class="cls-66" cx="218.2" cy="237.07" r="1.49"/><path class="cls-45" d="M236,249.35a.39.39,0,0,0,.29-.29,1.47,1.47,0,1,0-.29.29Z" transform="translate(0 0.55)"/><path class="cls-45" d="M233.09,246.2a2.5,2.5,0,0,0-.61-2.49,2.45,2.45,0,0,0-2.25-.66.36.36,0,0,0-.29.29,2.46,2.46,0,0,0,3.15,2.86Z" transform="translate(0 0.55)"/><path class="cls-46" d="M236.77,242.81a.37.37,0,0,0-.3-.29,1.66,1.66,0,1,0,.3.29Z" transform="translate(0 0.55)"/><path class="cls-46" d="M233.09,246.2a2.95,2.95,0,0,0-3.68,3.38.37.37,0,0,0,.3.3,3,3,0,0,0,3.38-3.68Z" transform="translate(0 0.55)"/><circle class="cls-66" cx="224.9" cy="240.05" r="2.98"/><circle class="cls-62" cx="224.9" cy="240.05" r="1.49"/><circle class="cls-66" cx="224.9" cy="253.44" r="2.98"/><circle class="cls-62" cx="224.9" cy="253.44" r="1.49"/><circle class="cls-66" cx="218.2" cy="256.42" r="1.49"/><circle class="cls-66" cx="247.97" cy="237.07" r="1.49"/><circle class="cls-66" cx="247.97" cy="256.42" r="1.49"/><circle class="cls-66" cx="241.27" cy="240.05" r="2.98"/><circle class="cls-62" cx="241.27" cy="240.05" r="1.49"/><circle class="cls-66" cx="241.27" cy="253.44" r="2.98"/><circle class="cls-62" cx="241.27" cy="253.44" r="1.49"/><polygon class="cls-35" points="217.76 230.37 217.46 231.86 229.37 231.86 229.07 230.37 217.76 230.37"/><rect class="cls-35" x="238.3" y="225.16" width="1.49" height="3.72"/><rect class="cls-35" x="245.74" y="225.16" width="1.49" height="3.72"/><path class="cls-38" d="M248.21,228.79a1.49,1.49,0,0,0-1.46-1.2h-8a1.49,1.49,0,0,0-1.46,1.2l-.5,2.52h11.91Z" transform="translate(0 0.55)"/><path class="cls-38" d="M248,225.36H237.55a.74.74,0,0,1-.74-.74.75.75,0,0,1,.74-.75H248a.76.76,0,0,1,.75.75A.75.75,0,0,1,248,225.36Z" transform="translate(0 0.55)"/><polygon class="cls-35" points="237.11 230.37 236.81 231.86 248.72 231.86 248.42 230.37 237.11 230.37"/><rect class="cls-35" x="245.74" y="264.6" width="1.49" height="3.72"/><rect class="cls-35" x="238.3" y="264.6" width="1.49" height="3.72"/><path class="cls-38" d="M237.31,263.6a1.49,1.49,0,0,0,1.46,1.2h8a1.49,1.49,0,0,0,1.46-1.2l.51-2.52H236.81Z" transform="translate(0 0.55)"/><path class="cls-38" d="M237.55,267H248a.76.76,0,0,1,.75.75.75.75,0,0,1-.75.74H237.55a.74.74,0,0,1-.74-.74A.75.75,0,0,1,237.55,267Z" transform="translate(0 0.55)"/><polygon class="cls-35" points="248.42 263.12 248.72 261.63 236.81 261.63 237.11 263.12 248.42 263.12"/><rect class="cls-35" x="226.39" y="264.6" width="1.49" height="3.72"/><rect class="cls-35" x="218.95" y="264.6" width="1.49" height="3.72"/><path class="cls-38" d="M218,263.6a1.48,1.48,0,0,0,1.45,1.2h8a1.49,1.49,0,0,0,1.46-1.2l.51-2.52H217.46Z" transform="translate(0 0.55)"/><path class="cls-38" d="M218.2,267h10.42a.76.76,0,0,1,.75.75.75.75,0,0,1-.75.74H218.2a.74.74,0,0,1-.74-.74A.75.75,0,0,1,218.2,267Z" transform="translate(0 0.55)"/><polygon class="cls-35" points="229.07 263.12 229.37 261.63 217.46 261.63 217.76 263.12 229.07 263.12"/><path class="cls-35" d="M318.46,210.3H282.88a.59.59,0,0,1-.59-.59v-7.12a.58.58,0,0,1,.59-.59h35.58a.58.58,0,0,1,.59.59v7.12A.59.59,0,0,1,318.46,210.3Z" transform="translate(0 0.55)"/><path class="cls-62" d="M295.92,205v1.78a1.19,1.19,0,0,0,1.19,1.19h7.12a1.18,1.18,0,0,0,1.18-1.19V205Z" transform="translate(0 0.55)"/><path class="cls-67" d="M316.38,207.93H314a.31.31,0,0,1-.3-.3v-3a.3.3,0,0,1,.3-.3h2.37a.29.29,0,0,1,.3.3v3A.3.3,0,0,1,316.38,207.93Z" transform="translate(0 0.55)"/><path class="cls-45" d="M284.75,206.88a.3.3,0,0,1-.23-.23,1.17,1.17,0,1,1,.23.23Z" transform="translate(0 0.55)"/><path class="cls-45" d="M287,204.37a2,2,0,0,1,.48-2,2,2,0,0,1,1.8-.53.3.3,0,0,1,.23.23,2,2,0,0,1-2.51,2.28Z" transform="translate(0 0.55)"/><path class="cls-46" d="M284.1,201.67a.3.3,0,0,1,.23-.23,1.33,1.33,0,1,1-.23.23Z" transform="translate(0 0.55)"/><path class="cls-46" d="M287,204.37a2.35,2.35,0,0,1,2.93,2.69.3.3,0,0,1-.23.24,2.36,2.36,0,0,1-2.7-2.93Z" transform="translate(0 0.55)"/><path class="cls-39" d="M311.17,200.81h-21a.47.47,0,0,0-.42.69l1.7,3.4a1.18,1.18,0,0,0,1.06.65h16.32a1.18,1.18,0,0,0,1.06-.65l1.7-3.4A.47.47,0,0,0,311.17,200.81Z" transform="translate(0 0.55)"/><path class="cls-41" d="M309,202H292.36a.43.43,0,0,0-.41.56l.66,2.1a.44.44,0,0,0,.42.3h15.28a.42.42,0,0,0,.41-.3l.67-2.1A.43.43,0,0,0,309,202Z" transform="translate(0 0.55)"/><rect class="cls-47" x="295.93" y="206.1" width="9.49" height="1.19"/><path class="cls-36" d="M287,209.11a3.56,3.56,0,0,1-3.56-3.56V202h-.59a.58.58,0,0,0-.59.59v7.12a.59.59,0,0,0,.59.59h35.58a.59.59,0,0,0,.59-.59v-.6Z" transform="translate(0 0.55)"/><path class="cls-68" d="M314.9,204.37H314a.3.3,0,0,0-.3.3v3a.31.31,0,0,0,.3.3h.89Z" transform="translate(0 0.55)"/><path class="cls-68" d="M278.39,254.73h41.23a.68.68,0,0,0,.69-.68V241.68a.69.69,0,0,0-.69-.69h-1.37a.69.69,0,0,0-.69.69V228.62a1.38,1.38,0,0,0-1.37-1.38h-9.63a1.38,1.38,0,0,0-1.37,1.38V241a1.38,1.38,0,0,0-1.37-1.38h-9.63a1.37,1.37,0,1,1-2.74,0h-9.63a1.38,1.38,0,0,0-1.37,1.38v.69a.69.69,0,0,0-.69-.69h-1.37a.69.69,0,0,0-.69.69v12.37A.68.68,0,0,0,278.39,254.73Z" transform="translate(0 0.55)"/><path class="cls-67" d="M292.82,247.86h8.93a2.07,2.07,0,0,0,2.07-2.06v-6.19h-9.63a1.38,1.38,0,0,0-1.37,1.38Z" transform="translate(0 0.55)"/><path class="cls-67" d="M305.19,247.86h8.93a2.07,2.07,0,0,0,2.07-2.06V227.24h-9.63a1.38,1.38,0,0,0-1.37,1.38v19.24Z" transform="translate(0 0.55)"/><path class="cls-67" d="M291.45,245.8v-6.19h-9.63a1.38,1.38,0,0,0-1.37,1.38v6.87h8.93A2.07,2.07,0,0,0,291.45,245.8Z" transform="translate(0 0.55)"/><path class="cls-68" d="M314.81,244.42h1.38a1.38,1.38,0,0,1,1.37,1.38v2.06a1.38,1.38,0,0,1-1.37,1.38h-1.38a1.37,1.37,0,0,1-1.37-1.38V245.8A1.37,1.37,0,0,1,314.81,244.42Z" transform="translate(0 0.55)"/><path class="cls-68" d="M281.82,244.42h1.38a1.37,1.37,0,0,1,1.37,1.38v2.06a1.37,1.37,0,0,1-1.37,1.38h-1.38a1.38,1.38,0,0,1-1.37-1.38V245.8A1.38,1.38,0,0,1,281.82,244.42Z" transform="translate(0 0.55)"/><rect class="cls-69" x="277.7" y="252.53" width="42.61" height="1.37"/><path class="cls-67" d="M318.25,241h.68v8.25a1.37,1.37,0,0,1-1.37,1.37h0v-8.93A.69.69,0,0,1,318.25,241Z" transform="translate(0 0.55)"/><path class="cls-67" d="M278.39,241h.69v8.25a1.38,1.38,0,0,1-1.38,1.37h0v-8.93A.69.69,0,0,1,278.39,241Z" transform="translate(0 0.55)"/><path class="cls-67" d="M294.19,249.24h9.63a1.38,1.38,0,0,1-1.38,1.37h-9.62A1.37,1.37,0,0,1,294.19,249.24Z" transform="translate(0 0.55)"/><path class="cls-67" d="M306.56,249.24h9.63a1.38,1.38,0,0,1-1.38,1.37h-9.62A1.37,1.37,0,0,1,306.56,249.24Z" transform="translate(0 0.55)"/><path class="cls-67" d="M281.82,249.24h9.63a1.38,1.38,0,0,1-1.38,1.37h-9.62A1.37,1.37,0,0,1,281.82,249.24Z" transform="translate(0 0.55)"/><path class="cls-69" d="M314.12,247.86h-.68a1.37,1.37,0,0,0,1.37,1.38h1.38a1.38,1.38,0,0,0,1.37-1.38V245.8a1.38,1.38,0,0,0-1.37-1.38v1.38A2.07,2.07,0,0,1,314.12,247.86Z" transform="translate(0 0.55)"/><path class="cls-69" d="M281.14,247.86h-.69a1.38,1.38,0,0,0,1.37,1.38h1.38a1.37,1.37,0,0,0,1.37-1.38V245.8a1.37,1.37,0,0,0-1.37-1.38v1.38A2.06,2.06,0,0,1,281.14,247.86Z" transform="translate(0 0.55)"/><path class="cls-52" d="M161.47,281.74V251.56a.8.8,0,0,0-.8-.8h-9.53a.79.79,0,0,0-.79.8v41.3a.79.79,0,0,0,.79.8h36.54a.8.8,0,0,0,.8-.8v-9.53a.79.79,0,0,0-.8-.79H162.26A.79.79,0,0,1,161.47,281.74Z" transform="translate(0 0.55)"/><path class="cls-37" d="M153.06,292.07l9.53-9.53h-.33a.79.79,0,0,1-.79-.8v-.33L151.93,291V250.76h-.79a.79.79,0,0,0-.79.8v41.3a.79.79,0,0,0,.79.8h36.54a.8.8,0,0,0,.8-.8v-.79Z" transform="translate(0 0.55)"/><rect class="cls-39" x="150.35" y="262.43" width="11.12" height="11.12"/><path class="cls-62" d="M189.27,293.66h9.53a.8.8,0,0,0,.8-.8V282.54A1.59,1.59,0,0,0,198,281h-7.95a1.59,1.59,0,0,0-1.58,1.59v10.32A.79.79,0,0,0,189.27,293.66Z" transform="translate(0 0.55)"/><path class="cls-62" d="M173.38,290.48h-9.53a.79.79,0,0,1-.79-.79v-7.15h11.12v7.15A.79.79,0,0,1,173.38,290.48Z" transform="translate(0 0.55)"/><rect class="cls-54" x="164.64" y="284.67" width="7.94" height="4.77"/><path class="cls-47" d="M168.62,292.86a.79.79,0,0,1-.8-.79v-3.18a.79.79,0,0,1,.8-.79.79.79,0,0,1,.79.79v3.18A.79.79,0,0,1,168.62,292.86Z" transform="translate(0 0.55)"/><path class="cls-44" d="M168.62,287.3a.79.79,0,0,1,0-1.58h0a.79.79,0,1,1,0,1.58Z" transform="translate(0 0.55)"/><path class="cls-54" d="M168.62,292.86a.79.79,0,0,1,0-1.58h0a.79.79,0,1,1,0,1.58Z" transform="translate(0 0.55)"/><path class="cls-42" d="M183.71,286.51h-6.36a.79.79,0,0,1-.79-.79.8.8,0,0,1,.79-.8h6.36a.8.8,0,0,1,0,1.59Z" transform="translate(0 0.55)"/><path class="cls-42" d="M183.71,289.69h-6.36a.8.8,0,0,1,0-1.59h6.36a.79.79,0,0,1,.79.79A.79.79,0,0,1,183.71,289.69Z" transform="translate(0 0.55)"/><path class="cls-48" d="M153.53,265.86a.8.8,0,0,1-.8-.8.79.79,0,0,1,.79-.79h0a.79.79,0,0,1,.8.79A.8.8,0,0,1,153.53,265.86Z" transform="translate(0 0.55)"/><path class="cls-48" d="M158.29,270.62a.8.8,0,1,1,0-1.59h0a.79.79,0,0,1,.79.8A.79.79,0,0,1,158.29,270.62Z" transform="translate(0 0.55)"/><path class="cls-48" d="M154.32,270.62a1.59,1.59,0,1,1,1.59-1.59A1.59,1.59,0,0,1,154.32,270.62Z" transform="translate(0 0.55)"/><path class="cls-48" d="M157.5,267.45a1.59,1.59,0,1,1,1.58-1.59A1.59,1.59,0,0,1,157.5,267.45Z" transform="translate(0 0.55)"/><rect class="cls-41" x="150.35" y="262.43" width="1.59" height="11.12"/><rect class="cls-54" x="188.48" y="283.88" width="11.12" height="1.59"/><path class="cls-62" d="M69.23,214H54.9a3.41,3.41,0,0,1-3.41-3.41V200.31a1.37,1.37,0,0,1,1.37-1.37H71.27a1.37,1.37,0,0,1,1.37,1.37v10.23A3.41,3.41,0,0,1,69.23,214Z" transform="translate(0 0.55)"/><path class="cls-54" d="M70.59,203H53.54a.68.68,0,0,0-.68.69v6.82a2,2,0,0,0,2,2H69.23a2,2,0,0,0,2-2v-6.82A.68.68,0,0,0,70.59,203Z" transform="translate(0 0.55)"/><circle class="cls-70" cx="62.07" cy="208.36" r="1.71"/><circle class="cls-40" cx="62.07" cy="208.36" r="1.02"/><path class="cls-66" d="M56.61,200.65H53.88a.34.34,0,0,1-.34-.34.34.34,0,0,1,.34-.34h2.73a.34.34,0,0,1,.34.34A.34.34,0,0,1,56.61,200.65Z" transform="translate(0 0.55)"/><path class="cls-66" d="M56.61,202H53.88a.34.34,0,1,1,0-.68h2.73a.34.34,0,1,1,0,.68Z" transform="translate(0 0.55)"/><path class="cls-66" d="M70.25,200.65H67.52a.34.34,0,0,1-.34-.34.34.34,0,0,1,.34-.34h2.73a.34.34,0,0,1,.34.34A.34.34,0,0,1,70.25,200.65Z" transform="translate(0 0.55)"/><path class="cls-66" d="M70.25,202H67.52a.34.34,0,0,1,0-.68h2.73a.34.34,0,1,1,0,.68Z" transform="translate(0 0.55)"/><path class="cls-54" d="M54.9,213.26a2.72,2.72,0,0,1-2.72-2.72V199.12a1.38,1.38,0,0,0-.69,1.19v10.23A3.41,3.41,0,0,0,54.9,214H69.23a3.39,3.39,0,0,0,2-.69Z" transform="translate(0 0.55)"/><path class="cls-47" d="M70.59,203H53.54a.68.68,0,0,0-.68.69h13a4.77,4.77,0,0,1,4.77,4.77v3.57a2,2,0,0,0,.68-1.52v-6.82A.68.68,0,0,0,70.59,203Z" transform="translate(0 0.55)"/><path class="cls-47" d="M61.38,202v5.12a.69.69,0,0,0,1.37,0V202Z" transform="translate(0 0.55)"/><path class="cls-54" d="M65.48,201.33H63.71a.47.47,0,0,1-.43-.28,1.37,1.37,0,0,0-1.54-.71,1.36,1.36,0,1,0,1.54,1.95.49.49,0,0,1,.43-.28h1.77a.34.34,0,0,0,0-.68Z" transform="translate(0 0.55)"/><ellipse class="cls-62" cx="113.92" cy="461.84" rx="7.28" ry="9.97"/><path class="cls-54" d="M114.69,470.87c-4,0-7.28-4.46-7.28-10,0-4.11,1.81-7.63,4.4-9.16-3,1.24-5.17,5-5.17,9.54,0,5.51,3.26,10,7.28,10a5.68,5.68,0,0,0,2.89-.81A5.64,5.64,0,0,1,114.69,470.87Z" transform="translate(0 0.55)"/><path class="cls-54" d="M119,457.18a1.94,1.94,0,0,0-1.8-1.26H110.7a1.94,1.94,0,0,0-1.8,1.26,11.65,11.65,0,0,0-.73,4.11c0,4.66,2.58,8.43,5.75,8.43s5.76-3.77,5.76-8.43A11.65,11.65,0,0,0,119,457.18Z" transform="translate(0 0.55)"/><path class="cls-62" d="M117.76,454.39h-7.67a3.46,3.46,0,0,1-3.45-3.45h0a3.45,3.45,0,0,1,3.45-3.45h7.67a3.45,3.45,0,0,1,3.45,3.45h0A3.46,3.46,0,0,1,117.76,454.39Z" transform="translate(0 0.55)"/><circle class="cls-61" cx="113.92" cy="460.3" r="1.53"/><circle class="cls-54" cx="113.92" cy="451.49" r="1.15"/><path class="cls-54" d="M111.24,453.62a3.45,3.45,0,0,1-2.45-5.88,3.45,3.45,0,0,0,1.3,6.65h7.67a3.46,3.46,0,0,0,2.17-.77Z" transform="translate(0 0.55)"/><path class="cls-50" d="M114.5,460.71a1.52,1.52,0,0,1-1.53-1.53,1.48,1.48,0,0,1,.2-.75,1.53,1.53,0,1,0,2.08,2.08A1.45,1.45,0,0,1,114.5,460.71Z" transform="translate(0 0.55)"/><path class="cls-47" d="M119,457.18a1.94,1.94,0,0,0-1.8-1.26H110.7a1.93,1.93,0,0,0-1.75,1.15h5.6a3.84,3.84,0,0,1,3.77,3.14,12.41,12.41,0,0,1,.21,2.23,10.42,10.42,0,0,1-2,6.35c1.85-1.41,3.12-4.24,3.12-7.5A11.65,11.65,0,0,0,119,457.18Z" transform="translate(0 0.55)"/><path class="cls-47" d="M114.31,451.7a1.14,1.14,0,0,1-1.15-1.15,1.1,1.1,0,0,1,.17-.59,1.15,1.15,0,0,0,.59,2.13,1.13,1.13,0,0,0,1-.56A1.07,1.07,0,0,1,114.31,451.7Z" transform="translate(0 0.55)"/><rect class="cls-54" x="50.48" y="450.41" width="17.59" height="8.51"/><rect class="cls-47" x="50.48" y="450.41" width="1.65" height="8.51"/><path class="cls-64" d="M68.06,457.77c-8.24.6-17.58-3.32-17.58-3.32V483.9a1.16,1.16,0,0,0,1.1,1.21H67a1.16,1.16,0,0,0,1.1-1.21V457.77Z" transform="translate(0 0.55)"/><path class="cls-48" d="M63.12,457.16h-7.7a1.75,1.75,0,0,1-1.65-1.83v-3.64a1.74,1.74,0,0,1,1.65-1.82h7.7a1.74,1.74,0,0,1,1.65,1.82v3.64A1.75,1.75,0,0,1,63.12,457.16Z" transform="translate(0 0.55)"/><path class="cls-49" d="M55.42,452.9v-3a1.74,1.74,0,0,0-1.65,1.82v3.64a1.75,1.75,0,0,0,1.65,1.83h7.7a1.75,1.75,0,0,0,1.65-1.83H57.62A2.32,2.32,0,0,1,55.42,452.9Z" transform="translate(0 0.55)"/><path class="cls-48" d="M52.13,482.68v-27.6c-1-.37-1.65-.63-1.65-.63V483.9a1.16,1.16,0,0,0,1.1,1.21H67a1.16,1.16,0,0,0,1.1-1.21H53.23A1.17,1.17,0,0,1,52.13,482.68Z" transform="translate(0 0.55)"/><path class="cls-65" d="M50.48,454.45v2.1S59.6,461,64.7,462.47a1,1,0,0,0,1-.32l2.31-2.56v-1.82C59.82,458.37,50.48,454.45,50.48,454.45Z" transform="translate(0 0.55)"/><path class="cls-37" d="M68.06,449.87H50.48a.58.58,0,0,1-.55-.61V448a.58.58,0,0,1,.55-.61H68.06a.58.58,0,0,1,.55.61v1.22A.58.58,0,0,1,68.06,449.87Z" transform="translate(0 0.55)"/><path class="cls-52" d="M51,449.87h17a.58.58,0,0,0,.55-.61v-.61H52.13A1.16,1.16,0,0,0,51,449.87Z" transform="translate(0 0.55)"/><path class="cls-40" d="M207,477.1v6.68a1.25,1.25,0,0,1-1.25,1.25h-5a1.25,1.25,0,0,1-1.25-1.25V477.1a1.25,1.25,0,0,1,1.25-1.25h5A1.25,1.25,0,0,1,207,477.1Z" transform="translate(0 0.55)"/><path class="cls-43" d="M207,477.1v6.68a1.25,1.25,0,0,1-1.25,1.25h-2.92v-9.18h2.92A1.25,1.25,0,0,1,207,477.1Z" transform="translate(0 0.55)"/><path class="cls-39" d="M201.78,471.45a4.68,4.68,0,0,0-.6,2.28v13.42a4.68,4.68,0,0,0,.6,2.28l1.07,1.86v-21.7Z" transform="translate(0 0.55)"/><path class="cls-40" d="M204.52,467.92v25a.41.41,0,0,1-.42.41h-.84a.41.41,0,0,1-.41-.41v-25a.41.41,0,0,1,.41-.42h.84A.42.42,0,0,1,204.52,467.92Z" transform="translate(0 0.55)"/><path class="cls-39" d="M203.68,467.5h-.42a.41.41,0,0,0-.41.42v25a.41.41,0,0,0,.41.41h.42Z" transform="translate(0 0.55)"/><path class="cls-41" d="M201.18,485.24h0v1.91a4.68,4.68,0,0,0,.6,2.28l1.07,1.86v-21.7l-.84,1.46v13.77A.52.52,0,0,1,201.18,485.24Z" transform="translate(0 0.55)"/><path class="cls-48" d="M225.28,487.34v-13.8a1.32,1.32,0,0,1,1.32-1.32h13.47v16.43H226.6A1.31,1.31,0,0,1,225.28,487.34Z" transform="translate(0 0.55)"/><path class="cls-49" d="M240.07,472.22H226.6a1.32,1.32,0,0,0-1.32,1.32v.66H235.8v12.48h-7.89A1.32,1.32,0,0,0,226.6,488v.65h13.47Z" transform="translate(0 0.55)"/><path class="cls-48" d="M244.34,487.34v-13.8a3.28,3.28,0,0,0-3.28-3.29H227.58a1,1,0,0,0-1,1v.65a1,1,0,0,0,1,1H240.4V488H227.58a1,1,0,0,0-1,1v.66a1,1,0,0,0,1,1h13.48A3.29,3.29,0,0,0,244.34,487.34Z" transform="translate(0 0.55)"/><path class="cls-49" d="M239.17,482.42V469.28a1,1,0,0,1,1-1h1.64a1,1,0,0,1,1,1v13.14a1,1,0,0,1-1,1h-1.64A1,1,0,0,1,239.17,482.42Z" transform="translate(0 0.55)"/><path class="cls-64" d="M226.6,471.57v.32a1,1,0,0,0,1,1h10.85a1.31,1.31,0,0,0-1.32-1.31Z" transform="translate(0 0.55)"/><path class="cls-64" d="M226.6,489.31v.33a1,1,0,0,0,1,1h10.85a1.32,1.32,0,0,0-1.32-1.32Z" transform="translate(0 0.55)"/><path class="cls-48" d="M239.17,482.42V469.28a1,1,0,0,1,1-1h.66a1,1,0,0,1,1,1v13.14h0a1,1,0,0,1-1,1h-.66A1,1,0,0,1,239.17,482.42Z" transform="translate(0 0.55)"/><path class="cls-64" d="M239.17,482.42V469.28a1,1,0,0,1,1-1h.33v15.12h-.33A1,1,0,0,1,239.17,482.42Z" transform="translate(0 0.55)"/><path class="cls-42" d="M234.57,480.78v-9.86a1.32,1.32,0,0,1,1.32-1.32h2a1.32,1.32,0,0,1,1.31,1.32v9.86a1.31,1.31,0,0,1-1.31,1.31h-2A1.32,1.32,0,0,1,234.57,480.78Z" transform="translate(0 0.55)"/><path class="cls-71" d="M239.17,480.78v-9.86a1.32,1.32,0,0,0-1.31-1.32h-2a1.32,1.32,0,0,0-1.32,1.32h1.32a2.3,2.3,0,0,1,2.3,2.3v8.83A1.32,1.32,0,0,0,239.17,480.78Z" transform="translate(0 0.55)"/></svg>