<?xml version="1.0" encoding="utf-8"?>
<!-- Generator: Adobe Illustrator 24.3.0, SVG Export Plug-In . SVG Version: 6.00 Build 0)  -->
<svg version="1.1" id="Capa_1" xmlns="http://www.w3.org/2000/svg" xmlns:xlink="http://www.w3.org/1999/xlink" x="0px" y="0px"
	 viewBox="0 0 512 357" style="enable-background:new 0 0 512 357;" xml:space="preserve">
<style type="text/css">
	.st0{fill:#5D5360;}
	.st1{fill:#6F6571;}
	.st2{fill:#4B3F4E;}
	.st3{fill:#C9C6CA;}
</style>
<g>
	<path class="st0" d="M56,222.1l-33.9-8.5c-3.6-0.9-6.1-4.1-6.1-7.8v-55c0-3.7,2.5-6.9,6.1-7.8l33.9-8.5v-16.5l-37.8,9.5
		C7.5,130.3,0,139.8,0,150.9l0,55c0,11,7.5,20.6,18.2,23.3l37.8,9.5V222.1z"/>
	<path class="st0" d="M456,134.6l33.9,8.5c3.6,0.9,6.1,4.1,6.1,7.8v55c0,3.7-2.5,6.9-6.1,7.8l-33.9,8.5v16.5l37.8-9.5
		c10.7-2.7,18.2-12.2,18.2-23.3v-55c0-11-7.5-20.6-18.2-23.3l-37.8-9.5V134.6z"/>
</g>
<circle class="st1" cx="304" cy="178.4" r="168"/>
<circle class="st0" cx="304" cy="178.4" r="136"/>
<circle class="st2" cx="304" cy="178.4" r="112"/>
<path class="st1" d="M61.3,28C48,34.6,40,48.5,40,63.3v230.1c0,14.8,8,28.7,21.3,35.4c20.2,10.1,42.7,16.2,66.5,17.4
	c4.5,0.2,8.2-3.5,8.2-8V18.6c0-4.5-3.7-8.2-8.2-8C104,11.7,81.5,17.9,61.3,28z"/>
<path class="st0" d="M460,166.4c0,92.8-75.2,168-168,168c-43.3,0-82.9-16.5-112.7-43.4c30.7,34,75.3,55.4,124.7,55.4
	c92.8,0,168-75.2,168-168c0-49.4-21.4-93.9-55.4-124.7C443.5,83.5,460,123,460,166.4z"/>
<path class="st3" d="M160,178.4c0,79.4,64.6,144,144,144s144-64.6,144-144s-64.6-144-144-144S160,99,160,178.4z M296,90.4v32H189.1
	c5.8-11.8,13.3-22.6,22.2-32H296z M296,138.4v32H176.4c0.7-11.1,2.7-21.8,6.1-32H296z M296,186.4v32H182.5
	c-3.4-10.2-5.4-20.9-6.1-32H296z M296,234.4v32h-84.7c-9-9.4-16.4-20.2-22.2-32H296z M296,282.4V306c-24.6-1.5-47.4-10-66.3-23.6
	H296z M312,282.4h66.3C359.4,296,336.6,304.4,312,306V282.4z M312,266.4v-32h106.9c-5.8,11.8-13.3,22.6-22.2,32H312z M312,218.4v-32
	h119.6c-0.7,11.1-2.7,21.8-6.1,32H312z M312,170.4v-32h113.5c3.4,10.2,5.4,20.9,6.1,32H312z M312,122.4v-32h84.7
	c9,9.4,16.4,20.2,22.2,32H312z M312,74.4V50.8c24.6,1.5,47.4,10,66.3,23.6H312z M296,74.4h-66.3c18.9-13.6,41.7-22.1,66.3-23.6V74.4
	z"/>
<path class="st0" d="M120,240.1c0,15-13.6,26.2-28.4,23.6c-16.4-2.8-31.9-8-46.3-15.2c-1.9-0.9-3.6-2.1-5.3-3.3v48.1
	c0,14.8,8,28.7,21.3,35.4c20.2,10.1,42.7,16.2,66.5,17.4c4.5,0.2,8.2-3.5,8.2-8V18.6c0-4.6-3.8-8.2-8.4-8c-2.6,0.1-5.1,0.3-7.6,0.6
	V240.1z"/>
</svg>
