<?xml version="1.0" encoding="utf-8"?>
<!-- Generator: Adobe Illustrator 24.3.0, SVG Export Plug-In . SVG Version: 6.00 Build 0)  -->
<svg version="1.1" id="Capa_1" xmlns="http://www.w3.org/2000/svg" xmlns:xlink="http://www.w3.org/1999/xlink" x="0px" y="0px"
	 viewBox="0 0 280.8 512" style="enable-background:new 0 0 280.8 512;" xml:space="preserve">
<style type="text/css">
	.st0{fill:#DBD9DC;}
	.st1{fill:#C9C6CA;}
	.st2{fill:#FF9BA0;}
	.st3{fill:#FF8087;}
	.st4{fill:#E6646E;}
	.st5{fill:#DC4655;}
	.st6{fill:#E3AA75;}
	.st7{fill:#F5B97D;}
</style>
<rect x="8.3" y="33" class="st0" width="264.3" height="115.6"/>
<rect x="8.3" y="33" class="st1" width="24.8" height="115.6"/>
<path class="st2" d="M272.5,140.4c-123.9,8.3-264.3-45-264.3-45v400.1c0,9.1,7.4,16.5,16.5,16.5H256c9.1,0,16.5-7.4,16.5-16.5
	L272.5,140.4L272.5,140.4z"/>
<path class="st3" d="M198.2,132.1H82.6c-13.7,0-24.8-11.1-24.8-24.8V57.8C57.8,44.1,68.9,33,82.6,33h115.6
	c13.7,0,24.8,11.1,24.8,24.8v49.5C223,121,211.9,132.1,198.2,132.1z"/>
<path class="st4" d="M82.6,74.3V33c-13.7,0-24.8,11.1-24.8,24.8v49.5c0,13.7,11.1,24.8,24.8,24.8h115.6c13.7,0,24.8-11.1,24.8-24.8
	H115.6C97.4,107.4,82.6,92.6,82.6,74.3z"/>
<path class="st3" d="M33,479V103.8c-15.6-5-24.8-8.5-24.8-8.5v400.1c0,9.1,7.4,16.5,16.5,16.5H256c9.1,0,16.5-7.4,16.5-16.5h-223
	C40.4,495.5,33,488.1,33,479z"/>
<path class="st5" d="M8.3,95.3v28.5c0,0,137,60.9,213.7,80.4c5.7,1.4,11.6-0.2,15.8-4.3l34.7-34.7v-24.8
	C148.7,148.6,8.3,95.4,8.3,95.3z"/>
<path class="st6" d="M272.5,33H8.3C3.7,33,0,29.3,0,24.8V8.3C0,3.7,3.7,0,8.3,0h264.3c4.6,0,8.3,3.7,8.3,8.3v16.5
	C280.8,29.3,277.1,33,272.5,33z"/>
<path class="st7" d="M16.5,33L16.5,33h256c4.6,0,8.3-3.7,8.3-8.3v-8.3H33C23.9,16.5,16.5,23.9,16.5,33z"/>
</svg>
