<?xml version="1.0" encoding="utf-8"?>
<!-- Generator: Adobe Illustrator 24.3.0, SVG Export Plug-In . SVG Version: 6.00 Build 0)  -->
<svg version="1.1" id="Capa_1" xmlns="http://www.w3.org/2000/svg" xmlns:xlink="http://www.w3.org/1999/xlink" x="0px" y="0px"
	 viewBox="0 0 225 512" style="enable-background:new 0 0 225 512;" xml:space="preserve">
<style type="text/css">
	.st0{fill:#A5CDFF;}
	.st1{fill:#8CB4EB;}
	.st2{fill:#DCEBFF;}
	.st3{fill:#C4DEFF;}
	.st4{fill:#EDEBED;}
	.st5{fill:#FF8087;}
	.st6{fill:#739BD7;}
</style>
<path class="st0" d="M169.8,0H54.2C26.8,0,4.6,22.2,4.6,49.5v412.9c0,27.4,22.2,49.5,49.5,49.5h115.6c27.4,0,49.5-22.2,49.5-49.5
	V49.5C219.4,22.2,197.2,0,169.8,0z"/>
<path class="st1" d="M103.7,495.5c-36.5,0-66.1-29.6-66.1-66.1V2.9C18.4,9.7,4.6,28,4.6,49.5v412.9c0,27.4,22.2,49.5,49.5,49.5
	h115.6c14.7,0,27.8-6.4,36.9-16.5L103.7,495.5L103.7,495.5z"/>
<path class="st2" d="M161.5,244v100c0,5.9,1.6,11.6,4.5,16.7l12.6,21.6c2.1,3.6,7.7,2.1,7.7-2.1V192.3c0-4.5-6.3-5.8-8-1.5
	l-12.7,31.7C163,229.3,161.5,236.6,161.5,244z"/>
<path class="st3" d="M62.5,343.9V244c0-7.4-1.4-14.6-4.1-21.5l-12.7-31.7c-1.7-4.2-8-3-8,1.5v187.8c0,4.2,5.6,5.7,7.7,2.1l12.6-21.5
	C60.9,355.5,62.5,349.8,62.5,343.9z"/>
<g>
	<path class="st4" d="M62.5,14.3V0h-8.3C26.8,0,4.6,22.2,4.6,49.5l39.8-11.4C55.1,35.1,62.5,25.4,62.5,14.3z"/>
	<path class="st4" d="M161.5,14.3V0h8.3c27.4,0,49.5,22.2,49.5,49.5l-39.8-11.4C168.9,35.1,161.5,25.4,161.5,14.3z"/>
</g>
<g>
	<path class="st5" d="M40.5,480.4L4.6,462.5c0,27.4,22.2,49.5,49.5,49.5v-9.5C54.2,493.2,48.9,484.6,40.5,480.4z"/>
	<path class="st5" d="M183.5,480.4l35.9-17.9c0,27.4-22.2,49.5-49.5,49.5v-9.5C169.8,493.2,175.1,484.6,183.5,480.4z"/>
</g>
<g>
	<path class="st2" d="M90.2,231.2h43.5c6.8,0,12.9-4.2,15.4-10.5l25.2-64.3c1.9-4.9-1.1-10.3-6.2-11.2c-18.6-3.1-37.4-4.8-56.2-4.8
		s-37.6,1.6-56.2,4.8c-5.1,0.9-8.1,6.3-6.2,11.2l25.2,64.3C77.3,227.1,83.4,231.2,90.2,231.2z"/>
	<path class="st2" d="M135.5,355.1H88.5c-6,0-11.5,3.2-14.4,8.5l-22.7,40.8c-2.8,5,0.2,11.3,5.8,12.2c18.2,3,36.6,4.6,55,4.6
		c18.4,0,36.8-1.6,55-4.6c5.6-0.9,8.5-7.2,5.8-12.2L150,363.6C147.1,358.3,141.5,355.1,135.5,355.1z"/>
</g>
<g>
	<path class="st3" d="M90.4,385.4l5.1-30.3h-7c-6,0-11.5,3.2-14.4,8.5l-22.7,40.8c-2.8,5,0.2,11.3,5.8,12.2c18.2,3,36.6,4.6,55,4.6
		c18.4,0,36.8-1.6,55-4.6c5.5-0.9,8.4-7,5.9-11.9h-66.1C96.5,404.6,88.8,395.5,90.4,385.4z"/>
	<path class="st3" d="M98.4,197.1l-16.6-55.2c-8.7,0.8-17.4,1.9-26.1,3.4c-5.1,0.9-8.1,6.3-6.2,11.2l25.2,64.3
		c2.5,6.3,8.6,10.5,15.4,10.5h43.5c6.8,0,12.9-4.2,15.4-10.5l2.4-6h-29.3C111.2,214.7,101.6,207.5,98.4,197.1z"/>
</g>
<rect x="37.7" y="305.5" class="st6" width="24.8" height="16.5"/>
<rect x="161.5" y="305.5" class="st1" width="24.8" height="16.5"/>
</svg>
