<?xml version="1.0" encoding="utf-8"?>
<!-- Generator: Adobe Illustrator 24.3.0, SVG Export Plug-In . SVG Version: 6.00 Build 0)  -->
<svg version="1.1" id="Laag_1" xmlns="http://www.w3.org/2000/svg" xmlns:xlink="http://www.w3.org/1999/xlink" x="0px" y="0px"
	 viewBox="0 0 437 350.6" style="enable-background:new 0 0 437 350.6;" xml:space="preserve">
<style type="text/css">
	.st0{fill:#FFE900;}
	.st1{fill:#E36840;}
	.st2{fill:#FFB337;}
	.st3{fill:#1F262A;}
	.st4{fill:#FFE900;stroke:#ECF0F1;stroke-width:7;stroke-miterlimit:10;}
</style>
<ellipse class="st0" cx="292.8" cy="260.8" rx="144.2" ry="50.2"/>
<path class="st1" d="M148.5,277.8v21.7c0,5.8,4.2,10.6,9.4,10.6h269.7c5.2,0,9.4-4.7,9.4-10.6v-21.7c0-5.8-4.2-10.6-9.4-10.6H157.9
	C152.7,267.2,148.5,272,148.5,277.8L148.5,277.8z"/>
<path class="st2" d="M81,76.2"/>
<rect x="126.5" y="227.2" class="st3" width="22" height="40"/>
<circle class="st4" cx="288.5" cy="191.9" r="87.7"/>
<circle class="st3" cx="137.5" cy="136.4" r="99.1"/>
<path class="st1" d="M245.9,113.8H30v-21C30,41.7,67.7,0,114.3,0h47.7c46.5,0,84.3,41.6,84.3,92.9L245.9,113.8z"/>
<path class="st1" d="M5,96.1v17.4c0,4.7,3.9,8.5,8.6,8.5h247.8c4.8,0,8.6-3.8,8.6-8.5V96.1c0-4.7-3.9-8.5-8.6-8.5H13.6
	C8.9,87.6,5,91.4,5,96.1L5,96.1z"/>
<path class="st3" d="M5,350.6c0.4-10.2,2.1-25.2,8-42.2c0,0,4.6-13.3,11-24.3c27.7-47.4,196.7-49.9,223.1-1.2
	c0.8,1.4,6.1,11.5,11.5,25.9c6.3,16.9,9.6,31.6,11.5,41.8"/>
<path class="st3" d="M320,293.7c-23.7,11.4-36.1,10.6-42.6,20.5c-3,4.6-3.3,8.9-3.1,11.7c4.1,8.2,9.5,10.7,12.8,11.7
	c7.4,2.1,13.9-0.8,54.4-21.9c14.2-7.4,21.3-11.2,22.3-16.2c1.4-7.5-7.1-16.2-16.7-17.3C339.1,281.3,336,285.9,320,293.7z"/>
<path class="st3" d="M260.9,290.1c-29.6-17.6-39.4-30.9-53.3-31.5c-6.3-0.3-10.3,2.1-12.4,4c-3.4,9.3-0.8,16.5,1.1,20.5
	c4.5,9,12.4,13.9,64.3,42.9c18.2,10.2,27.4,15.2,32.4,13.1c7.4-3.2,7.5-17.4,0.2-28.1C287.5,302.4,281,302,260.9,290.1z"/>
</svg>
