<?xml version="1.0" encoding="utf-8"?>
<!-- Generator: Adobe Illustrator 24.3.0, SVG Export Plug-In . SVG Version: 6.00 Build 0)  -->
<svg version="1.1" id="Laag_1" xmlns="http://www.w3.org/2000/svg" xmlns:xlink="http://www.w3.org/1999/xlink" x="0px" y="0px"
	 viewBox="0 0 482.2 360.9" style="enable-background:new 0 0 482.2 360.9;" xml:space="preserve">
<style type="text/css">
	.st0{fill:#E10600;}
	.st1{fill:#E36840;}
	.st2{fill:#E10600;stroke:#ECF0F1;stroke-width:7;stroke-miterlimit:10;}
	.st3{fill:#1F262A;}
	.st4{fill:#838996;}
	.st5{fill:#FFB337;}
</style>
<ellipse class="st0" cx="296.5" cy="252.5" rx="185" ry="50.2"/>
<path class="st1" d="M110.9,270.3V292c0,5.8,5.4,10.6,12.1,10.6h347.1c6.7,0,12.1-4.7,12.1-10.6v-21.7c0-5.8-5.4-10.6-12.1-10.6H123
	C116.3,259.7,110.9,264.4,110.9,270.3L110.9,270.3z"/>
<circle class="st2" cx="306.7" cy="188.1" r="87.7"/>
<path class="st3" d="M311.4,295.2c-29.6-17.6-39.4-30.9-53.3-31.5c-6.3-0.3-10.3,2.1-12.4,4c-3.4,9.3-0.8,16.5,1.1,20.5
	c4.5,9,12.4,13.9,64.3,42.9c18.2,10.2,27.4,15.2,32.4,13.1c7.4-3.2,7.5-17.4,0.2-28.1C338,307.5,331.5,307.1,311.4,295.2z"/>
<rect y="259.8" class="st4" width="265" height="101.1"/>
<rect x="24.5" y="275.8" class="st3" width="219.5" height="85.1"/>
<rect x="125.5" y="237.2" class="st3" width="17" height="22.5"/>
<rect x="109.5" y="222" class="st3" width="47" height="30.5"/>
<rect x="10" y="112" class="st3" width="17.1" height="86"/>
<rect x="239.8" y="108.2" class="st3" width="17.1" height="86"/>
<rect x="19.8" y="60.2" class="st4" width="228.5" height="177"/>
<rect x="49" y="77.8" class="st3" width="170" height="137"/>
<rect x="125.5" y="7.2" class="st3" width="17" height="53"/>
<ellipse class="st1" cx="134" cy="23.6" rx="29.9" ry="23.6"/>
<path class="st5" d="M81,121.5"/>
<path class="st3" d="M371,301.8c-23.7,11.4-36.1,10.6-42.6,20.5c-3,4.6-3.3,8.9-3.1,11.7c4.1,8.2,9.5,10.7,12.8,11.7
	c7.4,2.1,13.9-0.8,54.4-21.9c14.2-7.4,21.3-11.2,22.3-16.2c1.4-7.5-7.1-16.2-16.7-17.3C390.1,289.5,387,294.1,371,301.8z"/>
</svg>
