<?xml version="1.0" encoding="utf-8"?>
<!-- Generator: Adobe Illustrator 24.3.0, SVG Export Plug-In . SVG Version: 6.00 Build 0)  -->
<svg version="1.1" id="Laag_1" xmlns="http://www.w3.org/2000/svg" xmlns:xlink="http://www.w3.org/1999/xlink" x="0px" y="0px"
	 viewBox="0 0 535 395.9" style="enable-background:new 0 0 535 395.9;" xml:space="preserve">
<style type="text/css">
	.st0{fill:#838996;}
	.st1{fill:#1F262A;}
	.st2{fill:#E10600;}
	.st3{fill:#E36840;}
	.st4{fill:#ECF0F1;}
	.st5{fill:#FFB337;}
	.st6{fill:#E10600;stroke:#ECF0F1;stroke-width:7;stroke-miterlimit:10;}
</style>
<rect x="270" y="259.8" class="st0" width="265" height="136.1"/>
<rect x="294.5" y="275.8" class="st1" width="219.5" height="79.5"/>
<rect x="395.5" y="237.2" class="st1" width="17" height="53"/>
<ellipse class="st2" cx="294.5" cy="306.1" rx="185" ry="50.2"/>
<path class="st3" d="M148.5,323.1v21.7c0,5.8,5.4,10.6,12.1,10.6h347.1c6.7,0,12.1-4.7,12.1-10.6v-21.7c0-5.8-5.4-10.6-12.1-10.6
	H160.6C153.9,312.5,148.5,317.2,148.5,323.1L148.5,323.1z"/>
<rect x="379.5" y="222" class="st1" width="47" height="30.5"/>
<rect x="280" y="112" class="st1" width="17.1" height="86"/>
<rect x="509.8" y="108.2" class="st1" width="17.1" height="86"/>
<rect x="289.8" y="60.2" class="st0" width="228.5" height="177"/>
<rect x="319" y="77.8" class="st1" width="170" height="137"/>
<rect x="395.5" y="7.2" class="st1" width="17" height="53"/>
<ellipse class="st3" cx="404" cy="23.6" rx="29.9" ry="23.6"/>
<ellipse transform="matrix(0.2378 -0.9713 0.9713 0.2378 139.4994 466.5467)" class="st4" cx="367" cy="144.4" rx="16.1" ry="20.8"/>
<ellipse transform="matrix(0.986 -0.1667 0.1667 0.986 -17.9286 75.2029)" class="st4" cx="439" cy="144.4" rx="20.8" ry="16.1"/>
<path class="st5" d="M81,121.5"/>
<rect x="126.5" y="272.5" class="st1" width="22" height="40"/>
<circle class="st6" cx="288.5" cy="237.2" r="87.7"/>
<circle class="st1" cx="137.5" cy="181.6" r="99.1"/>
<path class="st3" d="M245.9,159.1H30v-21c0-51.2,37.7-92.9,84.3-92.9h47.7c46.5,0,84.3,41.6,84.3,92.9L245.9,159.1z"/>
<path class="st3" d="M5,141.4v17.4c0,4.7,3.9,8.5,8.6,8.5h247.8c4.8,0,8.6-3.8,8.6-8.5v-17.4c0-4.7-3.9-8.5-8.6-8.5H13.6
	C8.9,132.9,5,136.7,5,141.4L5,141.4z"/>
<path class="st1" d="M5,395.9c0.4-10.2,2.1-25.2,8-42.2c0,0,4.6-13.3,11-24.3c27.7-47.4,196.7-49.9,223.1-1.2
	c0.8,1.4,6.1,11.5,11.5,25.9c6.3,16.9,9.6,31.6,11.5,41.8"/>
<path class="st1" d="M320,338.9c-23.7,11.4-36.1,10.6-42.6,20.5c-3,4.6-3.3,8.9-3.1,11.7c4.1,8.2,9.5,10.7,12.8,11.7
	c7.4,2.1,13.9-0.8,54.4-21.9c14.2-7.4,21.3-11.2,22.3-16.2c1.4-7.5-7.1-16.2-16.7-17.3C339.1,326.6,336,331.2,320,338.9z"/>
<path class="st1" d="M260.9,335.4c-29.6-17.6-39.4-30.9-53.3-31.5c-6.3-0.3-10.3,2.1-12.4,4c-3.4,9.3-0.8,16.5,1.1,20.5
	c4.5,9,12.4,13.9,64.3,42.9c18.2,10.2,27.4,15.2,32.4,13.1c7.4-3.2,7.5-17.4,0.2-28.1C287.5,347.7,281,347.3,260.9,335.4z"/>
</svg>
