<?xml version="1.0" encoding="utf-8"?>
<!-- Generator: Adobe Illustrator 24.3.0, SVG Export Plug-In . SVG Version: 6.00 Build 0)  -->
<svg version="1.1" id="Capa_1" xmlns="http://www.w3.org/2000/svg" xmlns:xlink="http://www.w3.org/1999/xlink" x="0px" y="0px"
	 viewBox="0 0 512 468" style="enable-background:new 0 0 512 468;" xml:space="preserve">
<style type="text/css">
	.st0{fill:#E6646E;}
	.st1{fill:#DC4655;}
	.st2{fill:#5B3E3E;}
	.st3{fill:#EFC88F;}
	.st4{fill:#F9AC8A;}
	.st5{fill:#F79B77;}
</style>
<path class="st0" d="M443.7,157.8L449,11.5c0.2-5.3-5.3-8.9-10.1-6.5L301.1,72.6c-4.9,2.4-10.4,3.3-15.8,2.6
	c-9.6-1.1-19.4-1.7-29.3-1.7s-19.7,0.6-29.3,1.7c-5.4,0.6-10.9-0.2-15.8-2.6L73.1,5C68.3,2.6,62.8,6.2,63,11.5l5.4,146.2
	c0.2,6-1.4,11.9-4.5,17c-17,27.7-26.7,59.4-26.7,93.2c0,107.4,98,194.5,218.9,194.5S474.9,375.4,474.9,268
	c0-33.8-9.7-65.5-26.7-93.2C445,169.7,443.4,163.8,443.7,157.8z"/>
<path class="st1" d="M474.9,268c0,104.3-92.5,189.5-208.6,194.3c98-19.3,171.3-97,171.3-189.9c0-33.8-9.7-65.5-26.7-93.2
	c-3.1-5.1-4.7-11-4.5-17l5.3-143.8L438.9,5c4.8-2.3,10.3,1.3,10.1,6.6l-5.4,146.2c-0.2,6,1.4,11.9,4.5,17
	C465.2,202.5,474.9,234.2,474.9,268z"/>
<g>
	<path class="st2" d="M214.6,371.5c-4.1,0-7.5-3.4-7.5-7.5s3.4-7.5,7.5-7.5c10.6,0,18.9-2.9,24.6-8.7c9.3-9.4,9.3-23.8,9.3-24
		c-0.1-4.1,3.2-7.6,7.4-7.6c0,0,0.1,0,0.1,0c4.1,0,7.4,3.3,7.5,7.4c0,0.8,0.2,20.7-13.6,34.7C241.2,367,229.4,371.5,214.6,371.5z"/>
	<path class="st2" d="M297.4,371.5c-14.8,0-26.7-4.4-35.3-13.2c-13.8-14-13.7-33.9-13.6-34.7c0.1-4.1,3.4-7.4,7.5-7.4
		c0,0,0.1,0,0.1,0c4.1,0.1,7.4,3.5,7.4,7.6c0,0.3,0.1,14.7,9.4,24.1c5.7,5.7,13.9,8.6,24.5,8.6c4.1,0,7.5,3.4,7.5,7.5
		C304.9,368.1,301.6,371.5,297.4,371.5z"/>
</g>
<g>
	<path class="st3" d="M361.4,284.7c-3.1,0-6-1.9-7.1-5c-1.4-3.9,0.7-8.2,4.6-9.6L502,219.6c3.9-1.4,8.2,0.7,9.6,4.6
		c1.4,3.9-0.7,8.2-4.6,9.6l-143.1,50.6C363.1,284.6,362.2,284.7,361.4,284.7z"/>
	<path class="st3" d="M504.5,376.5c-0.8,0-1.7-0.1-2.5-0.4l-143.1-50.6c-3.9-1.4-6-5.7-4.6-9.6c1.4-3.9,5.7-6,9.6-4.6L507,362
		c3.9,1.4,6,5.7,4.6,9.6C510.5,374.6,507.6,376.5,504.5,376.5z"/>
	<path class="st3" d="M150.6,284.7c-0.8,0-1.7-0.1-2.5-0.4L5,233.7c-3.9-1.4-6-5.7-4.6-9.6c1.4-3.9,5.7-6,9.6-4.6l143.1,50.6
		c3.9,1.4,6,5.7,4.6,9.6C156.6,282.8,153.7,284.7,150.6,284.7z"/>
	<path class="st3" d="M7.5,376.5c-3.1,0-6-1.9-7.1-5c-1.4-3.9,0.7-8.2,4.6-9.6l143.1-50.6c3.9-1.4,8.2,0.7,9.6,4.6
		c1.4,3.9-0.7,8.2-4.6,9.6L10,376.1C9.2,376.4,8.3,376.5,7.5,376.5z"/>
</g>
<g>
	<circle class="st2" cx="188.9" cy="221.8" r="16"/>
	<circle class="st2" cx="323.1" cy="221.8" r="16"/>
</g>
<g>
	<path class="st4" d="M105.4,126.9l-3.7-55.1c-0.3-3.9,3.9-6.6,7.3-4.8l51.1,27.1c3.8,2,3.5,7.7-0.6,9.1
		c-10.6,3.8-27.4,11.5-45.8,27.1C110.5,133.1,105.6,131,105.4,126.9z"/>
	<path class="st4" d="M406.6,126.9l3.7-55.1c0.3-3.9-3.9-6.6-7.3-4.8l-51.1,27.1c-3.8,2-3.5,7.7,0.6,9.1
		c10.6,3.8,27.4,11.5,45.8,27.1C401.5,133.1,406.4,131,406.6,126.9z"/>
</g>
<g>
	<path class="st2" d="M259.3,321.1c11.4-1.5,21.2-11.9,27.2-21c3.1-4.6,7.9-10.5,7.6-16.4c-0.2-5.1-6.3-6.4-10.4-7.1
		c-8.1-1.3-16.5-2.2-24.8-2.2h-6c-8.3,0-16.7,0.9-24.8,2.2c-4,0.7-10.1,2-10.4,7.1c-0.3,5.9,4.6,11.8,7.6,16.4
		c5.8,8.7,14,16.4,23.9,19.9C252.8,321.2,256.1,321.5,259.3,321.1z"/>
	<path class="st2" d="M294.1,283.7c0.3,5.9-4.5,11.8-7.6,16.4c-6,9.1-15.8,19.5-27.2,21c-3.2,0.4-6.5,0.1-9.9-1.1
		c-0.5-0.2-1-0.4-1.5-0.6c8.8-3.6,16.2-11.9,21.2-19.3c3.1-4.6,7.9-10.5,7.6-16.4c-0.2-5.1-6.3-6.4-10.4-7.1
		c-6.2-1-12.6-1.8-19.1-2.1c1.9-0.1,3.8-0.1,5.7-0.2h6c8.3,0,16.7,0.9,24.8,2.2C287.8,277.3,293.9,278.7,294.1,283.7z"/>
</g>
<g>
	<path class="st5" d="M159.4,103.3c-3.3,1.2-7.1,2.7-11.4,4.7c-0.3-0.3-0.7-0.5-1.1-0.8l-44.5-23.6l-0.8-11.8
		c-0.3-3.9,3.9-6.6,7.3-4.8l51.1,27.1C163.9,96.2,163.5,101.8,159.4,103.3z"/>
	<path class="st5" d="M410.4,71.8l-3.7,55.1c-0.3,4.1-5.1,6.1-8.2,3.5c-3.2-2.7-6.3-5.1-9.3-7.4c0,0,0-0.1,0-0.1l2.3-49.7l11.6-6.2
		C406.5,65.2,410.6,67.9,410.4,71.8z"/>
</g>
</svg>
