<?xml version="1.0" encoding="utf-8"?>
<!-- Generator: Adobe Illustrator 24.3.0, SVG Export Plug-In . SVG Version: 6.00 Build 0)  -->
<svg version="1.1" id="Laag_1" xmlns="http://www.w3.org/2000/svg" xmlns:xlink="http://www.w3.org/1999/xlink" x="0px" y="0px"
	 viewBox="0 0 353.1 512" style="enable-background:new 0 0 353.1 512;" xml:space="preserve">
<style type="text/css">
	.st0{fill:#95A5A5;}
	.st1{fill:#E6646E;}
	.st2{fill:#67B9CC;}
	.st3{fill:#DC4655;}
	.st4{fill:#7F8C8D;}
	.st5{fill:#2C3E50;}
	.st6{fill:#285680;}
</style>
<g id="Page-1">
	<g id="_x30_07---Old-Man-Beard">
		<path id="Shape" class="st0" d="M342.6,201c7-31.2,10.5-63.1,10.5-95.1c0-28.1-11.1-55.1-31-74.9S275.3,0,247.2,0H105.9
			C77.8,0,50.9,11.1,31,31S0,77.8,0,105.9c0,32,3.5,63.9,10.5,95.1H342.6z"/>
		<path id="Shape_1_" class="st1" d="M44.1,273.7v61.8c0,0,0,124.5,132.4,124.5S309,335.4,309,335.4v-61.8
			c24.4,0,44.1-19.8,44.1-44.1s-19.8-44.1-44.1-44.1v-53C309,59.3,249.7,0,176.6,0S44.1,59.3,44.1,132.4v53
			C19.8,185.4,0,205.1,0,229.5S19.8,273.7,44.1,273.7z"/>
		<path id="Shape_2_" class="st1" d="M257.9,437.2c2.2,21.5,7.2,42.5,15,62.7c1.1,2.7,0.8,5.8-0.9,8.2c-1.7,2.4-4.4,3.9-7.3,3.8
			H88.4c-2.9,0-5.7-1.4-7.3-3.8c-1.7-2.4-2-5.5-0.9-8.2c7.8-20.1,12.8-41.2,15-62.7"/>
		<path id="Shape_3_" class="st0" d="M309,273.7v61.8c0,0,0,124.5-132.4,124.5S44.1,335.4,44.1,335.4v-61.8c24,36,48,47.5,60.9,51.2
			c4.5,1.4,9.3-1.1,10.8-5.6c3.3-11.3,13.6-19.1,25.4-19.2h70.6c11.8,0,22.2,7.8,25.4,19.2c1.5,4.5,6.3,7,10.8,5.6
			C260.9,321.1,285,309.7,309,273.7z"/>
		<circle id="Oval" class="st2" cx="114.8" cy="203" r="44.1"/>
		<circle id="Oval_1_" class="st2" cx="238.3" cy="203" r="44.1"/>
		<g>
			<path id="Shape_4_" class="st3" d="M203,344.3h-53c-4.9,0-8.8-4-8.8-8.8s4-8.8,8.8-8.8h53c4.9,0,8.8,4,8.8,8.8
				S207.9,344.3,203,344.3z"/>
			<path id="Shape_5_" class="st3" d="M194.2,97.1h-35.3c-4.9,0-8.8-4-8.8-8.8c0-4.9,4-8.8,8.8-8.8h35.3c4.9,0,8.8,4,8.8,8.8
				C203,93.2,199.1,97.1,194.2,97.1z"/>
			<path id="Shape_6_" class="st3" d="M194.2,61.8h-35.3c-4.9,0-8.8-4-8.8-8.8s4-8.8,8.8-8.8h35.3c4.9,0,8.8,4,8.8,8.8
				S199.1,61.8,194.2,61.8z"/>
		</g>
		<path id="Shape_7_" class="st4" d="M185.4,379.6h-17.7c-4.9,0-8.8-4-8.8-8.8s4-8.8,8.8-8.8h17.7c4.9,0,8.8,4,8.8,8.8
			S190.3,379.6,185.4,379.6z"/>
		<path id="Shape_8_" class="st5" d="M114.8,220.7c-4.9,0-8.8-4-8.8-8.8V203c0-4.9,4-8.8,8.8-8.8s8.8,4,8.8,8.8v8.8
			C123.6,216.7,119.6,220.7,114.8,220.7z"/>
		<path id="Shape_9_" class="st3" d="M185.4,264.8h-17.7c-4.9,0-8.8-4-8.8-8.8s4-8.8,8.8-8.8h17.7c4.9,0,8.8,4,8.8,8.8
			S190.3,264.8,185.4,264.8z"/>
		<g>
			<path id="Shape_10_" class="st6" d="M70.6,205.1c-1.7,0-3.4-0.5-4.9-1.5l-26.5-18.2c-2.7-1.7-4.2-4.8-4-7.9
				c0.2-3.2,2.1-6,4.9-7.4c2.9-1.4,6.3-1.1,8.9,0.7l26.5,18.2c3.2,2.2,4.7,6.2,3.6,9.9S74.5,205.1,70.6,205.1L70.6,205.1z"/>
			<path id="Shape_11_" class="st6" d="M282.5,205.1c1.7,0,3.4-0.5,4.9-1.5l26.5-18.2c2.6-1.8,4.1-4.8,3.9-7.9s-2.1-5.9-4.9-7.3
				s-6.2-1.2-8.8,0.6l-26.5,18.2c-3.2,2.2-4.7,6.2-3.5,9.9C275.2,202.5,278.6,205.1,282.5,205.1L282.5,205.1z"/>
			<path id="Shape_12_" class="st6" d="M114.8,256c-29.3,0-53-23.7-53-53s23.7-53,53-53s53,23.7,53,53
				C167.7,232.3,144,256,114.8,256z M114.8,167.7c-19.5,0-35.3,15.8-35.3,35.3s15.8,35.3,35.3,35.3s35.3-15.8,35.3-35.3
				S134.3,167.7,114.8,167.7z"/>
		</g>
		<path id="Shape_13_" class="st5" d="M238.3,220.7c-4.9,0-8.8-4-8.8-8.8V203c0-4.9,4-8.8,8.8-8.8c4.9,0,8.8,4,8.8,8.8v8.8
			C247.2,216.7,243.2,220.7,238.3,220.7z"/>
		<path id="Shape_14_" class="st6" d="M238.3,256c-29.3,0-53-23.7-53-53s23.7-53,53-53s53,23.7,53,53
			C291.3,232.3,267.6,256,238.3,256z M238.3,167.7c-19.5,0-35.3,15.8-35.3,35.3s15.8,35.3,35.3,35.3s35.3-15.8,35.3-35.3
			S257.8,167.7,238.3,167.7z"/>
		<path id="Shape_15_" class="st6" d="M199.4,191c-1.6,0-3.1-0.4-4.5-1.2c-11.5-5.9-25.2-5.9-36.7,0c-2.7,1.6-6.1,1.6-8.8,0.1
			s-4.5-4.4-4.5-7.6c0-3.2,1.6-6.1,4.3-7.7c17.1-9.2,37.6-9.2,54.7,0c3.4,2,5.1,6.1,4,9.9C206.9,188.4,203.4,191,199.4,191
			L199.4,191z"/>
	</g>
</g>
</svg>
