<?xml version="1.0" encoding="utf-8"?>
<!-- Generator: Adobe Illustrator 24.3.0, SVG Export Plug-In . SVG Version: 6.00 Build 0)  -->
<svg version="1.1" id="Capa_1" xmlns="http://www.w3.org/2000/svg" xmlns:xlink="http://www.w3.org/1999/xlink" x="0px" y="0px"
	 viewBox="0 0 154 512" style="enable-background:new 0 0 154 512;" xml:space="preserve">
<style type="text/css">
	.st0{fill:#C9C6CA;}
	.st1{fill:#EDEBED;}
	.st2{fill:#DBD9DC;}
</style>
<path class="st0" d="M101.8,24.8v479c0,4.6-3.7,8.3-8.3,8.3h-33c-4.6,0-8.3-3.7-8.3-8.3v-479L101.8,24.8L101.8,24.8z"/>
<path class="st1" d="M14.3,197.3l-8.6,12.8c-1.8,2.8-1.8,6.4,0,9.2l8.6,12.8c3.1,4.6,8.2,7.4,13.7,7.4H126c5.5,0,10.7-2.8,13.7-7.4
	l8.6-12.8c1.8-2.8,1.8-6.4,0-9.2l-8.6-12.8c-3.1-4.6-8.2-7.4-13.7-7.4H28C22.5,189.9,17.4,192.7,14.3,197.3z"/>
<path class="st2" d="M5.7,219.3l8.6,12.8c3.1,4.6,8.2,7.4,13.7,7.4H126c5.5,0,10.7-2.8,13.7-7.4l8.6-12.8c0.9-1.4,1.4-3,1.4-4.6H4.3
	C4.3,216.3,4.8,217.9,5.7,219.3z"/>
<path class="st1" d="M14.3,114.7l-8.6,12.8c-1.8,2.8-1.8,6.4,0,9.2l8.6,12.8c3.1,4.6,8.2,7.4,13.7,7.4H126c5.5,0,10.7-2.8,13.7-7.4
	l8.6-12.8c1.8-2.8,1.8-6.4,0-9.2l-8.6-12.8c-3.1-4.6-8.2-7.4-13.7-7.4H28C22.5,107.4,17.4,110.1,14.3,114.7z"/>
<path class="st2" d="M5.7,136.7l8.6,12.8c3.1,4.6,8.2,7.4,13.7,7.4H126c5.5,0,10.7-2.8,13.7-7.4l8.6-12.8c0.9-1.4,1.4-3,1.4-4.6H4.3
	C4.3,133.7,4.8,135.3,5.7,136.7z"/>
<path class="st1" d="M14.3,32.1L5.7,45c-1.8,2.8-1.8,6.4,0,9.2L14.3,67c3.1,4.6,8.2,7.4,13.7,7.4H126c5.5,0,10.7-2.8,13.7-7.4
	l8.6-12.8c1.8-2.8,1.8-6.4,0-9.2l-8.6-12.8c-3.1-4.6-8.2-7.4-13.7-7.4H28C22.5,24.8,17.4,27.5,14.3,32.1z"/>
<path class="st2" d="M5.7,54.1L14.3,67c3.1,4.6,8.2,7.4,13.7,7.4H126c5.5,0,10.7-2.8,13.7-7.4l8.6-12.8c0.9-1.4,1.4-3,1.4-4.6H4.3
	C4.3,51.1,4.8,52.7,5.7,54.1z"/>
<path class="st1" d="M14.3,445l-8.6,12.8c-1.8,2.8-1.8,6.4,0,9.2l8.6,12.8c3.1,4.6,8.2,7.4,13.7,7.4H126c5.5,0,10.7-2.8,13.7-7.4
	l8.6-12.8c1.8-2.8,1.8-6.4,0-9.2l-8.6-12.8c-3.1-4.6-8.2-7.4-13.7-7.4H28C22.5,437.7,17.4,440.4,14.3,445z"/>
<path class="st2" d="M5.7,467l8.6,12.8c3.1,4.6,8.2,7.4,13.7,7.4H126c5.5,0,10.7-2.8,13.7-7.4l8.6-12.8c0.9-1.4,1.4-3,1.4-4.6H4.3
	C4.3,464,4.8,465.6,5.7,467z"/>
<path class="st1" d="M14.3,362.5l-8.6,12.8c-1.8,2.8-1.8,6.4,0,9.2l8.6,12.8c3.1,4.6,8.2,7.4,13.7,7.4H126c5.5,0,10.7-2.8,13.7-7.4
	l8.6-12.8c1.8-2.8,1.8-6.4,0-9.2l-8.6-12.8c-3.1-4.6-8.2-7.4-13.7-7.4H28C22.5,355.1,17.4,357.9,14.3,362.5z"/>
<path class="st2" d="M5.7,384.5l8.6,12.8c3.1,4.6,8.2,7.4,13.7,7.4H126c5.5,0,10.7-2.8,13.7-7.4l8.6-12.8c0.9-1.4,1.4-3,1.4-4.6H4.3
	C4.3,381.5,4.8,383.1,5.7,384.5z"/>
<path class="st1" d="M14.3,279.9l-8.6,12.8c-1.8,2.8-1.8,6.4,0,9.2l8.6,12.8c3.1,4.6,8.2,7.4,13.7,7.4H126c5.5,0,10.7-2.8,13.7-7.4
	l8.6-12.8c1.8-2.8,1.8-6.4,0-9.2l-8.6-12.8c-3.1-4.6-8.2-7.4-13.7-7.4H28C22.5,272.5,17.4,275.3,14.3,279.9z"/>
<g>
	<path class="st2" d="M5.7,301.9l8.6,12.8c3.1,4.6,8.2,7.4,13.7,7.4H126c5.5,0,10.7-2.8,13.7-7.4l8.6-12.8c0.9-1.4,1.4-3,1.4-4.6
		H4.3C4.3,298.9,4.8,300.5,5.7,301.9z"/>
	<path class="st2" d="M85.3,412.9v-8.3h-33v16.5H77C81.6,421.2,85.3,417.5,85.3,412.9z"/>
	<path class="st2" d="M85.3,330.3v-8.3h-33v16.5H77C81.6,338.6,85.3,334.9,85.3,330.3z"/>
	<path class="st2" d="M85.3,247.7v-8.3h-33V256H77C81.6,256,85.3,252.3,85.3,247.7z"/>
	<path class="st2" d="M85.3,165.2v-8.3h-33v16.5H77C81.6,173.4,85.3,169.7,85.3,165.2z"/>
	<path class="st2" d="M85.3,82.6v-8.3h-33v16.5H77C81.6,90.8,85.3,87.1,85.3,82.6z"/>
	<path class="st2" d="M101.8,8.3v16.5H52.2V8.3c0-4.6,3.7-8.3,8.3-8.3h33C98.1,0,101.8,3.7,101.8,8.3z"/>
</g>
</svg>
