<?xml version="1.0" encoding="utf-8"?>
<!-- Generator: Adobe Illustrator 24.3.0, SVG Export Plug-In . SVG Version: 6.00 Build 0)  -->
<svg version="1.1" id="Capa_1" xmlns="http://www.w3.org/2000/svg" xmlns:xlink="http://www.w3.org/1999/xlink" x="0px" y="0px"
	 viewBox="0 0 512.1 145.3" style="enable-background:new 0 0 512.1 145.3;" xml:space="preserve">
<style type="text/css">
	.st0{fill:#C9C6CA;}
	.st1{fill:#EDEBED;}
	.st2{fill:#DBD9DC;}
</style>
<path class="st0" d="M24.8,47.9h479c4.6,0,8.3,3.7,8.3,8.3v33c0,4.6-3.7,8.3-8.3,8.3l-479,0L24.8,47.9L24.8,47.9z"/>
<path class="st1" d="M197.3,135.4l12.8,8.6c2.8,1.8,6.4,1.8,9.2,0l12.8-8.6c4.6-3.1,7.4-8.2,7.4-13.7v-98c0-5.5-2.8-10.7-7.4-13.7
	l-12.8-8.6c-2.8-1.8-6.4-1.8-9.2,0L197.3,10c-4.6,3.1-7.4,8.2-7.4,13.7v98C189.9,127.2,192.7,132.3,197.3,135.4z"/>
<path class="st2" d="M219.3,144l12.8-8.6c4.6-3.1,7.4-8.2,7.4-13.7v-98c0-5.5-2.8-10.7-7.4-13.7l-12.8-8.6c-1.4-0.9-3-1.4-4.6-1.4
	v145.4C216.3,145.4,217.9,144.9,219.3,144z"/>
<path class="st1" d="M114.7,135.4l12.8,8.6c2.8,1.8,6.4,1.8,9.2,0l12.8-8.6c4.6-3.1,7.4-8.2,7.4-13.7v-98c0-5.5-2.8-10.7-7.4-13.7
	l-12.8-8.6c-2.8-1.8-6.4-1.8-9.2,0L114.7,10c-4.6,3.1-7.4,8.2-7.4,13.7v98C107.4,127.2,110.1,132.3,114.7,135.4z"/>
<path class="st2" d="M136.7,144l12.8-8.6c4.6-3.1,7.4-8.2,7.4-13.7v-98c0-5.5-2.8-10.7-7.4-13.7l-12.8-8.6c-1.4-0.9-3-1.4-4.6-1.4
	v145.4C133.7,145.4,135.3,144.9,136.7,144z"/>
<path class="st1" d="M32.1,135.4L45,144c2.8,1.8,6.4,1.8,9.2,0l12.8-8.6c4.6-3.1,7.4-8.2,7.4-13.7v-98c0-5.5-2.8-10.7-7.4-13.7
	L54.2,1.4c-2.8-1.8-6.4-1.8-9.2,0L32.2,10c-4.6,3.1-7.4,8.2-7.4,13.7v98C24.8,127.2,27.5,132.3,32.1,135.4z"/>
<path class="st2" d="M54.1,144l12.9-8.6c4.6-3.1,7.4-8.2,7.4-13.7v-98c0-5.5-2.8-10.7-7.4-13.7L54.2,1.4c-1.4-0.9-3-1.4-4.6-1.4
	v145.4C51.1,145.4,52.7,144.9,54.1,144z"/>
<path class="st1" d="M445,135.4l12.8,8.6c2.8,1.8,6.4,1.8,9.2,0l12.8-8.6c4.6-3.1,7.4-8.2,7.4-13.7v-98c0-5.5-2.8-10.7-7.4-13.7
	L467,1.4c-2.8-1.8-6.4-1.8-9.2,0L445,10c-4.6,3.1-7.4,8.2-7.4,13.7v98C437.7,127.2,440.4,132.3,445,135.4z"/>
<path class="st2" d="M467,144l12.8-8.6c4.6-3.1,7.4-8.2,7.4-13.7v-98c0-5.5-2.8-10.7-7.4-13.7L467,1.4c-1.4-0.9-3-1.4-4.6-1.4v145.4
	C464,145.4,465.6,144.9,467,144z"/>
<path class="st1" d="M362.5,135.4l12.8,8.6c2.8,1.8,6.4,1.8,9.2,0l12.8-8.6c4.6-3.1,7.4-8.2,7.4-13.7v-98c0-5.5-2.8-10.7-7.4-13.7
	l-12.8-8.6c-2.8-1.8-6.4-1.8-9.2,0L362.5,10c-4.6,3.1-7.4,8.2-7.4,13.7v98C355.1,127.2,357.9,132.3,362.5,135.4z"/>
<path class="st2" d="M384.5,144l12.8-8.6c4.6-3.1,7.4-8.2,7.4-13.7v-98c0-5.5-2.8-10.7-7.4-13.7l-12.8-8.6c-1.4-0.9-3-1.4-4.6-1.4
	v145.4C381.5,145.4,383.1,144.9,384.5,144z"/>
<path class="st1" d="M279.9,135.4l12.8,8.6c2.8,1.8,6.4,1.8,9.2,0l12.8-8.6c4.6-3.1,7.4-8.2,7.4-13.7v-98c0-5.5-2.8-10.7-7.4-13.7
	l-12.8-8.6c-2.8-1.8-6.4-1.8-9.2,0L279.9,10c-4.6,3.1-7.4,8.2-7.4,13.7v98C272.5,127.2,275.3,132.3,279.9,135.4z"/>
<g>
	<path class="st2" d="M301.9,144l12.8-8.6c4.6-3.1,7.4-8.2,7.4-13.7v-98c0-5.5-2.8-10.7-7.4-13.7l-12.8-8.6c-1.4-0.9-3-1.4-4.6-1.4
		v145.4C298.9,145.4,300.5,144.9,301.9,144z"/>
	<path class="st2" d="M412.9,64.4h-8.3v33h16.5V72.7C421.2,68.1,417.5,64.4,412.9,64.4z"/>
	<path class="st2" d="M330.3,64.4H322v33h16.5V72.7C338.6,68.1,334.9,64.4,330.3,64.4z"/>
	<path class="st2" d="M247.7,64.4h-8.3v33H256V72.7C256,68.1,252.3,64.4,247.7,64.4z"/>
	<path class="st2" d="M165.2,64.4h-8.3v33h16.5V72.7C173.4,68.1,169.7,64.4,165.2,64.4z"/>
	<path class="st2" d="M82.6,64.4h-8.3v33h16.5V72.7C90.8,68.1,87.1,64.4,82.6,64.4z"/>
	<path class="st2" d="M8.3,47.9h16.5v49.6H8.3c-4.6,0-8.3-3.7-8.3-8.3l0-33C0,51.6,3.7,47.9,8.3,47.9z"/>
</g>
</svg>
