<?xml version="1.0" encoding="utf-8"?>
<!-- Generator: Adobe Illustrator 24.3.0, SVG Export Plug-In . SVG Version: 6.00 Build 0)  -->
<svg version="1.1" id="Capa_1" xmlns="http://www.w3.org/2000/svg" xmlns:xlink="http://www.w3.org/1999/xlink" x="0px" y="0px"
	 viewBox="0 0 303 413.6" style="enable-background:new 0 0 303 413.6;" xml:space="preserve">
<style type="text/css">
	.st0{fill:#D97B7B;}
	.st1{fill:#CA4646;}
	.st2{fill:#FFD164;}
	.st3{fill:#BE694E;}
	.st4{fill:#FFE17D;}
	.st5{fill:#766D78;}
	.st6{fill:#9EC8FC;}
	.st7{fill:#80B6FC;}
	.st8{fill:#D16161;}
</style>
<g>
	<path class="st0" d="M271.2,336.4v75.3c0,1.1-1.1,1.9-2.4,1.9H35.3c-1.3,0-2.4-0.9-2.4-1.9v-75.3c0-5.7,3-11.2,8.1-15L64.4,304
		c4.5-3.3,10.3-5.2,16.4-5.2h6.6c3.4,0,4.9-3.6,2.1-5.3l-4.9-3c-14.6-8.9-12.6-23.3,4-30.7c37.5-16.8,89.3-16.8,126.9,0
		c16.7,7.4,18.5,21.9,4,30.7l-4.9,3c-2.8,1.7-1.3,5.3,2.1,5.3h6.6c6.1,0,12,1.8,16.4,5.2l23.4,17.3
		C268.3,325.2,271.2,330.7,271.2,336.4L271.2,336.4z"/>
	<path class="st1" d="M100.7,282.7c-13.5,10.2-15,29.8-3.2,41.9l47,48.4c4.1,4.2,10.9,4.2,15.1,0l47-48.4
		c11.8-12.1,10.2-31.8-3.2-41.9C172.9,259.8,131.1,259.8,100.7,282.7z"/>
	<path class="st2" d="M193.2,329.3c-6.8,0-12.4-5.5-12.4-12.4v-46.3c-18.7-6.7-39.1-6.7-57.6,0v46.3c0,6.8-5.5,12.4-12.4,12.4H102
		l42.5,43.7c4.1,4.2,10.9,4.2,15.1,0l42.5-43.7H193.2z"/>
	<path class="st3" d="M38.8,139.4h226.3V216H38.8V139.4z"/>
	<path class="st0" d="M254.2,97.7H49.8v-18c0-44,35.7-79.7,79.7-79.7h45.1c44,0,79.7,35.7,79.7,79.7L254.2,97.7L254.2,97.7z"/>
	<path class="st4" d="M255.1,238.1H48.9c-12.2,0-22.1-9.9-22.1-22.1s9.9-22.1,22.1-22.1h206.2c12.2,0,22.1,9.9,22.1,22.1
		S267.3,238.1,255.1,238.1z"/>
	<path class="st4" d="M73.1,128.5v109.4c0,22.2,18,40.3,40.3,40.3h77.3c22.2,0,40.3-18,40.3-40.3V128.5H73.1z"/>
	<path class="st2" d="M205.6,128.5v109.4c0,22.2-18,40.3-40.3,40.3h25.4c22.2,0,40.3-18,40.3-40.3V128.5H205.6z"/>
	<g>
		<path class="st5" d="M112.7,202.5c-4.3,0-7.7-3.5-7.7-7.7V193c0-4.3,3.5-7.7,7.7-7.7s7.7,3.5,7.7,7.7v1.8
			C120.4,199,117,202.5,112.7,202.5z"/>
		<path class="st5" d="M191.3,202.5c-4.3,0-7.7-3.5-7.7-7.7V193c0-4.3,3.5-7.7,7.7-7.7s7.7,3.5,7.7,7.7v1.8
			C199,199,195.6,202.5,191.3,202.5z"/>
	</g>
	<path class="st0" d="M4.5,131.6v19.7c0,5.3,4.3,9.6,9.6,9.6h275.8c5.3,0,9.6-4.3,9.6-9.6v-19.7c0-5.3-4.3-9.6-9.6-9.6H14.1
		C8.8,122,4.5,126.3,4.5,131.6L4.5,131.6z"/>
	<path class="st6" d="M32.9,76.9v47.9c0,3.7,1.9,7.2,5,9.3l10.8,7.1c3,2,6.9,2.4,10.2,1c62.1-25.3,124.2-25.3,186.3,0
		c3.4,1.4,7.2,1,10.2-1l10.8-7.1c3.1-2,5-5.5,5-9.3V76.9c0-7.6-4.1-14.6-10.8-18.1c-72.2-38.1-144.4-38.1-216.6,0
		C37,62.3,32.9,69.3,32.9,76.9z"/>
	<path class="st7" d="M266.1,107.9l-10.8,7.1c-3,2-6.9,2.4-10.2,1C183,90.6,121,90.6,58.9,116c-3.4,1.4-7.2,1-10.2-1l-10.8-7.1
		c-3.1-2-5-5.5-5-9.3v26.1c0,3.7,1.9,7.2,5,9.3l10.8,7.1c3,2,6.9,2.4,10.2,1c62.1-25.3,124.2-25.3,186.3,0c3.4,1.4,7.2,1,10.2-1
		l10.8-7.1c3.1-2,5-5.5,5-9.3V98.6C271.1,102.4,269.3,105.9,266.1,107.9z"/>
	<path class="st7" d="M260.3,58.8c-16-8.4-32-15-48-19.7c7.3,3.4,14.6,7.2,21.9,11.4c6.7,3.9,10.8,11.6,10.8,19.9V123
		c0,4.1-1.9,7.9-5,10.2l-6.3,4.6c3.8,1.4,7.6,2.8,11.4,4.4c3.4,1.4,7.2,1,10.2-1l10.8-7.1c3.1-2,5-5.5,5-9.3V76.9
		C271.1,69.3,267,62.3,260.3,58.8L260.3,58.8z"/>
</g>
<path class="st8" d="M88.4,362.4v51.2H73.1v-51.2c0-2,3.4-3.6,7.6-3.6C84.9,358.8,88.4,360.4,88.4,362.4z"/>
<path class="st8" d="M229.8,362.4v51.2h-15.3v-51.2c0-2,3.4-3.6,7.6-3.6C226.3,358.8,229.8,360.4,229.8,362.4z"/>
</svg>
