<?xml version="1.0" encoding="utf-8"?>
<!-- Generator: Adobe Illustrator 24.3.0, SVG Export Plug-In . SVG Version: 6.00 Build 0)  -->
<svg version="1.1" id="Capa_1" xmlns="http://www.w3.org/2000/svg" xmlns:xlink="http://www.w3.org/1999/xlink" x="0px" y="0px"
	 viewBox="0 0 311 512" style="enable-background:new 0 0 311 512;" xml:space="preserve">
<style type="text/css">
	.st0{fill:#E6646E;}
	.st1{fill:#EEC06B;}
	.st2{fill:#DC4655;}
	.st3{fill:#FFD164;}
	.st4{fill:#BE694E;}
	.st5{fill:#FFE17D;}
	.st6{fill:#766D78;}
	.st7{fill:#9EC8FC;}
	.st8{fill:#80B6FC;}
</style>
<g>
	<path class="st0" d="M311,389.1v119.8c0,1.7-1.4,3.1-3.1,3.1H3.1c-1.7,0-3.1-1.4-3.1-3.1V389.1c0-9.1,3.9-17.8,10.6-23.9l30.5-27.6
		c5.9-5.3,13.5-8.3,21.4-8.3h8.6c4.5,0,6.4-5.7,2.8-8.4l-6.4-4.8C48.5,302,51,279,72.7,267.2c49-26.7,116.6-26.7,165.6,0
		c21.8,11.8,24.2,34.8,5.2,48.9l-6.4,4.8c-3.6,2.7-1.7,8.4,2.8,8.4h8.6c7.9,0,15.6,2.9,21.4,8.3l30.5,27.6
		C307.2,371.3,311,380,311,389.1L311,389.1z"/>
	<path class="st1" d="M54.7,420.6h201.7v34.9H54.7V420.6z"/>
	<path class="st2" d="M264.1,401.2V512h-15.5V401.2c0-4.3,3.5-7.7,7.7-7.7C260.6,393.4,264.1,396.9,264.1,401.2z"/>
	<path class="st2" d="M62.4,401.2V512H46.9V401.2c0-4.3,3.5-7.7,7.7-7.7C58.9,393.4,62.4,396.9,62.4,401.2z"/>
	<path class="st2" d="M104.2,282.7c-13.5,10.2-15,29.8-3.2,41.9l47,48.4c4.1,4.2,10.9,4.2,15.1,0l47-48.4
		c11.8-12.1,10.2-31.8-3.2-41.9C176.4,259.8,134.6,259.8,104.2,282.7z"/>
	<path class="st3" d="M196.7,329.3c-6.8,0-12.4-5.5-12.4-12.4v-46.3c-18.7-6.7-39.1-6.7-57.6,0v46.3c0,6.8-5.5,12.4-12.4,12.4h-8.8
		L148,373c4.1,4.2,10.9,4.2,15.1,0l42.5-43.7H196.7z"/>
	<path class="st4" d="M42.3,139.4h226.3V216H42.3V139.4z"/>
	<path class="st0" d="M257.7,97.7H53.3v-18C53.3,35.7,89,0,133,0h45.1c44,0,79.7,35.7,79.7,79.7L257.7,97.7L257.7,97.7z"/>
	<path class="st5" d="M258.6,238.1H52.4c-12.2,0-22.1-9.9-22.1-22.1s9.9-22.1,22.1-22.1h206.2c12.2,0,22.1,9.9,22.1,22.1
		S270.8,238.1,258.6,238.1z"/>
	<path class="st5" d="M76.6,128.5v109.4c0,22.2,18,40.3,40.3,40.3h77.3c22.2,0,40.3-18,40.3-40.3V128.5H76.6z"/>
	<path class="st3" d="M209.1,128.5v109.4c0,22.2-18,40.3-40.3,40.3h25.4c22.2,0,40.3-18,40.3-40.3V128.5H209.1z"/>
	<g>
		<path class="st6" d="M116.2,202.5c-4.3,0-7.7-3.5-7.7-7.7V193c0-4.3,3.5-7.7,7.7-7.7s7.7,3.5,7.7,7.7v1.8
			C123.9,199,120.5,202.5,116.2,202.5z"/>
		<path class="st6" d="M194.8,202.5c-4.3,0-7.7-3.5-7.7-7.7V193c0-4.3,3.5-7.7,7.7-7.7s7.7,3.5,7.7,7.7v1.8
			C202.5,199,199.1,202.5,194.8,202.5z"/>
	</g>
	<path class="st0" d="M8,131.6v19.7c0,5.3,4.3,9.6,9.6,9.6h275.8c5.3,0,9.6-4.3,9.6-9.6v-19.7c0-5.3-4.3-9.6-9.6-9.6H17.6
		C12.3,122,8,126.3,8,131.6L8,131.6z"/>
	<path class="st7" d="M36.4,76.9v47.9c0,3.7,1.9,7.2,5,9.3l10.8,7.1c3,2,6.9,2.4,10.2,1c62.1-25.3,124.2-25.3,186.3,0
		c3.4,1.4,7.2,1,10.2-1l10.8-7.1c3.1-2,5-5.5,5-9.3V76.9c0-7.6-4.1-14.6-10.8-18.1c-72.2-38.1-144.4-38.1-216.6,0
		C40.5,62.3,36.4,69.3,36.4,76.9z"/>
	<path class="st8" d="M269.6,107.9l-10.8,7.1c-3,2-6.9,2.4-10.2,1c-62.1-25.4-124.1-25.4-186.2,0c-3.4,1.4-7.2,1-10.2-1l-10.8-7.1
		c-3.1-2-5-5.5-5-9.3v26.1c0,3.7,1.9,7.2,5,9.3l10.8,7.1c3,2,6.9,2.4,10.2,1c62.1-25.3,124.2-25.3,186.3,0c3.4,1.4,7.2,1,10.2-1
		l10.8-7.1c3.1-2,5-5.5,5-9.3V98.6C274.6,102.4,272.8,105.9,269.6,107.9z"/>
	<path class="st8" d="M263.8,58.8c-16-8.4-32-15-48-19.7c7.3,3.4,14.6,7.2,21.9,11.4c6.7,3.9,10.8,11.6,10.8,19.9V123
		c0,4.1-1.9,7.9-5,10.2l-6.3,4.6c3.8,1.4,7.6,2.8,11.4,4.4c3.4,1.4,7.2,1,10.2-1l10.8-7.1c3.1-2,5-5.5,5-9.3V76.9
		C274.6,69.3,270.5,62.3,263.8,58.8L263.8,58.8z"/>
	<path class="st2" d="M163.2,376.2V512h-15.5V376.2c0-1,0.2-2,0.5-2.9c4,3.8,10.3,3.8,14.4,0C163,374.2,163.2,375.2,163.2,376.2z"/>
</g>
</svg>
