<svg id="Capa_1" enable-background="new 0 0 512 512" height="512" viewBox="0 0 512 512" width="512" xmlns="http://www.w3.org/2000/svg"><g><path d="m411.516 389.068v119.841c0 1.71-1.391 3.091-3.091 3.091h-304.851c-1.7 0-3.091-1.38-3.091-3.091v-119.841c0-9.117 3.863-17.801 10.621-23.921l30.524-27.609c5.872-5.315 13.506-8.262 21.428-8.262h8.561c4.492 0 6.387-5.728 2.781-8.406l-6.428-4.78c-18.997-14.114-16.545-37.056 5.213-48.903 49.026-26.692 116.606-26.692 165.633 0 21.757 11.847 24.209 34.789 5.213 48.903l-6.428 4.78c-3.606 2.679-1.71 8.406 2.781 8.406h8.561c7.922 0 15.556 2.947 21.428 8.262l30.524 27.609c6.758 6.12 10.621 14.804 10.621 23.921z" fill="#d97b7b"/><path d="m155.162 420.64h201.676v34.876h-201.676z" fill="#eec06b"/><path d="m364.56 401.173v110.827h-15.453v-110.827c0-4.265 3.461-7.726 7.726-7.726 4.276 0 7.727 3.461 7.727 7.726z" fill="#d16161"/><path d="m162.892 401.173v110.827h-15.452v-110.827c0-4.265 3.451-7.726 7.726-7.726 4.265 0 7.726 3.461 7.726 7.726z" fill="#d16161"/><path d="m204.715 282.694c-13.475 10.163-14.992 29.838-3.232 41.945l46.985 48.375c4.124 4.246 10.942 4.246 15.066 0l46.985-48.375c11.759-12.107 10.243-31.782-3.232-41.945-30.359-22.894-72.215-22.894-102.572 0z" fill="#ca4646"/><path d="m297.203 329.28c-6.841 0-12.389-5.546-12.389-12.387v-46.339c-18.666-6.706-39.111-6.653-57.628 0v46.339c0 6.842-5.547 12.387-12.389 12.387h-8.807l42.477 43.734c4.124 4.246 10.942 4.246 15.066 0l42.477-43.734z" fill="#ebae9d"/><path d="m142.828 139.373h226.344v76.616h-226.344z" fill="#be694e"/><path d="m358.207 97.721h-204.414v-18.049c0-44.002 35.671-79.672 79.672-79.672h45.069c44.002 0 79.672 35.67 79.672 79.672v18.049z" fill="#d97b7b"/><path d="m359.115 238.112h-206.23c-12.218 0-22.123-9.905-22.123-22.123s9.905-22.123 22.123-22.123h206.229c12.218 0 22.123 9.905 22.123 22.123s-9.904 22.123-22.122 22.123z" fill="#ffcdbe"/><path d="m177.088 128.535v109.387c0 22.247 18.034 40.281 40.281 40.281h77.262c22.247 0 40.281-18.034 40.281-40.281v-109.387z" fill="#ffcdbe"/><path d="m309.557 128.535v109.387c0 22.246-18.034 40.281-40.281 40.281h25.355c22.247 0 40.281-18.035 40.281-40.281v-109.387z" fill="#ebae9d"/><g fill="#766d78"><path d="m216.69 202.499c-4.267 0-7.726-3.459-7.726-7.726v-1.813c0-4.268 3.459-7.726 7.726-7.726s7.726 3.459 7.726 7.726v1.813c0 4.267-3.459 7.726-7.726 7.726z"/><path d="m295.31 202.499c-4.267 0-7.726-3.459-7.726-7.726v-1.813c0-4.268 3.459-7.726 7.726-7.726s7.726 3.459 7.726 7.726v1.813c.001 4.267-3.459 7.726-7.726 7.726z"/></g><path d="m108.537 131.572v19.723c0 5.284 4.284 9.568 9.568 9.568h275.789c5.284 0 9.568-4.284 9.568-9.568v-19.723c0-5.284-4.284-9.568-9.568-9.568h-275.789c-5.284 0-9.568 4.283-9.568 9.568z" fill="#d97b7b"/><path d="m136.852 76.878v47.856c0 3.735 1.883 7.218 5.009 9.263l10.796 7.065c3.034 1.985 6.852 2.362 10.209.993 62.089-25.327 124.178-25.327 186.268 0 3.357 1.369 7.176.992 10.209-.993l10.796-7.065c3.125-2.045 5.008-5.528 5.008-9.263v-47.856c0-7.567-4.146-14.56-10.84-18.089-72.205-38.062-144.411-38.062-216.616 0-6.693 3.529-10.839 10.522-10.839 18.089z" fill="#9ec8fc"/><path d="m370.139 107.908-10.796 7.064c-3.034 1.985-6.852 2.363-10.209.993-62.089-25.327-124.178-25.327-186.268 0-3.357 1.37-7.175.992-10.209-.993l-10.796-7.064c-3.125-2.045-5.009-5.528-5.009-9.263v26.089c0 3.735 1.883 7.218 5.009 9.263l10.796 7.065c3.034 1.985 6.852 2.362 10.209.993 62.089-25.327 124.178-25.327 186.268 0 3.357 1.369 7.176.993 10.209-.993l10.796-7.065c3.125-2.045 5.008-5.528 5.008-9.263v-26.089c.001 3.735-1.883 7.218-5.008 9.263z" fill="#80b6fc"/><path d="m364.308 58.789c-15.995-8.432-31.991-14.986-47.986-19.683 7.306 3.375 14.611 7.17 21.917 11.4 6.694 3.876 10.84 11.558 10.84 19.871v52.57c0 4.103-1.883 7.929-5.009 10.176l-6.349 4.564c3.804 1.362 7.609 2.816 11.413 4.368 3.357 1.369 7.176.993 10.209-.993l10.796-7.065c3.125-2.045 5.008-5.528 5.008-9.263v-47.856c.001-7.567-4.145-14.56-10.839-18.089z" fill="#80b6fc"/><path d="m263.726 376.202v135.798h-15.453v-135.798c0-1.01.196-1.968.546-2.854 4.038 3.781 10.322 3.781 14.361 0 .351.886.546 1.844.546 2.854z" fill="#d16161"/></g></svg>