<?xml version="1.0" encoding="utf-8"?>
<!-- Generator: Adobe Illustrator 24.3.0, SVG Export Plug-In . SVG Version: 6.00 Build 0)  -->
<svg version="1.1" id="Capa_1" xmlns="http://www.w3.org/2000/svg" xmlns:xlink="http://www.w3.org/1999/xlink" x="0px" y="0px"
	 viewBox="0 0 308 338" style="enable-background:new 0 0 308 338;" xml:space="preserve">
<style type="text/css">
	.st0{fill:#FFD164;}
	.st1{fill:#BE694E;}
	.st2{fill:#D97B7B;}
	.st3{fill:#FFE17D;}
	.st4{fill:#766D78;}
	.st5{fill:#9EC8FC;}
	.st6{fill:#80B6FC;}
</style>
<path id="Shape_1_" class="st0" d="M192.1,333h-78.1c-1.3,0-2.5-0.9-3.2-2.5c-0.8-1.6-0.9-3.6-0.4-5.4c3.1-11.7,5.2-23.9,6.2-36.4
	c0.5-5.7,0.8-11.1,1.1-16.1h70.8c0.2,4.9,0.5,10.3,1.1,16.1c1.1,12.5,3.2,24.7,6.2,36.4c0.5,1.8,0.4,3.8-0.4,5.4
	C194.6,332.1,193.3,333,192.1,333L192.1,333z"/>
<g>
	<path class="st1" d="M39.8,144.8h226.3v76.6H39.8V144.8z"/>
	<path class="st2" d="M255.2,103.1H50.8V85c0-44,35.7-79.7,79.7-79.7h45.1c44,0,79.7,35.7,79.7,79.7L255.2,103.1L255.2,103.1z"/>
	<path class="st3" d="M256.1,243.5H49.9c-12.2,0-22.1-9.9-22.1-22.1s9.9-22.1,22.1-22.1h206.2c12.2,0,22.1,9.9,22.1,22.1
		S268.3,243.5,256.1,243.5z"/>
	<path class="st3" d="M74.1,133.9v109.4c0,22.2,18,40.3,40.3,40.3h77.3c22.2,0,40.3-18,40.3-40.3V133.9H74.1z"/>
	<path class="st0" d="M206.6,133.9v109.4c0,22.2-18,40.3-40.3,40.3h25.4c22.2,0,40.3-18,40.3-40.3V133.9H206.6z"/>
	<g>
		<path class="st4" d="M113.7,207.9c-4.3,0-7.7-3.5-7.7-7.7v-1.8c0-4.3,3.5-7.7,7.7-7.7s7.7,3.5,7.7,7.7v1.8
			C121.4,204.4,118,207.9,113.7,207.9z"/>
		<path class="st4" d="M192.3,207.9c-4.3,0-7.7-3.5-7.7-7.7v-1.8c0-4.3,3.5-7.7,7.7-7.7s7.7,3.5,7.7,7.7v1.8
			C200,204.4,196.6,207.9,192.3,207.9z"/>
	</g>
	<path class="st2" d="M5.5,136.9v19.7c0,5.3,4.3,9.6,9.6,9.6h275.8c5.3,0,9.6-4.3,9.6-9.6v-19.7c0-5.3-4.3-9.6-9.6-9.6H15.1
		C9.8,127.4,5.5,131.7,5.5,136.9L5.5,136.9z"/>
	<path class="st5" d="M33.9,82.3v47.9c0,3.7,1.9,7.2,5,9.3l10.8,7.1c3,2,6.9,2.4,10.2,1c62.1-25.3,124.2-25.3,186.3,0
		c3.4,1.4,7.2,1,10.2-1l10.8-7.1c3.1-2,5-5.5,5-9.3V82.3c0-7.6-4.1-14.6-10.8-18.1c-72.2-38.1-144.4-38.1-216.6,0
		C38,67.7,33.9,74.7,33.9,82.3z"/>
	<path class="st6" d="M267.1,113.3l-10.8,7.1c-3,2-6.9,2.4-10.2,1C184,96,122,96,59.9,121.3c-3.4,1.4-7.2,1-10.2-1l-10.8-7.1
		c-3.1-2-5-5.5-5-9.3v26.1c0,3.7,1.9,7.2,5,9.3l10.8,7.1c3,2,6.9,2.4,10.2,1c62.1-25.3,124.2-25.3,186.3,0c3.4,1.4,7.2,1,10.2-1
		l10.8-7.1c3.1-2,5-5.5,5-9.3V104C272.1,107.8,270.3,111.2,267.1,113.3z"/>
	<path class="st6" d="M261.3,64.2c-16-8.4-32-15-48-19.7c7.3,3.4,14.6,7.2,21.9,11.4c6.7,3.9,10.8,11.6,10.8,19.9v52.6
		c0,4.1-1.9,7.9-5,10.2l-6.3,4.6c3.8,1.4,7.6,2.8,11.4,4.4c3.4,1.4,7.2,1,10.2-1l10.8-7.1c3.1-2,5-5.5,5-9.3V82.3
		C272.1,74.7,268,67.7,261.3,64.2L261.3,64.2z"/>
</g>
</svg>
