<?xml version="1.0" encoding="utf-8"?>
<!-- Generator: Adobe Illustrator 24.3.0, SVG Export Plug-In . SVG Version: 6.00 Build 0)  -->
<svg version="1.1" id="Capa_1" xmlns="http://www.w3.org/2000/svg" xmlns:xlink="http://www.w3.org/1999/xlink" x="0px" y="0px"
	 viewBox="0 0 512 512" style="enable-background:new 0 0 512 512;" xml:space="preserve">
<style type="text/css">
	.st0{fill:#D97B7B;}
	.st1{fill:#EEC06B;}
	.st2{fill:#D16161;}
	.st3{fill:#CA4646;}
	.st4{fill:#FFD164;}
	.st5{fill:#BE694E;}
	.st6{fill:#FFE17D;}
	.st7{fill:#766D78;}
	.st8{fill:#9EC8FC;}
	.st9{fill:#80B6FC;}
</style>
<g>
	<path class="st0" d="M411.5,389.1v119.8c0,1.7-1.4,3.1-3.1,3.1H103.6c-1.7,0-3.1-1.4-3.1-3.1V389.1c0-9.1,3.9-17.8,10.6-23.9
		l30.5-27.6c5.9-5.3,13.5-8.3,21.4-8.3h8.6c4.5,0,6.4-5.7,2.8-8.4l-6.4-4.8c-19-14.1-16.5-37.1,5.2-48.9c49-26.7,116.6-26.7,165.6,0
		C360.6,279,363,302,344,316.1l-6.4,4.8c-3.6,2.7-1.7,8.4,2.8,8.4h8.6c7.9,0,15.6,2.9,21.4,8.3l30.5,27.6
		C407.7,371.3,411.5,380,411.5,389.1L411.5,389.1z"/>
	<path class="st1" d="M155.2,420.6h201.7v34.9H155.2L155.2,420.6z"/>
	<path class="st2" d="M364.6,401.2V512h-15.5V401.2c0-4.3,3.5-7.7,7.7-7.7C361.1,393.4,364.6,396.9,364.6,401.2z"/>
	<path class="st2" d="M162.9,401.2V512h-15.5V401.2c0-4.3,3.5-7.7,7.7-7.7C159.4,393.4,162.9,396.9,162.9,401.2z"/>
	<path class="st3" d="M204.7,282.7c-13.5,10.2-15,29.8-3.2,41.9l47,48.4c4.1,4.2,10.9,4.2,15.1,0l47-48.4
		c11.8-12.1,10.2-31.8-3.2-41.9C276.9,259.8,235.1,259.8,204.7,282.7z"/>
	<path class="st4" d="M297.2,329.3c-6.8,0-12.4-5.5-12.4-12.4v-46.3c-18.7-6.7-39.1-6.7-57.6,0v46.3c0,6.8-5.5,12.4-12.4,12.4H206
		l42.5,43.7c4.1,4.2,10.9,4.2,15.1,0l42.5-43.7H297.2z"/>
	<path class="st5" d="M142.8,139.4h226.3V216H142.8V139.4z"/>
	<path class="st0" d="M358.2,97.7H153.8v-18c0-44,35.7-79.7,79.7-79.7h45.1c44,0,79.7,35.7,79.7,79.7L358.2,97.7L358.2,97.7z"/>
	<path class="st6" d="M359.1,238.1H152.9c-12.2,0-22.1-9.9-22.1-22.1s9.9-22.1,22.1-22.1h206.2c12.2,0,22.1,9.9,22.1,22.1
		S371.3,238.1,359.1,238.1z"/>
	<path class="st6" d="M177.1,128.5v109.4c0,22.2,18,40.3,40.3,40.3h77.3c22.2,0,40.3-18,40.3-40.3V128.5H177.1z"/>
	<path class="st4" d="M309.6,128.5v109.4c0,22.2-18,40.3-40.3,40.3h25.4c22.2,0,40.3-18,40.3-40.3V128.5H309.6z"/>
	<g>
		<path class="st7" d="M216.7,202.5c-4.3,0-7.7-3.5-7.7-7.7V193c0-4.3,3.5-7.7,7.7-7.7s7.7,3.5,7.7,7.7v1.8
			C224.4,199,221,202.5,216.7,202.5z"/>
		<path class="st7" d="M295.3,202.5c-4.3,0-7.7-3.5-7.7-7.7V193c0-4.3,3.5-7.7,7.7-7.7s7.7,3.5,7.7,7.7v1.8
			C303,199,299.6,202.5,295.3,202.5z"/>
	</g>
	<path class="st0" d="M108.5,131.6v19.7c0,5.3,4.3,9.6,9.6,9.6h275.8c5.3,0,9.6-4.3,9.6-9.6v-19.7c0-5.3-4.3-9.6-9.6-9.6H118.1
		C112.8,122,108.5,126.3,108.5,131.6L108.5,131.6z"/>
	<path class="st8" d="M136.9,76.9v47.9c0,3.7,1.9,7.2,5,9.3l10.8,7.1c3,2,6.9,2.4,10.2,1c62.1-25.3,124.2-25.3,186.3,0
		c3.4,1.4,7.2,1,10.2-1l10.8-7.1c3.1-2,5-5.5,5-9.3V76.9c0-7.6-4.1-14.6-10.8-18.1c-72.2-38.1-144.4-38.1-216.6,0
		C141,62.3,136.9,69.3,136.9,76.9z"/>
	<path class="st9" d="M370.1,107.9l-10.8,7.1c-3,2-6.9,2.4-10.2,1C287,90.6,225,90.6,162.9,116c-3.4,1.4-7.2,1-10.2-1l-10.8-7.1
		c-3.1-2-5-5.5-5-9.3v26.1c0,3.7,1.9,7.2,5,9.3l10.8,7.1c3,2,6.9,2.4,10.2,1c62.1-25.3,124.2-25.3,186.3,0c3.4,1.4,7.2,1,10.2-1
		l10.8-7.1c3.1-2,5-5.5,5-9.3V98.6C375.1,102.4,373.3,105.9,370.1,107.9z"/>
	<path class="st9" d="M364.3,58.8c-16-8.4-32-15-48-19.7c7.3,3.4,14.6,7.2,21.9,11.4c6.7,3.9,10.8,11.6,10.8,19.9v52.6
		c0,4.1-1.9,7.9-5,10.2l-6.3,4.6c3.8,1.4,7.6,2.8,11.4,4.4c3.4,1.4,7.2,1,10.2-1l10.8-7.1c3.1-2,5-5.5,5-9.3V76.9
		C375.1,69.3,371,62.3,364.3,58.8L364.3,58.8z"/>
	<path class="st2" d="M263.7,376.2V512h-15.5V376.2c0-1,0.2-2,0.5-2.9c4,3.8,10.3,3.8,14.4,0C263.5,374.2,263.7,375.2,263.7,376.2z"
		/>
</g>
</svg>
