<?xml version="1.0" encoding="utf-8"?>
<!-- Generator: Adobe Illustrator 24.3.0, SVG Export Plug-In . SVG Version: 6.00 Build 0)  -->
<svg version="1.1" id="Capa_1" xmlns="http://www.w3.org/2000/svg" xmlns:xlink="http://www.w3.org/1999/xlink" x="0px" y="0px"
	 viewBox="0 0 512 512" style="enable-background:new 0 0 512 512;" xml:space="preserve">
<style type="text/css">
	.st0{fill:#F5DCB4;}
	.st1{fill:#FAEBC8;}
	.st2{fill:#B4E6A0;}
	.st3{fill:#9BD296;}
	.st4{fill:#CDF5A0;}
</style>
<circle class="st0" cx="256" cy="256.2" r="223.5"/>
<g>
	<path class="st1" d="M232.1,26.6c-14.4,1.5-28.4,4.3-42,8.3c-8.5,2.5-12.8,11.9-9.5,20l67.9,163.9V41.5
		C248.6,32.7,240.9,25.7,232.1,26.6z"/>
	<path class="st1" d="M218.6,263.7H41.3c-8.8,0-15.8,7.7-14.9,16.4c1.5,14.4,4.3,28.4,8.3,42c2.5,8.5,11.9,12.8,20,9.5L218.6,263.7z
		"/>
	<path class="st1" d="M234.8,224.5L166.9,60.7c-3.4-8.2-13.1-11.7-20.9-7.5C133.4,60.1,121.6,68,110.5,77
		c-6.9,5.6-7.3,15.9-1.1,22.1L234.8,224.5z"/>
	<path class="st1" d="M218.6,248.8L54.7,180.9c-8.2-3.4-17.5,1-20,9.5c-4,13.5-6.8,27.5-8.3,42c-0.9,8.8,6.1,16.4,14.9,16.4
		L218.6,248.8L218.6,248.8z"/>
	<path class="st1" d="M224.3,235L98.9,109.7c-6.2-6.2-16.6-5.8-22.1,1.1c-9,11-16.9,22.9-23.8,35.5c-4.2,7.8-0.7,17.5,7.5,20.9
		L224.3,235z"/>
	<path class="st1" d="M459,146.3c-6.8-12.6-14.8-24.5-23.8-35.5c-5.6-6.9-15.9-7.3-22.1-1.1L287.7,235l163.8-67.9
		C459.7,163.8,463.2,154.1,459,146.3z"/>
	<path class="st1" d="M277.2,224.5L402.6,99.1c6.2-6.2,5.8-16.6-1.1-22.1c-11-9-22.9-16.9-35.5-23.8c-7.8-4.2-17.5-0.7-20.9,7.5
		L277.2,224.5z"/>
	<path class="st1" d="M263.4,218.8l67.9-163.9c3.4-8.2-1-17.5-9.5-20c-13.5-4-27.5-6.8-42-8.3c-8.8-0.9-16.4,6.1-16.4,14.9
		L263.4,218.8L263.4,218.8z"/>
	<path class="st1" d="M293.4,248.8h177.3c8.8,0,15.8-7.7,14.9-16.4c-1.5-14.4-4.3-28.4-8.3-42c-2.5-8.5-11.9-12.8-20-9.5
		L293.4,248.8z"/>
	<path class="st1" d="M287.7,277.5l125.4,125.4c6.2,6.2,16.6,5.8,22.1-1.1c9-11,16.9-22.9,23.8-35.5c4.2-7.8,0.7-17.5-7.5-20.9
		L287.7,277.5z"/>
	<path class="st1" d="M277.2,288l67.9,163.8c3.4,8.2,13.1,11.7,20.9,7.5c12.6-6.8,24.5-14.8,35.5-23.8c6.9-5.6,7.3-15.9,1.1-22.1
		L277.2,288z"/>
	<path class="st1" d="M224.3,277.5L60.4,345.3c-8.2,3.4-11.7,13.1-7.5,20.9c6.8,12.6,14.8,24.5,23.8,35.5c5.6,6.9,15.9,7.3,22.1,1.1
		L224.3,277.5z"/>
	<path class="st1" d="M293.4,263.7l163.9,67.9c8.2,3.4,17.5-1,20-9.5c4-13.5,6.8-27.5,8.3-42c0.9-8.8-6.1-16.4-14.9-16.4
		L293.4,263.7L293.4,263.7z"/>
	<path class="st1" d="M234.8,288L109.4,413.3c-6.2,6.2-5.8,16.6,1.1,22.1c11,9,22.9,16.9,35.5,23.8c7.8,4.2,17.5,0.7,20.9-7.5
		L234.8,288z"/>
	<path class="st1" d="M263.4,293.7V471c0,8.8,7.7,15.8,16.4,14.9c14.4-1.5,28.4-4.3,42-8.3c8.5-2.5,12.8-11.9,9.5-20L263.4,293.7z"
		/>
	<path class="st1" d="M248.6,293.7l-67.9,163.9c-3.4,8.2,1,17.5,9.5,20c13.5,4,27.5,6.8,42,8.3c8.8,0.9,16.4-6.1,16.4-14.9
		L248.6,293.7L248.6,293.7z"/>
</g>
<path class="st2" d="M427.3,256.2c0,11.2-9,21.3-11.1,31.9c-2.2,10.9,2.2,23.7-1.9,33.7c-4.2,10.2-16.4,16.1-22.5,25.2
	c-6.1,9.1-7,22.6-14.7,30.4c-7.7,7.7-21.3,8.6-30.4,14.7c-9.1,6.1-15,18.3-25.2,22.5c-10,4.2-22.8-0.2-33.7,1.9
	c-10.6,2.1-20.7,11.1-31.9,11.1c-11.2,0-21.3-9-31.9-11.1c-10.9-2.2-23.7,2.2-33.7-1.9c-10.2-4.2-16.1-16.4-25.2-22.5
	c-9.1-6.1-22.6-7-30.4-14.7c-7.7-7.7-8.6-21.3-14.7-30.4c-6.1-9.1-18.3-15-22.5-25.2c-4.2-10,0.2-22.8-1.9-33.7
	c-2.1-10.6-11.1-20.7-11.1-31.9c0-11.2,9-21.3,11.1-31.9c2.2-10.9-2.2-23.7,1.9-33.7c4.2-10.2,16.4-16.1,22.5-25.2
	c6.1-9.1,7-22.6,14.7-30.4c7.7-7.7,21.3-8.6,30.4-14.7c9.1-6.1,15-18.3,25.2-22.5c10-4.2,22.8,0.2,33.7-1.9
	c10.6-2.1,20.7-11.1,31.9-11.1c11.2,0,21.3,9,31.9,11.1c10.9,2.2,23.7-2.2,33.7,1.9c10.2,4.2,16.1,16.4,25.2,22.5
	c9.1,6.1,22.6,7,30.4,14.7c7.7,7.7,8.6,21.3,14.7,30.4c6.1,9.1,18.3,15,22.5,25.2c4.2,10-0.2,22.8,1.9,33.7
	C418.3,234.9,427.3,245.1,427.3,256.2z"/>
<g>
	<path class="st3" d="M168.4,171c-0.1-2.5,1.9-4.5,4.4-4.4c10.3,0.6,21.9,5.9,31.5,15.5c9.6,9.6,14.9,21.3,15.5,31.5
		c0.1,2.5-1.9,4.5-4.4,4.4c-10.3-0.6-21.9-5.9-31.5-15.5C174.3,192.9,169,181.2,168.4,171z"/>
	<path class="st3" d="M318,294.2c2.5-0.1,4.5,1.9,4.4,4.4c-0.6,10.3-5.9,21.9-15.5,31.5c-9.6,9.6-21.3,14.9-31.5,15.5
		c-2.5,0.1-4.5-1.9-4.4-4.4c0.6-10.3,5.9-21.9,15.5-31.5C296.1,300.1,307.8,294.8,318,294.2z"/>
</g>
<g>
	<circle class="st4" cx="323" cy="174.3" r="14.9"/>
	<circle class="st4" cx="181.5" cy="330.7" r="14.9"/>
</g>
<g>
	<path class="st3" d="M352.8,271.1c-1.9,0-3.8-0.7-5.3-2.2l-7.4-7.4c-2.9-2.9-2.9-7.6,0-10.5s7.6-2.9,10.5,0l7.4,7.4
		c2.9,2.9,2.9,7.6,0,10.5C356.6,270.4,354.7,271.1,352.8,271.1z"/>
	<path class="st3" d="M136.8,286c-1.9,0-3.8-0.7-5.3-2.2c-2.9-2.9-2.9-7.6,0-10.5l7.4-7.4c2.9-2.9,7.6-2.9,10.5,0
		c2.9,2.9,2.9,7.6,0,10.5l-7.4,7.4C140.6,285.3,138.7,286,136.8,286z"/>
	<path class="st3" d="M248.6,144.5c-1.9,0-3.8-0.7-5.3-2.2l-7.4-7.4c-2.9-2.9-2.9-7.6,0-10.5c2.9-2.9,7.6-2.9,10.5,0l7.4,7.4
		c2.9,2.9,2.9,7.6,0,10.5C252.4,143.8,250.5,144.5,248.6,144.5z"/>
</g>
<path class="st4" d="M233.7,382.9h-7.4c-4.1,0-7.4-3.3-7.4-7.4c0-4.1,3.3-7.4,7.4-7.4h7.4c4.1,0,7.4,3.3,7.4,7.4
	C241.1,379.5,237.8,382.9,233.7,382.9z"/>
<path class="st3" d="M241.1,293.5c-4.1,0-7.4-3.3-7.4-7.4v-7.4c0-4.1,3.3-7.4,7.4-7.4c4.1,0,7.4,3.3,7.4,7.4v7.4
	C248.6,290.2,245.2,293.5,241.1,293.5z"/>
<path class="st4" d="M293.2,241.3c-1.1,0-2.3-0.3-3.3-0.8l-14.9-7.4c-3.7-1.8-5.2-6.3-3.3-10c1.8-3.7,6.3-5.2,10-3.3l14.9,7.4
	c3.7,1.8,5.2,6.3,3.3,10C298.6,239.8,296,241.3,293.2,241.3z"/>
<g>
	<path class="st3" d="M360.3,330.7c-4.1,0-7.4-3.3-7.4-7.4v-7.4c0-4.1,3.3-7.4,7.4-7.4s7.4,3.3,7.4,7.4v7.4
		C367.7,327.4,364.4,330.7,360.3,330.7z"/>
	<path class="st3" d="M300.7,382.9c-4.1,0-7.5-3.3-7.5-7.4c0-4.1,3.3-7.4,7.4-7.4h0.1c4.1,0,7.4,3.3,7.4,7.4
		C308.1,379.5,304.8,382.9,300.7,382.9z"/>
</g>
<g>
	<path class="st4" d="M256.1,181.8c-4.1,0-7.5-3.3-7.5-7.4c0-4.1,3.3-7.4,7.4-7.4h0.1c4.1,0,7.4,3.3,7.4,7.4
		C263.5,178.4,260.2,181.8,256.1,181.8z"/>
	<path class="st4" d="M144.3,226.4c-4.1,0-7.5-3.3-7.5-7.4c0-4.1,3.3-7.4,7.4-7.4h0.1c4.1,0,7.4,3.3,7.4,7.4
		C151.8,223.1,148.5,226.4,144.3,226.4z"/>
	<path class="st4" d="M196.5,271.1c-4.1,0-7.5-3.3-7.5-7.4s3.3-7.4,7.4-7.4h0.1c4.1,0,7.4,3.3,7.4,7.4S200.6,271.1,196.5,271.1z"/>
	<path class="st4" d="M360.3,219c-4.1,0-7.5-3.3-7.5-7.4c0-4.1,3.3-7.4,7.4-7.4h0.1c4.1,0,7.4,3.3,7.4,7.4
		C367.7,215.7,364.4,219,360.3,219z"/>
</g>
<g>
	<path class="st3" d="M390.1,263.7c-4.1,0-7.5-3.3-7.5-7.4s3.3-7.4,7.4-7.4h0.1c4.1,0,7.4,3.3,7.4,7.4
		C397.5,260.4,394.2,263.7,390.1,263.7z"/>
	<path class="st3" d="M376.4,362.4c-9.1,6.1-15,18.3-25.2,22.5c-10,4.2-22.8-0.2-33.7,1.9c-10.6,2.1-20.7,11.1-31.9,11.1
		c-11.2,0-21.3-9-31.9-11.1c-10.9-2.2-23.7,2.2-33.7-1.9c-10.2-4.2-16.1-16.4-25.2-22.5c-9.1-6.1-22.6-7-30.4-14.7
		c-7.7-7.7-8.6-21.3-14.7-30.4c-6.1-9.1-18.3-15-22.5-25.2c-4.2-10,0.2-22.8-1.9-33.7c-2.1-10.6-11.1-20.7-11.1-31.9
		c0-11.2,9-21.3,11.1-31.9c2.2-10.9-2.2-23.7,1.9-33.7c4.2-10.2,16.4-16.1,22.5-25.2c2.1-3.1,3.5-6.7,4.9-10.5
		c-7.2,2.6-14.8,4.7-19.9,9.8c-7.7,7.7-8.6,21.3-14.7,30.4c-6.1,9.1-18.3,15-22.5,25.2c-4.2,10,0.2,22.8-1.9,33.7
		c-2.1,10.6-11.1,20.7-11.1,31.9c0,11.2,9,21.3,11.1,31.9c2.2,10.9-2.2,23.7,1.9,33.7c4.2,10.2,16.4,16.1,22.5,25.2
		c6.1,9.1,7,22.6,14.7,30.4s21.3,8.6,30.4,14.7c9.1,6.1,15,18.3,25.2,22.5c10,4.2,22.8-0.2,33.7,1.9c10.6,2.1,20.7,11.1,31.9,11.1
		c11.2,0,21.3-9,31.9-11.1c10.9-2.2,23.7,2.2,33.7-1.9c10.2-4.2,16.1-16.4,25.2-22.5c9.1-6.1,22.6-7,30.4-14.7
		c5.1-5.1,7.2-12.7,9.8-19.9C383.2,358.8,379.6,360.3,376.4,362.4z"/>
</g>
</svg>
