<?xml version="1.0" encoding="utf-8"?>
<!-- Generator: Adobe Illustrator 24.3.0, SVG Export Plug-In . SVG Version: 6.00 Build 0)  -->
<svg version="1.1" id="Laag_1" xmlns="http://www.w3.org/2000/svg" xmlns:xlink="http://www.w3.org/1999/xlink" x="0px" y="0px"
	 viewBox="0 0 323.3 382" style="enable-background:new 0 0 323.3 382;" xml:space="preserve">
<style type="text/css">
	.st0{fill:#467536;}
	.st1{fill:#EA552D;}
	.st2{fill:#4D873D;}
	.st3{fill:#7F8C8D;}
	.st4{fill:#95A5A5;}
	.st5{fill:#E6E6E6;}
	.st6{fill:#3F5C6C;}
	.st7{fill:#634539;}
</style>
<path class="st0" d="M96.8,382v-90.2l51.4-55.1c6.6-7.1,20.6-7.1,27.3,0l51.4,55.1V382H96.8z"/>
<path class="st1" d="M0,445.7c0.5-1.7,1-3.3,1.6-4.9C1,442.4,0.5,444,0,445.7z"/>
<path class="st1" d="M59.2,367.4L59.2,367.4c-0.1,0.1-0.3,0.2-0.4,0.3C59,367.6,59.1,367.5,59.2,367.4z"/>
<path class="st0" d="M227.3,231.4v90.2l-51.4,55.1c-6.7,7.1-20.6,7.1-27.3,0l-51.4-55.1v-90.2L227.3,231.4L227.3,231.4z"/>
<path class="st0" d="M300.8,214.6c0,21.8-17.7,39.5-39.5,39.5s-39.5-17.7-39.5-39.5s17.7-39.5,39.5-39.5S300.8,192.8,300.8,214.6z"
	/>
<path class="st0" d="M102.9,214.6c0,21.8-17.7,39.5-39.5,39.5s-39.5-17.7-39.5-39.5s17.7-39.5,39.5-39.5S102.9,192.8,102.9,214.6z"
	/>
<path class="st0" d="M265.1,87v155.8c0,51.4-37.8,94.1-87.2,101.6c-5.1,0.8-10.3,1.2-15.6,1.2c-56.8,0-102.8-46-102.8-102.7V87
	H265.1z"/>
<path class="st2" d="M265.1,87v155.8c0,51.4-37.8,94.1-87.2,101.6c-49.4-7.5-87.2-50.1-87.2-101.6V87H265.1z"/>
<path class="st3" d="M323.3,174.2c0,22.7-18.4,41-41,41c-6.1,0-12-1.4-17.2-3.8v-55c-26.3,10.6-54.7-11-51-39.5
	c-10.3-3.2-18.7-10.7-23-20.4c-12.5,26.5-43.9,37.6-70.1,25.6c-6,17.3-22.4,29.8-41.7,29.8c-7,0-13.6-1.6-19.5-4.5
	c-0.3,5.4-0.1,3.2-0.2,64.1c-5.2,2.4-11.1,3.8-17.2,3.8h-0.2c-35-0.1-53.4-41.2-31.1-67.5c-14.3-22-4.4-51.9,20.4-60.9
	c-7.7-27,13.3-54.1,42.4-52.2C83.1,9,114.1-0.5,136,14.9c15.1-12.7,37.3-12.8,52.6,0c19.5-13.8,46.3-7.7,58.4,11.9
	c1.5,2.4,2.7,5,3.8,7.8c11.6-0.7,22,3.2,29.7,9.8c3.2,2.7,5.9,5.9,8,9.4c5.8,9.4,8,21.2,4.6,32.9c24.9,9,34.7,38.9,20.4,60.9
	C319.6,154.8,323.3,164.1,323.3,174.2z"/>
<path class="st4" d="M323.3,174.2c0,22.7-18.4,41-41,41c-6.1,0-12-1.4-17.2-3.8v-55c-26.3,10.6-54.7-11-51-39.5
	c-10.3-3.2-18.7-10.7-23-20.4c-12.5,26.5-43.9,37.6-70.1,25.6c-6,17.3-22.4,29.8-41.7,29.8c-7,0-13.6-1.6-19.5-4.5
	c-0.3,5.4-0.1,3.2-0.2,64.1c-5.2,2.4-11.1,3.8-17.2,3.8h-0.2c-8.7-14.2-9-33.5,3.5-48.2c-14.3-22-4.4-51.9,20.4-60.9
	c-7.7-27,13.3-54.1,42.4-52.2c9.2-25.6,40.3-35.1,62.2-19.7c15.1-12.7,37.3-12.8,52.6,0c7.3-5.1,15.6-7.5,23.8-7.4
	c13,0.1,25.8,6.4,33.5,17.6c2,2.9,3.6,6,4.9,9.5c1.1-0.1,2.1-0.1,3.2-0.1c5.8,9.4,8,21.2,4.6,32.9c24.9,9,34.7,38.9,20.4,60.9
	C319.6,154.8,323.3,164.1,323.3,174.2z"/>
<path class="st5" d="M140.9,230.8c0-11-14.3-20-31.9-20s-31.9,9-31.9,20s14.3,20,31.9,20S140.9,241.8,140.9,230.8z"/>
<path class="st5" d="M247.4,230.8c0-11-14.3-20-31.9-20s-31.9,9-31.9,20s14.3,20,31.9,20S247.4,241.8,247.4,230.8z"/>
<g>
	<path class="st6" d="M228.4,201.3c0,6.9-5.6,12.4-12.4,12.4c-6.9,0-12.4-5.6-12.4-12.4c0-6.9,5.6-12.4,12.4-12.4
		C222.9,188.9,228.4,194.4,228.4,201.3z"/>
	<path class="st3" d="M244.3,167.4c-16.7-10.5-43.6-5.3-46.6-4.7c-4.2,0.9-6.9,5-6,9.2s5,6.9,9.2,6c6-1.3,25.4-3.5,35.1,2.6
		c1.3,0.8,2.7,1.2,4.1,1.2c2.6,0,5.1-1.3,6.6-3.6C249,174.5,247.9,169.7,244.3,167.4z"/>
	<path class="st6" d="M121,201.3c0,6.9-5.6,12.4-12.4,12.4c-6.9,0-12.4-5.6-12.4-12.4c0-6.9,5.6-12.4,12.4-12.4
		C115.4,188.9,121,194.4,121,201.3z"/>
	<path class="st3" d="M126.9,162.7c-3-0.6-29.9-5.8-46.6,4.7c-3.6,2.3-4.7,7.1-2.4,10.7c1.5,2.4,4,3.6,6.6,3.6
		c1.4,0,2.8-0.4,4.1-1.2c9.7-6.1,28.6-4,35.1-2.6c4.2,0.9,8.3-1.8,9.2-6C133.8,167.7,131.1,163.6,126.9,162.7z"/>
</g>
<path id="Shape_8_" class="st0" d="M187.9,291.8h-53c-4.9,0-8.8-4-8.8-8.8s4-8.8,8.8-8.8h53c4.9,0,8.8,4,8.8,8.8
	S192.8,291.8,187.9,291.8z"/>
<path id="Shape_12_" class="st0" d="M171.2,236.1h-17.7c-4.9,0-8.8-4-8.8-8.8s4-8.8,8.8-8.8h17.7c4.9,0,8.8,4,8.8,8.8
	S176,236.1,171.2,236.1z"/>
<path class="st7" d="M215.6,203c-12.7,0-23.7,4-31,10.2c-5.4-6.2-13.4-10.2-22.3-10.2c-8.9,0-16.9,4-22.3,10.2
	c-7.2-6.3-18.3-10.2-31-10.2c-22.2,0-39.7,12.2-39.7,27.8s17.4,27.8,39.7,27.8c25.4,0,39.7-14.9,39.7-26.9c0-7.2,6.1-13.1,13.6-13.1
	s13.6,5.9,13.6,13.1c0,12,14.2,26.9,39.7,26.9c22.2,0,39.7-12.2,39.7-27.8C255.2,215.2,237.8,203,215.6,203z M109.1,243
	c-13.8,0-24.1-6.4-24.1-12.2s10.3-12.2,24.1-12.2s24.1,6.4,24.1,12.2C133.1,236.5,122.8,243,109.1,243z M215.6,243
	c-13.8,0-24.1-6.4-24.1-12.2s10.3-12.2,24.1-12.2s24.1,6.4,24.1,12.2C239.6,236.5,229.3,243,215.6,243z"/>
</svg>
