<?xml version="1.0" encoding="utf-8"?>
<!-- Generator: Adobe Illustrator 24.3.0, SVG Export Plug-In . SVG Version: 6.00 Build 0)  -->
<svg version="1.1" id="Laag_1" xmlns="http://www.w3.org/2000/svg" xmlns:xlink="http://www.w3.org/1999/xlink" x="0px" y="0px"
	 viewBox="0 0 353.3 512" style="enable-background:new 0 0 353.3 512;" xml:space="preserve">
<style type="text/css">
	.st0{fill:#3F1A00;}
	.st1{fill:#4D873D;}
	.st2{fill:#467536;}
	.st3{fill:#3F5C6C;}
</style>
<g id="Page-1">
	<g id="_x30_01---Shaped-Beard" transform="translate(-1)">
		<path id="Shape" class="st0" d="M45.4,238.3c0,0-73.3-128.8,23.6-177.2c0,0,56.2-100.9,190.1-43.5c2.2,0.9,3.7,3.1,3.7,5.5
			s-1.3,4.6-3.5,5.6c-6.5,2.9-12.2,7.4-16.4,13.2c-1.1,1.6-1.5,3.6-0.9,5.4c0.6,1.8,2,3.3,3.9,3.9c22.7,7.4,90.8,29.8,90.8,90
			c0,72.6-26.5,97.1-26.5,97.1L45.4,238.3L45.4,238.3z"/>
		<path id="Shape_1_" class="st1" d="M265.9,512H89.5c-2.9,0-5.7-1.4-7.3-3.8c-1.7-2.4-2-5.5-0.9-8.2c7-17.8,11.7-36.3,14.1-55.3
			c1.1-8.7,1.9-16.9,2.4-24.4h159.8c0.4,7.5,1.2,15.7,2.4,24.4c2.4,18.9,7.2,37.5,14.1,55.3c1.1,2.7,0.8,5.8-0.9,8.2
			C271.6,510.6,268.8,512,265.9,512L265.9,512z"/>
		<path id="Shape_2_" class="st1" d="M354.3,282.5c0,24.4-19.8,44.1-44.1,44.1v25.6c0,14-6,27.3-16.5,36.5L227,447
			c-8.8,7.7-20.2,12-32,12h-34.6c-11.8,0-23.1-4.3-32-12l-66.6-58.3c-10.5-9.2-16.5-22.6-16.5-36.5v-25.6
			c-21,0.1-39.1-14.6-43.4-35.1C-2.3,271,8.4,250.3,27.6,242c5.6-2.4,11.6-3.6,17.7-3.6v-8.7c0,0,0-109.1,72.2-84.8
			s69,49.4,166.1,31.8c17,12.3,26.8,32.1,26.5,53.1v8.7c6.1,0,12.1,1.2,17.7,3.6C343.8,249,354.2,264.9,354.3,282.5L354.3,282.5z"/>
		<path id="Shape_3_" class="st2" d="M260,444.6l-33,28.9c-8.8,7.7-20.2,12-32,12h-34.6c-11.8,0-23.1-4.3-32-12l-33-28.9
			c1.1-8.7,1.9-16.9,2.4-24.4h159.8C258,427.8,258.8,436,260,444.6z"/>
		<path id="Shape_4_" class="st0" d="M310.1,326.6v25.6c0,14-6,27.3-16.5,36.5L227,447c-8.8,7.7-20.2,12-32,12h-34.6
			c-11.8,0-23.1-4.3-32-12l-66.6-58.3c-10.5-9.2-16.5-22.6-16.5-36.5v-25.6H63c9.7,0,17.6,7.9,17.7,17.7v13.2c0,2.8,1.3,5.4,3.5,7.1
			l17.7,13.2c1.5,1.2,3.3,1.8,5.2,1.8c2.4,0,4.6-0.9,6.3-2.6s2.6-3.9,2.6-6.3c0-9.7,7.9-17.6,17.7-17.7H222
			c9.7,0.1,17.6,7.9,17.7,17.7c0,3.3,1.9,6.4,4.9,7.9s6.6,1.2,9.2-0.8l17.7-13.2c2.2-1.7,3.5-4.3,3.5-7.1v-13.2
			c0-9.7,7.9-17.6,17.7-17.7H310.1z"/>
		<g>
			<path id="Shape_5_" class="st2" d="M327.8,242v22.9c0,4.9-4,8.8-8.8,8.8s-8.8-4-8.8-8.8v-26.5C316.2,238.4,322.2,239.6,327.8,242
				z"/>
			<path id="Shape_6_" class="st2" d="M45.3,238.3v26.5c0,4.9-4,8.8-8.8,8.8s-8.8-4-8.8-8.8V242C33.2,239.6,39.2,238.4,45.3,238.3z"
				/>
			<path id="Shape_7_" class="st2" d="M204.2,397.2h-53c-4.9,0-8.8-4-8.8-8.8s4-8.8,8.8-8.8h53c4.9,0,8.8,4,8.8,8.8
				S209.1,397.2,204.2,397.2z"/>
		</g>
		<path id="Shape_8_" d="M186.5,432.6h-17.7c-4.9,0-8.8-4-8.8-8.8s4-8.8,8.8-8.8h17.7c4.9,0,8.8,4,8.8,8.8S191.4,432.6,186.5,432.6z
			"/>
		<path id="Shape_9_" class="st3" d="M115.9,291.3c-4.9,0-8.8-4-8.8-8.8v-17.7c0-4.9,4-8.8,8.8-8.8s8.8,4,8.8,8.8v17.7
			C124.7,287.4,120.8,291.3,115.9,291.3z"/>
		<path id="Shape_10_" class="st3" d="M239.5,291.3c-4.9,0-8.8-4-8.8-8.8v-17.7c0-4.9,4-8.8,8.8-8.8s8.8,4,8.8,8.8v17.7
			C248.3,287.4,244.4,291.3,239.5,291.3z"/>
		<path id="Shape_11_" class="st2" d="M186.5,326.6h-17.7c-4.9,0-8.8-4-8.8-8.8s4-8.8,8.8-8.8h17.7c4.9,0,8.8,4,8.8,8.8
			S191.4,326.6,186.5,326.6z"/>
		<g>
			<path id="Shape_12_" class="st0" d="M142.4,238.3h-53c-4.9,0-8.8-4-8.8-8.8s4-8.8,8.8-8.8h53c4.9,0,8.8,4,8.8,8.8
				S147.3,238.3,142.4,238.3z"/>
			<path id="Shape_13_" class="st0" d="M266,238.3h-53c-4.9,0-8.8-4-8.8-8.8s4-8.8,8.8-8.8h53c4.9,0,8.8,4,8.8,8.8
				S270.9,238.3,266,238.3z"/>
		</g>
	</g>
</g>
</svg>
