<svg viewBox="0 -15 512 511" xmlns="http://www.w3.org/2000/svg"><path d="m339.542969 467.082031-29.480469-17.019531 27.84375-35.742188c2.746094-3.523437 2.113281-8.605468-1.410156-11.347656-3.523438-2.746094-8.605469-2.117187-11.347656 1.410156l-29.226563 37.515626-112.765625-65.105469 32.707031-31.714844c3.207031-3.109375 3.285157-8.230469.175781-11.433594-3.105468-3.203125-8.226562-3.285156-11.433593-.175781l-36.011719 34.917969-17.730469-10.234375c-3.867187-2.234375-8.8125-.910156-11.046875 2.957031-2.230468 3.871094-.90625 8.816406 2.960938 11.046875l188.679687 108.933594c1.273438.734375 2.664063 1.085937 4.035157 1.085937 2.792968 0 5.511718-1.449219 7.011718-4.042969 2.230469-3.871093.90625-8.816406-2.960937-11.050781zm0 0" fill="#2e373d"/><path d="m447.027344 421.671875c-1.371094 0-2.757813-.347656-4.035156-1.082031l-188.675782-108.933594c-3.867187-2.234375-5.191406-7.179688-2.960937-11.046875 2.238281-3.867187 7.175781-5.191406 11.046875-2.960937l188.675781 108.933593c3.871094 2.234375 5.195313 7.179688 2.960937 11.046875-1.496093 2.59375-4.214843 4.042969-7.011718 4.042969zm0 0" fill="#2e373d"/><path d="m24.589844 149.917969 7.929687-4.253907 29.230469-26.648437-38.21875-13.234375-18.523438 32.832031zm0 0" fill="#525e65"/><path d="m23.53125 105.78125-18.523438 32.832031 19.582032 11.304688 29.230468-26.648438zm0 0" fill="#627681"/><path d="m428.457031 360.265625-16.460937-28.511719-53.90625-93.371094-59.824219-34.539062c-31.945313-18.441406-45.777344-22.734375-80.203125-35.984375-12.882812-4.960937-26.847656-5.648437-39.929688-2.25l-135.390624-78.167969c-5.011719-2.894531-11.1875-2.894531-16.199219 0-9.398438 5.425782-10.90625 18.375-3.011719 25.820313l127.660156 120.328125c2.9375 18.746094 8.03125 37.136718 15.242188 54.785156l13.617187 33.308594c5.75 14.066406 16.011719 25.824218 29.175781 33.421875l88.824219 50.917969c21.550781 12.441406 46.367188 18.054687 71.175781 16.101562 19.285157-1.523438 37.992188-7.332031 54.746094-17.003906 3.347656-1.933594 5.132813-5.246094 5.34375-8.648438v-.003906c.007813-.121094 1.816406-23.492188 1.816406-23.492188v.003907c.457032-4.269531-.363281-8.714844-2.675781-12.714844zm0 0" fill="#525e65"/><path d="m161.878906 172.253906c17.101563-9.875 37.753906-11.488281 56.1875-4.394531 34.425782 13.25 48.253906 17.539063 80.199219 35.984375l59.824219 34.539062-93.273438 54.464844-55.871094-31.890625c-21.410156-12.359375-40.152343-28.851562-55.132812-48.519531-9.972656-13.085938-6.183594-31.957031 8.066406-40.183594zm0 0" fill="#627681"/><path d="m358.089844 238.382812 53.90625 93.371094 16.460937 28.511719c5.796875 10.039063 2.355469 22.875-7.679687 28.667969-14.136719 8.160156-31.117188 9.78125-46.539063 4.4375l-43.101562-14.929688-66.320313-85.589844zm0 0" fill="#627681"/><path d="m411.996094 331.753906-80.859375 46.6875-66.320313-85.589844 93.273438-54.46875zm0 0" fill="#304e75"/><g fill="#243b58"><path d="m331.136719 378.441406-66.320313-39.519531v-46.070313zm0 0"/><path d="m258.359375 335.125v-41.453125l-34.398437-19.492187v41.449218zm0 0"/><path d="m219.1875 312.875v-41.714844l-30.265625-17.476562v41.714844zm0 0"/></g><path d="m61.3125 107.914062 7.929688-4.253906v-25.605468l-24.707032-61.992188-26.953125-15.5625-7.929687 4.253906 12.089844 86.9375zm0 0" fill="#525e65"/><path d="m61.3125 107.914062v-25.605468l-24.707031-61.992188-26.953125-15.5625 12.089844 86.9375zm0 0" fill="#627681"/><path d="m183.136719 191.023438 27.238281 31.796874 53.453125 30.863282h26.957031l8.398438-4.820313v-15.589843l-8.398438 4.847656-26.503906.261718-53.90625-31.121093-27.238281-32.019531zm0 0" fill="#525e65"/><path d="m183.136719 175.242188 12.847656-7.414063 52.589844 17.378906 48.109375 29.257813 2.5 18.808594-8.398438 4.847656-26.503906.261718-53.90625-31.121093zm0 0" fill="#808f9a"/><path d="m258.773438 196.324219c-1.398438 0-2.757813-.726563-3.503907-2.023438-1.117187-1.933593-.457031-4.40625 1.476563-5.523437l27.484375-15.867188v-10.335937c0-2.234375 1.808593-4.042969 4.042969-4.042969 2.234374 0 4.042968 1.808594 4.042968 4.042969v12.671875c0 1.441406-.769531 2.777344-2.019531 3.5l-29.507813 17.035156c-.636718.367188-1.328124.542969-2.015624.542969zm0 0" fill="#627681"/><path d="m264.378906 174.078125-19.195312 1.265625v34.886719h.023437c-.046875 1.3125.6875 2.578125 2.308594 3.511719 3.46875 2.003906 9.535156 1.753906 13.546875-.5625 2.363281-1.363282 3.449219-3.140626 3.257812-4.78125l.058594-.003907zm0 0" fill="#2e373d"/><path d="m214.097656 222.113281c-.699218 0-1.398437-.179687-2.023437-.539062-1.25-.722657-2.019531-2.058594-2.019531-3.503907v-30.902343c0-2.234375 1.808593-4.042969 4.042968-4.042969 2.230469 0 4.042969 1.808594 4.042969 4.042969v23.902343l28.355469-16.375c1.933594-1.117187 4.40625-.453124 5.523437 1.480469 1.117188 1.933594.453125 4.40625-1.480469 5.523438l-34.421874 19.875c-.625.359375-1.324219.539062-2.019532.539062zm0 0" fill="#627681"/><path d="m0 290.835938 2.425781 1.375c15.34375 8.703124 34.148438 8.632812 49.425781-.191407l204.289063-117.945312-25.941406.371093c-22.457031.316407-44.433594 6.5-63.761719 17.933594zm0 0" fill="#2e373d"/><path d="m512 56.710938-2.429688-1.367188c-15.363281-8.667969-34.167968-8.554688-49.425781.304688l-204.003906 118.429687 25.9375-.429687c22.453125-.371094 44.417969-6.605469 63.71875-18.085938zm0 0" fill="#2e373d"/><path d="m267.628906 171.652344.046875-.003906-3.84375-10.78125h-.011719c-.164062-1.035157-.863281-2.007813-2.160156-2.753907-3.285156-1.898437-9.023437-1.660156-12.816406.53125-1.941406 1.121094-2.984375 2.535157-3.113281 3.902344h-.007813l-3.257812 10.085937c-.441406.757813-.699219 1.527344-.738282 2.292969l-.03125.097657.035157-.003907c-.058594 1.789063.945312 3.507813 3.148437 4.78125 4.742188 2.734375 13.023438 2.394531 18.496094-.769531 3.644531-2.101562 5.074219-4.917969 4.253906-7.378906zm0 0" fill="#627681"/></svg>