<?xml version="1.0" encoding="iso-8859-1"?>
<!-- Generator: Adobe Illustrator 19.0.0, SVG Export Plug-In . SVG Version: 6.00 Build 0)  -->
<svg version="1.1" id="Capa_1" xmlns="http://www.w3.org/2000/svg" xmlns:xlink="http://www.w3.org/1999/xlink" x="0px" y="0px"
	 viewBox="0 0 504.123 504.123" style="enable-background:new 0 0 504.123 504.123;" xml:space="preserve">
<polygon style="fill:#5B94A5;" points="169.606,347.908 169.606,361.086 203.973,393.952 340.791,473.1 363.618,473.1 
	340.791,446.748 "/>
<polyline style="fill:#53869B;" points="340.791,473.1 363.618,473.1 340.791,446.748 169.606,347.908 "/>
<polygon style="fill:#85B3C6;" points="363.618,473.1 375.032,466.507 352.205,440.155 340.791,446.748 "/>
<polygon style="fill:#76A1B7;" points="169.606,347.908 181.02,341.315 352.205,440.155 340.791,446.748 "/>
<polygon style="fill:#5B94A5;" points="223.216,378.852 238.123,387.47 238.123,374.284 223.216,365.678 "/>
<polygon style="fill:#B2D5D8;" points="223.216,312.269 230.664,316.577 230.664,380.963 223.216,376.663 "/>
<polyline style="fill:#9BC0C6;" points="223.216,312.269 230.664,316.577 230.664,380.963 "/>
<polygon style="fill:#637D82;" points="238.123,312.269 230.664,316.577 230.664,380.963 238.123,376.663 "/>
<polyline style="fill:#5D767C;" points="238.123,312.269 230.664,316.577 230.664,380.963 "/>
<polygon style="fill:#5B94A5;" points="301.127,423.893 316.038,432.498 316.038,419.324 301.127,410.707 "/>
<polygon style="fill:#B2D5D8;" points="301.127,357.309 308.582,361.614 308.582,425.992 301.127,421.691 "/>
<polyline style="fill:#9BC0C6;" points="301.127,357.309 308.582,361.614 308.582,425.992 "/>
<polygon style="fill:#637D82;" points="316.038,357.309 308.582,361.614 308.582,425.992 316.038,421.691 "/>
<polyline style="fill:#5D767C;" points="316.038,357.309 308.582,361.614 308.582,425.992 "/>
<polygon style="fill:#5B94A5;" points="240.943,305.302 240.943,318.476 275.31,351.354 412.132,430.494 434.956,430.494 
	412.132,404.137 "/>
<polyline style="fill:#53869B;" points="412.132,430.494 434.956,430.494 412.132,404.137 240.943,305.302 "/>
<polygon style="fill:#85B3C6;" points="434.956,430.494 446.366,423.901 423.542,397.544 412.132,404.137 "/>
<polygon style="fill:#76A1B7;" points="240.943,305.302 252.357,298.717 423.542,397.544 412.132,404.137 "/>
<polygon style="fill:#5B94A5;" points="294.554,336.254 309.461,344.86 309.461,331.685 294.554,323.068 "/>
<polygon style="fill:#B2D5D8;" points="294.554,269.663 302.005,273.967 302.005,338.353 294.554,334.052 "/>
<polyline style="fill:#9BC0C6;" points="294.554,269.663 302.005,273.967 302.005,338.353 "/>
<polygon style="fill:#637D82;" points="309.461,269.663 302.005,273.967 302.005,338.353 309.461,334.052 "/>
<polyline style="fill:#5D767C;" points="309.461,269.663 302.005,273.967 302.005,338.353 "/>
<polygon style="fill:#5B94A5;" points="372.468,381.286 387.375,389.892 387.375,376.714 372.468,368.108 "/>
<polygon style="fill:#B2D5D8;" points="372.468,314.699 379.92,319.008 379.92,383.386 372.468,379.085 "/>
<polyline style="fill:#9BC0C6;" points="372.468,314.699 379.92,319.008 379.92,383.386 "/>
<polygon style="fill:#637D82;" points="387.375,314.699 379.92,319.008 379.92,383.386 387.375,379.085 "/>
<polyline style="fill:#5D767C;" points="387.375,314.699 379.92,319.008 379.92,383.386 "/>
<polygon style="fill:#0B2C3F;" points="42.784,70.561 73.208,53 68.903,85.622 49.14,81.707 "/>
<polygon style="fill:#103A56;" points="25.419,66.501 25.419,84.055 71.2,127.846 253.456,233.271 283.865,233.271 253.456,198.16 
	"/>
<polygon style="fill:#0B2C3F;" points="253.456,198.16 25.419,66.501 253.456,233.271 283.865,233.271 "/>
<polygon style="fill:#22618C;" points="25.419,66.501 40.621,57.722 268.658,189.385 253.456,198.16 "/>
<polygon style="fill:#103A56;" points="32.288,32.217 56.97,68.206 56.97,76.871 32.288,62.629 "/>
<polyline style="fill:#0B2C3F;" points="32.288,32.217 56.97,68.206 56.97,76.871 "/>
<polygon style="fill:#103A56;" points="56.97,68.206 59.026,67.025 59.026,75.685 56.974,76.871 "/>
<polygon style="fill:#22618C;" points="32.288,32.217 34.347,31.023 59.026,67.025 56.97,68.206 "/>
<polygon style="fill:#0B2C3F;" points="0,93.976 42.114,97.245 49.376,93.054 25.49,79.262 "/>
<polygon points="25.494,79.262 25.494,95.346 39.897,87.584 "/>
<polyline points="0,93.976 42.114,97.245 49.376,93.054 "/>
<polygon style="fill:#1C74A5;" points="42.114,97.245 42.114,99.545 49.376,95.346 49.376,93.062 "/>
<polygon style="fill:#22618C;" points="0,93.976 0,96.276 42.114,99.545 42.114,97.245 "/>
<polygon style="fill:#35729B;" points="244.614,203.548 265.212,286.775 471.146,405.669 471.146,358.116 388.769,239.214 
	162.241,108.43 182.835,144.1 224.024,167.877 "/>
<polygon style="fill:#214B6D;" points="182.812,239.155 203.41,322.383 409.344,441.277 409.344,393.716 326.971,274.822 
	100.439,144.037 121.033,179.708 162.221,203.485 "/>
<polyline style="fill:#103A56;" points="409.344,441.277 409.344,393.716 326.971,274.822 100.439,144.037 "/>
<polygon style="fill:#1C74A5;" points="409.344,393.716 471.146,358.116 471.146,405.669 409.344,441.277 "/>
<polyline style="fill:#22618C;" points="409.344,441.277 409.344,393.716 471.146,358.116 "/>
<polygon style="fill:#3C99CE;" points="326.971,274.822 388.769,239.214 471.146,358.116 409.344,393.716 "/>
<polyline style="fill:#1988BA;" points="409.344,393.716 326.971,274.822 388.769,239.214 "/>
<polygon style="fill:#1C74A5;" points="100.439,144.037 162.241,108.43 388.769,239.214 326.971,274.822 "/>
<polyline style="fill:#22618C;" points="388.769,239.214 326.971,274.822 100.439,144.037 "/>
<path style="fill:#214B6D;" d="M310.705,265.433v-51.988l-50.33-16.616c-2.402,2.615-3.529,5.53-3.178,8.424h-0.173v29.184
	L310.705,265.433z"/>
<polygon style="fill:#4BBCEF;" points="326.971,274.822 326.971,346.163 409.344,393.716 "/>
<path style="fill:#1C74A5;" d="M247.001,262.561c-0.012-13.761,9.752-19.377,21.654-12.493l0,0
	c11.922,6.869,21.662,23.745,21.662,37.506v50.038c0,13.745-9.744,19.369-21.646,12.509c-11.898-6.869-21.63-23.745-21.654-37.498
	L247.001,262.561z"/>
<path style="fill:#0B2C3F;" d="M268.654,250.069c-4.466-2.584-8.617-3.407-12.075-2.694c-1.398,2.493-2.261,5.656-2.261,9.57
	l0.02,50.07c0.02,13.745,9.763,30.622,21.654,37.498c4.462,2.56,8.606,3.375,12.06,2.686c1.41-2.501,2.269-5.667,2.269-9.586
	v-50.034C290.316,273.814,280.576,256.937,268.654,250.069z"/>
<path style="fill:#051A26;" d="M288.051,347.199c1.41-2.501,2.269-5.667,2.269-9.586v-50.034c0-13.761-9.744-30.637-21.662-37.506
	c-4.466-2.584-8.617-3.407-12.075-2.694"/>
<path style="fill:#728284;" d="M310.705,187.101h-53.681v16.006c0,0.039,0,0.071,0,0.106v0.477h0.035
	c0.221,3.793,2.804,7.554,7.798,10.437c10.453,6.038,27.553,6.038,38.006,0c4.994-2.883,7.574-6.648,7.794-10.437h0.043v-16.589
	H310.705z"/>
<path style="fill:#9FB4B7;" d="M264.862,214.13c10.453,6.038,27.553,6.038,38.006,0c4.994-2.883,7.574-6.648,7.794-10.437h0.043
	v-16.593h-45.844V214.13z"/>
<path style="fill:#576B6D;" d="M302.868,175.045c-10.457-6.03-27.557-6.03-38.006,0c-10.457,6.038-10.457,15.907,0,21.945
	c10.453,6.03,27.553,6.03,38.006,0C313.316,190.952,313.316,181.087,302.868,175.045z"/>
<path style="fill:#415556;" d="M264.862,196.994c10.453,6.03,27.553,6.03,38.006,0c10.449-6.038,10.449-15.907,0-21.945"/>
<polygon style="fill:#A31111;" points="185.305,234.598 200.928,243.614 291.852,190.661 276.63,181.87 "/>
<polygon style="fill:#EA0606;" points="63.598,301.915 84.736,314.124 207.754,242.467 187.16,230.577 "/>
<polygon style="fill:#A31111;" points="285.026,177.786 300.65,186.801 391.574,133.845 376.355,125.062 "/>
<polygon style="fill:#EA0606;" points="359.968,131.423 381.101,143.624 504.123,71.975 483.529,60.085 "/>
<polygon style="fill:#A31111;" points="382.417,234.598 366.793,243.614 275.873,190.661 291.092,181.87 "/>
<polygon style="fill:#EA0606;" points="504.123,301.915 482.989,314.124 359.968,242.467 380.558,230.577 "/>
<polygon style="fill:#A31111;" points="282.695,177.786 267.071,186.801 176.152,133.845 191.37,125.062 "/>
<polygon style="fill:#EA0606;" points="207.754,131.423 186.62,143.624 63.598,71.975 84.189,60.085 "/>
<path style="fill:#728284;" d="M300.457,172.26h-33.185v9.893c0,0.024,0,0.047,0,0.063v0.291h0.024
	c0.138,2.347,1.737,4.679,4.825,6.463c6.463,3.73,17.03,3.73,23.493,0c3.084-1.784,4.679-4.116,4.817-6.463h0.028V172.26z"/>
<path style="fill:#9FB4B7;" d="M272.116,188.967c6.463,3.73,17.03,3.73,23.493,0c3.084-1.784,4.679-4.116,4.817-6.463h0.028v-10.248
	h-28.337L272.116,188.967L272.116,188.967z"/>
<path style="fill:#576B6D;" d="M295.613,164.801c-6.467-3.722-17.034-3.722-23.493,0c-6.467,3.73-6.467,9.838,0,13.568
	c6.463,3.73,17.03,3.73,23.493,0C302.068,174.639,302.068,168.531,295.613,164.801z"/>
<path style="fill:#415556;" d="M272.116,178.369c6.463,3.73,17.03,3.73,23.493,0c6.459-3.73,6.459-9.838,0-13.568"/>
<polygon style="fill:#C40C0C;" points="466.519,389.979 466.519,400.329 435.306,418.355 435.306,407.985 "/>
<polygon style="fill:#EA0606;" points="457.429,384.855 466.519,390.101 435.31,408.107 426.232,402.853 "/>
<polyline style="fill:#A31111;" points="426.232,402.853 435.306,408.107 435.306,418.355 426.216,413.101 "/>
<g>
</g>
<g>
</g>
<g>
</g>
<g>
</g>
<g>
</g>
<g>
</g>
<g>
</g>
<g>
</g>
<g>
</g>
<g>
</g>
<g>
</g>
<g>
</g>
<g>
</g>
<g>
</g>
<g>
</g>
</svg>
