<svg id="Laag_1" data-name="Laag 1" xmlns="http://www.w3.org/2000/svg" viewBox="0 0 215.76 11.27"><defs><style>.cls-1{fill:#f2f2f2;}</style></defs><path class="cls-1" d="M1.75,11.05V2.46H5a3.9,3.9,0,0,1,1.58.27,2.07,2.07,0,0,1,.93.8,2.14,2.14,0,0,1,.33,1.13,1.92,1.92,0,0,1-.29,1,2.07,2.07,0,0,1-.91.78,2.34,2.34,0,0,1,1.2.78,2.09,2.09,0,0,1,.42,1.3A2.53,2.53,0,0,1,8,9.69a2.24,2.24,0,0,1-.63.8,2.71,2.71,0,0,1-.94.42A5.56,5.56,0,0,1,5,11.05Zm1.14-5H4.75A4,4,0,0,0,5.83,6a1.19,1.19,0,0,0,.66-.42,1.28,1.28,0,0,0,.22-.75A1.38,1.38,0,0,0,6.5,4a1.06,1.06,0,0,0-.59-.44,4.81,4.81,0,0,0-1.3-.12H2.89Zm0,4H5a4.58,4.58,0,0,0,.77,0,2,2,0,0,0,.66-.23,1.19,1.19,0,0,0,.43-.48,1.6,1.6,0,0,0-.07-1.56,1.31,1.31,0,0,0-.69-.5,4.43,4.43,0,0,0-1.25-.14h-2Z" transform="translate(-1.75 -2.31)"/><path class="cls-1" d="M12.59,8.48V7.42h3.24V8.48Z" transform="translate(-1.75 -2.31)"/><path class="cls-1" d="M24.49,7.69v-1h3.64V9.86a6.51,6.51,0,0,1-1.73,1,5,5,0,0,1-1.83.34,4.91,4.91,0,0,1-2.3-.54,3.54,3.54,0,0,1-1.56-1.57,5,5,0,0,1-.53-2.29,5.28,5.28,0,0,1,.53-2.34,3.48,3.48,0,0,1,1.51-1.61,4.6,4.6,0,0,1,2.26-.53,4.54,4.54,0,0,1,1.69.3,2.82,2.82,0,0,1,1.18.84A3.84,3.84,0,0,1,28,4.87l-1,.28a3.19,3.19,0,0,0-.48-1,1.93,1.93,0,0,0-.82-.6,3,3,0,0,0-1.18-.23,3.46,3.46,0,0,0-1.35.24,2.57,2.57,0,0,0-.92.62,3.06,3.06,0,0,0-.54.85,4.48,4.48,0,0,0-.33,1.73,4.2,4.2,0,0,0,.4,1.92A2.51,2.51,0,0,0,22.9,9.8a3.57,3.57,0,0,0,1.61.38A3.82,3.82,0,0,0,26,9.89,3.76,3.76,0,0,0,27,9.29V7.69Z" transform="translate(-1.75 -2.31)"/><path class="cls-1" d="M29.66,11.05V4.83h.95v1a2.44,2.44,0,0,1,.67-.88A1.16,1.16,0,0,1,32,4.69,2,2,0,0,1,33,5l-.37,1a1.49,1.49,0,0,0-.77-.23,1,1,0,0,0-.62.21,1.15,1.15,0,0,0-.39.58,4,4,0,0,0-.18,1.23v3.25Z" transform="translate(-1.75 -2.31)"/><path class="cls-1" d="M37.73,10.29a4.2,4.2,0,0,1-1.13.7,3.2,3.2,0,0,1-1.17.21,2.23,2.23,0,0,1-1.57-.51,1.64,1.64,0,0,1-.55-1.28A1.77,1.77,0,0,1,34.06,8a2.63,2.63,0,0,1,.76-.34,6.55,6.55,0,0,1,.94-.16,9.75,9.75,0,0,0,1.88-.36V6.83a1.17,1.17,0,0,0-.3-.91,1.76,1.76,0,0,0-1.2-.36,1.84,1.84,0,0,0-1.1.27,1.59,1.59,0,0,0-.52.92l-1-.14A2.57,2.57,0,0,1,34,5.54a2.13,2.13,0,0,1,.93-.63,4.11,4.11,0,0,1,1.42-.22,3.58,3.58,0,0,1,1.29.19,1.62,1.62,0,0,1,.73.47,1.6,1.6,0,0,1,.33.72,5.46,5.46,0,0,1,.05,1V8.45a15.8,15.8,0,0,0,.07,1.86,2.2,2.2,0,0,0,.27.74h-1.1A2.12,2.12,0,0,1,37.73,10.29Zm-.09-2.36a7.67,7.67,0,0,1-1.73.4,3.82,3.82,0,0,0-.92.21.92.92,0,0,0-.41.34.89.89,0,0,0-.15.5.91.91,0,0,0,.32.71,1.37,1.37,0,0,0,.94.28,2.16,2.16,0,0,0,1.08-.27,1.64,1.64,0,0,0,.7-.73,2.6,2.6,0,0,0,.17-1Z" transform="translate(-1.75 -2.31)"/><path class="cls-1" d="M41.31,11.05h-1V2.46h1.06V5.53a2.07,2.07,0,0,1,1.7-.84,2.66,2.66,0,0,1,1.09.23,2.26,2.26,0,0,1,.84.65,3.11,3.11,0,0,1,.52,1,4.07,4.07,0,0,1,.19,1.27,3.52,3.52,0,0,1-.79,2.47,2.49,2.49,0,0,1-1.9.88,2,2,0,0,1-1.73-.92Zm0-3.15a3.25,3.25,0,0,0,.3,1.61,1.51,1.51,0,0,0,2.55.22,2.77,2.77,0,0,0,.5-1.79,2.79,2.79,0,0,0-.48-1.8A1.46,1.46,0,0,0,43,5.56a1.53,1.53,0,0,0-1.2.6A2.67,2.67,0,0,0,41.3,7.9Z" transform="translate(-1.75 -2.31)"/><path class="cls-1" d="M50.14,6.87a4.71,4.71,0,0,1,1.14-3.35,4,4,0,0,1,3-1.21,4.08,4.08,0,0,1,2.14.57,3.68,3.68,0,0,1,1.46,1.59,5.15,5.15,0,0,1,.5,2.3,5.1,5.1,0,0,1-.53,2.34,3.57,3.57,0,0,1-1.49,1.56,4.33,4.33,0,0,1-2.09.53,4.07,4.07,0,0,1-2.17-.58A3.9,3.9,0,0,1,50.63,9,4.87,4.87,0,0,1,50.14,6.87Zm1.17,0a3.45,3.45,0,0,0,.83,2.44,2.91,2.91,0,0,0,4.21,0,3.68,3.68,0,0,0,.83-2.56,4.41,4.41,0,0,0-.36-1.84,2.72,2.72,0,0,0-1-1.21,2.82,2.82,0,0,0-1.54-.43,2.91,2.91,0,0,0-2.07.83A3.71,3.71,0,0,0,51.31,6.89Z" transform="translate(-1.75 -2.31)"/><path class="cls-1" d="M60.65,11.05h-1V2.46h1.06V5.53a2.07,2.07,0,0,1,1.7-.84,2.66,2.66,0,0,1,1.09.23,2.26,2.26,0,0,1,.84.65,2.93,2.93,0,0,1,.52,1,4.07,4.07,0,0,1,.19,1.27,3.52,3.52,0,0,1-.79,2.47,2.49,2.49,0,0,1-1.9.88,2,2,0,0,1-1.73-.92Zm0-3.15A3.13,3.13,0,0,0,61,9.51a1.5,1.5,0,0,0,1.34.82,1.53,1.53,0,0,0,1.2-.6A2.77,2.77,0,0,0,64,7.94a2.79,2.79,0,0,0-.48-1.8,1.46,1.46,0,0,0-1.17-.58,1.5,1.5,0,0,0-1.19.6A2.62,2.62,0,0,0,60.64,7.9Z" transform="translate(-1.75 -2.31)"/><path class="cls-1" d="M65,13.47l.2-.9a1.87,1.87,0,0,0,.5.08.57.57,0,0,0,.48-.21,2.12,2.12,0,0,0,.16-1.07V4.83H67.4v6.56a3.06,3.06,0,0,1-.3,1.6,1.38,1.38,0,0,1-1.26.59A3.26,3.26,0,0,1,65,13.47Zm1.34-9.78V2.46H67.4V3.69Z" transform="translate(-1.75 -2.31)"/><path class="cls-1" d="M73.28,9.05l1.09.14a2.64,2.64,0,0,1-1,1.48,2.85,2.85,0,0,1-1.78.53,2.8,2.8,0,0,1-2.16-.85A3.28,3.28,0,0,1,68.67,8a3.44,3.44,0,0,1,.81-2.44,2.73,2.73,0,0,1,2.09-.87,2.63,2.63,0,0,1,2,.85,3.36,3.36,0,0,1,.79,2.39v.28H69.76a2.36,2.36,0,0,0,.58,1.57,1.71,1.71,0,0,0,1.3.55,1.56,1.56,0,0,0,1-.31A2,2,0,0,0,73.28,9.05Zm-3.46-1.7h3.47a2.11,2.11,0,0,0-.4-1.18,1.59,1.59,0,0,0-1.3-.61A1.7,1.7,0,0,0,70.36,6,1.92,1.92,0,0,0,69.82,7.35Z" transform="translate(-1.75 -2.31)"/><path class="cls-1" d="M79.75,8.78l1,.13a2.69,2.69,0,0,1-.87,1.68,2.56,2.56,0,0,1-1.72.61,2.66,2.66,0,0,1-2-.84A3.37,3.37,0,0,1,75.37,8a4.24,4.24,0,0,1,.34-1.77,2.33,2.33,0,0,1,1-1.13,3.06,3.06,0,0,1,1.49-.38,2.61,2.61,0,0,1,1.66.51,2.37,2.37,0,0,1,.82,1.46l-1,.16a1.69,1.69,0,0,0-.52-.94,1.31,1.31,0,0,0-.9-.32,1.66,1.66,0,0,0-1.3.57,2.72,2.72,0,0,0-.49,1.81,2.81,2.81,0,0,0,.48,1.82,1.55,1.55,0,0,0,1.25.57,1.51,1.51,0,0,0,1-.38A1.93,1.93,0,0,0,79.75,8.78Z" transform="translate(-1.75 -2.31)"/><path class="cls-1" d="M84,10.11l.15.93a3.49,3.49,0,0,1-.8.1,1.82,1.82,0,0,1-.89-.18,1.06,1.06,0,0,1-.44-.48,3.67,3.67,0,0,1-.13-1.25V5.65h-.78V4.83h.78V3.29l1-.63V4.83H84v.82H82.94V9.29a1.79,1.79,0,0,0,0,.58.46.46,0,0,0,.18.21.74.74,0,0,0,.36.07A3.06,3.06,0,0,0,84,10.11Z" transform="translate(-1.75 -2.31)"/><path class="cls-1" d="M135.16,11.05V2.46h1.17l4.51,6.75V2.46h1.09v8.59h-1.17L136.25,4.3v6.75Z" transform="translate(-1.75 -2.31)"/><path class="cls-1" d="M146.63,8.48V7.42h3.24V8.48Z" transform="translate(-1.75 -2.31)"/><path class="cls-1" d="M154.5,11.05V2.46h3a7.21,7.21,0,0,1,1.53.13,3,3,0,0,1,1.26.61,3.67,3.67,0,0,1,1,1.47,5.9,5.9,0,0,1,.33,2,6.13,6.13,0,0,1-.22,1.74,4.4,4.4,0,0,1-.59,1.25,3.2,3.2,0,0,1-.78.78,3.33,3.33,0,0,1-1,.43,5.75,5.75,0,0,1-1.38.14Zm1.14-1h1.83a4.37,4.37,0,0,0,1.34-.16,1.86,1.86,0,0,0,.77-.44,2.68,2.68,0,0,0,.63-1.09,5.32,5.32,0,0,0,.22-1.65A4.1,4.1,0,0,0,160,4.62a2.27,2.27,0,0,0-1.08-1,4.64,4.64,0,0,0-1.47-.17h-1.8Z" transform="translate(-1.75 -2.31)"/><path class="cls-1" d="M163,11.05V4.83H164v1a2.56,2.56,0,0,1,.67-.88,1.19,1.19,0,0,1,.68-.21A2,2,0,0,1,166.4,5L166,6a1.55,1.55,0,0,0-.77-.23,1,1,0,0,0-.62.21,1.11,1.11,0,0,0-.4.58,4.3,4.3,0,0,0-.17,1.23v3.25Z" transform="translate(-1.75 -2.31)"/><path class="cls-1" d="M166.64,7.94a3.22,3.22,0,0,1,1-2.56,2.9,2.9,0,0,1,2-.69,2.78,2.78,0,0,1,2.09.84,3.19,3.19,0,0,1,.82,2.33,4.13,4.13,0,0,1-.36,1.89,2.55,2.55,0,0,1-1.05,1.06,3,3,0,0,1-1.5.39,2.8,2.8,0,0,1-2.12-.84A3.4,3.4,0,0,1,166.64,7.94Zm1.08,0a2.67,2.67,0,0,0,.52,1.79,1.68,1.68,0,0,0,1.32.6,1.65,1.65,0,0,0,1.3-.6,2.71,2.71,0,0,0,.52-1.82,2.58,2.58,0,0,0-.52-1.75,1.73,1.73,0,0,0-2.62,0A2.66,2.66,0,0,0,167.72,7.94Z" transform="translate(-1.75 -2.31)"/><path class="cls-1" d="M173.7,13.44V4.83h1v.81a2.44,2.44,0,0,1,.77-.71,2.1,2.1,0,0,1,1-.24,2.51,2.51,0,0,1,1.41.41,2.61,2.61,0,0,1,.92,1.16,4.35,4.35,0,0,1,.31,1.64,4.16,4.16,0,0,1-.35,1.72,2.6,2.6,0,0,1-2.37,1.58,2,2,0,0,1-.94-.23,2.13,2.13,0,0,1-.69-.56v3Zm1-5.46a2.65,2.65,0,0,0,.49,1.77,1.46,1.46,0,0,0,1.17.58,1.54,1.54,0,0,0,1.21-.6,2.83,2.83,0,0,0,.5-1.84,2.78,2.78,0,0,0-.49-1.78,1.47,1.47,0,0,0-1.17-.59,1.51,1.51,0,0,0-1.19.63A2.79,2.79,0,0,0,174.66,8Z" transform="translate(-1.75 -2.31)"/><path class="cls-1" d="M183.5,6.87a4.67,4.67,0,0,1,1.15-3.35,3.91,3.91,0,0,1,3-1.21,4.11,4.11,0,0,1,2.15.57,3.66,3.66,0,0,1,1.45,1.59,5,5,0,0,1,.51,2.3,5.1,5.1,0,0,1-.53,2.34,3.54,3.54,0,0,1-1.5,1.56,4.29,4.29,0,0,1-2.08.53,4.07,4.07,0,0,1-2.17-.58A3.86,3.86,0,0,1,184,9,4.87,4.87,0,0,1,183.5,6.87Zm1.17,0a3.41,3.41,0,0,0,.84,2.44,2.9,2.9,0,0,0,4.2,0,3.64,3.64,0,0,0,.83-2.56,4.41,4.41,0,0,0-.35-1.84,2.75,2.75,0,0,0-2.57-1.64,2.92,2.92,0,0,0-2.08.83A3.71,3.71,0,0,0,184.67,6.89Z" transform="translate(-1.75 -2.31)"/><path class="cls-1" d="M194,11.05h-1V2.46h1.05V5.53a2.1,2.1,0,0,1,1.71-.84,2.73,2.73,0,0,1,1.09.23,2.26,2.26,0,0,1,.84.65,3.32,3.32,0,0,1,.52,1,4.38,4.38,0,0,1,.19,1.27,3.57,3.57,0,0,1-.79,2.47,2.51,2.51,0,0,1-1.9.88,2,2,0,0,1-1.73-.92Zm0-3.15a3.25,3.25,0,0,0,.3,1.61,1.5,1.5,0,0,0,2.54.22,2.71,2.71,0,0,0,.51-1.79,2.73,2.73,0,0,0-.49-1.8,1.45,1.45,0,0,0-1.16-.58,1.52,1.52,0,0,0-1.2.6A2.62,2.62,0,0,0,194,7.9Z" transform="translate(-1.75 -2.31)"/><path class="cls-1" d="M198.38,13.47l.2-.9a1.81,1.81,0,0,0,.49.08.58.58,0,0,0,.49-.21,2.29,2.29,0,0,0,.15-1.07V4.83h1.06v6.56a3.06,3.06,0,0,1-.3,1.6,1.4,1.4,0,0,1-1.27.59A3.18,3.18,0,0,1,198.38,13.47Zm1.33-9.78V2.46h1.06V3.69Z" transform="translate(-1.75 -2.31)"/><path class="cls-1" d="M206.65,9.05l1.08.14a2.68,2.68,0,0,1-.95,1.48,2.89,2.89,0,0,1-1.78.53,2.84,2.84,0,0,1-2.17-.85A3.28,3.28,0,0,1,202,8a3.44,3.44,0,0,1,.81-2.44,2.74,2.74,0,0,1,2.1-.87,2.66,2.66,0,0,1,2,.85,3.36,3.36,0,0,1,.79,2.39c0,.06,0,.16,0,.28h-4.64a2.41,2.41,0,0,0,.58,1.57,1.71,1.71,0,0,0,1.3.55,1.56,1.56,0,0,0,1-.31A2,2,0,0,0,206.65,9.05Zm-3.47-1.7h3.48a2.11,2.11,0,0,0-.4-1.18A1.61,1.61,0,0,0,205,5.56a1.69,1.69,0,0,0-1.22.48A2,2,0,0,0,203.18,7.35Z" transform="translate(-1.75 -2.31)"/><path class="cls-1" d="M213.12,8.78l1,.13a2.79,2.79,0,0,1-.87,1.68,2.56,2.56,0,0,1-1.72.61,2.68,2.68,0,0,1-2.06-.84A3.42,3.42,0,0,1,208.74,8a4.4,4.4,0,0,1,.33-1.77,2.3,2.3,0,0,1,1-1.13,3,3,0,0,1,1.48-.38,2.59,2.59,0,0,1,1.66.51,2.38,2.38,0,0,1,.83,1.46l-1,.16a1.69,1.69,0,0,0-.52-.94,1.27,1.27,0,0,0-.9-.32,1.63,1.63,0,0,0-1.29.57,2.72,2.72,0,0,0-.5,1.81,2.81,2.81,0,0,0,.48,1.82,1.57,1.57,0,0,0,1.26.57,1.49,1.49,0,0,0,1-.38A1.88,1.88,0,0,0,213.12,8.78Z" transform="translate(-1.75 -2.31)"/><path class="cls-1" d="M217.36,10.11l.15.93a3.41,3.41,0,0,1-.79.1,1.79,1.79,0,0,1-.89-.18,1.14,1.14,0,0,1-.45-.48,4,4,0,0,1-.13-1.25V5.65h-.77V4.83h.77V3.29l1.05-.63V4.83h1.06v.82H216.3V9.29a1.69,1.69,0,0,0,.06.58.37.37,0,0,0,.18.21.7.7,0,0,0,.36.07A3,3,0,0,0,217.36,10.11Z" transform="translate(-1.75 -2.31)"/></svg>