<svg id="Laag_1" data-name="Laag 1" xmlns="http://www.w3.org/2000/svg" viewBox="0 0 540.26 11.26"><defs><style>.cls-1{fill:#f2f2f2;}</style></defs><path class="cls-1" d="M8.3,10.88a5.59,5.59,0,0,0,1.39.73l-.64,1.23a3.89,3.89,0,0,1-.76-.33c-.06,0-.44-.28-1.16-.76a4.52,4.52,0,0,1-1.87.37A4.09,4.09,0,0,1,2.16,11,4.49,4.49,0,0,1,1,7.68,4.52,4.52,0,0,1,2.16,4.41,4,4,0,0,1,5.22,3.24a4,4,0,0,1,3,1.17A4.52,4.52,0,0,1,9.36,7.68a5.64,5.64,0,0,1-.31,2A3.78,3.78,0,0,1,8.3,10.88Zm-1.39-1A2.69,2.69,0,0,0,7.41,9a4.51,4.51,0,0,0,.17-1.28,3.24,3.24,0,0,0-.66-2.22A2.2,2.2,0,0,0,5.2,4.72a2.22,2.22,0,0,0-1.72.74,3.24,3.24,0,0,0-.66,2.22,3.32,3.32,0,0,0,.66,2.25,2.13,2.13,0,0,0,1.67.75,2.08,2.08,0,0,0,.71-.12A5.12,5.12,0,0,0,4.79,10l.48-1A5.81,5.81,0,0,1,6.91,9.91Z" transform="translate(-1.04 -3.24)"/><path class="cls-1" d="M13.86,9.68V8h3.23V9.68Z" transform="translate(-1.04 -3.24)"/><path class="cls-1" d="M26.88,8.82l1.68.53a3.73,3.73,0,0,1-1.28,2.09,4.06,4.06,0,0,1-5.1-.49,4.48,4.48,0,0,1-1.1-3.19,4.73,4.73,0,0,1,1.11-3.34A3.8,3.8,0,0,1,25.1,3.24a3.57,3.57,0,0,1,2.56.93,3.34,3.34,0,0,1,.88,1.58l-1.72.41A1.77,1.77,0,0,0,25,4.72a2,2,0,0,0-1.55.69,3.37,3.37,0,0,0-.59,2.22A3.55,3.55,0,0,0,23.46,10a1.89,1.89,0,0,0,1.52.69,1.75,1.75,0,0,0,1.19-.44A2.55,2.55,0,0,0,26.88,8.82Z" transform="translate(-1.04 -3.24)"/><path class="cls-1" d="M31.27,7.65l-1.49-.27A2.31,2.31,0,0,1,30.65,6a3.21,3.21,0,0,1,1.82-.43,4,4,0,0,1,1.64.26,1.68,1.68,0,0,1,.76.66A3.37,3.37,0,0,1,35.09,8l0,1.92a6.89,6.89,0,0,0,.08,1.21,4,4,0,0,0,.3.83H33.82l-.16-.48a.81.81,0,0,0-.06-.2,2.91,2.91,0,0,1-.9.62,2.51,2.51,0,0,1-1,.2,2.13,2.13,0,0,1-1.52-.52,1.71,1.71,0,0,1-.55-1.32,1.76,1.76,0,0,1,.25-.94,1.68,1.68,0,0,1,.71-.63,5.87,5.87,0,0,1,1.31-.38,9,9,0,0,0,1.6-.41V7.75a.85.85,0,0,0-.24-.68,1.44,1.44,0,0,0-.88-.2,1.21,1.21,0,0,0-.69.17A1.25,1.25,0,0,0,31.27,7.65ZM33.48,9c-.22.07-.55.15-1,.25a3.29,3.29,0,0,0-.89.28.7.7,0,0,0-.33.58.81.81,0,0,0,.26.6.89.89,0,0,0,.66.25,1.39,1.39,0,0,0,.85-.29,1,1,0,0,0,.39-.54,3.36,3.36,0,0,0,.07-.81Z" transform="translate(-1.04 -3.24)"/><path class="cls-1" d="M38.29,12H36.65V5.75h1.52v.89a2.72,2.72,0,0,1,.71-.83,1.33,1.33,0,0,1,.71-.2,2.08,2.08,0,0,1,1.09.31l-.51,1.44a1.47,1.47,0,0,0-.78-.27.88.88,0,0,0-.58.19,1.24,1.24,0,0,0-.38.69,9.76,9.76,0,0,0-.14,2.08Z" transform="translate(-1.04 -3.24)"/><path class="cls-1" d="M43,12H41.31V5.75h1.53v.89a2.72,2.72,0,0,1,.71-.83,1.33,1.33,0,0,1,.71-.2,2.08,2.08,0,0,1,1.09.31l-.51,1.44a1.47,1.47,0,0,0-.78-.27.88.88,0,0,0-.58.19A1.24,1.24,0,0,0,43.1,8,9.76,9.76,0,0,0,43,10.05Z" transform="translate(-1.04 -3.24)"/><path class="cls-1" d="M45.28,5.75H47l1.49,4.42L50,5.75h1.7l-2.19,6-.4,1.08a4.38,4.38,0,0,1-.41.84,1.79,1.79,0,0,1-.45.46,2,2,0,0,1-.63.28,3.07,3.07,0,0,1-.84.1,4.2,4.2,0,0,1-.93-.1l-.15-1.29a3.76,3.76,0,0,0,.7.08,1,1,0,0,0,.85-.34,2.23,2.23,0,0,0,.42-.86Z" transform="translate(-1.04 -3.24)"/><path class="cls-1" d="M56.23,14.5V3.24h1.31V14.5Z" transform="translate(-1.04 -3.24)"/><path class="cls-1" d="M70.07,12H68.18l-.75-2H64l-.71,2H61.45l3.34-8.59h1.84Zm-3.2-3.39L65.69,5.39,64.53,8.58Z" transform="translate(-1.04 -3.24)"/><path class="cls-1" d="M73.68,9.68V8h3.23V9.68Z" transform="translate(-1.04 -3.24)"/><path class="cls-1" d="M86.7,8.82l1.68.53a3.73,3.73,0,0,1-1.28,2.09A4.06,4.06,0,0,1,82,11a4.48,4.48,0,0,1-1.1-3.19A4.73,4.73,0,0,1,82,4.42a3.8,3.8,0,0,1,2.91-1.18,3.58,3.58,0,0,1,2.56.93,3.43,3.43,0,0,1,.88,1.58l-1.72.41a1.8,1.8,0,0,0-.63-1,1.82,1.82,0,0,0-1.18-.39,2,2,0,0,0-1.55.69,3.37,3.37,0,0,0-.59,2.22A3.62,3.62,0,0,0,83.27,10a1.91,1.91,0,0,0,1.53.69A1.77,1.77,0,0,0,86,10.2,2.55,2.55,0,0,0,86.7,8.82Z" transform="translate(-1.04 -3.24)"/><path class="cls-1" d="M91.09,7.65,89.6,7.38A2.3,2.3,0,0,1,90.46,6a3.25,3.25,0,0,1,1.83-.43,4,4,0,0,1,1.64.26,1.73,1.73,0,0,1,.76.66A3.37,3.37,0,0,1,94.91,8l0,1.92A6.89,6.89,0,0,0,95,11.14a3.1,3.1,0,0,0,.3.83H93.64c0-.11-.1-.27-.16-.48l-.06-.2a2.91,2.91,0,0,1-.9.62,2.52,2.52,0,0,1-1,.2A2.1,2.1,0,0,1,90,11.59a1.71,1.71,0,0,1-.55-1.32,1.76,1.76,0,0,1,.25-.94,1.71,1.71,0,0,1,.7-.63,6,6,0,0,1,1.31-.38,8.72,8.72,0,0,0,1.6-.41V7.75a.85.85,0,0,0-.23-.68,1.45,1.45,0,0,0-.89-.2,1.2,1.2,0,0,0-.68.17A1.18,1.18,0,0,0,91.09,7.65ZM93.29,9c-.21.07-.54.15-1,.25a3.17,3.17,0,0,0-.89.28.7.7,0,0,0-.33.58.81.81,0,0,0,.26.6A.89.89,0,0,0,92,11a1.41,1.41,0,0,0,.85-.29,1,1,0,0,0,.39-.54,3.52,3.52,0,0,0,.06-.81Z" transform="translate(-1.04 -3.24)"/><path class="cls-1" d="M98.11,12H96.46V5.75H98v.89a2.59,2.59,0,0,1,.71-.83,1.33,1.33,0,0,1,.71-.2,2,2,0,0,1,1.08.31L100,7.36a1.41,1.41,0,0,0-.77-.27.88.88,0,0,0-.58.19,1.24,1.24,0,0,0-.38.69,9.76,9.76,0,0,0-.14,2.08Z" transform="translate(-1.04 -3.24)"/><path class="cls-1" d="M102.78,12h-1.65V5.75h1.53v.89a2.59,2.59,0,0,1,.71-.83,1.31,1.31,0,0,1,.71-.2,2,2,0,0,1,1.08.31l-.51,1.44a1.41,1.41,0,0,0-.77-.27.88.88,0,0,0-.58.19,1.24,1.24,0,0,0-.38.69,9.76,9.76,0,0,0-.14,2.08Z" transform="translate(-1.04 -3.24)"/><path class="cls-1" d="M105.09,5.75h1.76l1.48,4.42,1.46-4.42h1.7l-2.19,6-.4,1.08a4.38,4.38,0,0,1-.41.84,1.79,1.79,0,0,1-.45.46,2,2,0,0,1-.63.28,3.12,3.12,0,0,1-.84.1,4.08,4.08,0,0,1-.93-.1l-.15-1.29a3.76,3.76,0,0,0,.7.08,1,1,0,0,0,.85-.34,2.38,2.38,0,0,0,.42-.86Z" transform="translate(-1.04 -3.24)"/><path class="cls-1" d="M117.83,12V4.84h-2.55V3.38h6.82V4.84h-2.54V12Z" transform="translate(-1.04 -3.24)"/><path class="cls-1" d="M121.94,8.77a3.34,3.34,0,0,1,.4-1.58A2.76,2.76,0,0,1,123.49,6a3.4,3.4,0,0,1,1.66-.41,3.1,3.1,0,0,1,2.31.92,3.17,3.17,0,0,1,.9,2.32,3.2,3.2,0,0,1-.91,2.34,3.07,3.07,0,0,1-2.29.92,3.62,3.62,0,0,1-1.64-.38,2.71,2.71,0,0,1-1.18-1.14A3.74,3.74,0,0,1,121.94,8.77Zm1.69.09a2,2,0,0,0,.44,1.42,1.44,1.44,0,0,0,2.16,0,2.09,2.09,0,0,0,.44-1.43,2.07,2.07,0,0,0-.44-1.41,1.44,1.44,0,0,0-2.16,0A2,2,0,0,0,123.63,8.86Z" transform="translate(-1.04 -3.24)"/><path class="cls-1" d="M129.5,12.38l1.88.23a.61.61,0,0,0,.22.45,1.19,1.19,0,0,0,.73.18,1.91,1.91,0,0,0,1-.19.78.78,0,0,0,.33-.42,2.53,2.53,0,0,0,.08-.76V11a2.25,2.25,0,0,1-1.87,1,2.27,2.27,0,0,1-2-1.06,3.54,3.54,0,0,1-.58-2.08A3.42,3.42,0,0,1,130,6.44a2.46,2.46,0,0,1,1.88-.83,2.28,2.28,0,0,1,1.9,1V5.75h1.54v5.59a5.57,5.57,0,0,1-.18,1.64,2,2,0,0,1-.51.86,2.24,2.24,0,0,1-.88.48,4.44,4.44,0,0,1-1.38.18,3.62,3.62,0,0,1-2.25-.54,1.7,1.7,0,0,1-.66-1.38A1.56,1.56,0,0,1,129.5,12.38ZM131,8.73a2.27,2.27,0,0,0,.38,1.45,1.18,1.18,0,0,0,1,.46,1.3,1.3,0,0,0,1-.47,2,2,0,0,0,.41-1.4,2.2,2.2,0,0,0-.39-1.43,1.29,1.29,0,0,0-1-.47,1.21,1.21,0,0,0-1,.46A2.19,2.19,0,0,0,131,8.73Z" transform="translate(-1.04 -3.24)"/><path class="cls-1" d="M140.58,10l1.65.28a2.75,2.75,0,0,1-1,1.37,2.92,2.92,0,0,1-1.71.47,2.77,2.77,0,0,1-2.4-1.06,3.54,3.54,0,0,1-.62-2.14,3.42,3.42,0,0,1,.81-2.42,2.64,2.64,0,0,1,2-.88,2.79,2.79,0,0,1,2.2.92,4.05,4.05,0,0,1,.76,2.81h-4.12a1.62,1.62,0,0,0,.4,1.14,1.24,1.24,0,0,0,.95.4,1,1,0,0,0,.65-.21A1.3,1.3,0,0,0,140.58,10Zm.1-1.66a1.6,1.6,0,0,0-.37-1.09,1.14,1.14,0,0,0-.86-.37,1.15,1.15,0,0,0-.89.39,1.51,1.51,0,0,0-.34,1.07Z" transform="translate(-1.04 -3.24)"/><path class="cls-1" d="M146.51,5.75V7.06h-1.13V9.57a4.68,4.68,0,0,0,0,.89.41.41,0,0,0,.14.21.51.51,0,0,0,.28.08,2,2,0,0,0,.66-.16l.14,1.28a3.31,3.31,0,0,1-1.3.24,2.28,2.28,0,0,1-.8-.14,1.13,1.13,0,0,1-.52-.39,1.5,1.5,0,0,1-.24-.64,9,9,0,0,1-.05-1.16V7.06H143V5.75h.75V4.52l1.65-1v2.2Z" transform="translate(-1.04 -3.24)"/><path class="cls-1" d="M149.29,3.38V6.54a2.47,2.47,0,0,1,2.93-.72,1.61,1.61,0,0,1,.69.54,2.09,2.09,0,0,1,.32.73,7.16,7.16,0,0,1,.08,1.23V12h-1.65V8.69a5.12,5.12,0,0,0-.09-1.25.78.78,0,0,0-.33-.41,1,1,0,0,0-.59-.16,1.41,1.41,0,0,0-.74.2,1.15,1.15,0,0,0-.47.6,3.58,3.58,0,0,0-.15,1.19V12h-1.64V3.38Z" transform="translate(-1.04 -3.24)"/><path class="cls-1" d="M158.58,10l1.65.28a2.75,2.75,0,0,1-1,1.37,2.92,2.92,0,0,1-1.71.47,2.77,2.77,0,0,1-2.4-1.06,3.54,3.54,0,0,1-.62-2.14,3.42,3.42,0,0,1,.81-2.42,2.64,2.64,0,0,1,2-.88,2.79,2.79,0,0,1,2.2.92,4.05,4.05,0,0,1,.76,2.81h-4.12a1.62,1.62,0,0,0,.4,1.14,1.24,1.24,0,0,0,.95.4,1,1,0,0,0,.65-.21A1.3,1.3,0,0,0,158.58,10Zm.1-1.66a1.6,1.6,0,0,0-.37-1.09,1.14,1.14,0,0,0-.86-.37,1.15,1.15,0,0,0-.89.39,1.51,1.51,0,0,0-.34,1.07Z" transform="translate(-1.04 -3.24)"/><path class="cls-1" d="M163.23,12h-1.65V5.75h1.53v.89a2.72,2.72,0,0,1,.71-.83,1.33,1.33,0,0,1,.71-.2,2.08,2.08,0,0,1,1.09.31l-.51,1.44a1.47,1.47,0,0,0-.78-.27.88.88,0,0,0-.58.19,1.24,1.24,0,0,0-.38.69,9.76,9.76,0,0,0-.14,2.08Z" transform="translate(-1.04 -3.24)"/><path class="cls-1" d="M169.83,14.5V3.24h1.31V14.5Z" transform="translate(-1.04 -3.24)"/><path class="cls-1" d="M177.58,12l-2.05-8.59h1.78l1.29,5.9,1.57-5.9h2.06l1.51,6,1.32-6h1.74L184.72,12h-1.84l-1.71-6.42L179.46,12Z" transform="translate(-1.04 -3.24)"/><path class="cls-1" d="M190.82,9.68V8h3.24V9.68Z" transform="translate(-1.04 -3.24)"/><path class="cls-1" d="M198.35,3.38h3.17a6.08,6.08,0,0,1,1.63.17,2.92,2.92,0,0,1,1.3.79,3.77,3.77,0,0,1,.82,1.39,6.58,6.58,0,0,1,.28,2,5.52,5.52,0,0,1-.27,1.83,3.78,3.78,0,0,1-.92,1.52,3,3,0,0,1-1.21.68,5.37,5.37,0,0,1-1.54.18h-3.26Zm1.73,1.46v5.69h1.3a4.23,4.23,0,0,0,1-.09,1.49,1.49,0,0,0,.7-.35,1.85,1.85,0,0,0,.46-.83,5.55,5.55,0,0,0,.17-1.57,5,5,0,0,0-.17-1.53,2,2,0,0,0-.49-.84,1.63,1.63,0,0,0-.81-.4,7.36,7.36,0,0,0-1.42-.08Z" transform="translate(-1.04 -3.24)"/><path class="cls-1" d="M208.58,12h-1.64V5.75h1.53v.89a2.59,2.59,0,0,1,.7-.83,1.33,1.33,0,0,1,.71-.2,2.08,2.08,0,0,1,1.09.31l-.51,1.44a1.47,1.47,0,0,0-.78-.27.88.88,0,0,0-.58.19,1.24,1.24,0,0,0-.38.69,9.76,9.76,0,0,0-.14,2.08Z" transform="translate(-1.04 -3.24)"/><path class="cls-1" d="M211.3,8.77a3.34,3.34,0,0,1,.4-1.58A2.71,2.71,0,0,1,212.85,6a3.36,3.36,0,0,1,1.65-.41,3.13,3.13,0,0,1,3.22,3.24,3.24,3.24,0,0,1-.91,2.34,3.09,3.09,0,0,1-2.3.92,3.58,3.58,0,0,1-1.63-.38,2.66,2.66,0,0,1-1.18-1.14A3.74,3.74,0,0,1,211.3,8.77Zm1.68.09a2.08,2.08,0,0,0,.44,1.42,1.41,1.41,0,0,0,1.09.49,1.38,1.38,0,0,0,1.08-.49A2.09,2.09,0,0,0,216,8.85a2.07,2.07,0,0,0-.43-1.41A1.41,1.41,0,0,0,214.51,7a1.44,1.44,0,0,0-1.09.49A2.1,2.1,0,0,0,213,8.86Z" transform="translate(-1.04 -3.24)"/><path class="cls-1" d="M219,5.75h1.53v.92a2.27,2.27,0,0,1,1.94-1.06,2.35,2.35,0,0,1,1.84.85A3.43,3.43,0,0,1,225,8.83a3.53,3.53,0,0,1-.76,2.42,2.36,2.36,0,0,1-1.85.86,2,2,0,0,1-.93-.2,3.09,3.09,0,0,1-.88-.7v3.13H219Zm1.63,3a2.45,2.45,0,0,0,.41,1.55,1.3,1.3,0,0,0,1,.5,1.2,1.2,0,0,0,.95-.46,2.34,2.34,0,0,0,.38-1.51A2.24,2.24,0,0,0,223,7.39a1.2,1.2,0,0,0-1-.48,1.26,1.26,0,0,0-1,.47A2,2,0,0,0,220.59,8.76Z" transform="translate(-1.04 -3.24)"/><path class="cls-1" d="M229.84,14.5V3.24h1.31V14.5Z" transform="translate(-1.04 -3.24)"/><path class="cls-1" d="M235.93,9.18,237.62,9a2,2,0,0,0,.62,1.24,1.85,1.85,0,0,0,1.26.4,2,2,0,0,0,1.26-.35,1.08,1.08,0,0,0,.42-.83A.81.81,0,0,0,241,9a1.41,1.41,0,0,0-.63-.37c-.2-.07-.66-.2-1.39-.38a4.58,4.58,0,0,1-2-.85,2.23,2.23,0,0,1-.8-1.73,2.19,2.19,0,0,1,.38-1.22,2.28,2.28,0,0,1,1.07-.87,4.29,4.29,0,0,1,1.69-.3,3.56,3.56,0,0,1,2.43.71,2.45,2.45,0,0,1,.86,1.89l-1.73.08a1.54,1.54,0,0,0-.48-1,1.76,1.76,0,0,0-1.1-.29,2,2,0,0,0-1.18.31.63.63,0,0,0-.28.54.68.68,0,0,0,.26.52,4.69,4.69,0,0,0,1.59.57,8.68,8.68,0,0,1,1.88.62,2.42,2.42,0,0,1,1,.87,2.65,2.65,0,0,1,.34,1.37,2.53,2.53,0,0,1-.41,1.38,2.5,2.5,0,0,1-1.16,1,4.83,4.83,0,0,1-1.87.32,3.66,3.66,0,0,1-2.5-.76A3.31,3.31,0,0,1,235.93,9.18Z" transform="translate(-1.04 -3.24)"/><path class="cls-1" d="M247.51,9.68V8h3.24V9.68Z" transform="translate(-1.04 -3.24)"/><path class="cls-1" d="M255,3.38h3.17a6.08,6.08,0,0,1,1.63.17,2.92,2.92,0,0,1,1.3.79A3.91,3.91,0,0,1,262,5.73a6.58,6.58,0,0,1,.28,2A5.52,5.52,0,0,1,262,9.59a3.78,3.78,0,0,1-.92,1.52,3,3,0,0,1-1.22.68,5.24,5.24,0,0,1-1.53.18H255Zm1.73,1.46v5.69h1.29a4.27,4.27,0,0,0,1.05-.09,1.49,1.49,0,0,0,.7-.35,1.85,1.85,0,0,0,.46-.83,5.55,5.55,0,0,0,.17-1.57,5,5,0,0,0-.17-1.53,2,2,0,0,0-.49-.84,1.68,1.68,0,0,0-.81-.4,7.36,7.36,0,0,0-1.42-.08Z" transform="translate(-1.04 -3.24)"/><path class="cls-1" d="M265.27,12h-1.64V5.75h1.52v.89a2.72,2.72,0,0,1,.71-.83,1.33,1.33,0,0,1,.71-.2,2.08,2.08,0,0,1,1.09.31l-.51,1.44a1.47,1.47,0,0,0-.78-.27.88.88,0,0,0-.58.19,1.24,1.24,0,0,0-.38.69,9.76,9.76,0,0,0-.14,2.08Z" transform="translate(-1.04 -3.24)"/><path class="cls-1" d="M268,8.77a3.35,3.35,0,0,1,.41-1.58A2.74,2.74,0,0,1,269.53,6a3.43,3.43,0,0,1,1.66-.41,3.13,3.13,0,0,1,3.22,3.24,3.24,3.24,0,0,1-.91,2.34,3.09,3.09,0,0,1-2.3.92,3.58,3.58,0,0,1-1.63-.38,2.66,2.66,0,0,1-1.18-1.14A3.74,3.74,0,0,1,268,8.77Zm1.69.09a2.08,2.08,0,0,0,.44,1.42,1.4,1.4,0,0,0,1.09.49,1.38,1.38,0,0,0,1.08-.49,2.09,2.09,0,0,0,.43-1.43,2.07,2.07,0,0,0-.43-1.41A1.41,1.41,0,0,0,271.2,7a1.43,1.43,0,0,0-1.09.49A2.1,2.1,0,0,0,269.67,8.86Z" transform="translate(-1.04 -3.24)"/><path class="cls-1" d="M275.65,5.75h1.53v.92a2.27,2.27,0,0,1,1.94-1.06,2.35,2.35,0,0,1,1.84.85,3.43,3.43,0,0,1,.76,2.37,3.53,3.53,0,0,1-.76,2.42,2.37,2.37,0,0,1-1.85.86,2,2,0,0,1-.93-.2,3.09,3.09,0,0,1-.88-.7v3.13h-1.65Zm1.63,3a2.45,2.45,0,0,0,.41,1.55,1.3,1.3,0,0,0,1,.5,1.2,1.2,0,0,0,1-.46A2.34,2.34,0,0,0,280,8.84a2.24,2.24,0,0,0-.39-1.45,1.21,1.21,0,0,0-1-.48,1.26,1.26,0,0,0-1,.47A2,2,0,0,0,277.28,8.76Z" transform="translate(-1.04 -3.24)"/><path class="cls-1" d="M288.31,12V4.84h-2.55V3.38h6.82V4.84H290V12Z" transform="translate(-1.04 -3.24)"/><path class="cls-1" d="M292.42,8.77a3.34,3.34,0,0,1,.4-1.58A2.71,2.71,0,0,1,294,6a3.36,3.36,0,0,1,1.65-.41,3.13,3.13,0,0,1,2.32.92,3.17,3.17,0,0,1,.9,2.32,3.2,3.2,0,0,1-.91,2.34,3.07,3.07,0,0,1-2.29.92,3.59,3.59,0,0,1-1.64-.38,2.71,2.71,0,0,1-1.18-1.14A3.74,3.74,0,0,1,292.42,8.77Zm1.69.09a2,2,0,0,0,.44,1.42,1.44,1.44,0,0,0,2.16,0,2.09,2.09,0,0,0,.44-1.43,2.07,2.07,0,0,0-.44-1.41,1.44,1.44,0,0,0-2.16,0A2,2,0,0,0,294.11,8.86Z" transform="translate(-1.04 -3.24)"/><path class="cls-1" d="M300,12.38l1.88.23a.64.64,0,0,0,.21.45,1.24,1.24,0,0,0,.74.18,1.94,1.94,0,0,0,1-.19.89.89,0,0,0,.33-.42,2.62,2.62,0,0,0,.07-.76V11a2.22,2.22,0,0,1-1.86,1,2.29,2.29,0,0,1-2-1.06,3.61,3.61,0,0,1-.57-2.08,3.42,3.42,0,0,1,.75-2.39,2.46,2.46,0,0,1,1.88-.83,2.29,2.29,0,0,1,1.9,1V5.75h1.54v5.59a5.57,5.57,0,0,1-.18,1.64,2,2,0,0,1-.51.86,2.24,2.24,0,0,1-.88.48,4.44,4.44,0,0,1-1.38.18,3.6,3.6,0,0,1-2.25-.54,1.7,1.7,0,0,1-.66-1.38A1.56,1.56,0,0,1,300,12.38Zm1.47-3.65a2.27,2.27,0,0,0,.38,1.45,1.18,1.18,0,0,0,.95.46,1.3,1.3,0,0,0,1-.47,2.09,2.09,0,0,0,.41-1.4,2.14,2.14,0,0,0-.4-1.43,1.26,1.26,0,0,0-1-.47,1.21,1.21,0,0,0-1,.46A2.19,2.19,0,0,0,301.45,8.73Z" transform="translate(-1.04 -3.24)"/><path class="cls-1" d="M311.06,10l1.64.28a2.64,2.64,0,0,1-1,1.37,2.87,2.87,0,0,1-1.7.47,2.78,2.78,0,0,1-2.41-1.06A3.54,3.54,0,0,1,307,8.91a3.42,3.42,0,0,1,.81-2.42,2.64,2.64,0,0,1,2-.88,2.75,2.75,0,0,1,2.19.92,4.05,4.05,0,0,1,.77,2.81h-4.12a1.67,1.67,0,0,0,.39,1.14,1.27,1.27,0,0,0,.95.4,1,1,0,0,0,.65-.21A1.25,1.25,0,0,0,311.06,10Zm.1-1.66a1.6,1.6,0,0,0-.37-1.09,1.14,1.14,0,0,0-.86-.37,1.15,1.15,0,0,0-.89.39,1.51,1.51,0,0,0-.34,1.07Z" transform="translate(-1.04 -3.24)"/><path class="cls-1" d="M317,5.75V7.06h-1.13V9.57a6.67,6.67,0,0,0,0,.89.43.43,0,0,0,.15.21.51.51,0,0,0,.28.08,2,2,0,0,0,.66-.16l.14,1.28a3.31,3.31,0,0,1-1.3.24A2.24,2.24,0,0,1,315,12a1.23,1.23,0,0,1-.53-.39,1.65,1.65,0,0,1-.23-.64,9,9,0,0,1-.05-1.16V7.06h-.76V5.75h.76V4.52l1.65-1v2.2Z" transform="translate(-1.04 -3.24)"/><path class="cls-1" d="M319.77,3.38V6.54a2.47,2.47,0,0,1,2.93-.72,1.74,1.74,0,0,1,.69.54,1.9,1.9,0,0,1,.31.73,6.09,6.09,0,0,1,.09,1.23V12h-1.65V8.69a5.12,5.12,0,0,0-.09-1.25.78.78,0,0,0-.33-.41,1,1,0,0,0-.6-.16,1.4,1.4,0,0,0-.73.2,1.15,1.15,0,0,0-.47.6,3.58,3.58,0,0,0-.15,1.19V12h-1.65V3.38Z" transform="translate(-1.04 -3.24)"/><path class="cls-1" d="M329.06,10l1.64.28a2.64,2.64,0,0,1-1,1.37,2.87,2.87,0,0,1-1.7.47,2.78,2.78,0,0,1-2.41-1.06A3.54,3.54,0,0,1,325,8.91a3.42,3.42,0,0,1,.81-2.42,2.64,2.64,0,0,1,2-.88,2.75,2.75,0,0,1,2.19.92,4.05,4.05,0,0,1,.77,2.81h-4.12a1.67,1.67,0,0,0,.39,1.14,1.27,1.27,0,0,0,.95.4,1,1,0,0,0,.65-.21A1.25,1.25,0,0,0,329.06,10Zm.1-1.66a1.6,1.6,0,0,0-.37-1.09,1.14,1.14,0,0,0-.86-.37,1.15,1.15,0,0,0-.89.39,1.51,1.51,0,0,0-.34,1.07Z" transform="translate(-1.04 -3.24)"/><path class="cls-1" d="M333.71,12h-1.65V5.75h1.53v.89a2.59,2.59,0,0,1,.71-.83,1.31,1.31,0,0,1,.71-.2,2,2,0,0,1,1.08.31l-.51,1.44a1.41,1.41,0,0,0-.77-.27.88.88,0,0,0-.58.19,1.18,1.18,0,0,0-.38.69,9.76,9.76,0,0,0-.14,2.08Z" transform="translate(-1.04 -3.24)"/><path class="cls-1" d="M340.31,14.5V3.24h1.3V14.5Z" transform="translate(-1.04 -3.24)"/><path class="cls-1" d="M346.84,12V3.38h6.37V4.84h-4.64v1.9h4.32V8.19h-4.32v2.34h4.8V12Z" transform="translate(-1.04 -3.24)"/><path class="cls-1" d="M358,9.68V8h3.23V9.68Z" transform="translate(-1.04 -3.24)"/><path class="cls-1" d="M365.51,12V3.38h3.65a6.11,6.11,0,0,1,2,.24,1.92,1.92,0,0,1,1,.82,2.45,2.45,0,0,1,.38,1.35,2.29,2.29,0,0,1-.57,1.6,2.72,2.72,0,0,1-1.7.79,3.94,3.94,0,0,1,.93.72,11.27,11.27,0,0,1,1,1.4L373.24,12h-2.08l-1.25-1.87A13.26,13.26,0,0,0,369,8.84a1.36,1.36,0,0,0-.52-.36,3,3,0,0,0-.87-.09h-.35V12Zm1.74-5h1.28a6.59,6.59,0,0,0,1.56-.11,1,1,0,0,0,.49-.36,1.18,1.18,0,0,0,.17-.65,1,1,0,0,0-.23-.7,1,1,0,0,0-.65-.33c-.14,0-.56,0-1.27,0h-1.35Z" transform="translate(-1.04 -3.24)"/><path class="cls-1" d="M377.77,10l1.64.28a2.69,2.69,0,0,1-1,1.37,2.92,2.92,0,0,1-1.71.47,2.77,2.77,0,0,1-2.4-1.06,3.54,3.54,0,0,1-.62-2.14,3.42,3.42,0,0,1,.81-2.42,2.65,2.65,0,0,1,2.05-.88,2.78,2.78,0,0,1,2.19.92,4.05,4.05,0,0,1,.76,2.81h-4.12a1.62,1.62,0,0,0,.4,1.14,1.24,1.24,0,0,0,1,.4,1,1,0,0,0,.65-.21A1.31,1.31,0,0,0,377.77,10Zm.09-1.66a1.56,1.56,0,0,0-.37-1.09,1.11,1.11,0,0,0-.85-.37,1.17,1.17,0,0,0-.9.39,1.56,1.56,0,0,0-.34,1.07Z" transform="translate(-1.04 -3.24)"/><path class="cls-1" d="M380.71,5.75h1.52V6.6a2.44,2.44,0,0,1,1.94-1,2.05,2.05,0,0,1,1,.25,1.9,1.9,0,0,1,.72.74,2.85,2.85,0,0,1,.88-.74,2.14,2.14,0,0,1,1-.25,2.24,2.24,0,0,1,1.16.28,1.74,1.74,0,0,1,.71.82A3.58,3.58,0,0,1,389.87,8v4h-1.65V8.42a2.71,2.71,0,0,0-.17-1.2.79.79,0,0,0-.7-.35,1.12,1.12,0,0,0-.65.21,1.14,1.14,0,0,0-.44.62A4.41,4.41,0,0,0,386.12,9v3h-1.64V8.56a4.66,4.66,0,0,0-.09-1.17.76.76,0,0,0-.28-.39.82.82,0,0,0-.5-.13,1.16,1.16,0,0,0-.68.21,1.12,1.12,0,0,0-.44.59A4.31,4.31,0,0,0,382.36,9v3h-1.65Z" transform="translate(-1.04 -3.24)"/><path class="cls-1" d="M391.13,8.77a3.34,3.34,0,0,1,.4-1.58A2.71,2.71,0,0,1,392.68,6a3.36,3.36,0,0,1,1.65-.41,3.11,3.11,0,0,1,3.22,3.24,3.24,3.24,0,0,1-.91,2.34,3.09,3.09,0,0,1-2.3.92,3.58,3.58,0,0,1-1.63-.38,2.66,2.66,0,0,1-1.18-1.14A3.74,3.74,0,0,1,391.13,8.77Zm1.68.09a2.08,2.08,0,0,0,.44,1.42,1.41,1.41,0,0,0,1.09.49,1.38,1.38,0,0,0,1.08-.49,2.09,2.09,0,0,0,.43-1.43,2.07,2.07,0,0,0-.43-1.41A1.41,1.41,0,0,0,394.34,7a1.44,1.44,0,0,0-1.09.49A2.1,2.1,0,0,0,392.81,8.86Z" transform="translate(-1.04 -3.24)"/><path class="cls-1" d="M400.55,12,398,5.75h1.73l1.17,3.18.34,1.06c.09-.27.15-.45.17-.54a5.34,5.34,0,0,1,.18-.52l1.18-3.18h1.69L402,12Z" transform="translate(-1.04 -3.24)"/><path class="cls-1" d="M409.11,10l1.64.28a2.68,2.68,0,0,1-1,1.37,2.92,2.92,0,0,1-1.71.47,2.76,2.76,0,0,1-2.4-1.06A3.48,3.48,0,0,1,405,8.91a3.42,3.42,0,0,1,.81-2.42,2.64,2.64,0,0,1,2-.88,2.75,2.75,0,0,1,2.19.92,4,4,0,0,1,.77,2.81h-4.12a1.62,1.62,0,0,0,.4,1.14,1.23,1.23,0,0,0,.94.4,1,1,0,0,0,.66-.21A1.3,1.3,0,0,0,409.11,10Zm.1-1.66a1.6,1.6,0,0,0-.37-1.09,1.14,1.14,0,0,0-.86-.37,1.15,1.15,0,0,0-.89.39,1.51,1.51,0,0,0-.34,1.07Z" transform="translate(-1.04 -3.24)"/><path class="cls-1" d="M415.69,14.5V3.24H417V14.5Z" transform="translate(-1.04 -3.24)"/><path class="cls-1" d="M422.22,3.38h3.17a6.08,6.08,0,0,1,1.63.17,2.83,2.83,0,0,1,1.29.79,3.79,3.79,0,0,1,.83,1.39,6.58,6.58,0,0,1,.28,2,5.52,5.52,0,0,1-.27,1.83,3.78,3.78,0,0,1-.92,1.52,3,3,0,0,1-1.22.68,5.24,5.24,0,0,1-1.53.18h-3.26ZM424,4.84v5.69h1.29a4.27,4.27,0,0,0,1.05-.09,1.54,1.54,0,0,0,.7-.35,1.85,1.85,0,0,0,.46-.83,5.94,5.94,0,0,0,.17-1.57,5.37,5.37,0,0,0-.17-1.53,2,2,0,0,0-.49-.84,1.68,1.68,0,0,0-.81-.4,7.36,7.36,0,0,0-1.42-.08Z" transform="translate(-1.04 -3.24)"/><path class="cls-1" d="M434,9.68V8h3.24V9.68Z" transform="translate(-1.04 -3.24)"/><path class="cls-1" d="M441.56,12V3.38h3.65a6,6,0,0,1,2,.24,2,2,0,0,1,1,.82,2.44,2.44,0,0,1,.37,1.35,2.29,2.29,0,0,1-.57,1.6,2.69,2.69,0,0,1-1.7.79,3.94,3.94,0,0,1,.93.72,9.46,9.46,0,0,1,1,1.4l1,1.67h-2.07L446,10.1A13.85,13.85,0,0,0,445,8.84a1.53,1.53,0,0,0-.52-.36,3.14,3.14,0,0,0-.88-.09h-.35V12Zm1.73-5h1.28a6.47,6.47,0,0,0,1.56-.11,1,1,0,0,0,.49-.36,1.11,1.11,0,0,0,.18-.65,1,1,0,0,0-.24-.7,1,1,0,0,0-.65-.33q-.21,0-1.26,0h-1.36Z" transform="translate(-1.04 -3.24)"/><path class="cls-1" d="M453.81,10l1.64.28a2.64,2.64,0,0,1-1,1.37,2.88,2.88,0,0,1-1.71.47,2.77,2.77,0,0,1-2.4-1.06,3.54,3.54,0,0,1-.61-2.14,3.42,3.42,0,0,1,.8-2.42,2.65,2.65,0,0,1,2.05-.88,2.78,2.78,0,0,1,2.19.92,4.05,4.05,0,0,1,.77,2.81h-4.13a1.67,1.67,0,0,0,.4,1.14,1.24,1.24,0,0,0,.95.4,1,1,0,0,0,.65-.21A1.25,1.25,0,0,0,453.81,10Zm.09-1.66a1.56,1.56,0,0,0-.37-1.09,1.11,1.11,0,0,0-.85-.37,1.14,1.14,0,0,0-.89.39,1.52,1.52,0,0,0-.35,1.07Z" transform="translate(-1.04 -3.24)"/><path class="cls-1" d="M456.76,5.75h1.51V6.6a2.45,2.45,0,0,1,1.94-1,2,2,0,0,1,1,.25,1.9,1.9,0,0,1,.72.74,2.77,2.77,0,0,1,.89-.74,2.07,2.07,0,0,1,1-.25,2.22,2.22,0,0,1,1.16.28,1.69,1.69,0,0,1,.71.82A3.58,3.58,0,0,1,465.91,8v4h-1.65V8.42a2.57,2.57,0,0,0-.17-1.2.78.78,0,0,0-.7-.35,1.12,1.12,0,0,0-.65.21,1.2,1.2,0,0,0-.44.62A4.41,4.41,0,0,0,462.16,9v3h-1.64V8.56a4.66,4.66,0,0,0-.09-1.17.81.81,0,0,0-.27-.39.84.84,0,0,0-.5-.13,1.17,1.17,0,0,0-.69.21,1.12,1.12,0,0,0-.44.59A4.69,4.69,0,0,0,458.4,9v3h-1.64Z" transform="translate(-1.04 -3.24)"/><path class="cls-1" d="M467.17,8.77a3.34,3.34,0,0,1,.4-1.58A2.71,2.71,0,0,1,468.72,6a3.36,3.36,0,0,1,1.65-.41,3.13,3.13,0,0,1,2.32.92,3.17,3.17,0,0,1,.9,2.32,3.2,3.2,0,0,1-.91,2.34,3.07,3.07,0,0,1-2.29.92,3.59,3.59,0,0,1-1.64-.38,2.71,2.71,0,0,1-1.18-1.14A3.74,3.74,0,0,1,467.17,8.77Zm1.69.09a2,2,0,0,0,.44,1.42,1.44,1.44,0,0,0,2.16,0,2.09,2.09,0,0,0,.44-1.43,2.07,2.07,0,0,0-.44-1.41,1.44,1.44,0,0,0-2.16,0A2,2,0,0,0,468.86,8.86Z" transform="translate(-1.04 -3.24)"/><path class="cls-1" d="M476.59,12l-2.51-6.22h1.73L477,8.93l.34,1.06c.09-.27.15-.45.17-.54l.18-.52,1.18-3.18h1.7L478.07,12Z" transform="translate(-1.04 -3.24)"/><path class="cls-1" d="M485.16,10l1.64.28a2.69,2.69,0,0,1-1,1.37,2.92,2.92,0,0,1-1.71.47,2.77,2.77,0,0,1-2.4-1.06,3.54,3.54,0,0,1-.62-2.14,3.42,3.42,0,0,1,.81-2.42,2.65,2.65,0,0,1,2.05-.88,2.78,2.78,0,0,1,2.19.92,4.1,4.1,0,0,1,.77,2.81h-4.13a1.62,1.62,0,0,0,.4,1.14,1.24,1.24,0,0,0,.95.4,1,1,0,0,0,.65-.21A1.31,1.31,0,0,0,485.16,10Zm.09-1.66a1.56,1.56,0,0,0-.37-1.09,1.11,1.11,0,0,0-.85-.37,1.14,1.14,0,0,0-.89.39,1.52,1.52,0,0,0-.35,1.07Z" transform="translate(-1.04 -3.24)"/><path class="cls-1" d="M493.51,12V4.84H491V3.38h6.82V4.84h-2.54V12Z" transform="translate(-1.04 -3.24)"/><path class="cls-1" d="M497.62,8.77a3.34,3.34,0,0,1,.4-1.58A2.76,2.76,0,0,1,499.17,6a3.39,3.39,0,0,1,1.65-.41,3.11,3.11,0,0,1,2.32.92,3.17,3.17,0,0,1,.9,2.32,3.2,3.2,0,0,1-.91,2.34,3.07,3.07,0,0,1-2.29.92,3.62,3.62,0,0,1-1.64-.38A2.71,2.71,0,0,1,498,10.59,3.74,3.74,0,0,1,497.62,8.77Zm1.69.09a2,2,0,0,0,.44,1.42,1.44,1.44,0,0,0,2.16,0,2.09,2.09,0,0,0,.44-1.43,2.07,2.07,0,0,0-.44-1.41,1.44,1.44,0,0,0-2.16,0A2,2,0,0,0,499.31,8.86Z" transform="translate(-1.04 -3.24)"/><path class="cls-1" d="M505.18,12.38l1.88.23a.61.61,0,0,0,.22.45,1.19,1.19,0,0,0,.73.18,1.91,1.91,0,0,0,1-.19.83.83,0,0,0,.33-.42,2.53,2.53,0,0,0,.08-.76V11a2.25,2.25,0,0,1-1.87,1,2.27,2.27,0,0,1-2-1.06A3.54,3.54,0,0,1,505,8.83a3.42,3.42,0,0,1,.75-2.39,2.46,2.46,0,0,1,1.88-.83,2.28,2.28,0,0,1,1.9,1V5.75H511v5.59a5.57,5.57,0,0,1-.18,1.64,2,2,0,0,1-.51.86,2.24,2.24,0,0,1-.88.48,4.44,4.44,0,0,1-1.38.18,3.62,3.62,0,0,1-2.25-.54,1.7,1.7,0,0,1-.66-1.38A1.56,1.56,0,0,1,505.18,12.38Zm1.47-3.65a2.27,2.27,0,0,0,.38,1.45,1.18,1.18,0,0,0,1,.46,1.3,1.3,0,0,0,1-.47,2,2,0,0,0,.41-1.4A2.2,2.2,0,0,0,509,7.34a1.29,1.29,0,0,0-1-.47,1.21,1.21,0,0,0-1,.46A2.19,2.19,0,0,0,506.65,8.73Z" transform="translate(-1.04 -3.24)"/><path class="cls-1" d="M516.26,10l1.64.28a2.68,2.68,0,0,1-1,1.37,2.92,2.92,0,0,1-1.71.47,2.76,2.76,0,0,1-2.4-1.06,3.54,3.54,0,0,1-.62-2.14A3.42,3.42,0,0,1,513,6.49a2.64,2.64,0,0,1,2-.88,2.79,2.79,0,0,1,2.2.92A4.05,4.05,0,0,1,518,9.34h-4.12a1.62,1.62,0,0,0,.4,1.14,1.24,1.24,0,0,0,1,.4,1,1,0,0,0,.65-.21A1.3,1.3,0,0,0,516.26,10Zm.1-1.66A1.6,1.6,0,0,0,516,7.24a1.14,1.14,0,0,0-.86-.37,1.15,1.15,0,0,0-.89.39,1.51,1.51,0,0,0-.34,1.07Z" transform="translate(-1.04 -3.24)"/><path class="cls-1" d="M522.19,5.75V7.06h-1.13V9.57a4.68,4.68,0,0,0,0,.89.41.41,0,0,0,.14.21.51.51,0,0,0,.28.08,2,2,0,0,0,.66-.16l.14,1.28a3.31,3.31,0,0,1-1.3.24,2.28,2.28,0,0,1-.8-.14,1.23,1.23,0,0,1-.53-.39,1.65,1.65,0,0,1-.23-.64,9,9,0,0,1-.05-1.16V7.06h-.76V5.75h.76V4.52l1.65-1v2.2Z" transform="translate(-1.04 -3.24)"/><path class="cls-1" d="M525,3.38V6.54a2.47,2.47,0,0,1,2.93-.72,1.61,1.61,0,0,1,.69.54,2.09,2.09,0,0,1,.32.73A7.16,7.16,0,0,1,529,8.32V12h-1.65V8.69a5.12,5.12,0,0,0-.09-1.25.78.78,0,0,0-.33-.41,1,1,0,0,0-.6-.16,1.4,1.4,0,0,0-.73.2,1.15,1.15,0,0,0-.47.6A3.58,3.58,0,0,0,525,8.86V12h-1.65V3.38Z" transform="translate(-1.04 -3.24)"/><path class="cls-1" d="M534.26,10l1.64.28a2.68,2.68,0,0,1-1,1.37,2.92,2.92,0,0,1-1.71.47,2.76,2.76,0,0,1-2.4-1.06,3.54,3.54,0,0,1-.62-2.14A3.42,3.42,0,0,1,531,6.49a2.64,2.64,0,0,1,2-.88,2.79,2.79,0,0,1,2.2.92A4.05,4.05,0,0,1,536,9.34h-4.12a1.62,1.62,0,0,0,.4,1.14,1.24,1.24,0,0,0,1,.4,1,1,0,0,0,.65-.21A1.3,1.3,0,0,0,534.26,10Zm.1-1.66A1.6,1.6,0,0,0,534,7.24a1.14,1.14,0,0,0-.86-.37,1.15,1.15,0,0,0-.89.39,1.51,1.51,0,0,0-.34,1.07Z" transform="translate(-1.04 -3.24)"/><path class="cls-1" d="M538.91,12h-1.65V5.75h1.53v.89a2.72,2.72,0,0,1,.71-.83,1.33,1.33,0,0,1,.71-.2,2.08,2.08,0,0,1,1.09.31l-.51,1.44a1.47,1.47,0,0,0-.78-.27.88.88,0,0,0-.58.19,1.24,1.24,0,0,0-.38.69,9.76,9.76,0,0,0-.14,2.08Z" transform="translate(-1.04 -3.24)"/></svg>