<?xml version="1.0" encoding="utf-8"?>
<!-- Generator: Adobe Illustrator 24.3.0, SVG Export Plug-In . SVG Version: 6.00 Build 0)  -->
<svg version="1.1" id="Capa_1" xmlns="http://www.w3.org/2000/svg" xmlns:xlink="http://www.w3.org/1999/xlink" x="0px" y="0px"
	 viewBox="0 0 525.9 351.3" style="enable-background:new 0 0 525.9 351.3;" xml:space="preserve">
<style type="text/css">
	.st0{fill:#8CB4EB;}
</style>
<path class="st0" d="M46.1,313.1c-6.5-5.7-33.3-29.4-43.3-64.6c-8.4-29.5,4.7-32.7,5.3-82.9c0.5-43.4-9.3-46.8-7.4-87.7
	C2.4,40.7,3.4,20,19.7,0.8c36.9-43.3,117.4-37.6,129.9-27c1,0.8,5.1,4.7,11.6,5.8c7.5,1.2,13.9-2,15.8-2.9
	c19.1-9.1,76-19.4,122.5-12.5c9.6,1.4,6.6,1.8,19,3.9c16.4,2.7,40.1,5.2,84.5,1.9c49.1-3.6,59-9.5,80.3-1.9
	c17.5,6.2,26.3,15.7,28.5,18.3c11.5,13.2,13.1,27.8,13.7,34.7c2,21.2-7.6,23.6-8.5,47.2c-0.6,17.3,4.4,16.5,7.4,46.3
	c1.7,17.3,2.8,28.6,0,43.4c-4.1,21-10.8,21.4-11.6,37.6c-0.7,13.9,4.3,13.4,8.5,40.5c3.6,23.8,1.2,33.5,0,37.6
	c-0.6,2.2-3.6,11.7-11.6,22.2c-1.5,1.9-19.5,24.7-48.6,30.8c-27.4,5.7-31.8-10.2-68.7-12.5c-32.1-2-34.6,9.8-95.1,14.5
	c-14.3,1.1-26.7,1.4-41.2,0c-24.7-2.4-27.8-10.1-45.4-9.6c-19.3,0.5-21.2,8.7-45.4,11.6c-15,1.8-13.5-1.5-40.1-1.9
	c-33.8-0.6-44.4,4.5-61.3-2.9C62.3,324.8,56.3,322.1,46.1,313.1z"/>
<rect class="st0" width="526.4" height="306"/>
</svg>
