<?xml version="1.0" encoding="utf-8"?>
<!-- Generator: Adobe Illustrator 24.3.0, SVG Export Plug-In . SVG Version: 6.00 Build 0)  -->
<svg version="1.1" id="Laag_1" xmlns="http://www.w3.org/2000/svg" xmlns:xlink="http://www.w3.org/1999/xlink" x="0px" y="0px"
	 viewBox="0 0 512 512" style="enable-background:new 0 0 512 512;" xml:space="preserve">
<style type="text/css">
	.st0{fill:#CF976A;}
	.st1{fill:#A59078;}
	.st2{fill:#CB8252;}
	.st3{fill:#CBB292;}
</style>
<g id="Page-1">
	<g id="_x30_30---Paving">
		<path id="Shape" class="st0" d="M251.9,28.7h-111c-4.7,0-9.2,2.3-11.9,6.1c-2.8,3.8-3.6,8.7-2.2,13.2l27.8,87.9
			c1.9,6.2,7.7,10.3,14.1,10.4h32.5c3.2,0,6.4,1,9,2.8l70.5,49.4c2.5,1.7,5.5,2.7,8.5,2.7h46.1c8.2,0,14.8-6.6,14.8-14.8v-65.8
			c0-4.1-1.7-8.1-4.8-10.9l-83.4-77C259.2,30.1,255.6,28.7,251.9,28.7L251.9,28.7z"/>
		<path id="Shape_1_" class="st1" d="M468.5,28.7H341.9c-6.1,0-11.6,3.7-13.8,9.4c-2.2,5.7-0.7,12.1,3.7,16.3l31.8,29.4
			c3.8,3.5,9.2,4.8,14.2,3.3l94.8-27.9c6.3-1.9,10.6-7.6,10.6-14.2v-1.5c0-3.9-1.6-7.7-4.3-10.5C476.2,30.3,472.4,28.7,468.5,28.7
			L468.5,28.7z"/>
		<path id="Shape_2_" class="st2" d="M464.3,94.4L392,115.7c-6.3,1.9-10.6,7.6-10.6,14.2v56.4c0,8.2,6.7,14.8,14.8,14.8h15.3
			c0.4,0,0.8,0,1.2,0l57-4.7c7.7-0.6,13.6-7.1,13.6-14.8v-73c0-4.7-2.2-9.1-5.9-11.9C473.6,94,468.8,93.1,464.3,94.4L464.3,94.4z"/>
		<path id="Shape_3_" class="st3" d="M467.3,228l-32.2,2.7c-6.1,0.5-11.3,4.8-13,10.7l-20.6,72.2c-1.5,5.2,0,10.7,3.8,14.5L458,381
			c4.2,4.2,10.6,5.5,16.2,3.2c5.5-2.3,9.1-7.7,9.2-13.7V242.8c0-4.1-1.7-8.1-4.8-10.9C475.5,229.1,471.4,227.7,467.3,228L467.3,228z
			"/>
		<path id="Shape_4_" class="st3" d="M76.9,28.7H43.5c-8.2,0-14.8,6.6-14.8,14.8v87.9c0,8.2,6.6,14.8,14.8,14.8h61.1
			c4.7,0,9.2-2.3,11.9-6.1c2.8-3.8,3.6-8.7,2.2-13.2L91,39C89,32.9,83.3,28.7,76.9,28.7z"/>
		<path id="Shape_5_" class="st1" d="M43.5,177.6c-8.2,0-14.8,6.6-14.8,14.8v151.5c0,5.6,3.2,10.7,8.2,13.3c5,2.5,11,2,15.5-1.4
			l29.4-22.1c4.7-3.5,6.9-9.4,5.6-15.1L58,189.2C56.4,182.4,50.4,177.6,43.5,177.6L43.5,177.6z"/>
		<path id="Shape_6_" class="st0" d="M104.9,355.6l-70.3,52.7c-3.7,2.8-5.9,7.2-5.9,11.9v48.3c0,8.2,6.6,14.8,14.8,14.8h76
			c5,0,9.6-2.5,12.3-6.6l39.8-59.7c2.6-4,3.2-9,1.6-13.4l-12.4-33c-1.7-4.6-5.5-8-10.3-9.2l-33.1-8.3
			C113.1,352,108.5,352.9,104.9,355.6z"/>
		<path id="Shape_7_" class="st3" d="M264.7,428.4h-55.1c-5,0-9.6,2.5-12.3,6.6l-16.8,25.2c-3,4.5-3.3,10.4-0.7,15.2
			c2.6,4.8,7.6,7.8,13.1,7.8h71.9c8.2,0,14.8-6.6,14.8-14.8v-25.2C279.5,435.1,272.9,428.4,264.7,428.4L264.7,428.4z"/>
		<path id="Shape_8_" class="st0" d="M370.9,359.2l-55.7,55.7c-2.8,2.8-4.3,6.5-4.3,10.5v43.1c0,8.2,6.6,14.8,14.8,14.8h142.8
			c8.2,0,14.8-6.6,14.8-14.8v-11.8c0-3.9-1.6-7.7-4.3-10.5l-87.1-87c-2.8-2.8-6.6-4.3-10.5-4.3C377.5,354.9,373.7,356.4,370.9,359.2
			L370.9,359.2z"/>
		<path id="Shape_9_" class="st2" d="M191.5,177.6h-85.4c-4.5,0-8.8,2.1-11.6,5.6c-2.8,3.5-3.9,8.1-2.9,12.5l26.5,116.9
			c1.2,5.5,5.4,9.7,10.9,11.1l25.8,6.4c5.5,1.4,11.4-0.6,15-5l76.5-92.9c2.6-3.2,3.8-7.3,3.2-11.4c-0.6-4.1-2.8-7.8-6.2-10.1
			L200,180.3C197.5,178.6,194.6,177.6,191.5,177.6L191.5,177.6z"/>
		<path id="Shape_10_" class="st1" d="M372.3,232.5h-78.5c-4.4,0-8.6,2-11.4,5.4l-89.4,108.5c-3.4,4.1-4.3,9.7-2.4,14.6l9.9,26.4
			c2.2,5.8,7.7,9.6,13.9,9.6h68.1c3.9,0,7.7-1.6,10.5-4.3l71.7-71.7c1.8-1.8,3.1-4,3.8-6.4l18.1-63.2c1.3-4.5,0.4-9.3-2.4-13
			S377,232.5,372.3,232.5L372.3,232.5z"/>
	</g>
</g>
</svg>
