<?xml version="1.0" encoding="utf-8"?>
<!-- Generator: Adobe Illustrator 24.3.0, SVG Export Plug-In . SVG Version: 6.00 Build 0)  -->
<svg version="1.1" id="Laag_1" xmlns="http://www.w3.org/2000/svg" xmlns:xlink="http://www.w3.org/1999/xlink" x="0px" y="0px"
	 viewBox="0 0 512 512" style="enable-background:new 0 0 512 512;" xml:space="preserve">
<style type="text/css">
	.st0{fill:#CF976A;}
	.st1{fill:#A59078;}
	.st2{fill:#CB8252;}
	.st3{fill:#CBB292;}
</style>
<g id="Page-1">
	<g id="_x30_30---Paving">
		<path id="Shape" class="st0" d="M252,36.9H145c-4.5,0-8.9,2.2-11.5,5.9c-2.7,3.7-3.5,8.4-2.1,12.7l26.8,84.7
			c1.8,6,7.4,9.9,13.6,10h31.3c3.1,0,6.2,1,8.7,2.7l68,47.6c2.4,1.6,5.3,2.6,8.2,2.6h44.4c7.9,0,14.3-6.4,14.3-14.3v-63.4
			c0-4-1.6-7.8-4.6-10.5l-80.4-74.2C259,38.2,255.6,36.9,252,36.9L252,36.9z"/>
		<path id="Shape_1_" class="st1" d="M460.8,36.9h-122c-5.9,0-11.2,3.6-13.3,9.1c-2.1,5.5-0.7,11.7,3.6,15.7L359.7,90
			c3.7,3.4,8.9,4.6,13.7,3.2l91.4-26.9c6.1-1.8,10.2-7.3,10.2-13.7v-1.4c0-3.8-1.5-7.4-4.1-10.1C468.2,38.4,464.5,36.9,460.8,36.9
			L460.8,36.9z"/>
		<path id="Shape_2_" class="st2" d="M456.7,100.2L387,120.8c-6.1,1.8-10.2,7.3-10.2,13.7v54.4c0,7.9,6.5,14.3,14.3,14.3h14.7
			c0.4,0,0.8,0,1.2,0l54.9-4.5c7.4-0.6,13.1-6.8,13.1-14.3v-70.4c0-4.5-2.1-8.8-5.7-11.5C465.7,99.8,461.1,99,456.7,100.2
			L456.7,100.2z"/>
		<path id="Shape_3_" class="st3" d="M459.6,229l-31,2.6c-5.9,0.5-10.9,4.6-12.5,10.3l-19.9,69.6c-1.4,5,0,10.3,3.7,14l50.8,51
			c4,4,10.2,5.3,15.6,3.1c5.3-2.2,8.8-7.4,8.9-13.2V243.3c0-4-1.6-7.8-4.6-10.5C467.5,230.1,463.6,228.7,459.6,229L459.6,229z"/>
		<path id="Shape_4_" class="st3" d="M83.3,36.9H51.1c-7.9,0-14.3,6.4-14.3,14.3v84.7c0,7.9,6.4,14.3,14.3,14.3H110
			c4.5,0,8.9-2.2,11.5-5.9c2.7-3.7,3.5-8.4,2.1-12.7L96.9,46.8C95,40.9,89.5,36.9,83.3,36.9z"/>
		<path id="Shape_5_" class="st1" d="M51.1,180.4c-7.9,0-14.3,6.4-14.3,14.3v146c0,5.4,3.1,10.3,7.9,12.8c4.8,2.4,10.6,1.9,14.9-1.3
			L88,330.9c4.5-3.4,6.7-9.1,5.4-14.6L65.1,191.6C63.6,185.1,57.8,180.4,51.1,180.4L51.1,180.4z"/>
		<path id="Shape_6_" class="st0" d="M110.3,352l-67.8,50.8c-3.6,2.7-5.7,6.9-5.7,11.5v46.6c0,7.9,6.4,14.3,14.3,14.3h73.3
			c4.8,0,9.3-2.4,11.9-6.4l38.4-57.5c2.5-3.9,3.1-8.7,1.5-12.9l-12-31.8c-1.6-4.4-5.3-7.7-9.9-8.9l-31.9-8
			C118.2,348.5,113.8,349.4,110.3,352z"/>
		<path id="Shape_7_" class="st3" d="M264.3,422.2h-53.1c-4.8,0-9.3,2.4-11.9,6.4l-16.2,24.3c-2.9,4.3-3.2,10-0.7,14.7
			c2.5,4.6,7.3,7.5,12.6,7.5h69.3c7.9,0,14.3-6.4,14.3-14.3v-24.3C278.6,428.6,272.2,422.2,264.3,422.2L264.3,422.2z"/>
		<path id="Shape_8_" class="st0" d="M366.7,355.5L313,409.2c-2.7,2.7-4.1,6.3-4.1,10.1v41.5c0,7.9,6.4,14.3,14.3,14.3h137.6
			c7.9,0,14.3-6.4,14.3-14.3v-11.4c0-3.8-1.5-7.4-4.1-10.1l-84-83.9c-2.7-2.7-6.4-4.1-10.1-4.1C373.1,351.3,369.4,352.8,366.7,355.5
			L366.7,355.5z"/>
		<path id="Shape_9_" class="st2" d="M193.8,180.4h-82.3c-4.3,0-8.5,2-11.2,5.4c-2.7,3.4-3.8,7.8-2.8,12L123,310.6
			c1.2,5.3,5.2,9.4,10.5,10.7l24.9,6.2c5.3,1.3,11-0.6,14.5-4.8l73.7-89.5c2.5-3.1,3.7-7,3.1-11c-0.6-4-2.7-7.5-6-9.7L202,183
			C199.6,181.4,196.8,180.4,193.8,180.4L193.8,180.4z"/>
		<path id="Shape_10_" class="st1" d="M368.1,233.3h-75.7c-4.2,0-8.3,1.9-11,5.2l-86.2,104.6c-3.3,4-4.1,9.4-2.3,14.1l9.5,25.4
			c2.1,5.6,7.4,9.3,13.4,9.3h65.6c3.8,0,7.4-1.5,10.1-4.1l69.1-69.1c1.7-1.7,3-3.9,3.7-6.2l17.4-60.9c1.3-4.3,0.4-9-2.3-12.5
			C376.8,235.5,372.6,233.3,368.1,233.3L368.1,233.3z"/>
	</g>
</g>
</svg>
