<?xml version="1.0" encoding="utf-8"?>
<!-- Generator: Adobe Illustrator 24.3.0, SVG Export Plug-In . SVG Version: 6.00 Build 0)  -->
<svg version="1.1" id="Laag_1" xmlns="http://www.w3.org/2000/svg" xmlns:xlink="http://www.w3.org/1999/xlink" x="0px" y="0px"
	 viewBox="0 0 512 512" style="enable-background:new 0 0 512 512;" xml:space="preserve">
<style type="text/css">
	.st0{fill:#697A44;}
	.st1{fill:#CF976A;}
	.st2{fill:#A59078;}
	.st3{fill:#CB8252;}
	.st4{fill:#CBB292;}
</style>
<rect class="st0" width="512" height="512"/>
<g id="Page-1">
	<g id="_x30_30---Paving">
		<path id="Shape" class="st1" d="M252.6,69.9h-90.8c-3.8,0-7.6,1.9-9.8,5c-2.3,3.1-3,7.1-1.8,10.8l22.8,71.9
			c1.5,5.1,6.3,8.4,11.5,8.5h26.6c2.6,0,5.3,0.8,7.4,2.3l57.7,40.4c2,1.4,4.5,2.2,7,2.2h37.7c6.7,0,12.1-5.4,12.1-12.1v-53.8
			c0-3.4-1.4-6.6-3.9-8.9l-68.3-63C258.5,71,255.7,69.9,252.6,69.9L252.6,69.9z"/>
		<path id="Shape_1_" class="st2" d="M429.9,69.9H326.3c-5,0-9.5,3.1-11.3,7.7c-1.8,4.7-0.6,9.9,3.1,13.3l26,24
			c3.1,2.9,7.6,3.9,11.6,2.7l77.6-22.8c5.2-1.5,8.7-6.2,8.7-11.6v-1.2c0-3.2-1.3-6.3-3.5-8.6C436.2,71.2,433,69.9,429.9,69.9
			L429.9,69.9z"/>
		<path id="Shape_2_" class="st3" d="M426.4,123.7l-59.2,17.5c-5.2,1.5-8.7,6.2-8.7,11.6V199c0,6.7,5.5,12.1,12.1,12.1h12.5
			c0.3,0,0.7,0,1,0l46.6-3.8c6.3-0.5,11.1-5.8,11.1-12.1v-59.8c0-3.8-1.8-7.5-4.8-9.8C434,123.3,430.1,122.7,426.4,123.7
			L426.4,123.7z"/>
		<path id="Shape_3_" class="st4" d="M428.9,233l-26.3,2.2c-5,0.4-9.3,3.9-10.6,8.7L375,303.1c-1.2,4.2,0,8.7,3.1,11.9l43.1,43.3
			c3.4,3.4,8.7,4.5,13.2,2.6c4.5-1.9,7.5-6.3,7.6-11.2V245.2c0-3.4-1.4-6.6-3.9-8.9C435.6,234,432.3,232.8,428.9,233L428.9,233z"/>
		<path id="Shape_4_" class="st4" d="M109.4,69.9H82c-6.7,0-12.1,5.4-12.1,12.1V154c0,6.7,5.4,12.1,12.1,12.1h50
			c3.8,0,7.6-1.9,9.8-5c2.3-3.1,3-7.1,1.8-10.8l-22.7-72C119.3,73.3,114.6,69.9,109.4,69.9z"/>
		<path id="Shape_5_" class="st2" d="M82,191.8c-6.7,0-12.1,5.4-12.1,12.1v124c0,4.6,2.6,8.7,6.7,10.9c4.1,2,9,1.6,12.7-1.1
			l24.1-18.1c3.8-2.9,5.7-7.7,4.6-12.4l-24-105.9C92.7,195.8,87.7,191.8,82,191.8L82,191.8z"/>
		<path id="Shape_6_" class="st1" d="M132.3,337.5l-57.6,43.1c-3.1,2.3-4.8,5.9-4.8,9.8v39.6c0,6.7,5.4,12.1,12.1,12.1h62.2
			c4.1,0,7.9-2,10.1-5.4l32.6-48.8c2.1-3.3,2.6-7.4,1.3-11l-10.2-27c-1.4-3.7-4.5-6.5-8.4-7.6l-27.1-6.8
			C139,334.5,135.3,335.3,132.3,337.5z"/>
		<path id="Shape_7_" class="st4" d="M263,397.1H218c-4.1,0-7.9,2-10.1,5.4l-13.8,20.6c-2.5,3.7-2.7,8.5-0.6,12.5
			c2.1,3.9,6.2,6.4,10.7,6.4H263c6.7,0,12.1-5.4,12.1-12.1v-20.6C275.2,402.5,269.8,397.1,263,397.1L263,397.1z"/>
		<path id="Shape_8_" class="st1" d="M350,340.4L304.4,386c-2.3,2.3-3.5,5.3-3.5,8.6v35.2c0,6.7,5.4,12.1,12.1,12.1h116.8
			c6.7,0,12.1-5.4,12.1-12.1v-9.7c0-3.2-1.3-6.3-3.5-8.6l-71.3-71.2c-2.3-2.3-5.4-3.5-8.6-3.5C355.4,336.9,352.3,338.1,350,340.4
			L350,340.4z"/>
		<path id="Shape_9_" class="st3" d="M203.2,191.8h-69.9c-3.7,0-7.2,1.7-9.5,4.6s-3.2,6.6-2.4,10.2l21.6,95.8c1,4.5,4.4,8,8.9,9.1
			l21.1,5.3c4.5,1.1,9.3-0.5,12.3-4.1l62.6-76c2.1-2.6,3.1-5.9,2.6-9.3c-0.5-3.4-2.3-6.4-5.1-8.2l-35.4-25
			C208.1,192.6,205.7,191.8,203.2,191.8L203.2,191.8z"/>
		<path id="Shape_10_" class="st2" d="M351.2,236.7h-64.3c-3.6,0-7,1.6-9.3,4.4l-73.2,88.8c-2.8,3.4-3.5,8-2,12l8.1,21.6
			c1.8,4.8,6.3,7.9,11.4,7.9h55.7c3.2,0,6.3-1.3,8.6-3.5l58.7-58.7c1.4-1.4,2.5-3.3,3.1-5.3l14.8-51.7c1.1-3.7,0.3-7.6-2-10.6
			C358.6,238.6,355,236.7,351.2,236.7L351.2,236.7z"/>
	</g>
</g>
</svg>
