<?xml version="1.0" encoding="utf-8"?>
<!-- Generator: Adobe Illustrator 24.3.0, SVG Export Plug-In . SVG Version: 6.00 Build 0)  -->
<svg version="1.1" id="Laag_1" xmlns="http://www.w3.org/2000/svg" xmlns:xlink="http://www.w3.org/1999/xlink" x="0px" y="0px"
	 viewBox="0 0 512 438.3" style="enable-background:new 0 0 512 438.3;" xml:space="preserve">
<style type="text/css">
	.st0{fill:#747878;}
	.st1{fill:#677070;}
	.st2{fill:#8C9589;}
	.st3{fill:#829899;}
	.st4{fill:#688384;}
</style>
<g id="Page-1">
	<g id="_x30_30---Paving">
		<path id="Shape" class="st0" d="M314.9,0h-107c-4.5,0-8.9,2.2-11.5,5.9c-2.7,3.7-3.5,8.4-2.1,12.7l26.8,84.7
			c1.8,6,7.4,9.9,13.6,10H266c3.1,0,6.2,1,8.7,2.7l68,47.6c2.4,1.6,5.3,2.6,8.2,2.6h44.4c7.9,0,14.3-6.4,14.3-14.3V88.5
			c0-4-1.6-7.8-4.6-10.5L324.6,3.8C321.9,1.3,318.5,0,314.9,0L314.9,0z"/>
		<path id="Shape_3_" class="st0" d="M409.6,422.7l-2.6-31c-0.5-5.9-4.6-10.9-10.3-12.5l-69.6-19.9c-5-1.4-10.3,0-14,3.7l-51,50.8
			c-4,4-5.3,10.2-3.1,15.6c2.2,5.3,7.4,8.8,13.2,8.9h123.1c4,0,7.8-1.6,10.5-4.6C408.5,430.6,409.9,426.7,409.6,422.7L409.6,422.7z"
			/>
		<path id="Shape_4_" class="st1" d="M139.7,0h-32.2c-7.9,0-14.3,6.4-14.3,14.3V99c0,7.9,6.4,14.3,14.3,14.3h58.9
			c4.5,0,8.9-2.2,11.5-5.9c2.7-3.7,3.5-8.4,2.1-12.7L153.3,9.9C151.4,4,145.9,0,139.7,0z"/>
		<path id="Shape_6_" class="st2" d="M166.7,315.1l-67.8,50.8c-3.6,2.7-5.7,6.9-5.7,11.5V424c0,7.9,6.4,14.3,14.3,14.3h73.3
			c4.8,0,9.3-2.4,11.9-6.4l38.4-57.5c2.5-3.9,3.1-8.7,1.5-12.9l-12-31.8c-1.6-4.4-5.3-7.7-9.9-8.9l-31.9-8
			C174.6,311.6,170.2,312.5,166.7,315.1z"/>
		<path id="Shape_8_" class="st3" d="M299,192.6L251.8,252c-2.4,3-3.4,6.7-2.9,10.5l4.7,41.2c0.9,7.8,8,13.5,15.8,12.6l136.7-15.7
			c7.8-0.9,13.5-8,12.6-15.8l-1.3-11.3c-0.4-3.8-2.3-7.2-5.2-9.6l-93-73.8c-3-2.4-6.8-3.3-10.5-2.9
			C304.9,187.7,301.4,189.6,299,192.6L299,192.6z"/>
		<path id="Shape_9_" class="st4" d="M206.5,143.5h-82.3c-4.3,0-8.5,2-11.2,5.4s-3.8,7.8-2.8,12l25.5,112.8
			c1.2,5.3,5.2,9.4,10.5,10.7l24.9,6.2c5.3,1.3,11-0.6,14.5-4.8l73.7-89.5c2.5-3.1,3.7-7,3.1-11c-0.6-4-2.7-7.5-6-9.7l-41.7-29.5
			C212.3,144.5,209.5,143.5,206.5,143.5L206.5,143.5z"/>
	</g>
</g>
</svg>
