<?xml version="1.0" encoding="utf-8"?>
<!-- Generator: Adobe Illustrator 24.3.0, SVG Export Plug-In . SVG Version: 6.00 Build 0)  -->
<svg version="1.1" id="Laag_1" xmlns="http://www.w3.org/2000/svg" xmlns:xlink="http://www.w3.org/1999/xlink" x="0px" y="0px"
	 viewBox="0 0 512 325.6" style="enable-background:new 0 0 512 325.6;" xml:space="preserve">
<style type="text/css">
	.st0{fill:#688384;}
	.st1{fill:#747878;}
	.st2{fill:#677070;}
</style>
<g id="Page-1">
	<g id="_x30_30---Paving">
		<path id="Shape" class="st0" d="M36.4,103.9v107c0,4.5,2.2,8.9,5.9,11.5c3.7,2.7,8.4,3.5,12.7,2.1l84.7-26.8
			c6-1.8,9.9-7.4,10-13.6v-31.3c0-3.1,1-6.2,2.7-8.7l47.6-68c1.6-2.4,2.6-5.3,2.6-8.2V23.5c0-7.9-6.4-14.3-14.3-14.3h-63.4
			c-4,0-7.8,1.6-10.5,4.6L40.2,94.2C37.7,96.9,36.4,100.3,36.4,103.9L36.4,103.9z"/>
		<path id="Shape_3_" class="st1" d="M459.1,9.2l-31,2.6c-5.9,0.5-10.9,4.6-12.5,10.3l-19.9,69.6c-1.4,5,0,10.3,3.7,14l50.8,51
			c4,4,10.2,5.3,15.6,3.1c5.3-2.2,8.8-7.4,8.9-13.2V23.5c0-4-1.6-7.8-4.6-10.5C467,10.3,463.1,8.9,459.1,9.2L459.1,9.2z"/>
		<path id="Shape_4_" class="st2" d="M36.4,279.1v32.2c0,7.9,6.4,14.3,14.3,14.3h84.7c7.9,0,14.3-6.4,14.3-14.3v-58.9
			c0-4.5-2.2-8.9-5.9-11.5c-3.7-2.7-8.4-3.5-12.7-2.1l-84.8,26.7C40.4,267.4,36.4,272.9,36.4,279.1z"/>
		<path id="Shape_6_" class="st0" d="M351.5,252.1l50.8,67.8c2.7,3.6,6.9,5.7,11.5,5.7h46.6c7.9,0,14.3-6.4,14.3-14.3V238
			c0-4.8-2.4-9.3-6.4-11.9l-57.5-38.4c-3.9-2.5-8.7-3.1-12.9-1.5l-31.8,12c-4.4,1.6-7.7,5.3-8.9,9.9l-8,31.9
			C348,244.2,348.9,248.6,351.5,252.1z"/>
		<path id="Shape_8_" class="st2" d="M229,119.8l59.5,47.2c3,2.4,6.7,3.4,10.5,2.9l41.2-4.7c7.8-0.9,13.5-8,12.6-15.8L337.1,12.7
			c-0.9-7.8-8-13.5-15.8-12.6l-11.3,1.3c-3.8,0.4-7.2,2.3-9.6,5.2l-73.8,93c-2.4,3-3.3,6.8-2.9,10.5
			C224.1,113.9,226,117.4,229,119.8L229,119.8z"/>
		<path id="Shape_9_" class="st1" d="M179.9,212.4v82.3c0,4.3,2,8.5,5.4,11.2c3.4,2.7,7.8,3.8,12,2.8l112.8-25.5
			c5.3-1.2,9.4-5.2,10.7-10.5l6.2-24.9c1.3-5.3-0.6-11-4.8-14.5l-89.5-73.7c-3.1-2.5-7-3.7-11-3.1c-4,0.6-7.5,2.7-9.7,6l-29.5,41.7
			C180.9,206.6,179.9,209.4,179.9,212.4L179.9,212.4z"/>
	</g>
</g>
</svg>
