<?xml version="1.0" encoding="iso-8859-1"?>
<!-- Generator: Adobe Illustrator 19.0.0, SVG Export Plug-In . SVG Version: 6.00 Build 0)  -->
<svg version="1.1" id="Capa_1" xmlns="http://www.w3.org/2000/svg" xmlns:xlink="http://www.w3.org/1999/xlink" x="0px" y="0px"
	 viewBox="0 0 512 512" style="enable-background:new 0 0 512 512;" xml:space="preserve">
<circle style="fill:#E3AA75;" cx="256" cy="256" r="202.15"/>
<path style="fill:#D29B6E;" d="M268.635,445.517c-111.645,0-202.152-90.507-202.152-202.152c0-52.608,20.107-100.512,53.042-136.475
	C79.167,143.849,53.848,196.963,53.848,256c0,111.645,90.506,202.152,202.152,202.152c59.037,0,112.151-25.319,149.11-65.677
	C369.147,425.409,321.243,445.517,268.635,445.517z"/>
<circle style="fill:#785353;" cx="256" cy="256" r="168.46"/>
<circle style="fill:#6E4848;" cx="256" cy="256" r="134.77"/>
<g>
	<path style="fill:#B4E6A0;" d="M230.73,146.501c0,41.787,9.538,79.971,25.27,109.499c15.732-29.528,25.27-67.712,25.27-109.499
		c0-34.287-6.421-66.149-17.417-92.793c-2.914-7.061-12.791-7.061-15.705,0C237.152,80.352,230.73,112.214,230.73,146.501z"/>
	<path style="fill:#B4E6A0;" d="M230.73,365.499c0,34.287,6.421,66.149,17.417,92.793c2.914,7.061,12.791,7.061,15.705,0
		c10.996-26.645,17.417-58.506,17.417-92.793c0-41.787-9.538-79.971-25.27-109.499C240.268,285.528,230.73,323.712,230.73,365.499z"
		/>
</g>
<g>
	<path style="fill:#9BD296;" d="M235.679,197.416C239.981,219.165,246.954,239.02,256,256c9.046-16.98,16.019-36.835,20.321-58.584
		c2.557-12.93-6.894-25.606-20.074-25.646c-0.082,0-0.165,0-0.247,0c-0.082,0-0.165,0-0.247,0
		C242.573,171.809,233.122,184.486,235.679,197.416z"/>
	<path style="fill:#9BD296;" d="M276.321,314.584C272.019,292.835,265.046,272.98,256,256c-9.046,16.98-16.019,36.835-20.321,58.584
		c-2.557,12.93,6.894,25.606,20.074,25.646c0.082,0,0.165,0,0.247,0c0.082,0,0.165,0,0.247,0
		C269.427,340.191,278.878,327.514,276.321,314.584z"/>
</g>
<g>
	<path style="fill:#B4E6A0;" d="M365.499,230.73c-41.787,0-79.971,9.538-109.499,25.27c29.528,15.732,67.712,25.27,109.499,25.27
		c34.287,0,66.149-6.421,92.793-17.417c7.061-2.914,7.061-12.791,0-15.705C431.648,237.152,399.786,230.73,365.499,230.73z"/>
	<path style="fill:#B4E6A0;" d="M146.501,230.73c-34.287,0-66.149,6.421-92.793,17.417c-7.061,2.914-7.061,12.791,0,15.705
		c26.645,10.996,58.506,17.417,92.793,17.417c41.787,0,79.971-9.538,109.499-25.27C226.472,240.268,188.288,230.73,146.501,230.73z"
		/>
</g>
<g>
	<path style="fill:#9BD296;" d="M314.584,235.679C292.835,239.981,272.98,246.954,256,256c16.98,9.046,36.835,16.019,58.584,20.321
		c12.93,2.557,25.606-6.894,25.646-20.074c0-0.082,0-0.165,0-0.247c0-0.082,0-0.165,0-0.247
		C340.191,242.573,327.514,233.122,314.584,235.679z"/>
	<path style="fill:#9BD296;" d="M197.416,276.321C219.165,272.019,239.02,265.046,256,256c-16.98-9.046-36.835-16.019-58.584-20.321
		c-12.93-2.557-25.606,6.894-25.646,20.074c0,0.082,0,0.165,0,0.247c0,0.082,0,0.165,0,0.247
		C171.809,269.427,184.486,278.878,197.416,276.321z"/>
</g>
<g>
	<path style="fill:#CDF5A0;" d="M95.664,155.223C145.486,205.046,202.254,239.333,256,256
		c-16.667-53.746-50.954-110.514-100.777-160.336C110.495,50.935,60.169,18.728,11.457,0.55C4.674-1.982-1.982,4.674,0.55,11.457
		C18.728,60.169,50.935,110.495,95.664,155.223z"/>
	<path style="fill:#CDF5A0;" d="M356.777,416.336c44.729,44.728,95.054,76.936,143.766,95.114
		c6.783,2.531,13.439-4.124,10.907-10.907c-18.178-48.712-50.385-99.038-95.114-143.766C366.514,306.954,309.746,272.667,256,256
		C272.667,309.746,306.954,366.514,356.777,416.336z"/>
</g>
<path style="fill:#B4E6A0;" d="M357.077,367.605c-2.698,0-5.388-1.028-7.444-3.085L147.48,162.369
	c-4.113-4.113-4.113-10.776,0-14.888c4.113-4.113,10.776-4.113,14.888,0L364.52,349.633c4.113,4.113,4.113,10.776,0,14.888
	C362.464,366.577,359.775,367.605,357.077,367.605z"/>
<path style="fill:#CDF5A0;" d="M469.292,53.651c2.588-6.806-4.137-13.532-10.944-10.944C418.19,57.98,376.922,84.54,340.231,121.232
	c-36.932,36.932-63.555,78.495-78.778,118.902c-1.719-0.591-3.533-0.981-5.453-0.981c-9.304,0-16.847,7.542-16.847,16.847
	c0,1.92,0.39,3.733,0.981,5.452c-40.407,15.222-81.97,41.846-118.902,78.779C84.541,376.922,57.98,418.19,42.708,458.349
	c-2.588,6.806,4.137,13.532,10.944,10.944c40.159-15.272,81.426-41.833,118.118-78.525c36.932-36.932,63.555-78.495,78.778-118.902
	c1.719,0.591,3.533,0.981,5.453,0.981c9.304,0,16.847-7.542,16.847-16.847c0-1.92-0.39-3.733-0.981-5.453
	c40.407-15.223,81.97-41.846,118.902-78.778C427.459,135.077,454.02,93.81,469.292,53.651z"/>
<g>
</g>
<g>
</g>
<g>
</g>
<g>
</g>
<g>
</g>
<g>
</g>
<g>
</g>
<g>
</g>
<g>
</g>
<g>
</g>
<g>
</g>
<g>
</g>
<g>
</g>
<g>
</g>
<g>
</g>
</svg>
