<?xml version="1.0" encoding="iso-8859-1"?>
<!-- Generator: Adobe Illustrator 19.0.0, SVG Export Plug-In . SVG Version: 6.00 Build 0)  -->
<svg version="1.1" id="Capa_1" xmlns="http://www.w3.org/2000/svg" xmlns:xlink="http://www.w3.org/1999/xlink" x="0px" y="0px"
	 viewBox="0 0 512 512" style="enable-background:new 0 0 512 512;" xml:space="preserve">
<circle style="fill:#F5DCB4;" cx="256" cy="256.001" r="249.05"/>
<g>
	<path style="fill:#FAEBC8;" d="M229.375,0.089c-16.073,1.647-31.707,4.767-46.765,9.234c-9.433,2.798-14.32,13.235-10.555,22.324
		l75.643,182.62V16.675C247.698,6.833,239.166-0.915,229.375,0.089z"/>
	<path style="fill:#FAEBC8;" d="M214.265,264.303H16.674c-9.842,0-17.59,8.533-16.586,18.323
		c1.647,16.073,4.767,31.708,9.234,46.765c2.798,9.432,13.235,14.32,22.324,10.554L214.265,264.303z"/>
	<path style="fill:#FAEBC8;" d="M232.359,220.62L156.733,38.041c-3.769-9.1-14.627-13.003-23.285-8.306
		c-14.039,7.617-27.289,16.5-39.597,26.5c-7.635,6.203-8.166,17.711-1.21,24.667L232.359,220.62z"/>
	<path style="fill:#FAEBC8;" d="M214.265,247.699L31.646,172.056c-9.09-3.765-19.526,1.122-22.324,10.555
		c-4.467,15.058-7.587,30.692-9.234,46.765c-1.003,9.79,6.745,18.323,16.586,18.323L214.265,247.699L214.265,247.699z"/>
	<path style="fill:#FAEBC8;" d="M220.619,232.36L80.901,92.642c-6.956-6.956-18.463-6.425-24.666,1.209
		c-10.001,12.309-18.883,25.558-26.501,39.598c-4.697,8.657-0.794,19.515,8.306,23.285L220.619,232.36z"/>
	<path style="fill:#FAEBC8;" d="M482.266,133.449c-7.617-14.04-16.5-27.289-26.5-39.598c-6.203-7.635-17.711-8.165-24.667-1.209
		L291.381,232.36l182.579-75.626C483.06,152.964,486.963,142.106,482.266,133.449z"/>
	<path style="fill:#FAEBC8;" d="M279.641,220.62L419.359,80.902c6.956-6.956,6.425-18.463-1.21-24.667
		c-12.308-10-25.558-18.882-39.597-26.5c-8.657-4.697-19.515-0.794-23.285,8.306L279.641,220.62z"/>
	<path style="fill:#FAEBC8;" d="M264.302,214.266l75.643-182.619c3.765-9.09-1.122-19.526-10.555-22.324
		c-15.058-4.467-30.692-7.588-46.766-9.235c-9.79-1.003-18.323,6.745-18.323,16.586L264.302,214.266L264.302,214.266z"/>
	<path style="fill:#FAEBC8;" d="M297.735,247.699h197.591c9.842,0,17.589-8.533,16.586-18.323
		c-1.647-16.073-4.767-31.708-9.234-46.765c-2.798-9.432-13.235-14.32-22.324-10.555L297.735,247.699z"/>
	<path style="fill:#FAEBC8;" d="M291.38,279.641L431.1,419.36c6.956,6.956,18.463,6.425,24.666-1.209
		c10-12.308,18.883-25.558,26.5-39.597c4.697-8.657,0.794-19.515-8.306-23.285L291.38,279.641z"/>
	<path style="fill:#FAEBC8;" d="M279.641,291.382l75.626,182.579c3.769,9.1,14.627,13.003,23.285,8.306
		c14.039-7.617,27.289-16.499,39.597-26.5c7.635-6.203,8.166-17.711,1.21-24.667L279.641,291.382z"/>
	<path style="fill:#FAEBC8;" d="M220.62,279.641L38.04,355.268c-9.1,3.769-13.003,14.627-8.306,23.285
		c7.617,14.04,16.5,27.289,26.5,39.597c6.203,7.635,17.71,8.165,24.666,1.209L220.62,279.641z"/>
	<path style="fill:#FAEBC8;" d="M297.735,264.303l182.619,75.643c9.09,3.765,19.526-1.122,22.324-10.554
		c4.467-15.058,7.587-30.692,9.234-46.765c1.003-9.79-6.745-18.323-16.586-18.323H297.735V264.303z"/>
	<path style="fill:#FAEBC8;" d="M232.359,291.382L92.641,431.1c-6.956,6.956-6.425,18.463,1.21,24.667
		c12.308,10,25.558,18.882,39.597,26.5c8.657,4.697,19.515,0.794,23.285-8.306L232.359,291.382z"/>
	<path style="fill:#FAEBC8;" d="M264.302,297.736v197.591c0,9.842,8.533,17.59,18.323,16.586
		c16.073-1.647,31.707-4.767,46.765-9.234c9.432-2.798,14.32-13.235,10.555-22.324L264.302,297.736z"/>
	<path style="fill:#FAEBC8;" d="M247.698,297.736l-75.643,182.619c-3.765,9.09,1.122,19.526,10.555,22.324
		c15.058,4.467,30.692,7.588,46.766,9.234c9.79,1.003,18.323-6.745,18.323-16.586L247.698,297.736L247.698,297.736z"/>
</g>
<path style="fill:#B4E6A0;" d="M446.936,256.001c0,12.455-10.017,23.763-12.346,35.535c-2.4,12.129,2.482,26.399-2.146,37.559
	c-4.708,11.354-18.298,17.97-25.054,28.061c-6.808,10.168-7.76,25.24-16.382,33.862c-8.622,8.621-23.693,9.572-33.862,16.38
	c-10.091,6.755-16.707,20.343-28.059,25.051c-11.158,4.627-25.426-0.256-37.554,2.143c-11.771,2.328-23.079,12.346-35.533,12.346
	c-12.455,0-23.763-10.017-35.535-12.346c-12.129-2.4-26.399,2.482-37.559-2.146c-11.354-4.708-17.97-18.298-28.061-25.054
	c-10.168-6.808-25.24-7.76-33.862-16.382c-8.621-8.622-9.572-23.693-16.38-33.862c-6.755-10.091-20.343-16.707-25.051-28.059
	c-4.627-11.158,0.256-25.426-2.143-37.554c-2.328-11.772-12.345-23.08-12.345-35.534c0-12.455,10.017-23.763,12.346-35.535
	c2.4-12.129-2.482-26.399,2.146-37.559c4.708-11.354,18.298-17.97,25.054-28.061c6.808-10.168,7.76-25.24,16.382-33.862
	c8.622-8.621,23.693-9.572,33.862-16.38c10.091-6.755,16.707-20.343,28.059-25.051c11.158-4.627,25.426,0.256,37.554-2.143
	c11.771-2.328,23.079-12.346,35.533-12.346c12.455,0,23.763,10.017,35.535,12.346c12.129,2.4,26.399-2.482,37.559,2.146
	c11.354,4.708,17.97,18.298,28.061,25.054c10.168,6.808,25.24,7.76,33.862,16.382c8.621,8.622,9.572,23.693,16.38,33.862
	c6.755,10.091,20.343,16.707,25.051,28.059c4.627,11.158-0.256,25.426,2.143,37.554
	C436.919,232.239,446.936,243.547,446.936,256.001z"/>
<g>
	<path style="fill:#9BD296;" d="M158.374,160.949c-0.161-2.789,2.07-5.022,4.859-4.861c11.429,0.659,24.37,6.601,35.089,17.331
		c10.721,10.733,16.661,23.696,17.323,35.147c0.161,2.789-2.07,5.022-4.859,4.861c-11.429-0.659-24.37-6.6-35.088-17.33
		C164.977,185.363,159.036,172.399,158.374,160.949z"/>
	<path style="fill:#9BD296;" d="M325.142,298.287c2.789-0.161,5.022,2.07,4.861,4.859c-0.659,11.429-6.601,24.37-17.331,35.089
		c-10.733,10.721-23.696,16.661-35.147,17.323c-2.789,0.161-5.022-2.07-4.861-4.859c0.659-11.429,6.601-24.37,17.33-35.088
		C300.728,304.889,313.692,298.949,325.142,298.287z"/>
</g>
<g>
	<circle style="fill:#CDF5A0;" cx="330.71" cy="164.681" r="16.603"/>
	<circle style="fill:#CDF5A0;" cx="172.98" cy="339.021" r="16.603"/>
</g>
<g>
	<path style="fill:#9BD296;" d="M363.92,272.604c-2.124,0-4.248-0.811-5.869-2.432l-8.302-8.302c-3.243-3.243-3.243-8.496,0-11.739
		s8.496-3.243,11.739,0l8.302,8.302c3.243,3.243,3.243,8.496,0,11.739C368.168,271.794,366.044,272.604,363.92,272.604z"/>
	<path style="fill:#9BD296;" d="M123.175,289.207c-2.124,0-4.248-0.811-5.869-2.432c-3.243-3.243-3.243-8.496,0-11.739l8.302-8.302
		c3.243-3.243,8.496-3.243,11.739,0s3.243,8.496,0,11.739l-8.302,8.302C127.423,288.397,125.299,289.207,123.175,289.207z"/>
	<path style="fill:#9BD296;" d="M247.698,131.478c-2.124,0-4.248-0.811-5.869-2.432l-8.302-8.302c-3.243-3.243-3.243-8.496,0-11.739
		s8.496-3.243,11.739,0l8.302,8.302c3.243,3.243,3.243,8.496,0,11.739C251.947,130.667,249.822,131.478,247.698,131.478z"/>
</g>
<path style="fill:#CDF5A0;" d="M231.095,397.128h-8.302c-4.589,0-8.302-3.713-8.302-8.302s3.713-8.302,8.302-8.302h8.302
	c4.589,0,8.302,3.713,8.302,8.302S235.684,397.128,231.095,397.128z"/>
<path style="fill:#9BD296;" d="M239.397,297.509c-4.589,0-8.302-3.713-8.302-8.302v-8.302c0-4.589,3.713-8.302,8.302-8.302
	s8.302,3.713,8.302,8.302v8.302C247.698,293.796,243.985,297.509,239.397,297.509z"/>
<path style="fill:#CDF5A0;" d="M297.5,239.398c-1.248,0-2.513-0.284-3.705-0.876l-16.603-8.302
	c-4.102-2.051-5.764-7.037-3.713-11.139c2.059-4.102,7.037-5.756,11.139-3.713l16.603,8.302c4.102,2.051,5.764,7.037,3.713,11.139
	C303.475,237.72,300.548,239.398,297.5,239.398z"/>
<g>
	<path style="fill:#9BD296;" d="M372.222,339.017c-4.589,0-8.302-3.713-8.302-8.302v-8.302c0-4.589,3.713-8.302,8.302-8.302
		s8.302,3.713,8.302,8.302v8.302C380.524,335.304,376.811,339.017,372.222,339.017z"/>
	<path style="fill:#9BD296;" d="M305.809,397.128c-4.589,0-8.342-3.713-8.342-8.302s3.672-8.302,8.261-8.302h0.081
		c4.589,0,8.302,3.713,8.302,8.302S310.398,397.128,305.809,397.128z"/>
</g>
<g>
	<path style="fill:#CDF5A0;" d="M256.081,172.985c-4.589,0-8.342-3.713-8.342-8.302s3.672-8.302,8.261-8.302h0.081
		c4.588,0,8.302,3.713,8.302,8.302S260.669,172.985,256.081,172.985z"/>
	<path style="fill:#CDF5A0;" d="M131.558,222.795c-4.589,0-8.342-3.713-8.342-8.302s3.672-8.302,8.261-8.302h0.081
		c4.588,0,8.302,3.713,8.302,8.302S136.146,222.795,131.558,222.795z"/>
	<path style="fill:#CDF5A0;" d="M189.669,272.604c-4.589,0-8.342-3.713-8.342-8.302s3.672-8.302,8.261-8.302h0.081
		c4.588,0,8.302,3.713,8.302,8.302S194.257,272.604,189.669,272.604z"/>
	<path style="fill:#CDF5A0;" d="M372.222,214.493c-4.589,0-8.342-3.713-8.342-8.302s3.672-8.302,8.261-8.302h0.081
		c4.589,0,8.302,3.713,8.302,8.302S376.811,214.493,372.222,214.493z"/>
</g>
<g>
	<path style="fill:#9BD296;" d="M405.428,264.303c-4.589,0-8.342-3.713-8.342-8.302s3.672-8.302,8.261-8.302h0.081
		c4.589,0,8.302,3.713,8.302,8.302C413.73,260.59,410.017,264.303,405.428,264.303z"/>
	<path style="fill:#9BD296;" d="M390.239,374.305c-10.091,6.755-16.707,20.342-28.059,25.051
		c-11.158,4.627-25.426-0.255-37.554,2.143c-11.771,2.329-23.079,12.346-35.533,12.346c-12.455,0-23.763-10.017-35.535-12.346
		c-12.13-2.4-26.398,2.482-37.558-2.145c-11.354-4.709-17.97-18.298-28.061-25.055c-10.169-6.808-25.241-7.76-33.862-16.382
		c-8.621-8.622-9.572-23.693-16.38-33.862c-6.755-10.091-20.344-16.708-25.051-28.059c-4.627-11.158,0.255-25.426-2.144-37.554
		c-2.328-11.771-12.345-23.079-12.345-35.533c0-12.455,10.017-23.764,12.346-35.535c2.4-12.13-2.482-26.398,2.146-37.559
		c4.709-11.353,18.298-17.97,25.054-28.061c2.326-3.474,3.949-7.507,5.447-11.673c-8.027,2.886-16.483,5.229-22.158,10.905
		c-8.622,8.621-9.574,23.693-16.382,33.861c-6.757,10.091-20.346,16.709-25.054,28.061c-4.628,11.16,0.254,25.429-2.146,37.559
		c-2.329,11.771-12.346,23.08-12.346,35.535c0,12.454,10.017,23.762,12.345,35.533c2.399,12.128-2.483,26.395,2.144,37.554
		c4.707,11.352,18.295,17.968,25.051,28.059c6.807,10.169,7.759,25.24,16.38,33.862s23.693,9.574,33.862,16.382
		c10.091,6.757,16.708,20.346,28.061,25.055c11.16,4.627,25.429-0.254,37.558,2.145c11.772,2.329,23.08,12.346,35.535,12.346
		c12.454,0,23.762-10.017,35.533-12.346c12.128-2.399,26.395,2.484,37.554-2.143c11.353-4.708,17.969-18.295,28.059-25.051
		c10.169-6.808,25.241-7.758,33.862-16.38c5.676-5.677,8.02-14.137,10.908-22.166C397.749,370.35,393.713,371.978,390.239,374.305z"
		/>
</g>
<g>
</g>
<g>
</g>
<g>
</g>
<g>
</g>
<g>
</g>
<g>
</g>
<g>
</g>
<g>
</g>
<g>
</g>
<g>
</g>
<g>
</g>
<g>
</g>
<g>
</g>
<g>
</g>
<g>
</g>
</svg>
