<?xml version="1.0" encoding="utf-8"?>
<!-- Generator: Adobe Illustrator 24.3.0, SVG Export Plug-In . SVG Version: 6.00 Build 0)  -->
<svg version="1.1" id="Capa_1" xmlns="http://www.w3.org/2000/svg" xmlns:xlink="http://www.w3.org/1999/xlink" x="0px" y="0px"
	 viewBox="0 0 512 512" style="enable-background:new 0 0 512 512;" xml:space="preserve">
<style type="text/css">
	.st0{fill:#E3AA75;}
	.st1{fill:#D29B6E;}
	.st2{fill:#785353;}
	.st3{fill:#6E4848;}
	.st4{fill:#CDF5A0;}
	.st5{fill:#B4E6A0;}
	.st6{fill:#FFE17D;}
	.st7{fill:#FFD164;}
	.st8{fill:#9BD296;}
</style>
<circle class="st0" cx="254.7" cy="260" r="238"/>
<path class="st1" d="M270,482.6c-131.4,0-238-106.6-238-238c0-61.8,23.6-118.1,62.2-160.4C46.6,127.7,16.7,190.4,16.7,260
	c0,131.4,106.6,238,238,238c69.6,0,132.3-29.9,175.8-77.6C388.1,459.1,331.8,482.6,270,482.6z"/>
<circle class="st2" cx="254.7" cy="260" r="199.6"/>
<circle class="st3" cx="254.7" cy="260" r="168.9"/>
<path class="st4" d="M331.4,110.3c0,8.6-5.5,16-8.6,23.5c-3.2,7.7-4.7,16.9-10.5,22.7c-5.8,5.8-14.9,7.3-22.7,10.5
	c-7.5,3.1-14.9,8.6-23.5,8.6c-8.6,0-16-5.5-23.5-8.6c-7.7-3.2-16.9-4.7-22.7-10.5c-5.8-5.8-7.3-14.9-10.5-22.7
	c-3.1-7.5-8.6-14.9-8.6-23.5s5.5-16,8.6-23.5c3.2-7.7,4.7-16.9,10.5-22.7c5.8-5.8,14.9-7.3,22.7-10.5c7.5-3.1,14.9-8.6,23.5-8.6
	c8.6,0,16,5.5,23.5,8.6c7.7,3.2,16.9,4.7,22.7,10.5c5.8,5.8,7.3,14.9,10.5,22.7C325.9,94.3,331.4,101.7,331.4,110.3z"/>
<g>
	<path class="st5" d="M312.7,143.9c-7.5,3.1-14.9,8.6-23.5,8.6c-8.6,0-16-5.5-23.5-8.6c-7.7-3.2-16.9-4.7-22.7-10.5
		c-5.8-5.8-7.3-14.9-10.5-22.7c-3.1-7.5-8.6-14.9-8.6-23.5s5.5-16,8.6-23.5c1-2.4,1.9-5,2.7-7.5c-5.6,1.9-11.2,3.8-15.2,7.8
		c-5.8,5.8-7.3,14.9-10.5,22.7c-3.1,7.5-8.6,14.9-8.6,23.5s5.5,16,8.6,23.5c3.2,7.7,4.7,16.8,10.5,22.7c5.8,5.8,14.9,7.3,22.7,10.5
		c7.5,3.1,14.9,8.6,23.5,8.6c8.6,0,16-5.5,23.5-8.6c7.7-3.2,16.9-4.7,22.7-10.5c4-4,5.9-9.6,7.8-15.2
		C317.6,142.1,315.1,142.9,312.7,143.9z"/>
	<path class="st5" d="M264.6,89.2c-4.2,0-7.7-3.4-7.7-7.7s3.4-7.7,7.6-7.7h0.1c4.2,0,7.7,3.4,7.7,7.7
		C272.2,85.7,268.8,89.2,264.6,89.2z"/>
</g>
<path class="st4" d="M231.6,141c0,12.6-8.1,23.5-12.7,34.5c-4.7,11.4-6.9,24.8-15.5,33.4c-8.6,8.6-22,10.7-33.4,15.5
	c-11,4.5-21.9,12.7-34.5,12.7s-23.5-8.1-34.5-12.7c-11.4-4.7-24.8-6.9-33.4-15.5c-8.6-8.6-10.7-22-15.5-33.4
	c-4.5-11-12.7-21.9-12.7-34.5c0-12.6,8.1-23.5,12.7-34.5c4.7-11.4,6.9-24.8,15.5-33.4c8.6-8.6,22-10.7,33.4-15.5
	c11-4.5,21.9-12.7,34.5-12.7c12.6,0,23.5,8.1,34.5,12.7c11.4,4.7,24.8,6.9,33.4,15.5c8.6,8.6,10.7,22,15.5,33.4
	C223.5,117.5,231.6,128.4,231.6,141z"/>
<path class="st5" d="M188,201.8c-10.5,4.4-21,12.1-33.1,12.1c-12.1,0-22.6-7.8-33.1-12.2c-10.9-4.5-23.8-6.6-32-14.8
	c-8.2-8.2-10.3-21.1-14.8-32c-4.4-10.5-12.1-21-12.1-33.1c0-12.1,7.8-22.6,12.1-33.1c3.4-8.2,5.5-17.6,9.8-25.2
	c-6.3,2.3-12.3,5.1-16.8,9.6c-8.6,8.6-10.7,22-15.5,33.4c-4.5,11-12.7,21.9-12.7,34.5c0,12.6,8.1,23.5,12.7,34.5
	c4.7,11.4,6.9,24.8,15.5,33.4c8.6,8.6,22,10.7,33.4,15.5c11,4.5,21.9,12.7,34.5,12.7c12.6,0,23.5-8.1,34.5-12.7
	c11.4-4.7,24.8-6.9,33.4-15.5c4.6-4.6,7.3-10.5,9.6-16.8C205.5,196.4,196.2,198.4,188,201.8z"/>
<g>
	<path class="st4" d="M469.6,379c0,12.6-8.1,23.5-12.7,34.5c-4.7,11.4-6.9,24.8-15.5,33.4c-8.6,8.6-22,10.7-33.4,15.5
		c-11,4.5-21.9,12.7-34.5,12.7s-23.5-8.1-34.5-12.7c-11.4-4.7-24.8-6.9-33.4-15.5c-8.6-8.6-10.7-22-15.5-33.4
		c-4.5-11-12.7-21.9-12.7-34.5s8.1-23.5,12.7-34.5c4.7-11.4,6.9-24.8,15.5-33.4c8.6-8.6,22-10.7,33.4-15.5
		c11-4.5,21.9-12.7,34.5-12.7s23.5,8.1,34.5,12.7c11.4,4.7,24.8,6.9,33.4,15.5c8.6,8.6,10.7,22,15.5,33.4
		C461.5,355.5,469.6,366.4,469.6,379z"/>
	<path class="st4" d="M308.4,409.7c0,8.6-5.5,16-8.6,23.5c-3.2,7.7-4.7,16.9-10.5,22.7c-5.8,5.8-14.9,7.3-22.7,10.5
		c-7.5,3.1-14.9,8.6-23.5,8.6c-8.6,0-16-5.5-23.5-8.6c-7.7-3.2-16.9-4.7-22.7-10.5c-5.8-5.8-7.3-14.9-10.5-22.7
		c-3.1-7.5-8.6-14.9-8.6-23.5c0-8.6,5.5-16,8.6-23.5c3.2-7.7,4.7-16.9,10.5-22.7c5.8-5.8,14.9-7.3,22.7-10.5
		c7.5-3.1,14.9-8.6,23.5-8.6c8.6,0,16,5.5,23.5,8.6c7.7,3.2,16.9,4.7,22.7,10.5c5.8,5.8,7.3,14.9,10.5,22.7
		C302.9,393.7,308.4,401.1,308.4,409.7z"/>
</g>
<g>
	<path class="st5" d="M289.6,443.3c-7.5,3.1-14.9,8.6-23.5,8.6c-8.6,0-16-5.5-23.5-8.6c-7.7-3.2-16.9-4.7-22.7-10.5
		c-5.8-5.8-7.3-14.9-10.5-22.7c-3.1-7.5-8.6-14.9-8.6-23.5c0-8.6,5.5-16,8.6-23.5c1-2.4,1.8-4.9,2.7-7.5c-5.6,1.9-11.2,3.8-15.2,7.8
		c-5.8,5.8-7.3,14.9-10.5,22.7c-3.1,7.5-8.6,14.9-8.6,23.5c0,8.6,5.5,16,8.6,23.5c3.2,7.7,4.7,16.8,10.5,22.7s14.9,7.3,22.7,10.5
		c7.5,3.1,14.9,8.6,23.5,8.6s16-5.5,23.5-8.6c7.7-3.2,16.9-4.7,22.7-10.5c4-4,6-9.6,7.9-15.2C294.6,441.5,292,442.3,289.6,443.3z"/>
	<path class="st5" d="M426,439.8c-10.5,4.4-21,12.1-33.1,12.1s-22.6-7.8-33.1-12.2c-10.9-4.5-23.8-6.6-32-14.8
		c-8.2-8.2-10.3-21.1-14.8-32c-4.4-10.5-12.1-21-12.1-33.1s7.8-22.6,12.1-33.1c3.4-8.2,5.4-17.5,9.7-25.1c-6.3,2.3-12.2,5-16.8,9.6
		c-8.6,8.6-10.7,22-15.5,33.4c-4.5,11-12.7,21.9-12.7,34.5c0,12.6,8.1,23.5,12.7,34.5c4.7,11.4,6.9,24.8,15.5,33.4
		c8.6,8.6,22,10.7,33.4,15.5c11,4.5,21.9,12.7,34.5,12.7c12.6,0,23.5-8.1,34.5-12.7c11.4-4.7,24.8-6.9,33.4-15.5
		c4.6-4.6,7.3-10.6,9.6-16.8C443.5,434.3,434.2,436.4,426,439.8z"/>
	<path class="st5" d="M389,260c0,17.7-11.3,33-17.7,48.3c-6.6,15.9-9.6,34.7-21.6,46.7c-12,12-30.8,15-46.7,21.6
		c-15.4,6.4-30.6,17.7-48.3,17.7s-32.9-11.3-48.3-17.7c-15.9-6.6-34.7-9.6-46.7-21.6c-12-12-15-30.8-21.6-46.7
		c-6.4-15.4-17.7-30.6-17.7-48.3s11.3-32.9,17.7-48.3c6.6-15.9,9.6-34.7,21.6-46.7c12-12,30.8-15,46.7-21.6
		c15.4-6.4,30.6-17.7,48.3-17.7s32.9,11.3,48.3,17.7c15.9,6.6,34.7,9.6,46.7,21.6c12,12,15,30.8,21.6,46.7
		C377.7,227.1,389,242.3,389,260z"/>
	<path class="st5" d="M455.3,180.7c0,5.4-5.7,9.3-8.3,13.7c-2.6,4.5-3.2,11.4-7.7,14c-4.4,2.5-10.6-0.3-16-0.3s-11.7,2.8-16,0.3
		c-4.5-2.6-5.1-9.5-7.7-14c-2.5-4.4-8.3-8.3-8.3-13.7c0-5.4,5.7-9.3,8.3-13.7c2.6-4.5,3.2-11.4,7.7-14c4.4-2.5,10.6,0.3,16,0.3
		s11.7-2.8,16-0.3c4.5,2.6,5.1,9.5,7.7,14C449.5,171.3,455.3,175.2,455.3,180.7z"/>
</g>
<circle class="st6" cx="224.9" cy="309.6" r="19.8"/>
<g>
	<circle class="st7" cx="140.6" cy="106.3" r="14.9"/>
	<circle class="st7" cx="378.6" cy="413.7" r="14.9"/>
</g>
<path class="st5" d="M105.9,178.4c-2,0-3.9-0.7-5.4-2.2l-9.9-9.9c-3-3-3-7.9,0-10.9c3-3,7.9-3,10.9,0l9.9,9.9c3,3,3,7.9,0,10.9
	C109.8,177.7,107.9,178.4,105.9,178.4z"/>
<g>
	<path class="st8" d="M195.2,228c-2,0-3.9-0.7-5.4-2.2c-3-3-3-7.9,0-10.9l9.9-9.9c3-3,7.9-3,10.9,0c3,3,3,7.9,0,10.9l-9.9,9.9
		C199.1,227.3,197.1,228,195.2,228z"/>
	<path class="st8" d="M324.1,317.3c-2,0-3.9-0.7-5.4-2.2l-9.9-9.9c-3-3-3-7.9,0-10.9c3-3,7.9-3,10.9,0l9.9,9.9c3,3,3,7.9,0,10.9
		C328,316.5,326,317.3,324.1,317.3z"/>
</g>
<path class="st5" d="M413.3,366.8c-2,0-3.9-0.7-5.4-2.2l-9.9-9.9c-3-3-3-7.9,0-10.9s7.9-3,10.9,0l9.9,9.9c3,3,3,7.9,0,10.9
	C417.2,366.1,415.3,366.8,413.3,366.8z"/>
<path class="st8" d="M294.4,267.7c-4.2,0-7.7-3.4-7.7-7.7c0-4.2,3.4-7.7,7.6-7.7h0.1c4.2,0,7.7,3.4,7.7,7.7
	C302.1,264.2,298.7,267.7,294.4,267.7z"/>
<g>
	<path class="st5" d="M239.3,428.9c-4.2,0-7.7-3.4-7.7-7.7c0-4.2,3.4-7.7,7.6-7.7h0.1c4.2,0,7.7,3.4,7.7,7.7
		C247,425.5,243.5,428.9,239.3,428.9z"/>
	<path class="st5" d="M118.1,339.7c0,5.4-5.7,9.3-8.3,13.7c-2.6,4.5-3.2,11.4-7.7,14c-4.4,2.5-10.6-0.3-16-0.3s-11.7,2.8-16,0.3
		c-4.5-2.6-5.1-9.5-7.7-14c-2.5-4.4-8.3-8.3-8.3-13.7c0-5.4,5.7-9.3,8.3-13.7c2.6-4.5,3.2-11.4,7.7-14c4.4-2.5,10.6,0.3,16,0.3
		c5.4,0,11.7-2.8,16-0.3c4.5,2.6,5.1,9.5,7.7,14C112.4,330.3,118.1,334.2,118.1,339.7z"/>
</g>
<path class="st8" d="M363.4,330.4c-11.3,11.3-29,14.2-44,20.4c-14.5,6-28.9,16.7-45.6,16.7s-31.1-10.7-45.6-16.7
	c-15-6.2-32.7-9.1-44-20.4c-11.3-11.3-14.2-29-20.4-44c-6-14.5-16.7-28.9-16.7-45.6c0-16.7,10.7-31.1,16.7-45.6
	c6.2-15,9.1-32.7,20.4-44c0,0,0.1-0.1,0.1-0.1c-9.2,3.3-18.1,7.2-24.8,13.9c-12,12-15,30.8-21.6,46.7c-6.4,15.4-17.7,30.6-17.7,48.3
	s11.3,32.9,17.7,48.3c6.6,15.9,9.6,34.7,21.6,46.7c12,12,30.8,15,46.7,21.6c15.4,6.4,30.6,17.7,48.3,17.7
	c17.7,0,32.9-11.3,48.3-17.7c15.9-6.6,34.7-9.6,46.7-21.6c6.7-6.7,10.6-15.5,13.9-24.7C363.5,330.3,363.5,330.3,363.4,330.4z"/>
<path class="st7" d="M233.9,320.5c-11,0-19.8-8.9-19.8-19.8c0-3.2,0.8-6.1,2.1-8.8c-6.5,3.2-11.1,9.9-11.1,17.7
	c0,11,8.9,19.8,19.8,19.8c7.8,0,14.5-4.5,17.7-11.1C240,319.7,237,320.5,233.9,320.5z"/>
<circle class="st6" cx="284.4" cy="200.5" r="19.8"/>
<path class="st7" d="M293.4,211.4c-11,0-19.8-8.9-19.8-19.8c0-3.2,0.8-6.1,2.1-8.8c-6.5,3.2-11.1,9.9-11.1,17.7
	c0,11,8.9,19.8,19.8,19.8c7.8,0,14.5-4.5,17.7-11.1C299.5,210.6,296.5,211.4,293.4,211.4z"/>
</svg>
