<?xml version="1.0" encoding="iso-8859-1"?>
<!-- Generator: Adobe Illustrator 19.0.0, SVG Export Plug-In . SVG Version: 6.00 Build 0)  -->
<svg version="1.1" id="Capa_1" xmlns="http://www.w3.org/2000/svg" xmlns:xlink="http://www.w3.org/1999/xlink" x="0px" y="0px"
	 viewBox="0 0 512 512" style="enable-background:new 0 0 512 512;" xml:space="preserve">
<circle style="fill:#E3AA75;" cx="256" cy="256" r="256"/>
<path style="fill:#D29B6E;" d="M272.516,495.484c-141.385,0-256-114.615-256-256c0-66.491,25.358-127.052,66.919-172.565
	C32.17,113.733,0,181.106,0,256c0,141.385,114.615,256,256,256c74.894,0,142.267-32.17,189.081-83.435
	C399.568,470.126,339.007,495.484,272.516,495.484z"/>
<circle style="fill:#785353;" cx="256" cy="256" r="214.71"/>
<circle style="fill:#6E4848;" cx="256" cy="256" r="181.68"/>
<path style="fill:#CDF5A0;" d="M338.581,94.968c0,9.229-5.929,17.215-9.257,25.24c-3.45,8.319-5.033,18.125-11.303,24.395
	c-6.269,6.269-16.075,7.852-24.394,11.302c-8.025,3.328-16.011,9.257-25.24,9.257s-17.215-5.929-25.24-9.257
	c-8.319-3.45-18.125-5.033-24.395-11.303c-6.269-6.269-7.852-16.075-11.302-24.394c-3.328-8.025-9.257-16.011-9.257-25.24
	s5.929-17.215,9.257-25.24c3.45-8.319,5.033-18.125,11.303-24.395c6.269-6.269,16.075-7.852,24.394-11.302
	c8.025-3.328,16.011-9.257,25.24-9.257s17.215,5.929,25.24,9.257c8.319,3.45,18.125,5.033,24.395,11.303
	c6.269,6.269,7.852,16.075,11.302,24.394C332.652,77.753,338.581,85.739,338.581,94.968z"/>
<g>
	<path style="fill:#B4E6A0;" d="M318.401,131.13c-8.026,3.328-16.011,9.257-25.24,9.257s-17.215-5.929-25.24-9.257
		c-8.32-3.45-18.125-5.033-24.395-11.303c-6.27-6.269-7.852-16.075-11.302-24.394c-3.328-8.026-9.257-16.011-9.257-25.24
		s5.929-17.215,9.257-25.24c1.073-2.587,1.996-5.339,2.905-8.063c-6.034,2.014-12.057,4.123-16.376,8.442
		c-6.27,6.27-7.853,16.076-11.303,24.395c-3.328,8.026-9.257,16.011-9.257,25.24s5.929,17.214,9.257,25.24
		c3.45,8.319,5.033,18.124,11.302,24.394s16.075,7.853,24.395,11.303c8.025,3.328,16.011,9.257,25.24,9.257
		s17.214-5.929,25.24-9.257c8.319-3.45,18.125-5.033,24.394-11.302c4.32-4.32,6.399-10.328,8.413-16.362
		C323.711,129.149,320.989,130.057,318.401,131.13z"/>
	<path style="fill:#B4E6A0;" d="M266.669,72.258c-4.565,0-8.315-3.694-8.315-8.258s3.637-8.258,8.202-8.258h0.113
		c4.565,0,8.258,3.694,8.258,8.258S271.234,72.258,266.669,72.258z"/>
</g>
<path style="fill:#CDF5A0;" d="M231.226,128c0,13.572-8.719,25.316-13.613,37.118c-5.073,12.234-7.402,26.655-16.622,35.874
	c-9.22,9.22-23.64,11.548-35.874,16.621c-11.802,4.894-23.545,13.613-37.117,13.613s-25.316-8.719-37.118-13.613
	c-12.234-5.073-26.655-7.402-35.874-16.622c-9.22-9.22-11.548-23.64-16.621-35.874C33.493,153.315,24.774,141.572,24.774,128
	s8.719-25.316,13.613-37.118c5.073-12.234,7.402-26.655,16.622-35.874c9.22-9.22,23.64-11.548,35.874-16.621
	c11.802-4.894,23.545-13.613,37.117-13.613s25.316,8.719,37.118,13.613c12.234,5.073,26.655,7.402,35.874,16.622
	c9.22,9.22,11.548,23.64,16.621,35.874C222.507,102.685,231.226,114.428,231.226,128z"/>
<path style="fill:#B4E6A0;" d="M184.278,193.383c-11.33,4.698-22.603,13.068-35.633,13.068s-24.303-8.37-35.633-13.069
	c-11.745-4.87-25.588-7.105-34.44-15.957c-8.85-8.851-11.086-22.694-15.956-34.439c-4.698-11.33-13.068-22.603-13.068-35.633
	s8.37-24.303,13.068-35.633c3.66-8.826,5.906-18.879,10.516-27.066c-6.745,2.457-13.213,5.441-18.124,10.353
	c-9.22,9.22-11.548,23.64-16.622,35.874C33.493,102.684,24.774,114.427,24.774,128c0,13.572,8.719,25.315,13.613,37.117
	c5.073,12.234,7.401,26.654,16.62,35.873c9.22,9.22,23.64,11.548,35.874,16.622c11.802,4.894,23.545,13.613,37.118,13.613
	c13.572,0,25.316-8.719,37.117-13.613c12.234-5.073,26.654-7.401,35.873-16.621c4.911-4.911,7.853-11.308,10.309-18.053
	C203.113,187.548,193.104,189.722,184.278,193.383z"/>
<g>
	<path style="fill:#CDF5A0;" d="M487.226,384c0,13.572-8.719,25.316-13.613,37.118c-5.073,12.234-7.402,26.655-16.622,35.874
		c-9.22,9.22-23.64,11.548-35.874,16.621c-11.802,4.894-23.545,13.613-37.117,13.613s-25.316-8.719-37.118-13.613
		c-12.234-5.073-26.655-7.402-35.874-16.622c-9.22-9.22-11.548-23.64-16.621-35.874c-4.894-11.802-13.613-23.545-13.613-37.117
		s8.719-25.316,13.613-37.118c5.073-12.234,7.402-26.655,16.622-35.874c9.22-9.22,23.64-11.548,35.874-16.621
		c11.802-4.894,23.545-13.613,37.117-13.613s25.316,8.719,37.118,13.613c12.234,5.073,26.655,7.402,35.874,16.622
		c9.22,9.22,11.548,23.64,16.621,35.874C478.507,358.685,487.226,370.428,487.226,384z"/>
	<path style="fill:#CDF5A0;" d="M313.806,417.032c0,9.229-5.929,17.215-9.257,25.24c-3.45,8.319-5.033,18.125-11.303,24.395
		c-6.269,6.269-16.075,7.852-24.394,11.302c-8.025,3.328-16.011,9.257-25.24,9.257s-17.215-5.929-25.24-9.257
		c-8.319-3.45-18.125-5.033-24.395-11.303c-6.269-6.269-7.852-16.075-11.302-24.394c-3.328-8.025-9.257-16.011-9.257-25.24
		s5.929-17.215,9.257-25.24c3.45-8.319,5.033-18.125,11.303-24.395c6.269-6.269,16.075-7.852,24.394-11.302
		c8.025-3.328,16.011-9.257,25.24-9.257s17.215,5.929,25.24,9.257c8.319,3.45,18.125,5.033,24.395,11.303
		c6.269,6.269,7.852,16.075,11.302,24.394C307.878,399.818,313.806,407.803,313.806,417.032z"/>
</g>
<g>
	<path style="fill:#B4E6A0;" d="M293.627,453.195c-8.026,3.328-16.011,9.257-25.24,9.257s-17.215-5.929-25.24-9.257
		c-8.32-3.45-18.126-5.033-24.395-11.303c-6.27-6.269-7.852-16.075-11.302-24.394c-3.328-8.026-9.257-16.011-9.257-25.24
		s5.929-17.215,9.257-25.24c1.073-2.587,1.981-5.308,2.89-8.032c-6.034,2.014-12.042,4.093-16.361,8.412
		c-6.27,6.27-7.853,16.076-11.303,24.395c-3.328,8.026-9.257,16.011-9.257,25.24s5.929,17.214,9.257,25.24
		c3.45,8.319,5.033,18.124,11.302,24.394c6.269,6.27,16.075,7.853,24.395,11.303c8.025,3.328,16.011,9.257,25.24,9.257
		s17.214-5.929,25.24-9.257c8.319-3.45,18.125-5.033,24.394-11.302c4.32-4.32,6.447-10.362,8.461-16.396
		C298.985,451.18,296.215,452.121,293.627,453.195z"/>
	<path style="fill:#B4E6A0;" d="M440.278,449.383c-11.33,4.698-22.603,13.068-35.633,13.068s-24.303-8.37-35.633-13.069
		c-11.745-4.87-25.588-7.105-34.44-15.957c-8.85-8.851-11.086-22.694-15.956-34.439c-4.698-11.33-13.068-22.603-13.068-35.633
		s8.37-24.303,13.068-35.633c3.66-8.826,5.835-18.835,10.445-27.023c-6.745,2.457-13.142,5.398-18.053,10.309
		c-9.22,9.22-11.548,23.64-16.622,35.874c-4.894,11.802-13.613,23.545-13.613,37.118c0,13.572,8.719,25.315,13.613,37.117
		c5.073,12.234,7.401,26.654,16.62,35.874c9.22,9.22,23.64,11.548,35.874,16.622c11.802,4.894,23.545,13.613,37.118,13.613
		c13.572,0,25.316-8.719,37.117-13.613c12.234-5.073,26.654-7.401,35.874-16.621c4.911-4.911,7.89-11.352,10.346-18.098
		C459.15,443.504,449.104,445.722,440.278,449.383z"/>
	<path style="fill:#B4E6A0;" d="M400.516,256c0,19.001-12.206,35.442-19.058,51.965c-7.103,17.128-10.362,37.316-23.271,50.224
		c-12.908,12.907-33.096,16.167-50.223,23.269c-16.523,6.852-32.963,19.058-51.964,19.058s-35.442-12.206-51.965-19.058
		c-17.128-7.103-37.316-10.362-50.224-23.271c-12.907-12.908-16.167-33.096-23.269-50.223
		c-6.852-16.523-19.058-32.963-19.058-51.964c0-19.001,12.206-35.442,19.058-51.965c7.103-17.128,10.363-37.316,23.271-50.224
		c12.908-12.907,33.096-16.167,50.223-23.269c16.523-6.852,32.963-19.058,51.964-19.058s35.442,12.206,51.965,19.058
		c17.128,7.103,37.316,10.363,50.224,23.271c12.907,12.908,16.167,33.096,23.269,50.223C388.31,220.559,400.516,236.999,400.516,256
		z"/>
	<path style="fill:#B4E6A0;" d="M471.811,170.667c0,5.83-6.181,10.055-8.905,14.763c-2.81,4.856-3.474,12.29-8.33,15.099
		c-4.707,2.724-11.413-0.339-17.243-0.339c-5.83,0-12.537,3.063-17.244,0.339c-4.856-2.81-5.52-10.244-8.329-15.1
		c-2.724-4.707-8.904-8.932-8.904-14.762c0-5.83,6.181-10.055,8.905-14.763c2.81-4.856,3.474-12.29,8.33-15.099
		c4.707-2.724,11.413,0.339,17.243,0.339c5.83,0,12.537-3.063,17.244-0.339c4.856,2.81,5.52,10.244,8.329,15.1
		C465.63,160.612,471.811,164.837,471.811,170.667z"/>
</g>
<circle style="fill:#FFE17D;" cx="224" cy="309.33" r="21.333"/>
<g>
	<circle style="fill:#FFD164;" cx="133.33" cy="90.67" r="16"/>
	<circle style="fill:#FFD164;" cx="389.33" cy="421.33" r="16"/>
</g>
<path style="fill:#B4E6A0;" d="M96,168.258c-2.113,0-4.226-0.806-5.839-2.419L79.492,155.17c-3.226-3.226-3.226-8.452,0-11.677
	c3.226-3.226,8.452-3.226,11.677,0l10.669,10.669c3.226,3.226,3.226,8.452,0,11.677C100.226,167.452,98.113,168.258,96,168.258z"/>
<g>
	<path style="fill:#9BD296;" d="M192,221.589c-2.113,0-4.226-0.806-5.839-2.419c-3.226-3.226-3.226-8.46,0-11.677l10.669-10.661
		c3.226-3.226,8.452-3.226,11.677,0c3.226,3.226,3.226,8.46,0,11.677l-10.669,10.661C196.226,220.782,194.113,221.589,192,221.589z"
		/>
	<path style="fill:#9BD296;" d="M330.669,317.589c-2.113,0-4.226-0.806-5.839-2.419l-10.669-10.661
		c-3.226-3.218-3.226-8.452,0-11.677c3.226-3.226,8.452-3.226,11.677,0l10.669,10.661c3.226,3.218,3.226,8.452,0,11.677
		C334.895,316.782,332.782,317.589,330.669,317.589z"/>
</g>
<path style="fill:#B4E6A0;" d="M426.669,370.927c-2.113,0-4.226-0.806-5.839-2.419l-10.669-10.669
	c-3.226-3.226-3.226-8.452,0-11.677s8.452-3.226,11.677,0l10.669,10.669c3.226,3.226,3.226,8.452,0,11.677
	C430.895,370.121,428.782,370.927,426.669,370.927z"/>
<path style="fill:#9BD296;" d="M298.774,264.258c-4.565,0-8.315-3.694-8.315-8.258s3.645-8.258,8.21-8.258h0.105
	c4.565,0,8.258,3.694,8.258,8.258S303.339,264.258,298.774,264.258z"/>
<g>
	<path style="fill:#B4E6A0;" d="M239.484,437.677c-4.565,0-8.315-3.694-8.315-8.258s3.637-8.258,8.202-8.258h0.113
		c4.565,0,8.258,3.694,8.258,8.258S244.048,437.677,239.484,437.677z"/>
	<path style="fill:#B4E6A0;" d="M109.144,341.677c0,5.83-6.181,10.055-8.905,14.763c-2.81,4.856-3.474,12.29-8.33,15.099
		c-4.707,2.724-11.413-0.339-17.243-0.339c-5.83,0-12.537,3.063-17.244,0.339c-4.856-2.81-5.52-10.244-8.329-15.1
		c-2.724-4.707-8.904-8.932-8.904-14.762s6.181-10.055,8.905-14.763c2.81-4.856,3.474-12.29,8.33-15.099
		c4.707-2.724,11.413,0.339,17.243,0.339s12.537-3.063,17.244-0.339c4.856,2.81,5.52,10.244,8.329,15.1
		C102.963,331.623,109.144,335.848,109.144,341.677z"/>
</g>
<path style="fill:#9BD296;" d="M372.993,331.705c-12.17,12.17-31.205,15.243-47.353,21.94c-15.579,6.46-31.08,17.969-48.995,17.969
	s-33.417-11.509-48.995-17.969c-16.149-6.697-35.184-9.77-47.354-21.941c-12.17-12.17-15.243-31.205-21.94-47.353
	c-6.46-15.579-17.969-31.08-17.969-48.995c0-17.916,11.509-33.417,17.969-48.995c6.697-16.15,9.77-35.184,21.941-47.354
	c0.036-0.036,0.118-0.11,0.154-0.146c-9.929,3.536-19.443,7.757-26.638,14.952c-12.908,12.908-16.168,33.096-23.271,50.224
	c-6.852,16.523-19.058,32.964-19.058,51.965s12.206,35.442,19.058,51.964c7.102,17.128,10.361,37.316,23.269,50.223
	s33.096,16.168,50.224,23.27c16.523,6.852,32.964,19.058,51.965,19.058s35.442-12.206,51.964-19.058
	c17.128-7.102,37.316-10.362,50.223-23.269c7.196-7.196,11.368-16.671,14.905-26.6C373.056,331.626,373.03,331.668,372.993,331.705z
	"/>
<path style="fill:#FFD164;" d="M233.635,321.032c-11.782,0-21.334-9.551-21.334-21.334c0-3.398,0.867-6.566,2.281-9.417
	c-7.035,3.487-11.915,10.668-11.915,19.052c0,11.782,9.551,21.333,21.333,21.333c8.384,0,15.565-4.88,19.052-11.915
	C240.201,320.165,237.033,321.032,233.635,321.032z"/>
<circle style="fill:#FFE17D;" cx="288" cy="192" r="21.333"/>
<path style="fill:#FFD164;" d="M297.635,203.699c-11.782,0-21.334-9.551-21.334-21.334c0-3.398,0.867-6.566,2.281-9.417
	c-7.035,3.487-11.915,10.668-11.915,19.052c0,11.782,9.551,21.333,21.333,21.333c8.384,0,15.565-4.88,19.052-11.915
	C304.201,202.831,301.033,203.699,297.635,203.699z"/>
<g>
</g>
<g>
</g>
<g>
</g>
<g>
</g>
<g>
</g>
<g>
</g>
<g>
</g>
<g>
</g>
<g>
</g>
<g>
</g>
<g>
</g>
<g>
</g>
<g>
</g>
<g>
</g>
<g>
</g>
</svg>
