<?xml version="1.0" encoding="utf-8"?>
<!-- Generator: Adobe Illustrator 24.3.0, SVG Export Plug-In . SVG Version: 6.00 Build 0)  -->
<svg version="1.1" id="Capa_1" xmlns="http://www.w3.org/2000/svg" xmlns:xlink="http://www.w3.org/1999/xlink" x="0px" y="0px"
	 viewBox="0 0 407 526.4" style="enable-background:new 0 0 407 526.4;" xml:space="preserve">
<style type="text/css">
	.st0{fill:#8CB4EB;}
</style>
<path class="st0" d="M370.2,46.1c-6-6.5-30.9-33.3-67.9-43.3c-31-8.4-34.4,4.7-87.1,5.3C169.5,8.6,166-1.2,123,0.7
	c-39.1,1.7-60.9,2.7-81.1,19C-3.7,56.6,2.3,137.1,13.5,149.6c0.9,1,4.9,5.1,6.1,11.6c1.3,7.5-2.1,13.9-3,15.8
	C7,196.2-3.9,253.1,3.4,299.7c1.5,9.6,1.9,6.6,4.1,19c2.9,16.4,5.5,40.1,2,84.5c-3.8,49.1-9.9,59-2,80.3C14,501,24,509.7,26.7,512
	c13.9,11.5,29.2,13.1,36.5,13.7c22.3,2,24.8-7.6,49.7-8.5c18.2-0.6,17.3,4.4,48.6,7.4c18.2,1.7,30.1,2.8,45.6,0
	c22.1-4.1,22.5-10.8,39.5-11.6c14.6-0.7,14.1,4.3,42.6,8.5c25,3.6,35.2,1.2,39.5,0c2.3-0.6,12.3-3.6,23.3-11.6
	c2-1.5,26-19.5,32.4-48.6c6-27.4-10.8-31.8-13.2-68.7c-2.1-32.1,10.3-34.6,15.2-95.1c1.2-14.3,1.5-26.7,0-41.2
	c-2.5-24.7-10.6-27.8-10.1-45.4c0.5-19.3,9.1-21.2,12.2-45.4c1.9-15-1.6-13.5-2-40.1c-0.6-33.8,4.8-44.4-3-61.3
	C382.6,62.3,379.6,56.3,370.2,46.1z"/>
<rect x="1.1" y="19.6" transform="matrix(-1 -4.489710e-11 4.489710e-11 -1 340.0894 546.0221)" class="st0" width="338" height="506.8"/>
</svg>
