<?xml version="1.0" encoding="utf-8"?>
<!-- Generator: Adobe Illustrator 24.3.0, SVG Export Plug-In . SVG Version: 6.00 Build 0)  -->
<svg version="1.1" id="Capa_1" xmlns="http://www.w3.org/2000/svg" xmlns:xlink="http://www.w3.org/1999/xlink" x="0px" y="0px"
	 viewBox="0 0 341.3 512" style="enable-background:new 0 0 341.3 512;" xml:space="preserve">
<style type="text/css">
	.st0{fill:#EDEBED;}
	.st1{fill:#DCEBFF;}
	.st2{fill:#C4DEFF;}
	.st3{fill:#8CB4EB;}
	.st4{fill:#739BD7;}
	.st5{fill:#DBD9DC;}
	.st6{fill:#A5CDFF;}
	.st7{fill:#B7B2B8;}
</style>
<path class="st0" d="M308.8,512H32.5C14.6,512,0,497.4,0,479.5V73.1c0-18,14.6-32.5,32.5-32.5h276.3c18,0,32.5,14.6,32.5,32.5v406.3
	C341.3,497.4,326.8,512,308.8,512z"/>
<path class="st1" d="M300.7,479.5H40.6c-4.5,0-8.1-3.6-8.1-8.1V81.3c0-4.5,3.6-8.1,8.1-8.1h260.1c4.5,0,8.1,3.6,8.1,8.1v390.1
	C308.8,475.9,305.2,479.5,300.7,479.5z"/>
<path class="st2" d="M300.7,479.5H40.6c-4.5,0-8.1-3.6-8.1-8.1V203.2h276.3v268.2C308.8,475.9,305.2,479.5,300.7,479.5z"/>
<rect x="48.8" y="235.7" class="st3" width="243.8" height="227.6"/>
<circle class="st4" cx="170.7" cy="430.7" r="16.3"/>
<path class="st5" d="M16.3,471.4V45C6.6,50.6,0,61.1,0,73.1v406.3c0,18,14.6,32.5,32.5,32.5h276.3c12,0,22.5-6.6,28.2-16.3H40.6
	C27.2,495.7,16.3,484.8,16.3,471.4z"/>
<rect x="48.8" y="203.2" class="st6" width="243.8" height="32.5"/>
<rect x="48.8" y="170.7" class="st2" width="243.8" height="32.5"/>
<path class="st7" d="M65,97.5L65,97.5c-4.5,0-8.1-3.6-8.1-8.1V8.1C56.9,3.6,60.5,0,65,0l0,0c4.5,0,8.1,3.6,8.1,8.1v81.3
	C73.1,93.9,69.5,97.5,65,97.5z"/>
<path class="st6" d="M65,97.5L65,97.5c-4.5,0-8.1-3.6-8.1-8.1V73.1h16.3v16.3C73.1,93.9,69.5,97.5,65,97.5z"/>
<path class="st7" d="M113.8,97.5L113.8,97.5c-4.5,0-8.1-3.6-8.1-8.1V8.1c0-4.5,3.6-8.1,8.1-8.1l0,0c4.5,0,8.1,3.6,8.1,8.1v81.3
	C121.9,93.9,118.3,97.5,113.8,97.5z"/>
<path class="st6" d="M113.8,97.5L113.8,97.5c-4.5,0-8.1-3.6-8.1-8.1V73.1h16.3v16.3C121.9,93.9,118.3,97.5,113.8,97.5z"/>
<g>
	<rect x="73.1" y="24.4" class="st7" width="32.5" height="16.3"/>
	<rect x="73.1" y="56.9" class="st7" width="32.5" height="16.3"/>
</g>
</svg>
