<?xml version="1.0" encoding="utf-8"?>
<!-- Generator: Adobe Illustrator 24.3.0, SVG Export Plug-In . SVG Version: 6.00 Build 0)  -->
<svg version="1.1" id="Capa_1" xmlns="http://www.w3.org/2000/svg" xmlns:xlink="http://www.w3.org/1999/xlink" x="0px" y="0px"
	 viewBox="0 0 407 526.4" style="enable-background:new 0 0 407 526.4;" xml:space="preserve">
<style type="text/css">
	.st0{fill:#8CB4EB;}
</style>
<path class="st0" d="M37.8,46.1c6-6.5,30.9-33.3,67.9-43.3c31-8.4,34.4,4.7,87.1,5.3c45.7,0.5,49.2-9.3,92.2-7.4
	c39.1,1.7,60.9,2.7,81.1,19c45.6,36.9,39.6,117.4,28.4,129.9c-0.9,1-4.9,5.1-6.1,11.6c-1.3,7.5,2.1,13.9,3,15.8
	c9.6,19.1,20.4,76,13.2,122.5c-1.5,9.6-1.9,6.6-4.1,19c-2.9,16.4-5.5,40.1-2,84.5c3.8,49.1,9.9,59,2,80.3
	c-6.5,17.5-16.5,26.3-19.3,28.5c-13.9,11.5-29.2,13.1-36.5,13.7c-22.3,2-24.8-7.6-49.7-8.5c-18.2-0.6-17.3,4.4-48.6,7.4
	c-18.2,1.7-30.1,2.8-45.6,0c-22.1-4.1-22.5-10.8-39.5-11.6c-14.6-0.7-14.1,4.3-42.6,8.5c-25,3.6-35.2,1.2-39.5,0
	c-2.3-0.6-12.3-3.6-23.3-11.6c-2-1.5-26-19.5-32.4-48.6c-6-27.4,10.8-31.8,13.2-68.7c2.1-32.1-10.3-34.6-15.2-95.1
	c-1.2-14.3-1.5-26.7,0-41.2c2.5-24.7,10.6-27.8,10.1-45.4c-0.5-19.3-9.1-21.2-12.2-45.4c-1.9-15,1.6-13.5,2-40.1
	c0.6-33.8-4.8-44.4,3-61.3C25.5,62.3,28.4,56.3,37.8,46.1z"/>
<rect x="69" y="19.6" class="st0" width="338" height="506.8"/>
</svg>
