<?xml version="1.0" encoding="utf-8"?>
<!-- Generator: Adobe Illustrator 24.3.0, SVG Export Plug-In . SVG Version: 6.00 Build 0)  -->
<svg version="1.1" id="Capa_1" xmlns="http://www.w3.org/2000/svg" xmlns:xlink="http://www.w3.org/1999/xlink" x="0px" y="0px"
	 viewBox="0 0 407 526.4" style="enable-background:new 0 0 407 526.4;" xml:space="preserve">
<style type="text/css">
	.st0{fill:#8CB4EB;}
</style>
<path class="st0" d="M36.9,46.1c5.7-6.5,29.4-33.3,64.6-43.3c29.5-8.4,32.7,4.7,82.9,5.3c43.4,0.5,46.8-9.3,87.7-7.4
	c37.2,1.7,57.9,2.7,77.1,19c43.3,36.9,37.6,117.4,27,129.9c-0.8,1-4.7,5.1-5.8,11.6c-1.2,7.5,2,13.9,2.9,15.8
	c9.1,19.1,19.4,76,12.5,122.5c-1.4,9.6-1.8,6.6-3.9,19c-2.7,16.4-5.2,40.1-1.9,84.5c3.6,49.1,9.5,59,1.9,80.3
	c-6.2,17.5-15.7,26.3-18.3,28.5c-13.2,11.5-27.8,13.1-34.7,13.7c-21.2,2-23.6-7.6-47.2-8.5c-17.3-0.6-16.5,4.4-46.3,7.4
	c-17.3,1.7-28.6,2.8-43.4,0c-21-4.1-21.4-10.8-37.6-11.6c-13.9-0.7-13.4,4.3-40.5,8.5c-23.8,3.6-33.5,1.2-37.6,0
	c-2.2-0.6-11.7-3.6-22.2-11.6c-1.9-1.5-24.7-19.5-30.8-48.6c-5.7-27.4,10.2-31.8,12.5-68.7c2-32.1-9.8-34.6-14.5-95.1
	c-1.1-14.3-1.4-26.7,0-41.2c2.4-24.7,10.1-27.8,9.6-45.4c-0.5-19.3-8.7-21.2-11.6-45.4c-1.8-15,1.5-13.5,1.9-40.1
	c0.6-33.8-4.5-44.4,2.9-61.3C25.2,62.3,27.9,56.3,36.9,46.1z"/>
<rect x="44" class="st0" width="306" height="526.4"/>
</svg>
