<?xml version="1.0" encoding="utf-8"?>
<!-- Generator: Adobe Illustrator 24.3.0, SVG Export Plug-In . SVG Version: 6.00 Build 0)  -->
<svg version="1.1" id="Laag_1" xmlns="http://www.w3.org/2000/svg" xmlns:xlink="http://www.w3.org/1999/xlink" x="0px" y="0px"
	 viewBox="0 0 265 345.2" style="enable-background:new 0 0 265 345.2;" xml:space="preserve">
<style type="text/css">
	.st0{fill:#1F262A;}
	.st1{fill:#ECF0F1;}
	.st2{fill:#E36840;}
	.st3{fill:#FFB337;}
	.st4{fill:none;stroke:#ECF0F1;stroke-width:20;stroke-miterlimit:10;}
</style>
<circle class="st0" cx="132.5" cy="136.4" r="99.1"/>
<ellipse transform="matrix(0.2134 -0.977 0.977 0.2134 -69.3467 213.3812)" class="st1" cx="97.8" cy="149.8" rx="13" ry="20"/>
<path class="st0" d="M0,345.2c0.4-9.7,2.1-23.9,8-40c0,0,4.6-12.6,11-23c27.7-44.9,196.7-47.3,223.1-1.1c0.8,1.3,6.1,10.9,11.5,24.5
	c6.3,16,9.6,29.9,11.5,39.6"/>
<rect x="121.5" y="227.2" class="st0" width="22" height="40"/>
<path class="st2" d="M0,96.1v17.4c0,4.7,3.9,8.5,8.6,8.5h247.8c4.8,0,8.6-3.8,8.6-8.5V96.1c0-4.7-3.9-8.5-8.6-8.5H8.6
	C3.9,87.6,0,91.4,0,96.1L0,96.1z"/>
<path class="st2" d="M240.9,113.8H25v-21C25,41.7,62.7,0,109.3,0h47.7c46.5,0,84.3,41.6,84.3,92.9L240.9,113.8z"/>
<path class="st3" d="M76,76.3"/>
<line class="st4" x1="131.4" y1="26.2" x2="131.4" y2="99.6"/>
<ellipse transform="matrix(0.9754 -0.2206 0.2206 0.9754 -28.9283 40.428)" class="st1" cx="166.6" cy="149.8" rx="20" ry="13"/>
<line class="st4" x1="168.1" y1="62.9" x2="94.7" y2="62.9"/>
</svg>
