<?xml version="1.0" encoding="utf-8"?>
<!-- Generator: Adobe Illustrator 24.3.0, SVG Export Plug-In . SVG Version: 6.00 Build 0)  -->
<svg version="1.1" id="Laag_1" xmlns="http://www.w3.org/2000/svg" xmlns:xlink="http://www.w3.org/1999/xlink" x="0px" y="0px"
	 viewBox="0 0 265 345.2" style="enable-background:new 0 0 265 345.2;" xml:space="preserve">
<style type="text/css">
	.st0{fill:#1F262A;}
	.st1{fill:#838996;}
	.st2{fill:#E36840;}
	.st3{fill:#ECF0F1;}
</style>
<rect x="125.5" y="237.2" class="st0" width="17" height="53"/>
<rect x="109.5" y="222" class="st0" width="47" height="30.5"/>
<rect x="10" y="112" class="st0" width="17.1" height="86"/>
<rect x="239.8" y="108.2" class="st0" width="17.1" height="86"/>
<rect x="19.8" y="60.2" class="st1" width="228.5" height="177"/>
<rect x="49" y="77.8" class="st0" width="170" height="137"/>
<rect y="259.8" class="st1" width="265" height="85.5"/>
<rect x="18.8" y="274.2" class="st0" width="228.5" height="71"/>
<rect x="125.5" y="7.2" class="st0" width="17" height="53"/>
<ellipse class="st2" cx="134.1" cy="23.6" rx="29.9" ry="23.6"/>
<ellipse transform="matrix(0.2378 -0.9713 0.9713 0.2378 -66.2937 204.2921)" class="st3" cx="97" cy="144.4" rx="16.1" ry="20.8"/>
<ellipse transform="matrix(0.986 -0.1667 0.1667 0.986 -21.7066 30.1935)" class="st3" cx="169" cy="144.4" rx="20.8" ry="16.1"/>
</svg>
