<svg height="512pt" viewBox="-106 0 512 512.01109" width="512pt" xmlns="http://www.w3.org/2000/svg"><path d="m269.863281 229.515625c16.773438 1.0625 30.28125 44.050781 30.28125 97.105469 0 53.671875-13.859375 97.101562-30.898437 97.101562-12.09375 0-22.507813-21.890625-27.628906-53.757812l-183.085938.265625c-5.117188 31.777343-15.625 53.492187-27.628906 53.492187-17.039063 0-30.89843775-43.429687-30.89843775-97.101562 0-53.054688 13.50781275-96.042969 30.28124975-97.105469zm0 0" fill="#e6e7e8"/><path d="m27.460938 195.972656c.617187 10.945313 1.585937 22.15625 2.824218 33.542969 10.664063 95.851563 43.527344 215.492187 85.625 266.363281 8.410156 10.214844 20.949219 16.132813 34.175782 16.132813 13.230468 0 25.769531-5.917969 34.179687-16.132813 42.015625-50.871094 74.890625-170.503906 85.625-266.34375 1.238281-11.386718 2.207031-22.597656 2.824219-33.546875v-.085937zm0 0" fill="#ecf0f1"/><path d="m291.316406 123.585938c0 82.882812-35.3125 105.929687-141.242187 105.929687-105.929688 0-141.242188-23.046875-141.242188-105.929687 0-82.882813 79.449219-123.585938 141.242188-123.585938s141.242187 40.703125 141.242187 123.585938zm0 0" fill="#ecf0f1"/><path d="m256.003906 123.585938c0-39.003907-47.425781-70.621094-105.929687-70.621094-58.503907 0-105.929688 31.617187-105.929688 70.621094 0 39.003906 47.425781 70.621093 105.929688 70.621093 58.503906 0 105.929687-31.617187 105.929687-70.621093zm0 0" fill="#2c2f38"/><path d="m112.519531 114.582031c-13.820312-4.792969-27.609375-1.210937-30.804687 8.003907-3.199219 9.210937 5.414062 20.566406 19.230468 25.359374 13.820313 4.792969 27.613282 1.210938 30.808594-8.003906 3.195313-9.210937-5.417968-20.5625-19.234375-25.359375zm0 0" fill="#2fa8cc"/><path d="m218.4375 122.582031c-3.195312-9.210937-16.988281-12.792969-30.804688-8-13.820312 4.792969-22.429687 16.148438-19.234374 25.359375 3.195312 9.210938 16.988281 12.792969 30.804687 8 13.820313-4.792968 22.429687-16.148437 19.234375-25.359375zm0 0" fill="#2fa8cc"/><path d="m220.695312 295.722656c0 12.191406-9.878906 22.070313-22.070312 22.070313-12.1875 0-22.066406-9.878907-22.066406-22.070313 0-12.1875 9.878906-22.066406 22.066406-22.066406 12.191406 0 22.070312 9.878906 22.070312 22.066406zm0 0" fill="#7ed09e"/></svg>