<?xml version="1.0" encoding="utf-8"?>
<!-- Generator: Adobe Illustrator 24.3.0, SVG Export Plug-In . SVG Version: 6.00 Build 0)  -->
<svg version="1.1" id="Laag_1" xmlns="http://www.w3.org/2000/svg" xmlns:xlink="http://www.w3.org/1999/xlink" x="0px" y="0px"
	 viewBox="0 0 311 512" style="enable-background:new 0 0 311 512;" xml:space="preserve">
<style type="text/css">
	.st0{fill:#E6E7E8;}
	.st1{fill:#ECF0F1;}
	.st2{fill:#2C2F38;}
	.st3{fill:#2FA8CC;}
	.st4{fill:#7ED09E;}
</style>
<path class="st0" d="M275.9,229.5c16.8,1.1,30.3,44,30.3,97.1c0,53.7-13.9,97.1-30.9,97.1c-12.1,0-22.5-21.9-27.6-53.8l-183.1,0.3
	c-5.1,31.8-15.6,53.5-27.6,53.5c-17,0-30.9-43.4-30.9-97.1c0-53.1,13.5-96,30.3-97.1H275.9z"/>
<path class="st1" d="M33.5,196c0.6,10.9,1.6,22.2,2.8,33.5C47,325.4,79.8,445,121.9,495.9c8.4,10.2,20.9,16.1,34.2,16.1
	c13.2,0,25.8-5.9,34.2-16.1c42-50.9,74.9-170.5,85.6-266.3c1.2-11.4,2.2-22.6,2.8-33.5v-0.1L33.5,196z"/>
<path class="st1" d="M297.3,123.6c0,82.9-35.3,105.9-141.2,105.9s-141.2-23-141.2-105.9S94.3,0,156.1,0S297.3,40.7,297.3,123.6z"/>
<path class="st2" d="M262,123.6c0-39-47.4-70.6-105.9-70.6S50.1,84.6,50.1,123.6s47.4,70.6,105.9,70.6S262,162.6,262,123.6z"/>
<path class="st3" d="M118.5,114.6c-13.8-4.8-27.6-1.2-30.8,8c-3.2,9.2,5.4,20.6,19.2,25.4c13.8,4.8,27.6,1.2,30.8-8
	C140.9,130.7,132.3,119.4,118.5,114.6z"/>
<path class="st3" d="M224.4,122.6c-3.2-9.2-17-12.8-30.8-8c-13.8,4.8-22.4,16.1-19.2,25.4c3.2,9.2,17,12.8,30.8,8
	C219,143.1,227.6,131.8,224.4,122.6z"/>
<path class="st4" d="M226.7,295.7c0,12.2-9.9,22.1-22.1,22.1c-12.2,0-22.1-9.9-22.1-22.1c0-12.2,9.9-22.1,22.1-22.1
	C216.8,273.7,226.7,283.5,226.7,295.7z"/>
</svg>
