<svg id="Capa_1" enable-background="new 0 0 512 512" height="512" viewBox="0 0 512 512" width="512" xmlns="http://www.w3.org/2000/svg"><g><path d="m286 351-30-25.946-30 25.946-15 30v101l15 30h30 30l15-30v-101z" fill="#ff4d4d"/><path d="m301 482v-101l-15-30-30-25.946v186.946h30z" fill="#e62e2e"/><path d="m286 191-30-28.235-30 28.235-15 30v100l15 30h30 30l15-30v-100z" fill="#e62e2e"/><path d="m301 321v-100l-15-30-30-28.235v188.235h30z" fill="#cc2929"/><path d="m286 30h-30-30l-15 30v101l15 30h30 30l15-30v-101z" fill="#ff4d4d"/><path d="m301 161v-101l-15-30h-30v161h30z" fill="#e62e2e"/><path d="m31 351v161h45l15-30v-101l-15-30-17.813-30z" fill="#ff4d4d"/><path d="m31 191v160h45l15-30v-100l-15-30-29.063-30z" fill="#e62e2e"/><path d="m31 30v161h45l15-30v-101l-15-30z" fill="#ff4d4d"/><path d="m151 0c-26.4 0-58.5 9.901-75 30v161l30 15h90l30-15v-161c-16.5-20.099-48.6-30-75-30z" fill="#ff8080"/><path d="m481 351v161h-45l-15-30v-101l15-30 17.813-30z" fill="#e62e2e"/><path d="m481 191v160h-45l-15-30v-100l15-30 14.063-30z" fill="#cc2929"/><path d="m481 30v161h-45l-15-30v-101l15-30z" fill="#e62e2e"/><path d="m361 0c26.4 0 58.5 9.901 75 30v161l-30 15h-90l-30-15v-161c16.5-20.099 48.6-30 75-30z" fill="#ff4d4d"/><path d="m361 161c26.4 0 58.5 9.901 75 30v160l-30 15h-90l-30-15v-160c16.5-20.099 48.6-30 75-30z" fill="#e62e2e"/><path d="m286 351v161h23.101l4.499-6.599c10.801-16.201 27.899-25.501 47.4-25.501s36.599 9.3 47.401 25.501l4.499 6.599h23.1v-161c-16.5-20.099-48.6-30-75-30s-58.5 9.901-75 30z" fill="#ff4d4d"/><path d="m151 161c-26.4 0-58.5 9.901-75 30v160l30 15h90l30-15v-160c-16.5-20.099-48.6-30-75-30z" fill="#ff4d4d"/><path d="m226 351v161h-23.101l-4.499-6.599c-10.801-16.201-27.899-25.501-47.4-25.501s-36.599 9.3-47.401 25.501l-4.498 6.599h-23.101v-161c16.5-20.099 48.6-30 75-30s58.5 9.901 75 30z" fill="#ff8080"/></g></svg>