<svg id="Capa_1" enable-background="new 0 0 512 512" height="512" viewBox="0 0 512 512" width="512" xmlns="http://www.w3.org/2000/svg"><g><path d="m444.925 315.953c-.001.01-.002.02-.003.03-.001-.009-.002-.017-.003-.026-41.984-6.531-83.968-6.531-125.951 0 0 .004-.001.008-.001.011 0-.004-.001-.008-.001-.011-41.984-6.531-83.968-6.531-125.951 0 0 .004-.001.008-.001.012-.001-.004-.001-.008-.001-.012-41.984-6.531-83.967-6.531-125.951 0 0 .002 0 .003-.001.005-22.354-3.482-44.707-5.099-67.061-4.872v160.38c1.143.072 2.297.103 3.461.103h1.257c28.615-.041 53.108-18.33 62.346-43.901 9.24 25.571 33.733 43.857 62.342 43.901.42.001.84.001 1.26 0 28.614-.045 53.11-18.336 62.347-43.914 9.237 25.577 33.733 43.869 62.347 43.914.42.001.84.001 1.26 0 28.614-.045 53.11-18.336 62.347-43.914 9.237 25.577 33.733 43.869 62.347 43.914.42.001.84.001 1.26 0 28.614-.045 53.111-18.337 62.347-43.914 9.234 25.577 33.731 43.873 62.351 43.914h1.257c1.164 0 2.328-.031 3.472-.103v-160.4c-22.366-.216-44.721 1.402-67.076 4.883z" fill="#da4a54"/><g fill="#c63d4f"><path d="m512 468.657v2.813c-1.154.072-2.308.103-3.472.103h-1.257c-35.984-.062-65.468-28.948-66.271-64.912-.67-30.236.649-60.461 3.925-90.707 12.496-1.937 24.982-3.297 37.468-4.069-3.307 32.162-4.615 64.355-3.904 96.528.556 25.208 13.793 47.315 33.511 60.244z"/><path d="m390.104 471.14c-2.47.281-4.981.438-7.524.438h-1.261c-35.982-.063-65.473-28.948-66.275-64.92-.667-30.23.646-60.46 3.929-90.701 12.494-1.938 24.978-3.303 37.462-4.074-3.303 32.168-4.606 64.357-3.897 96.526.593 26.915 15.62 50.278 37.566 62.731z"/><path d="m264.15 471.14c-2.47.281-4.981.438-7.524.438h-1.261c-35.982-.063-65.473-28.948-66.275-64.92-.667-30.23.646-60.46 3.929-90.701 12.494-1.938 24.978-3.303 37.462-4.074-3.303 32.168-4.606 64.357-3.897 96.526.594 26.915 15.62 50.278 37.566 62.731z"/><path d="m138.197 471.14c-2.47.281-4.981.438-7.524.438h-1.261c-35.982-.063-65.473-28.948-66.275-64.92-.667-30.23.646-60.46 3.929-90.701 12.494-1.938 24.978-3.303 37.462-4.074-3.303 32.168-4.606 64.357-3.897 96.526.594 26.915 15.62 50.278 37.566 62.731z"/></g><path d="m507.896 225.744c-41.984-6.531-83.967-6.531-125.951 0 0 .004-.001.008-.001.012-.001-.004-.001-.008-.001-.012-41.984-6.531-83.967-6.531-125.951 0-.001.004-.001.008-.001.012 0-.004-.001-.008-.001-.012-41.984-6.531-83.968-6.531-125.951 0v.002c-41.981-6.53-83.963-6.53-125.944.001-3.285 30.233-4.593 60.466-3.924 90.699.795 35.969 30.292 64.86 66.27 64.916h1.26c28.61-.045 53.103-18.331 62.343-43.903 9.24 25.57 33.733 43.855 62.342 43.9.42.001.84.001 1.259 0 28.614-.045 53.11-18.336 62.347-43.914 9.237 25.577 33.733 43.869 62.347 43.914.42.001.84.001 1.259 0 28.614-.045 53.11-18.336 62.347-43.914 9.237 25.577 33.733 43.869 62.347 43.914.42.001.84.001 1.26 0 35.978-.056 65.474-28.947 66.27-64.916.666-30.233-.642-60.466-3.926-90.699z" fill="#da4a54"/><path d="m453.08 380.926c-2.47.281-4.981.438-7.524.438h-1.261c-35.982-.063-65.473-28.948-66.275-64.92-.667-30.23.646-60.46 3.929-90.701 12.494-1.938 24.978-3.303 37.462-4.074-3.303 32.168-4.606 64.357-3.897 96.526.594 26.915 15.621 50.278 37.566 62.731z" fill="#c63d4f"/><path d="m327.127 380.926c-2.47.281-4.981.438-7.524.438h-1.261c-35.982-.063-65.473-28.948-66.275-64.92-.667-30.23.646-60.46 3.929-90.701 12.494-1.938 24.978-3.303 37.462-4.074-3.303 32.168-4.606 64.357-3.897 96.526.594 26.915 15.62 50.278 37.566 62.731z" fill="#c63d4f"/><path d="m201.173 380.926c-2.47.281-4.981.438-7.524.438h-1.261c-35.982-.063-65.473-28.948-66.275-64.92-.667-30.23.646-60.46 3.929-90.701 12.494-1.938 24.978-3.303 37.462-4.074-3.303 32.168-4.606 64.357-3.897 96.526.594 26.915 15.621 50.278 37.566 62.731z" fill="#c63d4f"/><path d="m75.229 380.928c-2.47.281-4.981.438-7.524.438h-1.261c-35.982-.063-65.473-28.948-66.275-64.92-.667-30.23.646-60.46 3.929-90.701 12.494-1.938 24.978-3.303 37.462-4.074-3.303 32.168-4.606 64.357-3.897 96.526.594 26.916 15.62 50.278 37.566 62.731z" fill="#c63d4f"/><path d="m444.925 135.528c-.001.01-.002.02-.003.031-.001-.009-.002-.017-.003-.026-41.984-6.531-83.968-6.531-125.951 0 0 .004-.001.008-.001.011 0-.004-.001-.008-.001-.011-41.984-6.531-83.968-6.531-125.951 0 0 .004-.001.008-.001.012-.001-.004-.001-.008-.001-.012-41.984-6.531-83.967-6.531-125.951 0 0 .002 0 .003-.001.005-22.354-3.482-44.707-5.099-67.061-4.872v160.379c1.143.072 2.297.103 3.461.103h1.257c28.615-.041 53.108-18.331 62.346-43.901 9.24 25.571 33.733 43.857 62.342 43.901.42.001.84.001 1.26 0 28.614-.045 53.11-18.336 62.347-43.914 9.237 25.577 33.733 43.869 62.347 43.914.42.001.84.001 1.26 0 28.614-.045 53.11-18.336 62.347-43.914 9.237 25.577 33.733 43.869 62.347 43.914.42.001.84.001 1.26 0 28.614-.045 53.111-18.337 62.347-43.914 9.234 25.577 33.731 43.873 62.351 43.914h1.257c1.164 0 2.328-.031 3.472-.103v-160.4c-22.366-.217-44.721 1.401-67.076 4.883z" fill="#da4a54"/><path d="m512 288.231v2.813c-1.154.072-2.308.103-3.472.103h-1.257c-35.984-.062-65.468-28.948-66.271-64.912-.67-30.236.649-60.461 3.925-90.707 12.496-1.937 24.982-3.297 37.468-4.069-3.307 32.162-4.615 64.355-3.904 96.528.556 25.208 13.793 47.316 33.511 60.244z" fill="#c63d4f"/><path d="m390.104 290.714c-2.47.281-4.981.438-7.524.438h-1.261c-35.982-.063-65.473-28.948-66.275-64.92-.667-30.23.646-60.46 3.929-90.701 12.494-1.938 24.978-3.303 37.462-4.074-3.303 32.168-4.606 64.357-3.897 96.526.593 26.915 15.62 50.278 37.566 62.731z" fill="#c63d4f"/><path d="m264.15 290.714c-2.47.281-4.981.438-7.524.438h-1.261c-35.982-.063-65.473-28.948-66.275-64.92-.667-30.23.646-60.46 3.929-90.701 12.494-1.938 24.978-3.303 37.462-4.074-3.303 32.168-4.606 64.357-3.897 96.526.594 26.915 15.62 50.278 37.566 62.731z" fill="#c63d4f"/><path d="m138.197 290.714c-2.47.281-4.981.438-7.524.438h-1.261c-35.982-.063-65.473-28.948-66.275-64.92-.667-30.23.646-60.46 3.929-90.701 12.494-1.938 24.978-3.303 37.462-4.074-3.303 32.168-4.606 64.357-3.897 96.526.594 26.915 15.62 50.278 37.566 62.731z" fill="#c63d4f"/><path d="m507.896 45.321c-41.984-6.531-83.967-6.531-125.951 0 0 .004-.001.008-.001.012-.001-.004-.001-.008-.001-.012-41.984-6.531-83.967-6.531-125.951 0-.001.004-.001.008-.001.012 0-.004-.001-.008-.001-.012-41.984-6.531-83.968-6.531-125.951 0v.002c-41.981-6.53-83.963-6.53-125.944.001-3.285 30.233-4.593 60.466-3.924 90.699.795 35.969 30.292 64.86 66.27 64.916.42.001.84.001 1.26 0 28.61-.045 53.103-18.331 62.343-43.903 9.24 25.57 33.733 43.856 62.342 43.9.42.001.84.001 1.259 0 28.614-.044 53.11-18.336 62.347-43.913 9.237 25.577 33.733 43.869 62.347 43.913.42.001.84.001 1.259 0 28.614-.044 53.11-18.336 62.347-43.913 9.236 25.577 33.733 43.869 62.347 43.913.42.001.84.001 1.26 0 35.978-.056 65.474-28.947 66.27-64.916.666-30.233-.642-60.466-3.926-90.699z" fill="#da4a54"/><path d="m453.08 200.502c-2.47.281-4.981.438-7.524.438h-1.261c-35.982-.063-65.473-28.948-66.275-64.92-.667-30.23.646-60.46 3.929-90.701 12.494-1.938 24.978-3.322 37.462-4.093-3.303 32.168-4.606 64.376-3.897 96.545.594 26.916 15.621 50.279 37.566 62.731z" fill="#c63d4f"/><path d="m327.127 200.502c-2.47.281-4.981.438-7.524.438h-1.261c-35.982-.063-65.473-28.948-66.275-64.92-.667-30.23.646-60.46 3.929-90.701 12.494-1.938 24.979-3.322 37.463-4.093-3.303 32.168-4.607 64.376-3.899 96.544.595 26.917 15.621 50.28 37.567 62.732z" fill="#c63d4f"/><path d="m201.173 200.502c-2.47.281-4.981.438-7.524.438h-1.261c-35.982-.063-65.473-28.948-66.275-64.92-.667-30.23.646-60.46 3.929-90.701 12.494-1.938 24.986-3.322 37.47-4.093-3.303 32.168-4.614 64.377-3.905 96.545.594 26.916 15.621 50.279 37.566 62.731z" fill="#c63d4f"/><path d="m75.229 200.505c-2.47.281-4.981.438-7.524.438h-1.261c-35.982-.063-65.473-28.948-66.275-64.92-.667-30.23.646-60.46 3.929-90.701 12.494-1.939 24.982-3.322 37.466-4.093-3.303 32.168-4.61 64.376-3.901 96.544.594 26.916 15.62 50.279 37.566 62.732z" fill="#c63d4f"/></g></svg>