<?xml version="1.0" encoding="utf-8"?>
<!-- Generator: Adobe Illustrator 24.3.0, SVG Export Plug-In . SVG Version: 6.00 Build 0)  -->
<svg version="1.1" id="Capa_1" xmlns="http://www.w3.org/2000/svg" xmlns:xlink="http://www.w3.org/1999/xlink" x="0px" y="0px"
	 viewBox="0 0 512 512" style="enable-background:new 0 0 512 512;" xml:space="preserve">
<style type="text/css">
	.st0{fill:#1D4142;}
	.st1{fill:#043132;}
	.st2{fill:#032728;}
	.st3{fill:#294949;}
</style>
<g>
	<path class="st0" d="M292.4,371.2L256,339.7l-36.4,31.5l-18.2,36.4V530l18.2,36.4H256h36.4l18.2-36.4V407.6L292.4,371.2z"/>
	<path class="st1" d="M310.6,530V407.6l-18.2-36.4L256,339.7v226.7h36.4L310.6,530z"/>
	<path class="st1" d="M292.4,177.2L256,142.9l-36.4,34.2l-18.2,36.4v121.3l18.2,36.4H256h36.4l18.2-36.4V213.6L292.4,177.2z"/>
	<path class="st2" d="M310.6,334.8V213.6l-18.2-36.4L256,142.9v228.2h36.4L310.6,334.8z"/>
	<path class="st0" d="M292.4-18H256h-36.4l-18.2,36.4v122.5l18.2,36.4H256h36.4l18.2-36.4V18.3L292.4-18z"/>
	<path class="st1" d="M310.6,140.8V18.3L292.4-18H256v195.2h36.4L310.6,140.8z"/>
	<path class="st0" d="M-16.8,371.2v195.2h54.6L55.9,530V407.6l-18.2-36.4l-21.6-36.4L-16.8,371.2z"/>
	<path class="st1" d="M-16.8,177.2v194h54.6L56,334.8V213.6l-18.2-36.4L2.5,140.8L-16.8,177.2z"/>
	<path class="st0" d="M-16.8-18v195.2h54.6L56,140.8V18.3L37.7-18H-16.8z"/>
	<path class="st3" d="M128.7-54.4c-32,0-70.9,12-90.9,36.4v195.2l36.4,18.2h109.1l36.4-18.2V-18C199.6-42.4,160.7-54.4,128.7-54.4z"
		/>
	<path class="st1" d="M528.8,371.2v195.2h-54.6L456.1,530V407.6l18.2-36.4l21.6-36.4L528.8,371.2z"/>
	<path class="st2" d="M528.8,177.2v194h-54.6L456,334.8V213.6l18.2-36.4l17.1-36.4L528.8,177.2z"/>
	<path class="st1" d="M528.8-18v195.2h-54.6L456,140.8V18.3L474.3-18H528.8z"/>
	<path class="st0" d="M383.3-54.4c32,0,70.9,12,90.9,36.4v195.2l-36.4,18.2h-109l-36.4-18.2V-18C312.4-42.4,351.3-54.4,383.3-54.4z"
		/>
	<path class="st1" d="M383.3,140.8c32,0,70.9,12,90.9,36.4v194l-36.4,18.2h-109l-36.4-18.2v-194
		C312.4,152.8,351.3,140.8,383.3,140.8z"/>
	<path class="st0" d="M292.4,371.2v195.2h28l5.5-8c13.1-19.6,33.8-30.9,57.5-30.9c23.6,0,44.4,11.3,57.5,30.9l5.5,8h28V371.2
		c-20-24.4-58.9-36.4-90.9-36.4S312.4,346.8,292.4,371.2z"/>
	<path class="st0" d="M128.7,140.8c-32,0-70.9,12-90.9,36.4v194l36.4,18.2h109.1l36.4-18.2v-194
		C199.6,152.8,160.7,140.8,128.7,140.8z"/>
	<path class="st3" d="M219.6,371.2v195.2h-28l-5.5-8c-13.1-19.6-33.8-30.9-57.5-30.9s-44.4,11.3-57.5,30.9l-5.5,8h-28V371.2
		c20-24.4,58.9-36.4,90.9-36.4S199.6,346.8,219.6,371.2z"/>
</g>
</svg>
