<svg id="icons" enable-background="new 0 0 64 64" height="512" viewBox="0 0 64 64" width="512" xmlns="http://www.w3.org/2000/svg"><path d="m19.84 58.687c-.51.21-1.17.31-1.84.31v-14c.67 0 1.33-.1 1.84-.31l3.32-1.37c1.02-.42 2.67-.42 3.68 0l3.33 1.37c.5.21 1.16.31 1.83.31v14c-.67 0-1.33-.1-1.83-.31l-3.33-1.381c-1.01-.409-2.66-.409-3.68 0z" fill="#da4453"/><path d="m32 17.016v-14.02c.66.01 1.33-.1 1.84-.31l3.33-1.381c1.01-.409 2.66-.409 3.67 0l3.33 1.381c.5.21 1.16.31 1.83.31v14.02c-.67 0-1.33-.109-1.83-.319l-3.33-1.38c-1.01-.41-2.66-.41-3.67 0l-3.33 1.38c-.51.209-1.18.319-1.84.319z" fill="#ed5565"/><path d="m32 2.996v14.02c-.67 0-1.33-.109-1.83-.319l-3.33-1.38c-1.01-.41-2.66-.41-3.68 0l-3.32 1.38c-.51.21-1.17.319-1.84.319v-14.02c.67 0 1.33-.1 1.84-.31l3.32-1.381c1.02-.409 2.67-.409 3.68 0l3.33 1.381c.5.21 1.16.31 1.83.31z" fill="#da4453"/><path d="m32 30.996v-13.98c.66 0 1.33-.109 1.84-.319l3.33-1.38c1.01-.41 2.66-.41 3.67 0l3.33 1.38c.5.21 1.16.319 1.83.319v13.98c-.67 0-1.33-.1-1.83-.31l-3.33-1.37c-1.01-.42-2.66-.42-3.67 0l-3.33 1.37c-.51.21-1.18.32-1.84.31z" fill="#ed5565"/><g fill="#da4453"><path d="m47.85 16.696c-.51.21-1.18.319-1.85.319v-14.019c.67.01 1.34-.1 1.85-.31l3.32-1.381c1.01-.409 2.67-.409 3.68.011l4.15 1.68v14.01l-4.15-1.689c-1.01-.41-2.67-.41-3.68 0z"/><path d="m47.85 30.687c-.51.21-1.18.319-1.85.31v-13.98c.67 0 1.34-.109 1.85-.319l3.32-1.38c1.01-.41 2.67-.41 3.68 0l4.15 1.688v14l-4.15-1.689c-1.01-.42-2.67-.42-3.68 0z"/><path d="m47.85 44.687c-.51.21-1.18.319-1.85.31v-14c.67.01 1.34-.1 1.85-.31l3.32-1.37c1.01-.42 2.67-.42 3.68 0l4.15 1.689v13.99l-4.15-1.68c-1.01-.42-2.67-.42-3.68 0z"/></g><path d="m32 44.996v-14c.66.01 1.33-.1 1.84-.31l3.33-1.37c1.01-.42 2.66-.42 3.67 0l3.33 1.37c.5.21 1.16.31 1.83.31v14c-.67 0-1.33-.1-1.83-.31l-3.33-1.37c-1.01-.42-2.66-.42-3.67 0l-3.33 1.37c-.51.21-1.18.32-1.84.31z" fill="#ed5565"/><path d="m59 58.996v4l-4.15-1.68c-1.01-.42-2.67-.42-3.68 0l-3.32 1.37c-1.01.42-2.67.42-3.68 0l-3.33-1.37c-1.01-.42-2.66-.42-3.67 0l-3.33 1.37c-1.01.42-2.66.42-3.67 0l-3.33-1.37c-1.01-.42-2.66-.42-3.68 0l-3.32 1.37c-1.01.42-2.67.42-3.68 0l-3.32-1.37c-1.01-.42-2.67-.42-3.68 0l-4.16 1.68v-4l4.16-1.69c1.01-.409 2.67-.409 3.68 0l3.32 1.381c.51.21 1.17.31 1.84.31s1.33-.1 1.84-.31l3.32-1.381c1.02-.409 2.67-.409 3.68 0l3.33 1.381c.5.21 1.16.31 1.83.31.66.01 1.33-.1 1.84-.31l3.33-1.381c1.01-.409 2.66-.409 3.67 0l3.33 1.381c.5.21 1.16.31 1.83.31.67.01 1.34-.1 1.85-.31l3.32-1.381c1.01-.409 2.67-.409 3.68.011z" fill="#ccd1d9"/><path d="m32 17.016v13.98c-.67 0-1.33-.1-1.83-.31l-3.33-1.37c-1.01-.42-2.66-.42-3.68 0l-3.32 1.37c-.51.21-1.17.31-1.84.31v-13.98c.67 0 1.33-.109 1.84-.319l3.32-1.38c1.02-.41 2.67-.41 3.68 0l3.33 1.38c.5.209 1.16.319 1.83.319z" fill="#da4453"/><path d="m33.84 58.687c-.51.21-1.18.319-1.84.31v-14c.66.01 1.33-.1 1.84-.31l3.33-1.37c1.01-.42 2.66-.42 3.67 0l3.33 1.37c.5.21 1.16.31 1.83.31v14c-.67 0-1.33-.1-1.83-.31l-3.33-1.381c-1.01-.409-2.66-.409-3.67 0z" fill="#ed5565"/><path d="m46 58.996v-14c.67.01 1.34-.1 1.85-.31l3.32-1.37c1.01-.42 2.67-.42 3.68 0l4.15 1.68v14l-4.15-1.68c-1.01-.42-2.67-.42-3.68-.011l-3.32 1.381c-.51.21-1.18.32-1.85.31z" fill="#da4453"/><path d="m18 44.996v14c-.67 0-1.33-.1-1.84-.31l-3.32-1.381c-1.01-.409-2.67-.409-3.68 0l-4.16 1.691v-14l4.16-1.68c1.01-.42 2.67-.42 3.68 0l3.32 1.37c.51.21 1.17.31 1.84.31z" fill="#ed5565"/><path d="m18 17.016v13.98c-.67 0-1.33-.1-1.84-.31l-3.32-1.37c-1.01-.42-2.67-.42-3.68 0l-4.16 1.69v-14l4.16-1.689c1.01-.41 2.67-.41 3.68 0l3.32 1.38c.51.209 1.17.319 1.84.319z" fill="#ed5565"/><path d="m18 30.996v14c-.67 0-1.33-.1-1.84-.31l-3.32-1.37c-1.01-.42-2.67-.42-3.68 0l-4.16 1.68v-13.99l4.16-1.689c1.01-.42 2.67-.42 3.68 0l3.32 1.37c.51.209 1.17.309 1.84.309z" fill="#ed5565"/><path d="m32 30.996v14c-.67 0-1.33-.1-1.83-.31l-3.33-1.37c-1.01-.42-2.66-.42-3.68 0l-3.32 1.37c-.51.21-1.17.31-1.84.31v-14c.67 0 1.33-.1 1.84-.31l3.32-1.37c1.02-.42 2.67-.42 3.68 0l3.33 1.37c.5.21 1.16.31 1.83.31z" fill="#da4453"/><path d="m18 2.996v14.02c-.67 0-1.33-.109-1.84-.319l-3.32-1.38c-1.01-.41-2.67-.41-3.68 0l-4.16 1.689v-14.01l4.16-1.69c1.01-.409 2.67-.409 3.68 0l3.32 1.381c.51.209 1.17.309 1.84.309z" fill="#ed5565"/><path d="m32 44.001c-.535 0-1.07-.079-1.45-.235l-3.326-1.374c-1.266-.523-3.174-.523-4.439 0l-3.326 1.374c-.382.157-.92.236-1.458.235v2.005c.794 0 1.588-.131 2.222-.393l3.326-1.374c.762-.314 2.15-.314 2.912 0l3.326 1.374c.631.261 1.423.392 2.214.393v-2.005z" fill="#d3374e"/><path d="m46 44.001c-.535 0-1.07-.079-1.45-.235l-3.326-1.374c-1.266-.523-3.174-.523-4.439 0l-3.326 1.374c-.382.157-.92.236-1.458.235v2.005c.794 0 1.588-.131 2.222-.393l3.326-1.374c.762-.314 2.15-.314 2.912 0l3.326 1.374c.631.261 1.423.392 2.214.393v-2.005z" fill="#da4453"/><path d="m16.55 43.766-3.326-1.374c-1.266-.523-3.174-.523-4.439 0l-3.326 1.374c-.135.055-.293.097-.459.132v2.031c.439-.064.857-.166 1.222-.316l3.326-1.374c.762-.314 2.15-.314 2.912 0l3.326 1.374c.631.261 1.423.392 2.214.393v-2.005c-.535 0-1.07-.079-1.45-.235z" fill="#da4453"/><path d="m59 43.897c-.163-.036-.318-.077-.45-.132l-3.326-1.374c-1.266-.523-3.174-.523-4.439 0l-3.326 1.374c-.382.157-.92.236-1.458.235v2.005c.794 0 1.588-.131 2.222-.393l3.326-1.374c.762-.314 2.15-.314 2.912 0l3.326 1.374c.361.149.777.251 1.214.315v-2.03z" fill="#d3374e"/><path d="m32 30.004c-.535 0-1.07-.079-1.45-.235l-3.326-1.374c-1.266-.523-3.174-.523-4.439 0l-3.326 1.374c-.382.157-.92.236-1.458.235v2.005c.794 0 1.588-.131 2.222-.393l3.326-1.374c.762-.314 2.15-.314 2.912 0l3.326 1.374c.631.261 1.423.392 2.214.393v-2.005z" fill="#d3374e"/><path d="m46 30.004c-.535 0-1.07-.079-1.45-.235l-3.326-1.374c-1.266-.523-3.174-.523-4.439 0l-3.326 1.374c-.382.157-.92.236-1.458.235v2.005c.794 0 1.588-.131 2.222-.393l3.326-1.374c.762-.314 2.15-.314 2.912 0l3.326 1.374c.631.261 1.423.392 2.214.393v-2.005z" fill="#da4453"/><path d="m16.55 29.769-3.326-1.374c-1.266-.523-3.174-.523-4.439 0l-3.326 1.374c-.135.055-.293.097-.459.132v2.031c.439-.064.857-.166 1.222-.316l3.326-1.374c.762-.314 2.15-.314 2.912 0l3.326 1.374c.631.261 1.423.392 2.214.393v-2.005c-.535 0-1.07-.079-1.45-.235z" fill="#da4453"/><path d="m59 29.9c-.163-.036-.318-.077-.45-.132l-3.326-1.374c-1.266-.523-3.174-.523-4.439 0l-3.326 1.374c-.382.157-.92.236-1.458.235v2.005c.794 0 1.588-.131 2.222-.393l3.326-1.374c.762-.314 2.15-.314 2.912 0l3.326 1.374c.361.149.777.251 1.214.315v-2.03z" fill="#d3374e"/><path d="m32 16.007c-.535 0-1.07-.079-1.45-.235l-3.326-1.374c-1.266-.523-3.174-.523-4.439 0l-3.326 1.374c-.382.157-.92.236-1.458.235v2.005c.794 0 1.588-.131 2.222-.393l3.326-1.374c.762-.314 2.15-.314 2.912 0l3.326 1.374c.631.261 1.423.392 2.214.393v-2.005z" fill="#d3374e"/><path d="m46 16.007c-.535 0-1.07-.079-1.45-.235l-3.326-1.374c-1.266-.523-3.174-.523-4.439 0l-3.326 1.374c-.382.157-.92.236-1.458.235v2.005c.794 0 1.588-.131 2.222-.393l3.326-1.374c.762-.314 2.15-.314 2.912 0l3.326 1.374c.631.261 1.423.392 2.214.393v-2.005z" fill="#da4453"/><path d="m16.55 15.771-3.326-1.374c-1.266-.523-3.174-.523-4.439 0l-3.326 1.374c-.135.056-.293.098-.459.133v2.031c.439-.064.857-.166 1.222-.316l3.326-1.374c.762-.314 2.15-.314 2.912 0l3.326 1.374c.631.261 1.423.392 2.214.393v-2.005c-.535 0-1.07-.079-1.45-.236z" fill="#da4453"/><path d="m59 15.903c-.163-.036-.318-.077-.45-.132l-3.326-1.374c-1.266-.523-3.174-.523-4.439 0l-3.326 1.374c-.382.157-.92.236-1.458.235v2.005c.794 0 1.588-.131 2.222-.393l3.326-1.374c.762-.314 2.15-.314 2.912 0l3.326 1.374c.361.149.777.251 1.214.315v-2.03z" fill="#d3374e"/></svg>