<svg id="Laag_1" data-name="Laag 1" xmlns="http://www.w3.org/2000/svg" viewBox="0 0 11.88 8.77"><defs><style>.cls-1{fill:#f2f2f2;}</style></defs><path class="cls-1" d="M4.72,12H3.08V5.77A5.77,5.77,0,0,1,1,7V5.52a4.54,4.54,0,0,0,1.4-.8,3.09,3.09,0,0,0,1-1.37H4.72Z" transform="translate(-0.95 -3.35)"/><path class="cls-1" d="M7.12,9.69l1.6-.19a1.49,1.49,0,0,0,.41.93,1.1,1.1,0,0,0,.81.33,1.12,1.12,0,0,0,.86-.39,1.52,1.52,0,0,0,.34-1,1.41,1.41,0,0,0-.33-1A1.06,1.06,0,0,0,10,8a3,3,0,0,0-.76.12l.18-1.34a1.46,1.46,0,0,0,1-.29,1,1,0,0,0,.35-.82A.93.93,0,0,0,10.54,5a1,1,0,0,0-.69-.26,1,1,0,0,0-.72.3,1.34,1.34,0,0,0-.36.85L7.25,5.59a3.15,3.15,0,0,1,.48-1.24,2.08,2.08,0,0,1,.89-.73A2.93,2.93,0,0,1,9.9,3.35a2.56,2.56,0,0,1,1.94.77,2,2,0,0,1,.61,1.43,2,2,0,0,1-1.24,1.81,2,2,0,0,1,1.18.71,2.07,2.07,0,0,1,.44,1.33A2.56,2.56,0,0,1,12,11.32a2.86,2.86,0,0,1-2.06.8A2.8,2.8,0,0,1,8,11.45,2.65,2.65,0,0,1,7.12,9.69Z" transform="translate(-0.95 -3.35)"/></svg>