<svg id="Laag_1" data-name="Laag 1" xmlns="http://www.w3.org/2000/svg" viewBox="0 0 12.29 8.78"><defs><style>.cls-1{fill:#f2f2f2;}</style></defs><path class="cls-1" d="M3.29,3.35a2.35,2.35,0,0,1,2,.89,5.67,5.67,0,0,1,.84,3.5,5.71,5.71,0,0,1-.84,3.5,2.35,2.35,0,0,1-1.95.88,2.46,2.46,0,0,1-2-1A5.73,5.73,0,0,1,.5,7.72a5.67,5.67,0,0,1,.85-3.49A2.32,2.32,0,0,1,3.29,3.35Zm0,1.36a.86.86,0,0,0-.53.19,1.24,1.24,0,0,0-.36.69,9,9,0,0,0-.17,2.15,9.35,9.35,0,0,0,.15,2.07,1.52,1.52,0,0,0,.38.76.86.86,0,0,0,.53.19.84.84,0,0,0,.54-.2,1.3,1.3,0,0,0,.36-.68,9.45,9.45,0,0,0,.17-2.14,9.52,9.52,0,0,0-.15-2.08,1.44,1.44,0,0,0-.39-.76A.84.84,0,0,0,3.29,4.71Z" transform="translate(-0.5 -3.35)"/><path class="cls-1" d="M7.22,10l1.59-.18a1.1,1.1,0,0,0,.31.72.88.88,0,0,0,.65.24,1,1,0,0,0,.86-.47,3.89,3.89,0,0,0,.46-2,2,2,0,0,1-1.55.72,2.32,2.32,0,0,1-1.75-.78,2.85,2.85,0,0,1-.74-2,2.88,2.88,0,0,1,.78-2.11,2.66,2.66,0,0,1,2-.8,2.67,2.67,0,0,1,2.14,1,5.21,5.21,0,0,1,.84,3.33,5.26,5.26,0,0,1-.87,3.39,2.82,2.82,0,0,1-2.28,1.05A2.37,2.37,0,0,1,8,11.59,2.58,2.58,0,0,1,7.22,10ZM11,6.39a1.93,1.93,0,0,0-.37-1.24,1.11,1.11,0,0,0-.85-.44A1,1,0,0,0,9,5.07a1.87,1.87,0,0,0-.3,1.19A1.87,1.87,0,0,0,9,7.48a1,1,0,0,0,1.62,0A1.62,1.62,0,0,0,11,6.39Z" transform="translate(-0.5 -3.35)"/></svg>