<svg id="Laag_1" data-name="Laag 1" xmlns="http://www.w3.org/2000/svg" viewBox="0 0 12.49 8.63"><defs><style>.cls-1{fill:#f2f2f2;}</style></defs><path class="cls-1" d="M2.9,12,6.2,3.38H7.42L10.94,12H9.65l-1-2.6H5.05L4.11,12ZM5.38,8.45H8.29L7.4,6.07c-.28-.72-.48-1.32-.61-1.78a11.23,11.23,0,0,1-.47,1.64Z" transform="translate(-2.9 -3.35)"/><path class="cls-1" d="M15.39,12H14.34V5.25a5.29,5.29,0,0,1-1,.73,6.94,6.94,0,0,1-1.11.54v-1a6.8,6.8,0,0,0,1.55-1,4,4,0,0,0,.93-1.15h.68Z" transform="translate(-2.9 -3.35)"/></svg>