<svg id="Laag_1" data-name="Laag 1" xmlns="http://www.w3.org/2000/svg" viewBox="0 0 11.81 8.77"><defs><style>.cls-1{fill:#f2f2f2;}</style></defs><path class="cls-1" d="M4.72,12H3.08V5.77A5.77,5.77,0,0,1,1,7V5.52a4.54,4.54,0,0,0,1.4-.8,3.09,3.09,0,0,0,1-1.37H4.72Z" transform="translate(-0.95 -3.35)"/><path class="cls-1" d="M10,3.35a2.36,2.36,0,0,1,1.95.89,5.67,5.67,0,0,1,.84,3.5,5.71,5.71,0,0,1-.85,3.5,2.32,2.32,0,0,1-1.94.88,2.45,2.45,0,0,1-2-1,5.66,5.66,0,0,1-.77-3.44A5.68,5.68,0,0,1,8,4.23,2.34,2.34,0,0,1,10,3.35Zm0,1.36a.89.89,0,0,0-.54.19,1.39,1.39,0,0,0-.36.69A9.56,9.56,0,0,0,8.9,7.74a9.35,9.35,0,0,0,.15,2.07,1.44,1.44,0,0,0,.39.76.84.84,0,0,0,.53.19.81.81,0,0,0,.53-.2,1.18,1.18,0,0,0,.36-.68A8.89,8.89,0,0,0,11,7.74a9.52,9.52,0,0,0-.15-2.08,1.52,1.52,0,0,0-.38-.76A.86.86,0,0,0,10,4.71Z" transform="translate(-0.95 -3.35)"/></svg>