<svg id="Laag_1" data-name="Laag 1" xmlns="http://www.w3.org/2000/svg" viewBox="0 0 11.79 8.63"><defs><style>.cls-1{fill:#f2f2f2;}</style></defs><path class="cls-1" d="M4.72,12H3.08V5.77A5.77,5.77,0,0,1,1,7V5.52a4.54,4.54,0,0,0,1.4-.8,3.09,3.09,0,0,0,1-1.37H4.72Z" transform="translate(-0.95 -3.35)"/><path class="cls-1" d="M12.74,10.44V12H7a4,4,0,0,1,.57-1.64A10.61,10.61,0,0,1,9.39,8.27a11.32,11.32,0,0,0,1.36-1.41,1.77,1.77,0,0,0,.34-1A1.18,1.18,0,0,0,10.8,5a1.1,1.1,0,0,0-.82-.3A1.11,1.11,0,0,0,9.16,5a1.64,1.64,0,0,0-.35,1L7.17,5.89a2.67,2.67,0,0,1,.92-1.95A3.1,3.1,0,0,1,10,3.35,2.83,2.83,0,0,1,12,4a2.27,2.27,0,0,1,.72,1.71,3.11,3.11,0,0,1-.2,1.1,4.51,4.51,0,0,1-.66,1.1A10.32,10.32,0,0,1,10.8,9c-.52.48-.85.79-1,1a3.13,3.13,0,0,0-.34.45Z" transform="translate(-0.95 -3.35)"/></svg>