<svg id="Laag_1" data-name="Laag 1" xmlns="http://www.w3.org/2000/svg" viewBox="0 0 12.42 8.77"><defs><style>.cls-1{fill:#f2f2f2;}</style></defs><path class="cls-1" d="M3.29,3.35a2.35,2.35,0,0,1,2,.89,5.67,5.67,0,0,1,.84,3.5,5.71,5.71,0,0,1-.84,3.5,2.35,2.35,0,0,1-1.95.88,2.46,2.46,0,0,1-2-1A5.73,5.73,0,0,1,.5,7.72a5.67,5.67,0,0,1,.85-3.49A2.32,2.32,0,0,1,3.29,3.35Zm0,1.36a.86.86,0,0,0-.53.19,1.24,1.24,0,0,0-.36.69,9,9,0,0,0-.17,2.15,9.35,9.35,0,0,0,.15,2.07,1.52,1.52,0,0,0,.38.76.86.86,0,0,0,.53.19.84.84,0,0,0,.54-.2,1.3,1.3,0,0,0,.36-.68,9.45,9.45,0,0,0,.17-2.14,9.52,9.52,0,0,0-.15-2.08,1.44,1.44,0,0,0-.39-.76A.84.84,0,0,0,3.29,4.71Z" transform="translate(-0.5 -3.35)"/><path class="cls-1" d="M12.76,5.49l-1.59.17a1.12,1.12,0,0,0-.31-.72.86.86,0,0,0-.64-.24,1.09,1.09,0,0,0-.88.47,3.91,3.91,0,0,0-.45,2,1.93,1.93,0,0,1,1.53-.72,2.32,2.32,0,0,1,1.76.78,2.85,2.85,0,0,1,.74,2,2.91,2.91,0,0,1-.77,2.11,2.67,2.67,0,0,1-2,.8,2.67,2.67,0,0,1-2.14-1A5.18,5.18,0,0,1,7.18,7.8a5.26,5.26,0,0,1,.88-3.41,2.81,2.81,0,0,1,2.26-1,2.36,2.36,0,0,1,1.62.55A2.54,2.54,0,0,1,12.76,5.49ZM9,9.08a1.85,1.85,0,0,0,.37,1.24,1.09,1.09,0,0,0,.84.44A.94.94,0,0,0,11,10.4a1.76,1.76,0,0,0,.31-1.17A1.88,1.88,0,0,0,11,8a1,1,0,0,0-.82-.39,1,1,0,0,0-.8.37A1.62,1.62,0,0,0,9,9.08Z" transform="translate(-0.5 -3.35)"/></svg>