<svg id="Laag_1" data-name="Laag 1" xmlns="http://www.w3.org/2000/svg" viewBox="0 0 12.33 8.77"><defs><style>.cls-1{fill:#f2f2f2;}</style></defs><path class="cls-1" d="M3.29,3.35a2.35,2.35,0,0,1,2,.89,5.67,5.67,0,0,1,.84,3.5,5.71,5.71,0,0,1-.84,3.5,2.35,2.35,0,0,1-1.95.88,2.46,2.46,0,0,1-2-1A5.73,5.73,0,0,1,.5,7.72a5.67,5.67,0,0,1,.85-3.49A2.32,2.32,0,0,1,3.29,3.35Zm0,1.36a.86.86,0,0,0-.53.19,1.24,1.24,0,0,0-.36.69,9,9,0,0,0-.17,2.15,9.35,9.35,0,0,0,.15,2.07,1.52,1.52,0,0,0,.38.76.86.86,0,0,0,.53.19.84.84,0,0,0,.54-.2,1.3,1.3,0,0,0,.36-.68,9.45,9.45,0,0,0,.17-2.14,9.52,9.52,0,0,0-.15-2.08,1.44,1.44,0,0,0-.39-.76A.84.84,0,0,0,3.29,4.71Z" transform="translate(-0.5 -3.35)"/><path class="cls-1" d="M7.12,9.69l1.6-.19a1.49,1.49,0,0,0,.41.93,1.1,1.1,0,0,0,.81.33,1.12,1.12,0,0,0,.86-.39,1.52,1.52,0,0,0,.34-1,1.41,1.41,0,0,0-.33-1A1.06,1.06,0,0,0,10,8a3,3,0,0,0-.76.12l.18-1.34a1.46,1.46,0,0,0,1-.29,1,1,0,0,0,.35-.82A.93.93,0,0,0,10.54,5a1,1,0,0,0-.69-.26,1,1,0,0,0-.72.3,1.34,1.34,0,0,0-.36.85L7.25,5.59a3.15,3.15,0,0,1,.48-1.24,2.08,2.08,0,0,1,.89-.73A2.93,2.93,0,0,1,9.9,3.35a2.56,2.56,0,0,1,1.94.77,2,2,0,0,1,.61,1.43,2,2,0,0,1-1.24,1.81,2,2,0,0,1,1.18.71,2.07,2.07,0,0,1,.44,1.33A2.56,2.56,0,0,1,12,11.32a2.86,2.86,0,0,1-2.06.8A2.8,2.8,0,0,1,8,11.45,2.65,2.65,0,0,1,7.12,9.69Z" transform="translate(-0.5 -3.35)"/></svg>