<svg id="Laag_1" data-name="Laag 1" xmlns="http://www.w3.org/2000/svg" viewBox="0 0 12.24 8.77"><defs><style>.cls-1{fill:#f2f2f2;}</style></defs><path class="cls-1" d="M3.29,3.35a2.35,2.35,0,0,1,2,.89,5.67,5.67,0,0,1,.84,3.5,5.71,5.71,0,0,1-.84,3.5,2.35,2.35,0,0,1-1.95.88,2.46,2.46,0,0,1-2-1A5.73,5.73,0,0,1,.5,7.72a5.67,5.67,0,0,1,.85-3.49A2.32,2.32,0,0,1,3.29,3.35Zm0,1.36a.86.86,0,0,0-.53.19,1.24,1.24,0,0,0-.36.69,9,9,0,0,0-.17,2.15,9.35,9.35,0,0,0,.15,2.07,1.52,1.52,0,0,0,.38.76.86.86,0,0,0,.53.19.84.84,0,0,0,.54-.2,1.3,1.3,0,0,0,.36-.68,9.45,9.45,0,0,0,.17-2.14,9.52,9.52,0,0,0-.15-2.08,1.44,1.44,0,0,0-.39-.76A.84.84,0,0,0,3.29,4.71Z" transform="translate(-0.5 -3.35)"/><path class="cls-1" d="M12.74,10.44V12H7a4,4,0,0,1,.57-1.64A10.61,10.61,0,0,1,9.39,8.27a11.32,11.32,0,0,0,1.36-1.41,1.77,1.77,0,0,0,.34-1A1.18,1.18,0,0,0,10.8,5a1.1,1.1,0,0,0-.82-.3A1.11,1.11,0,0,0,9.16,5a1.64,1.64,0,0,0-.35,1L7.17,5.89a2.67,2.67,0,0,1,.92-1.95A3.1,3.1,0,0,1,10,3.35,2.83,2.83,0,0,1,12,4a2.27,2.27,0,0,1,.72,1.71,3.11,3.11,0,0,1-.2,1.1,4.51,4.51,0,0,1-.66,1.1A10.32,10.32,0,0,1,10.8,9c-.52.48-.85.79-1,1a3.13,3.13,0,0,0-.34.45Z" transform="translate(-0.5 -3.35)"/></svg>