<svg id="Laag_1" data-name="Laag 1" xmlns="http://www.w3.org/2000/svg" viewBox="0 0 12.48 8.77"><defs><style>.cls-1{fill:#f2f2f2;}</style></defs><path class="cls-1" d="M3.29,3.35a2.35,2.35,0,0,1,2,.89,5.67,5.67,0,0,1,.84,3.5,5.71,5.71,0,0,1-.84,3.5,2.35,2.35,0,0,1-1.95.88,2.46,2.46,0,0,1-2-1A5.73,5.73,0,0,1,.5,7.72a5.67,5.67,0,0,1,.85-3.49A2.32,2.32,0,0,1,3.29,3.35Zm0,1.36a.86.86,0,0,0-.53.19,1.24,1.24,0,0,0-.36.69,9,9,0,0,0-.17,2.15,9.35,9.35,0,0,0,.15,2.07,1.52,1.52,0,0,0,.38.76.86.86,0,0,0,.53.19.84.84,0,0,0,.54-.2,1.3,1.3,0,0,0,.36-.68,9.45,9.45,0,0,0,.17-2.14,9.52,9.52,0,0,0-.15-2.08,1.44,1.44,0,0,0-.39-.76A.84.84,0,0,0,3.29,4.71Z" transform="translate(-0.5 -3.35)"/><path class="cls-1" d="M7.21,9.77,8.85,9.6a1.38,1.38,0,0,0,.41.88,1.16,1.16,0,0,0,.8.32,1.09,1.09,0,0,0,.87-.42,1.89,1.89,0,0,0,.36-1.26,1.78,1.78,0,0,0-.35-1.19A1.21,1.21,0,0,0,10,7.54a1.68,1.68,0,0,0-1.27.63L7.41,8,8.25,3.5H12.6V5H9.5L9.24,6.5a2.54,2.54,0,0,1,1.13-.27A2.46,2.46,0,0,1,12.22,7,2.86,2.86,0,0,1,13,9.09,3.07,3.07,0,0,1,12.37,11,2.72,2.72,0,0,1,10,12.12a2.87,2.87,0,0,1-1.94-.64A2.58,2.58,0,0,1,7.21,9.77Z" transform="translate(-0.5 -3.35)"/></svg>