<svg id="Laag_1" data-name="Laag 1" xmlns="http://www.w3.org/2000/svg" viewBox="0 0 12.3 8.78"><defs><style>.cls-1{fill:#f2f2f2;}</style></defs><path class="cls-1" d="M3.29,3.35a2.35,2.35,0,0,1,2,.89,5.67,5.67,0,0,1,.84,3.5,5.71,5.71,0,0,1-.84,3.5,2.35,2.35,0,0,1-1.95.88,2.46,2.46,0,0,1-2-1A5.73,5.73,0,0,1,.5,7.72a5.67,5.67,0,0,1,.85-3.49A2.32,2.32,0,0,1,3.29,3.35Zm0,1.36a.86.86,0,0,0-.53.19,1.24,1.24,0,0,0-.36.69,9,9,0,0,0-.17,2.15,9.35,9.35,0,0,0,.15,2.07,1.52,1.52,0,0,0,.38.76.86.86,0,0,0,.53.19.84.84,0,0,0,.54-.2,1.3,1.3,0,0,0,.36-.68,9.45,9.45,0,0,0,.17-2.14,9.52,9.52,0,0,0-.15-2.08,1.44,1.44,0,0,0-.39-.76A.84.84,0,0,0,3.29,4.71Z" transform="translate(-0.5 -3.35)"/><path class="cls-1" d="M8.6,7.34A1.84,1.84,0,0,1,7.38,5.56,2,2,0,0,1,8.05,4,2.68,2.68,0,0,1,10,3.35a2.69,2.69,0,0,1,1.9.63,2,2,0,0,1,.67,1.58,1.87,1.87,0,0,1-.31,1.07,1.92,1.92,0,0,1-.87.71,2.28,2.28,0,0,1,1.09.84,2.26,2.26,0,0,1,.37,1.27,2.56,2.56,0,0,1-.76,1.93,2.76,2.76,0,0,1-2,.75,3.05,3.05,0,0,1-1.95-.62,2.4,2.4,0,0,1-.92-2,2.46,2.46,0,0,1,.35-1.28A2.2,2.2,0,0,1,8.6,7.34Zm.18,2a1.52,1.52,0,0,0,.35,1.06,1.1,1.1,0,0,0,.87.38,1.13,1.13,0,0,0,.85-.36,1.55,1.55,0,0,0,.33-1.06,1.35,1.35,0,0,0-.34-1A1.11,1.11,0,0,0,10,8a1,1,0,0,0-.9.42A1.52,1.52,0,0,0,8.78,9.36Zm.16-3.68a1,1,0,0,0,.27.77,1.18,1.18,0,0,0,1.5,0A1.08,1.08,0,0,0,11,5.68a1.05,1.05,0,0,0-.28-.75A1,1,0,0,0,10,4.66a1,1,0,0,0-.75.28A1,1,0,0,0,8.94,5.68Z" transform="translate(-0.5 -3.35)"/></svg>