<?xml version="1.0" encoding="utf-8"?>
<!-- Generator: Adobe Illustrator 24.3.0, SVG Export Plug-In . SVG Version: 6.00 Build 0)  -->
<svg version="1.1" id="Layer_1" xmlns="http://www.w3.org/2000/svg" xmlns:xlink="http://www.w3.org/1999/xlink" x="0px" y="0px"
	 viewBox="0 0 512 512" style="enable-background:new 0 0 512 512;" xml:space="preserve">
<style type="text/css">
	.st0{fill:#FAFAFA;}
	.st1{fill:#F5EBE1;}
	.st2{fill:#3C4B64;}
	.st3{fill:#28324B;}
</style>
<g>
	<path class="st0" d="M399.9,348.2c15.4-24,24.9-52,26.7-82.1l0,0l-38.5-118.3l0,0c-18.4-22.4-42.4-40.1-69.8-50.8l-124.5,0
		c-27.4,10.8-51.4,28.4-69.8,50.8l0,0L85.5,266l0,0c1.7,30.1,11.3,58.2,26.7,82.2l100.7,73.2l0,0c13.8,3.6,28.3,5.5,43.2,5.5
		c14.9,0,29.4-1.9,43.2-5.5L399.9,348.2z"/>
	<path class="st1" d="M399.9,348.2c15.4-24,24.9-52,26.7-82.1l0,0l-38.5-118.3l0,0c-18.4-22.4-42.4-40.1-69.8-50.8H256v330
		c14.9,0,29.4-1.9,43.2-5.5L399.9,348.2z"/>
	<path class="st2" d="M262.3,192.2l52.5,38.1c3.7,2.7,5.3,7.5,3.9,11.9l-20.1,61.7c-1.4,4.4-5.5,7.3-10.1,7.3h-64.9
		c-4.6,0-8.7-3-10.1-7.3l-20.1-61.7c-1.4-4.4,0.1-9.2,3.9-11.9l52.5-38.1C253.5,189.5,258.5,189.5,262.3,192.2z"/>
	<path class="st3" d="M299.2,421.3c42-11,77.8-37.6,100.6-73.2h-69.1c-4.6,0-8.7,3-10.1,7.3L299.2,421.3z"/>
	<path class="st3" d="M370.6,225.3l56,40.7c0.2-3.3,0.3-6.6,0.3-10c0-41.1-14.6-78.8-38.8-108.3l-21.4,65.8
		C365.3,217.8,366.9,222.6,370.6,225.3L370.6,225.3z"/>
	<g>
		<path class="st2" d="M193.8,96.9l56,40.7c3.7,2.7,8.8,2.7,12.5,0l56-40.7C298.9,89.3,278,85.1,256,85.1
			C234,85.1,213.1,89.3,193.8,96.9z"/>
		<path class="st2" d="M123.9,147.7C99.7,177.2,85.1,214.9,85.1,256c0,3.4,0.1,6.7,0.3,10l56-40.7c3.7-2.7,5.3-7.5,3.9-11.9
			L123.9,147.7z"/>
		<path class="st2" d="M181.3,348.2h-69.1c22.9,35.6,58.6,62.2,100.6,73.2l-21.4-65.8C190,351.1,185.9,348.2,181.3,348.2z"/>
	</g>
	<path class="st3" d="M298.6,303.9l20.1-61.7c1.4-4.4-0.1-9.2-3.9-11.9l-52.5-38.1c-1.9-1.4-4.1-2-6.3-2v121.1h32.4
		C293.1,311.3,297.1,308.3,298.6,303.9z"/>
	<path class="st3" d="M262.3,137.5l56-40.7C298.9,89.3,278,85.1,256,85.1v54.4C258.2,139.6,260.4,138.9,262.3,137.5z"/>
</g>
</svg>
