<svg enable-background="new 0 0 283.465 283.465" height="512" viewBox="0 0 283.465 283.465" width="512" xmlns="http://www.w3.org/2000/svg"><g id="Layer_1_1_" clip-rule="evenodd" fill-rule="evenodd"><path d="m48.556 121.05 58.036-46.236 82.31.625-50.509 48.638z" fill="#c68659"/><path d="m188.902 75.439-50.509 48.638 10.6 23.072 94.158 2.494-33.854-34.689z" fill="#a35f3f"/><path d="m200.06 200.009 43.091-50.366-94.158-2.494-28.011 90.389z" fill="#c68659"/><path d="m31.299 161.616 17.257-40.567 89.838 3.025 10.596 23.076-28.01 90.388-53.34-1.882z" fill="#924e38"/><path d="m251.989 207.085-8.837-57.442-43.092 50.364 2.042 38.108z" fill="#a35f3f"/><path d="m120.98 237.538 79.08-37.531 2.042 38.108z" fill="#7e422e"/><path d="m198.392 93.828c7.439-11.079 17.465-20.267 29.773-25.764-10.49 14-17.37 32.834-18.868 46.889z" fill="#61ab52"/><path d="m78.492 45.356-9.869 59.718 17.441-13.901z" fill="#457e3b"/><path d="m68.617 105.074c-7.56-14.114-18.957-26.05-33.681-32.627 10.189 13.599 16.648 27.417 19.981 43.544z" fill="#61ab52"/></g></svg>