<svg id="Layer_1" height="512" viewBox="0 0 512 512" width="512" xmlns="http://www.w3.org/2000/svg" data-name="Layer 1"><path d="m404.18 102.99 32.3 154.53-85.3-46.66z" fill="#616d77"/><path d="m436.48 257.52-16.95 139.68-68.35-186.34z" fill="#505c63"/><path d="m351.18 210.86 68.35 186.34-191.36-48.1-50.14-63.85z" fill="#798795"/><path d="m419.53 397.2-52.28 85.89-142.66-43.11 3.58-90.88z" fill="#616d77"/><path d="m404.18 102.99-53 107.87-57.42-108.24.22-91.62z" fill="#8e99a3"/><path d="m367.25 483.09-163.86 17.91-95.05-47.6 116.25-13.42z" fill="#505c63"/><path d="m293.76 102.62 57.42 108.24-173.15 74.39 4.43-89.01z" fill="#616d77"/><path d="m293.98 11-.22 91.62-93.18-22.33z" fill="#93a1ad"/><path d="m293.76 102.62-111.3 93.62-73.82-76.96 91.94-38.99z" fill="#798795"/><path d="m178.03 285.25 50.14 63.85-3.58 90.88-116.25 13.42-32.82-118.55z" fill="#8e99a3"/><path d="m108.64 119.28 73.82 76.96-4.43 89.01-102.51 49.6z" fill="#93a1ad"/><path d="m155.163 447.995-46.823 5.405 95.05 47.6 40.105-4.383z" fill="#414a4f"/><path d="m293.98 11-93.4 69.29 40.987 9.822 52.313-37.346z" fill="#748089"/><path d="m137.306 149.166-28.666-29.886-33.12 215.57 42.413-20.522z" fill="#79848c"/><path d="m241.567 90.112-40.987-9.822-91.94 38.99 28.666 29.886z" fill="#5e6a75"/><path d="m75.52 334.85 32.82 118.55 46.823-5.405-37.23-133.667z" fill="#747c82"/><g fill="#f4f8fc"><path d="m121.559 177.414a6.078 6.078 0 0 1 -.991-.082 6 6 0 0 1 -4.935-6.9l.6-3.6a6 6 0 0 1 11.838 1.965l-.6 3.6a6 6 0 0 1 -5.912 5.017z"/><path d="m107.276 263.452a6.063 6.063 0 0 1 -.989-.082 6 6 0 0 1 -4.936-6.9l11.11-66.928a6 6 0 0 1 11.838 1.964l-11.111 66.929a6 6 0 0 1 -5.912 5.017z"/></g></svg>