<?xml version="1.0" encoding="utf-8"?>
<!-- Generator: Adobe Illustrator 24.3.0, SVG Export Plug-In . SVG Version: 6.00 Build 0)  -->
<svg version="1.1" id="Capa_1" xmlns="http://www.w3.org/2000/svg" xmlns:xlink="http://www.w3.org/1999/xlink" x="0px" y="0px"
	 viewBox="0 0 512 413.6" style="enable-background:new 0 0 512 413.6;" xml:space="preserve">
<style type="text/css">
	.st0{fill:#467536;}
	.st1{fill:#539642;}
	.st2{fill:#4D873D;}
</style>
<g>
	<g>
		<path class="st0" d="M262.5,296.6c-1.6-0.7-3.2-1.7-4.6-2.8c-1.1-0.7-1.9-0.6-2.5-2.2c-1.7-4.3,3.7-1.9,6.3-1.9
			c1,0,2.4,0.5,2.9-0.5c0.6-0.9-1-2.7-2-3c0.6-1.2,0.8-2.5,0.5-3.8c-1-2.4-1.8,0-3.4-0.6c-1.2-0.2-2-1.4-1.8-2.6
			c0-0.1,0-0.2,0.1-0.2c0.5-1.7,1.2-1,2.7-1.6c0.6,0,0.7-1,1.5-1.1c0.8-0.1,1.6,0.7,2.3,0.6c1.3-0.1,2.3-1.1,2.4-2.4
			c0-2.4-1.4-1-2.6-1.4c-1.3-0.4-1.2-1.4-2-2.5c-0.8-1.1-5.6-2.3-3.6-5.6c0.6-0.8,2-0.6,2.4-1.7c0.4-1.1-0.5-1.6-0.6-2.3
			c-0.5-2.1-0.3-3.3-2.4-4.2c-1.6-0.8-3.4-1.3-5.2-1.5c-1.6,0-2.6,2.5-4.6,0.3c-1-1.1,0-2.9-0.8-3.8s-3.4,0-4.5,0s-3.4,0.4-4.2-0.4
			v-1.6l-1-1.5c-0.4-1.6,1.2-1.8,1-3.4c-0.2-1.6-3-2-3.5-3.4l-0.3,0.5v-0.7c0.8-1.5,1-3.2,0.5-4.8c-2.5,0.6-5.1-0.2-6.9-2
			c-0.4-0.5,0-1.1-0.7-1.7c-0.7-0.6-1.5-0.8-2.1-1.2c-1.7-1.1-1.4-1.2-1.7-2.7c0,0,0.7-0.7,0.5-1.4c-0.2-0.6-1.5-1.3-2.6-1.6
			c-1.1-0.3-2.8,0-3.4-1.6c-0.7-1.6,0.8-2.9,0.5-3.4c-0.3-0.5-2.7-0.7-3.7,0c-3-2.4,1.6-3.9,1.4-5.6c-0.2-1.7-3.3-2.2-4.8-2
			s-1.7,0.8-3,1.2c-2.7,0.8-4.4-1.8-6.6-2.7c-1.4-0.5-2.7-1.3-3.9-2.1c-1-0.7-3-1.9-4.3-1.2c-1.3,0.7-0.4,2.4-1.1,3.4
			c-0.7,1-2.5,0-4.1,1.4c-1.6,1.4-1,3.8-2.9,2.1c-1.1-1,0-3.4-2.3-3.5c-1.4,0-3.4,2.1-4.6,2.7c-1.2,0.6-2.5,0-3.8,0.5
			c-1.2,0.4-2.4,0.8-3.5,1.4c-1.1,0.6-2.2,1-3.4,1.4c-2,0.5-2.5,0-4.1,1.5c-1,1.1-1.7,2.3-2,3.7c-0.6,1.6-0.4,2.1-2.5,2.5
			c-1.3,0.3-2.7,0-3.8-0.8c-0.7,4.1-2.5,1-4.9,3.3c-1,0.9-0.7,1.8-0.9,3c-0.5,2.4-0.7,1.4-2.7,2.2s-2.4,4.4-1.7,7
			c0.6,2.6,2.3,3.5-0.5,4.4c-1.4,0.6-3,0-3.7-1.4c-0.5-0.8,0-8.6-3-4.4c-0.8,1.1,0,2.7,0,3.8c-0.8,2.3-2.8,1-3.5,2.5
			c-0.7,1.5,1,2.4,0.4,3.5c-0.6,1.1-3.1,0.6-4.2,1.2c-1.1,0.6-0.7,1.3-1.7,1.7c-1,0.4-1.7,0-2.3,0s-1.4,0.3-1.2,2.1
			c0,3.1,1.6,2-1.6,3.4c-0.7,0.3-1,1-1.9,1.3c-0.9,0.3-2.3-0.5-2.8,0.7c-0.6,1.2,1.1,1.8,1.2,2.5c0.1,0.6,0.1,1.2,0,1.8
			c0,1.2-1.6,0-0.7,1.7c0.5,1,2.5,1.4,3.4,2c-0.5,1.2-0.7,2.5-0.6,3.8c0,1,0.8,1.4,1,2.1c0.2,0.7,0,1.6,0,2.3c0,0.7,2.2,1.6,2.5,2.6
			c0.2,0.8,0,1.7-0.7,2.3c-0.8,0.6-2-0.3-2.7,0l-0.7,1.5c-1.9,1.5-4.4,0.5-5.9,2.4c-0.7,1-0.4,2.4-1.3,3.5c-0.9,1.1-2.9,0.4-3.4,2.1
			c-0.9,2.9,3.7,1.7,4.6,3.8c0.3,0.8-0.3,2,0,2.8c0.5,2.4,0.9,0.7,1.7,1.9c0.8,1.1,0.4,1.7,1.1,2.5c1.9,2.2,5.6,0,7.9-0.5
			c-0.6,1.5-5.6,3-6,4.5c-0.3,1.5,3.9,1.7,3,4.6c1.3,1.1,3.3,0.3,4.8,0.6c1.5,0.6,3.2,0.8,4.8,0.6c-1.2,1.6-3.5,3.3-3.7,5.6
			c1.6,0,2.8,1.1,2.1,2.8c1,0.4,2,0.4,3,0c0.3,0.4,0.5,0.9,0.5,1.4c0.6-1.2,0.7-2.6,0.3-3.9l-0.7-0.7c1.8,0.5,3.3,1.9,3.8,3.7
			c0.3,1.1-0.7,3.3,0,4.2c1.2,1.8,7,0.7,8.7,1.2c1.7,0.5,2.4,1.6,3.7,2.1s4.3,0.7,3.8,3c-0.5,2.3-3.5,1.5-0.7,2.8
			c1.8,0.8,3.9,0.2,5-1.5c1.4,0,1.5,1.6,1.6,2.6c1,0,1.4-1.1,2.2-1.4s1.6,0,2.4,0s1.4-1.2,2.3-1.5s1.9,0.4,2.8,0
			c0.9-0.4,2.1-0.9,2.4-0.9l1.6,0.6c1.4,0,3.4-2,3.9,0.7c1.6,0.4,1.4-1.2,2.5-1.5c1.2-0.3,1.5,0.4,2.5,0.7c1,0.3,2.6,0,3.4,1.1
			c2.5,0,5.6-0.4,8.1-0.3l3.6-1.2c1.2-0.4,2.6,0,3.8,0c1.1,0,1.6-2.3,3.9-2.9c2.3-0.6,4.9-2.2,8.1-1.1c0.7,0.2,1.5,0.5,2.1,0.8
			l0.6,1.5h1.5c0.7,0.6,1.5,1,2.4,1.4h3.9c1.2,0,3,0,4.6,0.4c0,0,0.7,0.7,1.3,0.8c0.6,0.1,0.7-1.1,1.7-0.5c1,0.6,0,2.5,2.9,2.8
			c2.9,0.2,1.7-1.2,3.3-2.3c2.4-1.7,2.1,1.5,4.4,1.5c0.1-1.2,0-2.4-0.3-3.5l-1.9-2.2c-0.5,0-1.4,0-2,0s0-1.3,0-1.5
			c0-0.2-2.5,0-3.3-1.5c-1.6-3.3,4.2-1,5.6-0.5c1.4,0.5,2.1,1.6,3.7,1.1c1.6-0.5,1.7-3.3,3.5-0.7c0.5-3.4,6.7,1.1,3.9-4.4
			c3.4-0.8,0-2.5,0-3.7c0-2.4,1.9-1.9,3.2-2.1c3.2-0.7,3.7-2.3,3.8-5.6c-0.1-1.3,0.3-2.6,1.1-3.7c1-1.9,0.6-1.6,2.6-2.1h1.3
			c0.9,0,1.1-0.8,1.9-1.1c0.7-0.3,2.8-0.7,3.2-1.5C269.8,296.3,264,297.1,262.5,296.6L262.5,296.6z"/>
		<path class="st1" d="M469.9,300.4c-1.6-0.8-3.1-1.7-4.6-2.8c-1.2-0.7-1.9-0.7-2.5-2.3c-1.7-4.3,3.7-1.9,6.3-1.9
			c0.9,0,2.4,0.5,2.9-0.5c0.6-0.9-1.1-2.7-2-3.1c0.6-1.2,0.8-2.5,0.5-3.8c-1-2.4-1.8,0-3.5-0.6c-1.2-0.3-2-1.5-1.7-2.8
			c0-0.1,0-0.1,0-0.2c0.5-1.7,1.2-1,2.6-1.5c1.4-0.5,0.8-1,1.5-1.1c0.7-0.1,1.7,0.7,2.3,0.6c1.3-0.1,2.4-1.1,2.4-2.4
			c0-2.4-1.3-1-2.6-1.4c-1.4-0.4-1.1-1.4-2-2.4c-0.8-1.1-5.6-2.3-3.7-5.6c0.6-0.8,2.1-0.6,2.4-1.7c0.3-1.1-0.5-1.7-0.6-2.4
			c-0.5-2-0.3-3.2-2.4-4.2c-1.6-0.8-3.4-1.3-5.2-1.4c-1.5,0-2.6,2.5-4.6,0.3c-1-1.1,0-2.9-0.8-3.8c-0.8-0.9-3.5,0-4.5,0
			c-1,0-3.5,0.4-4.2-0.4v-1.6l-1.1-1.4c-0.4-1.6,1.2-1.8,1.1-3.4c-0.2-1.6-3-2-3.5-3.4l-0.4,0.5V245c0.8-1.5,1-3.2,0.5-4.8
			c-2.5,0.5-5.1-0.2-7-2c-0.4-0.5,0-1.2-0.7-1.7c-0.6-0.5-1.3-0.9-2.1-1.2c-1.7-1.2-1.4-1.2-1.7-2.8c0,0,0.6-0.7,0.5-1.3
			s-1.5-1.3-2.7-1.6c-1.2-0.3-2.8,0-3.4-1.6c-0.6-1.6,0.8-2.9,0.5-3.4c-0.3-0.5-2.7-0.7-3.7,0c-3-2.4,1.5-3.9,1.4-5.6
			c-0.2-1.7-3.3-2.3-4.9-2.1c-1.6,0.2-1.7,0.9-3,1.3c-2.8,0.8-4.4-1.8-6.6-2.7c-1.4-0.5-2.7-1.2-3.9-2.1c-1.1-0.7-3.1-1.9-4.3-1.2
			c-1.2,0.7-0.4,2.4-1.2,3.4c-0.8,1-2.5,0-4.1,1.4c-1.6,1.4-1,3.8-2.9,2.1c-1.1-0.9,0-3.4-2.3-3.4c-1.3,0-3.3,2.1-4.6,2.6
			c-1.2,0.5-2.5,0-3.8,0.5c-1.2,0.5-2.4,1-3.5,1.6c-1.1,0.6-2.2,1.1-3.4,1.5c-2.1,0.5-2.5,0-4.1,1.5c-1,1-1.7,2.3-2,3.7
			c-0.6,1.6-0.4,2.1-2.5,2.5c-1.4,0.2-2.8-0.3-3.8-1.4c-0.7,4.1-2.5,1-4.9,3.3c-0.9,0.9-0.6,1.8-0.9,3c-0.5,2.4-0.7,1.4-2.7,2.2
			s-2.3,4.4-1.7,7c0.6,2.6,2.3,3.5-0.6,4.4c-1.4,0.5-2.9-0.1-3.7-1.4c-0.5-0.8,0-8.6-3-4.4c-0.7,1,0,2.7,0,3.8
			c-0.8,2.4-2.8,1.1-3.5,2.5c-0.7,1.5,1,2.4,0.3,3.5c-0.7,1.1-3.1,0.5-4.2,1.2c-1.1,0.7-0.7,1.3-1.7,1.7c-1,0.4-1.7,0-2.3,0
			c-0.6,0-1.4,0-1.2,2c0,3.1,1.6,2.1-1.6,3.5c-0.7,0.3-1,1-1.9,1.3c-0.9,0.3-2.3-0.5-2.8,0.7c-0.6,1.2,1,1.8,1.2,2.4
			c0.1,0.6,0.1,1.2,0,1.9c0,1.1-1.6,0-0.7,1.7c0.4,1,2.5,1.4,3.4,2c-0.5,1.2-0.7,2.5-0.6,3.8c0,1,0.8,1.4,1.1,2.1
			c0.2,0.8,0,1.6,0,2.3c0,0.6,2.1,1.6,2.4,2.6c0.3,0.8,0,1.7-0.7,2.3c-0.8,0.6-2-0.3-2.8,0l-0.7,1.5c-1.9,1.4-4.4,0.5-5.6,2.4
			c-0.8,1-0.4,2.4-1.4,3.4c-1,1-2.9,0.5-3.4,2.2c-0.8,2.9,3.7,1.7,4.6,3.8c0.3,0.9,0,2,0,2.8c0.4,2.3,0.9,0.7,1.7,1.8
			c0.8,1.1,0.3,1.7,1.1,2.6c1.9,2.2,5.6,0,8-0.5c-0.6,1.5-5.6,2.9-6,4.5c-0.3,1.6,3.9,1.7,3,4.6c1.4,1.1,3.3,0.3,4.8,0.6
			c1.5,0.2,2.7,1.1,4.8,0.7c-1.2,1.6-3.5,3.3-3.7,5.6c1.6,0.3,2.8,1,2,2.8c1,0.4,2.1,0.4,3,0c0.3,0.4,0.4,0.9,0.4,1.5
			c0.6-1.2,0.7-2.7,0.3-4l-0.7-0.7c1.8,0.5,3.2,1.9,3.8,3.7c0,1.1-0.7,3.4,0,4.2c1.2,1.7,7,0.7,8.7,1.2c1.7,0.5,2.4,1.7,3.7,2.1
			c1.3,0.5,4.3,0.7,3.8,3c-0.5,2.3-3.4,1.5-0.7,2.8c1.8,0.8,3.9,0.1,4.9-1.5c1.5,0,1.5,1.6,1.6,2.7c1-0.3,1.4-1.2,2.2-1.4
			c0.8-0.2,1.6,0,2.4,0c0.8,0,1.4-1.2,2.2-1.4c0.8-0.2,2,0.4,2.9,0s2-1,2.4-1l1.6,0.6c1.4,0,3.4-1.9,3.9,0.7
			c1.6,0.5,1.4-1.1,2.5-1.4c1.2-0.3,1.4,0.4,2.4,0.7c1.2,0.1,2.4,0.4,3.5,1c2.5,0,5.6-0.5,8.1-0.3l3.6-1.2c1.1-0.5,2.6,0,3.7,0
			c2-0.7,1.7-2.3,3.9-2.9s4.9-2.3,8-1.2c0.8,0.2,1.5,0.5,2.2,0.9l0.6,1.4h1.5c0.7,0.6,1.5,1.1,2.4,1.5h3.9c0,0,3,0,4.6,0.4
			c0,0,0.7,0.6,1.2,0.7c0.6,0.1,0.7-1,1.7-0.5s0.3,2.6,2.9,2.8c2.6,0.2,1.7-1.2,3.3-2.3c1.6-1.1,2.1,1.5,4.3,1.5
			c0.3-1.2,0.3-2.4,0-3.5l-2-2.2c-0.4,0-1.4,0-1.9,0c-0.6,0,0-1.2,0-1.5c0-0.2-2.5,0-3.3-1.5c-1.6-3.3,4.3-1,5.6-0.5
			c1.4,0.4,2,1.6,3.7,1.1c1.7-0.5,1.7-3.4,3.5-0.7c0.5-3.4,6.8,1.1,4-4.4c3.4-0.8,0-2.5,0-3.7c0-2.4,2-1.9,3.3-2.1
			c3.1-0.7,3.7-2.4,3.8-5.6c-0.1-1.3,0.3-2.7,1.1-3.7c1.1-1.8,0.6-1.5,2.6-2h1.2c0.9,0,1.2-0.8,1.9-1.1c0.7-0.3,2.8-0.7,3.2-1.6
			C477.2,300,471.4,300.8,469.9,300.4L469.9,300.4z"/>
		<path class="st2" d="M497,250.1c-1.6-0.8-3.1-1.7-4.6-2.8c-1.1-0.7-1.9-0.6-2.5-2.2c-1.7-4.3,3.7-1.9,6.3-1.9c1,0,2.4,0.5,2.9-0.5
			c0.6-0.9-1-2.7-2-3.1c0.6-1.2,0.8-2.5,0.5-3.8c-1-2.4-1.8,0-3.4-0.6c-1.2-0.3-2.1-1.5-1.8-2.7c0-0.1,0-0.1,0.1-0.2
			c0.5-1.7,1.2-1,2.7-1.5c0.6,0,0.7-1,1.5-1.1c0.8-0.1,1.6,0.7,2.3,0.6c1.3-0.1,2.3-1.1,2.4-2.4c0-2.4-1.4-1-2.6-1.4
			c-1.3-0.5-1.2-1.4-2-2.4c-0.8-1.1-5.6-2.3-3.6-5.6c0.6-0.8,2-0.6,2.4-1.7c0.4-1.1-0.5-1.6-0.6-2.4c-0.5-2-0.3-3.2-2.4-4.2
			c-1.6-0.8-3.4-1.3-5.2-1.5c-1.6,0-2.6,2.5-4.6,0.3c-1-1.1,0-2.9-0.8-3.8c-0.8-1-3.4,0-4.5,0c-1.1,0-3.4,0.4-4.2-0.4v-1.6l-1-1.5
			c-0.4-1.6,1.2-1.8,1-3.4c-0.2-1.6-3-2-3.5-3.4l-0.3,0.5v-0.7c0.8-1.5,1-3.2,0.5-4.8c-2.5,0.6-5.1-0.2-6.9-2
			c-0.4-0.5,0-1.2-0.7-1.7c-0.6-0.5-1.3-0.9-2.1-1.2c-1.7-1.2-1.4-1.2-1.7-2.7c0,0,0.7-0.7,0.5-1.4c-0.2-0.6-1.5-1.3-2.7-1.6
			c-1.2-0.3-2.7,0-3.4-1.6c-0.7-1.6,0.8-2.9,0.5-3.4c-0.3-0.5-2.7-0.7-3.7,0c-3-2.4,1.6-3.9,1.4-5.6c-0.2-1.7-3.6-3-5.1-3
			c-1.5,0-1.7,0.8-3,1.2c-2.7,0.8-4.4-1.8-6.6-2.7c-1.4-0.5-2.7-1.3-3.9-2.1c-1-0.7-3-1.9-4.3-1.2c-1.3,0.7-0.4,2.4-1.1,3.4
			c-0.7,1-2.5,0-4.1,1.4s-1,3.8-2.9,2.1c-1.1-0.9,0-3.4-2.3-3.4c-1.4,0-3.4,2.1-4.6,2.6c-1.2,0.5-2.5,0-3.8,0.5
			c-1.2,0.4-2.4,1-3.5,1.7c-1.1,0.6-2.2,1-3.4,1.4c-2,0.5-2.5,0-4.1,1.5c-1,1.1-1.7,2.3-2,3.7c-0.6,1.6-0.4,2.1-2.5,2.5
			c-1.3,0.3-2.7,0-3.8-0.8c-0.7,4.1-2.5,1-4.9,3.3c-1,0.9-0.7,1.8-0.9,3c-0.5,2.4-0.7,1.4-2.7,2.2s-2.4,4.4-1.7,7
			c0.6,2.6,2.3,3.5-0.5,4.4c-1.4,0.6-3,0-3.7-1.4c-0.5-0.8,0-8.6-3-4.4c-0.8,1.1,0,2.7-0.3,3.8c-0.8,2.3-2.8,1-3.5,2.5
			c-0.7,1.5,1,2.4,0.4,3.5c-0.6,1.1-3.1,0.6-4.2,1.2c-1.1,0.6-0.7,1.3-1.7,1.7s-1.7-0.3-2.3,0c-0.6,0.3-1.4,0-1.2,2.1
			c0,3.1,1.6,2-1.6,3.4c-0.7,0.3-1,1-1.9,1.3c-1,0.3-2.3-0.5-2.8,0.7c-0.6,1.2,1.1,1.8,1.2,2.5c0.1,0.6,0.1,1.2,0,1.8
			c0,1.2-1.6,0-0.7,1.7c0.5,1,2.5,1.4,3.4,2c-0.5,1.2-0.7,2.5-0.6,3.8c0,1,0.8,1.4,1,2.1c0.2,0.7,0,1.6,0,2.3c0,0.7,2.2,1.6,2.5,2.6
			c0.2,0.8,0,1.7-0.7,2.3c-0.8,0.6-2,0-2.7,0l-0.7,1.5c-1.9,1.5-4.4,0.5-5.6,2.4c-0.7,1-0.4,2.4-1.3,3.5c-0.9,1.1-2.9,0.4-3.4,2.1
			c-0.9,2.9,3.7,1.7,4.6,3.8c0.3,0.8-0.3,2,0,2.8c0.5,2.4,0.9,0.7,1.7,1.8c0.8,1.1,0.4,1.7,1.1,2.6c1.9,2.2,5.6,0,7.9-0.5
			c-0.6,1.5-5.6,2.9-6,4.5c-0.3,1.6,3.9,1.7,3,4.6c1.3,1.1,3.3,0.3,4.8,0.6c1.5,0.6,3.2,0.8,4.8,0.6c-1.2,1.6-3.5,3.3-3.7,5.6
			c1.6,0,2.8,1.1,2.1,2.8c1,0.4,2,0.4,3,0c0.3,0.4,0.5,0.9,0.5,1.4c0.6-1.2,0.7-2.6,0.3-3.9l-0.7-0.7c1.8,0.5,3.3,1.9,3.8,3.7
			c0,1.1-0.7,3.3,0,4.2c1.2,1.7,7,0.7,8.7,1.2c1.7,0.5,2.4,1.6,3.7,2.1c1.2,0.5,4.3,0.7,3.8,3c-0.5,2.3-3.5,1.5-0.7,2.8
			c1.8,0.8,3.9,0.1,5-1.5c1.4,0,1.5,1.6,1.6,2.7c1,0,1.4-1.1,2.2-1.4s1.6,0,2.4,0c0.8,0,1.4-1.2,2.3-1.4c0.9-0.2,1.9,0.4,2.8,0
			c0.9-0.4,2.1-0.9,2.4-1l1.1,1c1.4,0,3.4-1.9,3.9,0.7c1.6,0.5,1.4-1.1,2.5-1.4c1.2-0.3,1.5,0.4,2.5,0.7c1,0.3,2.6,0,3.4,1h0.3
			c2.5,0,5.3-0.4,8.1-0.3l3.6-1.2c1.2-0.5,2.6,0,3.8,0c1.1,0,1.6-2.3,3.9-2.9s4.9-2.3,8.1-1.1c0.7,0.2,1.5,0.5,2.1,0.8l0.6,1.5h1.5
			c0.7,0.5,1.5,1,2.4,1.4h3.9c0,0,3,0,4.6,0.4c0,0,0.7,0.7,1.3,0.7s0.7-1,1.6-0.5c1,0.6,0.3,2.5,2.9,2.8c2.6,0.2,1.7-1.2,3.3-2.3
			c2.4-1.7,2.1,1.5,4.4,1.5c0.1-1.2,0-2.4-0.3-3.5l-1.9-2.2c-0.5,0-1.4,0-2,0c-0.6,0,0-1.2,0-1.4s-2.5,0-3.3-1.5
			c-1.6-3.3,4.2-1,5.6-0.5c1.4,0.4,2.1,1.6,3.7,1.1c1.6-0.5,1.7-3.4,3.5-0.7c0.5-3.4,6.7,1.1,3.9-4.4c3.4-0.8,0-2.5,0-3.7
			c0-2.4,1.9-1.9,3.2-2.1c3.1-0.7,3.7-2.3,3.8-5.6c-0.1-1.3,0.3-2.7,1.1-3.7c1-1.8,0.6-1.5,2.6-2h1.3c0.9,0,1.1-0.8,1.9-1.1
			c0.7-0.3,2.8-0.7,3.2-1.5C504.2,249.4,498.4,250.1,497,250.1L497,250.1z"/>
		<path class="st1" d="M317.9,363.4c-1.6-0.8-3.1-1.7-4.6-2.8c-1.2-0.7-1.9-0.7-2.5-2.3c-1.7-4.3,3.7-1.9,6.3-1.9
			c0.9,0,2.4,0.5,2.9-0.5c0.6-0.9-1.1-2.7-2-3.1c0.6-1.2,0.8-2.5,0.5-3.8c-1-2.4-1.8,0-3.5-0.6c-1.2-0.3-2-1.5-1.7-2.8
			c0-0.1,0-0.1,0-0.2c0.5-1.7,1.2-1,2.6-1.5c1.4-0.5,0.8-1,1.5-1.1c0.7-0.1,1.7,0.7,2.3,0.6c1.3-0.1,2.4-1.1,2.4-2.4
			c0-2.5-1.3-1-2.6-1.4c-1.4-0.4-1.1-1.4-2-2.4c-0.8-1.1-5.6-2.3-3.7-5.6c0.6-0.8,2.1-0.6,2.4-1.7s-0.5-1.7-0.6-2.4
			c-0.5-2-0.3-3.2-2.4-4.2c-1.6-0.8-3.4-1.3-5.2-1.4c-1.5,0-2.6,2.5-4.6,0c-1-1.1,0-2.9-0.8-3.8c-0.8-0.9-3.5,0-4.5,0
			c-1,0-3.5,0.4-4.2-0.4v-1.6l-1.1-1.4c-0.4-1.6,1.2-1.8,1.1-3.4s-3-2.1-3.5-3.4l-0.4,0.5v-0.7c0.8-1.5,1-3.2,0.5-4.8
			c-2.5,0.5-5.1-0.3-7-2c-0.4-0.5,0-1.2-0.7-1.7c-0.6-0.5-1.3-0.9-2.1-1.2c-1.7-1.2-1.4-1.2-1.7-2.8c0,0,0.6-0.7,0.5-1.3
			s-1.5-1.3-2.7-1.6c-1.2-0.3-2.7,0-3.4-1.6s0.8-3,0.5-3.4c-0.3-0.4-2.7-0.7-3.7,0c-3-2.4,1.5-3.9,1.4-5.6c-0.2-1.7-3.3-2.3-4.9-2.1
			c-1.6,0.2-1.7,0.9-3,1.3c-2.8,0.8-4.4-1.8-6.6-2.7c-1.4-0.5-2.7-1.3-3.9-2.1c-1.1-0.7-3.1-1.9-4.3-1.2c-1.2,0.7-0.4,2.4-1.2,3.4
			c-0.8,1-2.5,0-4.1,1.4c-1.6,1.4-1,3.8-2.9,2.1c-1.1-0.9,0-3.4-2.3-3.4c-1.3,0-3.3,2.1-4.6,2.6c-1.2,0.6-2.5,0-3.8,0.5
			c-1.2,0.5-2.4,1-3.5,1.6c-1.1,0.6-2.2,1.1-3.4,1.5c-2.1,0.5-2.5,0-4.1,1.4c-1,1.1-1.6,2.3-2,3.7c-0.6,1.6-0.4,2.1-2.5,2.5
			c-1.3,0.3-2.8,0-3.8-0.8c-0.7,4.1-2.5,1-4.8,3.3c-1,0.9-0.7,1.8-1,3c-0.5,2.4-0.7,1.4-2.7,2.2c-2,0.8-2.3,4.4-1.7,7
			c0.6,2.6,2.3,3.4-0.6,4.4c-1.4,0.5-2.9-0.1-3.7-1.4c-0.5-0.8,0-8.6-3-4.4c-0.7,1,0,2.7,0,3.8c-0.8,2.4-2.8,1.1-3.5,2.5
			c-0.7,1.5,1,2.4,0.3,3.5c-0.7,1.1-3.1,0.6-4.2,1.2c-1.1,0.7-0.7,1.3-1.7,1.7c-1,0.4-1.7,0-2.3,0c-0.6,0-1.4,0-1.2,2
			c0,3.1,1.6,2.1-1.6,3.5c-0.7,0.3-1,1-1.9,1.3c-0.9,0.3-2.3-0.5-2.8,0.7c-0.6,1.2,1,1.8,1.2,2.4c0.1,0.6,0.1,1.2,0,1.9
			c0,1.1-1.6,0-0.7,1.7c0.4,1,2.5,1.4,3.4,2c-0.5,1.2-0.7,2.5-0.6,3.8c0,1,0.8,1.4,1.1,2.1c0.2,0.8,0,1.6,0,2.3
			c0,0.6,2.2,1.6,2.4,2.6c0.3,0.8,0,1.7-0.7,2.3c-0.8,0.6-2-0.3-2.8,0l-0.7,1.5c-1.9,1.4-4.4,0.5-5.6,2.4c-0.8,1-0.4,2.4-1.4,3.4
			c-1,1.1-2.9,0.5-3.4,2.2c-0.8,2.9,3.7,1.6,4.6,3.8c0.3,0.9-0.3,2,0,2.8c0.4,2.3,0.9,0.7,1.7,1.8c0.8,1.1,0.3,1.7,1.1,2.6
			c1.9,2.2,5.6,0,8-0.5c-0.6,1.5-5.6,2.9-6,4.5c-0.3,1.6,3.9,1.7,3,4.5c1.4,1.1,3.3,0.4,4.8,0.6c1.5,0.2,2.7,1.1,4.8,0.7
			c-1.2,1.6-3.5,3.3-3.7,5.6c1.6,0,2.8,1,2,2.8c1,0.4,2.1,0.4,3,0c0.3,0.4,0.4,0.9,0.4,1.5c0.6-1.2,0.7-2.7,0.3-4l-0.7-0.7
			c1.8,0.4,3.3,1.8,3.8,3.7c0.3,1.1-0.7,3.4,0,4.2c1.2,1.7,7,0.7,8.7,1.2c1.7,0.5,2.4,1.7,3.7,2.1c1.3,0.5,4.3,0.7,3.8,3
			c-0.5,2.3-3.4,1.5-0.7,2.8c1.8,0.8,3.9,0.1,5-1.5c1.4,0,1.5,1.6,1.6,2.7c1,0,1.4-1.2,2.2-1.4c0.8-0.2,1.6,0,2.4,0
			c0.8,0,1.4-1.2,2.3-1.4c0.9-0.2,1.9,0.4,2.8,0.3c0.9-0.1,2-1,2.4-1l1.6,0.6c1.4,0,3.4-1.9,3.9,0.7c1.6,0.5,1.4-1.1,2.5-1.4
			c1.2-0.3,1.4,0.4,2.4,0.7c1,0.3,2.7,0,3.5,1c2.5,0,5.6-0.5,8.1-0.3l3.6-1.3c1.1-0.4,2.6,0,3.7,0c2-0.7,1.7-2.3,3.9-2.9
			c2.3-0.6,4.9-2.3,8-1.2c0.8,0.2,1.5,0.5,2.2,0.9l0.6,1.4h1.5c0.7,0.6,1.5,1.1,2.4,1.5h3.9c1.2,0,3,0,4.6,0.3c0,0,0.7,0.7,1.2,0.8
			c0.6,0.1,0.7-1,1.7-0.5c1,0.5,0.3,2.6,2.9,2.8c2.6,0.2,1.7-1.2,3.3-2.3c1.6-1.1,2.1,1.5,4.3,1.5c0.3-1.2,0.3-2.4,0-3.5l-2.6-2.5
			c-0.4,0-1.4,0-1.9,0c-0.6,0,0-1.2,0-1.5s-2.5,0-3.3-1.5c-1.6-3.3,4.3-1,5.6-0.5c1.4,0.5,2.1,1.6,3.7,1.1c1.6-0.5,1.7-3.4,3.5-0.7
			c0.5-3.4,6.8,1.1,4-4.3c3.4-0.8,0-2.5,0-3.7c0-2.4,2-1.9,3.3-2.2c3.1-0.7,3.7-2.3,3.8-5.6c-0.1-1.3,0.3-2.7,1.1-3.7
			c1.1-1.8,0.6-1.5,2.6-2h1.2c0.9,0,1.2-0.8,1.9-1.1c0.7-0.3,2.8-0.7,3.2-1.6C325.1,363.1,319.3,363.9,317.9,363.4L317.9,363.4z"/>
		<g>
			<path class="st0" d="M353.4,312.8c-1.6-0.8-3.1-1.7-4.6-2.8c-1.1-0.7-1.9-0.6-2.5-2.3c-1.7-4.3,3.7-1.9,6.3-1.9
				c1,0,2.4,0.5,2.9-0.5c0.6-0.9-1-2.7-2-3.1c0.6-1.2,0.8-2.5,0.5-3.8c-1-2.4-1.8,0-3.4-0.6c-1.2-0.2-2-1.4-1.8-2.6
				c0-0.1,0-0.2,0.1-0.2c0.5-1.7,1.2-1,2.7-1.6c0.6,0,0.7-1,1.5-1.1c0.8-0.1,1.6,0.7,2.3,0.6c1.3-0.1,2.4-1.1,2.5-2.4
				c0-2.4-1.4-1-2.7-1.4c-1.4-0.5-1.1-1.4-2-2.4c-0.8-1.1-5.6-2.3-3.7-5.6c0.6-0.8,2.1-0.6,2.5-1.7s-0.5-1.7-0.6-2.4
				c-0.5-2-0.3-3.2-2.4-4.2c-1.6-0.8-3.4-1.3-5.2-1.4c-1.6,0-2.6,2.5-4.6,0.3c-1-1.1,0-2.9-0.8-3.8c-0.8-1-3.5,0-4.5,0
				c-1,0-3.4,0.4-4.2-0.4V266l-1-1.5c-0.4-1.6,1.2-1.8,1-3.4c-0.2-1.6-3-2-3.5-3.4l-0.3,0.5v-0.7c0.8-1.5,1-3.2,0.5-4.8
				c-2.5,0.6-5.1-0.2-6.9-2c-0.5-0.5,0-1.2-0.7-1.7c-0.6-0.5-1.3-0.9-2.1-1.2c-1.7-1.2-1.4-1.2-1.7-2.8c0,0,0.6-0.7,0.5-1.3
				c-0.2-0.6-1.5-1.3-2.7-1.6c-1.2-0.3-2.7,0-3.4-1.6c-0.7-1.6,0.8-2.9,0.5-3.4c-0.3-0.5-2.7-0.7-3.7,0c-3-2.4,1.6-3.9,1.4-5.6
				c-0.2-1.7-3.3-2.2-4.9-2c-1.6,0.2-1.7,0.8-3,1.2c-2.7,0.8-4.4-1.8-6.6-2.7c-1.4-0.5-2.7-1.3-3.9-2.1c-1.1-0.7-3-1.9-4.3-1.2
				c-1.3,0.7-0.4,2.4-1.1,3.4c-0.7,1-2.5,0-4.1,1.4c-1.6,1.4-1,3.8-2.9,2.1c-1.1-0.9,0-3.4-2.3-3.4c-1.4,0-3.4,2.1-4.6,2.6
				c-1.2,0.5-2.5,0-3.8,0.5c-1.2,0.4-2.4,1-3.5,1.6c-1.1,0.6-2.2,1.1-3.4,1.5c-2.1,0.5-2.5,0-4.1,1.5c-1,1-1.7,2.3-2,3.7
				c-0.6,1.6-0.4,2.1-2.5,2.5c-1.3,0.3-2.7,0-3.8-0.8c-0.7,4.1-2.5,1-4.9,3.3c-1,0.9-0.7,1.8-1,3c-0.5,2.4-0.7,1.4-2.7,2.2
				s-2.3,4.4-1.7,7c0.6,2.6,2.3,3.5-0.6,4.4c-1.4,0.6-3,0-3.7-1.4c-0.5-0.8,0-8.6-3-4.4c-0.8,1.1,0,2.7,0,3.8
				c-0.8,2.3-2.8,1-3.5,2.5c-0.7,1.5,1,2.4,0.4,3.5c-0.6,1.1-3.2,0.5-4.3,1.2c-1.1,0.7-0.7,1.3-1.7,1.7c-1,0.4-1.7,0-2.3,0
				c-0.6,0-1.4,0-1.2,2.1c0,3,1.6,2-1.6,3.4c-0.7,0.3-1,1-1.9,1.3c-0.9,0.3-2.3-0.5-2.8,0.7c-0.6,1.2,1.1,1.8,1.2,2.5
				c0.1,0.6,0.1,1.2,0,1.8c0,1.1-1.6,0-0.7,1.7c0.4,1,2.5,1.4,3.4,2c-0.5,1.2-0.7,2.5-0.6,3.8c0,1,0.8,1.4,1,2.1
				c0.2,0.7,0,1.6,0,2.3c0,0.6,2.2,1.6,2.4,2.6c0.3,0.8,0,1.7-0.7,2.3c-0.8,0.6-2,0-2.8,0l-0.7,1.5c-1.9,1.4-4.4,0.5-5.6,2.4
				c-0.7,1-0.4,2.4-1.3,3.5c-0.9,1.1-2.9,0.4-3.4,2.1c-0.8,2.9,3.8,1.7,4.6,3.8c0.3,0.8-0.3,2,0,2.8c0.4,2.3,0.9,0.7,1.7,1.8
				c0.8,1.1,0.4,1.7,1.1,2.6c1.9,2.2,5.6,0,8-0.5c-0.6,1.5-5.6,2.9-6,4.5c-0.3,1.6,3.9,1.7,3,4.6c1.3,1.1,3.3,0.3,4.8,0.6
				c1.5,0.6,3.2,0.8,4.8,0.6c-1.2,1.6-3.5,3.3-3.7,5.6c1.6,0,2.8,1.1,2.1,2.8c1,0.4,2,0.4,3,0c0.3,0.4,0.5,0.9,0.5,1.4
				c0.6-1.2,0.7-2.6,0.3-3.9l-0.7-0.7c1.8,0.4,3.3,1.8,3.8,3.7c0,1.1-0.7,3.4,0,4.2c1.2,1.7,7,0.7,8.7,1.2c1.7,0.5,2.4,1.6,3.7,2.1
				c1.3,0.5,4.3,0.7,3.8,3c-0.6,2.3-3.4,1.5-0.7,2.8c1.8,0.8,3.9,0.1,5-1.5c1.4,0,1.5,1.6,1.6,2.7c1,0,1.4-1.1,2.2-1.4
				c0.8-0.2,1.6,0,2.4,0c0.8,0,1.4-1.2,2.3-1.4s1.9,0.4,2.8,0c0.9-0.4,2.1-1,2.4-1l1.6,0.6c1.4,0,3.4-1.9,3.9,0.7
				c1.6,0.5,1.4-1.1,2.5-1.4c1.2-0.3,1.4,0.4,2.4,0.7c1,0.3,2.7,0.3,3.5,1c2.5,0,5.6-0.4,8.1-0.3l3.6-1.2c1.2-0.5,2.6,0,3.8,0
				c1.1,0,1.6-2.3,3.9-2.9c2.3-0.6,4.9-2.3,8.1-1.1c0.7,0.2,1.5,0.5,2.1,0.8l0.6,1.5h1.5c0.7,0.6,1.5,1.1,2.4,1.5h3.9
				c1.2,0,3,0,4.6,0.4c0.3,0,0.7,0.7,1.2,0.7s0.7-1,1.7-0.5s0.3,2.5,2.9,2.8c2.6,0.2,1.7-1.2,3.3-2.3c2.4-1.7,2.1,1.5,4.4,1.5
				c0.1-1.2,0-2.4-0.3-3.5l-1.9-2.2c-0.5,0-1.4,0-2,0c-0.6,0,0-1.2,0-1.4c0-0.2-2.5,0-3.3-1.5c-1.6-3.3,4.2-1,5.6-0.5
				c1.4,0.5,2.1,1.6,3.7,1.1c1.6-0.5,1.7-3.4,3.5-0.7c0.5-3.4,6.7,1.1,3.9-4.4c3.4-0.8,0-2.5,0-3.7c0-2.4,2-1.9,3.3-2.1
				c3.1-0.7,3.7-2.3,3.8-5.6c-0.1-1.3,0.3-2.7,1.1-3.7c1-1.8,0.6-1.5,2.6-2h1.2c0.9,0,1.2-0.8,1.9-1.1c0.7-0.3,2.8-0.7,3.2-1.5
				C360.7,312.4,354.9,313.3,353.4,312.8L353.4,312.8z"/>
			<path class="st0" d="M411.5,221.9c-1.6-0.7-3.2-1.7-4.6-2.8c-1.2-0.7-1.9-0.6-2.5-2.2c-1.7-4.3,3.7-1.9,6.3-1.9
				c0.9,0,2.4,0.4,2.9-0.5c0.6-0.8-1.1-2.7-2-3.1c0.6-1.2,0.8-2.5,0.5-3.8c-1-2.4-1.8,0-3.5-0.6c-1.2-0.3-2-1.5-1.7-2.8
				c0-0.1,0-0.1,0-0.2c0.5-1.7,1.2-1,2.6-1.5c1.4-0.5,0.8-1,1.5-1.1c0.7-0.2,1.7,0.7,2.3,0.6c1.3-0.1,2.4-1.2,2.4-2.5
				c0-2.4-1.3-1-2.6-1.4c-1.4-0.4-1.1-1.4-2-2.4c-0.8-1-5.6-2.4-3.7-5.6c0.6-0.8,2.1-0.7,2.4-1.8c0.3-1.1-0.5-1.6-0.6-2.3
				c-0.5-2.1-0.3-3.3-2.4-4.2c-1.6-0.8-3.4-1.3-5.2-1.4c-1.5,0-2.6,2.5-4.6,0c-1-1.1,0-2.9-0.8-3.8c-0.8-0.9-3.5,0-4.5,0
				c-1,0-3.5,0.5-4.2-0.4v-1.6l-1.1-1.4c-0.4-1.7,1.2-1.9,1.1-3.5c-0.2-1.6-3-2-3.5-3.4l-0.4,0.5v-0.7c0.8-1.5,1-3.2,0.5-4.8
				c-2.5,0.6-5.2-0.2-7-2c-0.4-0.5,0-1.1-0.7-1.7c-0.7-0.6-1.5-0.8-2.1-1.2c-1.7-1.1-1.4-1.2-1.7-2.7c0,0,0.6-0.7,0.5-1.4
				c-0.2-0.6-1.5-1.2-2.7-1.6c-1.2-0.3-2.8,0-3.4-1.6c-0.6-1.6,0.8-2.9,0.5-3.3c-0.3-0.4-2.7-0.7-3.7-0.3c-3-2.4,1.5-3.9,1.4-5.6
				c-0.2-1.7-3.3-2.3-4.9-2.1c-1.6,0.2-1.7,0.8-3,1.3c-2.8,0.8-4.4-1.9-6.6-2.7c-1.4-0.6-2.7-1.3-3.9-2.2c-1.1-0.7-3.1-1.9-4.3-1.2
				c-1.2,0.7-0.4,2.5-1.2,3.4c-0.8,0.9-2.5,0-4.1,1.4s-1,3.8-2.9,2.1c-1.1-1,0-3.4-2.3-3.5c-1.3,0-3.3,2.1-4.6,2.7
				c-1.2,0.6-2.5,0-3.8,0.5c-1.2,0.5-2.4,1-3.5,1.7c-1.1,0.6-2.2,1-3.4,1.4c-2.1,0.5-2.5,0-4.1,1.5c-1,1.1-1.7,2.3-2,3.7
				c-0.6,1.6-0.4,2.1-2.5,2.5c-1.3,0.3-2.7,0-3.8-0.8c-0.7,4-2.5,0.9-4.8,3.3c-1,1-0.7,1.9-1,3c-0.5,2.5-0.7,1.4-2.7,2.2
				s-2.3,4.4-1.7,7c0.6,2.6,2.3,3.5-0.6,4.5c-1.4,0.5-3-0.1-3.7-1.4c-0.5-0.8,0-8.6-3-4.4c-0.7,1,0,2.6,0,3.8
				c-0.8,2.3-2.8,1.1-3.5,2.5c-0.7,1.5,1,2.4,0.3,3.5c-0.7,1.1-3.1,0.6-4.2,1.2c-1.1,0.6-0.7,1.4-1.7,1.7c-1,0.4-1.7-0.3-2.3,0
				c-0.6,0.3-1.4,0.3-1.2,2.1c0,3.1,1.6,2-1.6,3.5c-0.7,0.3-1,1-1.9,1.3c-0.9,0.3-2.3-0.5-2.8,0.7c-0.6,1.2,1,1.7,1.2,2.4
				c0.1,0.6,0.1,1.2,0,1.8c0,1.2-1.6,0-0.7,1.7c0.4,1,2.5,1.4,3.4,2c-0.5,1.2-0.7,2.5-0.6,3.8c0,1,0.8,1.4,1.1,2.1
				c0.2,0.7,0,1.6,0,2.3c0,0.7,2.1,1.6,2.4,2.6c0.3,0.8,0,1.8-0.7,2.3c-0.8,0.6-2-0.3-2.8,0l-0.7,1.5c-1.9,1.5-4.4,0.5-5.6,2.4
				c-1.2,1.9-0.4,2.4-1.4,3.5c-1,1.1-2.9,0.5-3.4,2.1c-0.8,2.9,3.7,1.7,4.6,3.8c0.3,0.8,0,2,0,2.8c0.4,2.4,0.9,0.7,1.7,1.9
				c0.8,1.1,0.3,1.7,1.1,2.6c1.9,2.2,5.6,0,8-0.5c-0.6,1.5-5.6,2.9-6,4.4c-0.3,1.5,3.9,1.7,3,4.6c1.4,1.1,3.3,0.3,4.8,0.6
				c1.5,0.6,3.2,0.8,4.8,0.6c-1.2,1.7-3.5,3.3-3.7,5.6c1.6,0,2.8,1.1,2,2.8c1,0.4,2.1,0.4,3,0c0.3,0.4,0.4,0.9,0.4,1.4
				c0.6-1.2,0.7-2.6,0.3-3.9l-0.7-0.7c1.8,0.5,3.2,1.9,3.8,3.7c0,1.1-0.7,3.3,0,4.2c1.2,1.8,7,0.7,8.7,1.2c1.7,0.5,2.4,1.6,3.7,2.1
				c1.3,0.5,4.3,0.6,3.8,3c-0.5,2.4-3.4,1.4-0.7,2.7c1.8,0.8,3.9,0.2,5-1.5c1.4,0,1.5,1.6,1.6,2.6c1,0,1.4-1.1,2.2-1.4
				c0.8-0.2,1.6,0,2.4,0c0.8,0,1.4-1.2,2.3-1.5c0.9-0.2,1.9,0.5,2.8,0c0.9-0.5,2-0.9,2.4-0.9l1.6,0.6c1.4,0,3.4-2,3.9,0.7
				c1.6,0.4,1.4-1.2,2.5-1.5c1.2-0.3,1.4,0.4,2.4,0.7c1,0.3,2.7,0.3,3.5,1.1c2.5,0,5.6-0.4,8.1-0.3l3.6-1.2c1.1-0.4,2.6,0,3.7,0
				c2-0.7,1.7-2.3,3.9-2.9s4.9-2.2,8-1.1c0.8,0.2,1.5,0.5,2.2,0.8l0.6,1.5h1.5c0.7,0.6,1.5,1,2.4,1.4h3.9c0,0,3,0,4.6,0.4
				c0,0,0.7,0.7,1.2,0.8s0.7-1,1.7-0.5c1,0.5,0.3,2.5,2.9,2.8c2.6,0.2,1.7-1.2,3.3-2.3c1.6-1.1,2.1,1.5,4.3,1.4
				c0.3-1.2,0.3-2.4,0-3.5l-2-2.1c-0.4,0-1.4,0-1.9,0s0-1.2,0-1.5c0-0.2-2.5,0-3.3-1.5c-1.6-3.3,4.3-1,5.6-0.5
				c1.4,0.5,2,1.7,3.7,1.1s1.7-3.3,3.5-0.7c0.5-3.4,6.8,1.1,4-4.3c3.4-0.8,0-2.5,0-3.8c0-2.4,2-1.9,3.3-2.1c3.1-0.7,3.7-2.3,3.8-5.6
				c-0.1-1.3,0.3-2.6,1.1-3.7c1.1-1.8,0.6-1.6,2.6-2.1h1.2c0.9,0,1.2-0.8,1.9-1.1c0.7-0.3,2.8-0.7,3.2-1.5
				C418.8,221.6,413,222.4,411.5,221.9L411.5,221.9z"/>
			<path class="st0" d="M317.9,168.3c-1.6-0.8-3.1-1.7-4.6-2.8c-1.2-0.7-1.9-0.6-2.5-2.2c-1.7-4.3,3.7-1.9,6.3-1.9
				c0.9,0,2.4,0.5,2.9-0.5c0.6-0.9-1.1-2.7-2-3.1c0.6-1.2,0.8-2.5,0.5-3.8c-1-2.4-1.8,0-3.5-0.6c-1.2-0.3-2-1.4-1.7-2.7
				c0-0.1,0-0.1,0.1-0.2c0.5-1.7,1.2-1,2.6-1.6c1.4-0.6,0.8-1,1.5-1.1c0.7-0.1,1.7,0.7,2.3,0.6c1.3-0.1,2.4-1.1,2.4-2.4
				c0-2.4-1.3-1-2.6-1.4c-1.4-0.5-1.1-1.4-2-2.4c-0.8-1.1-5.6-2.3-3.7-5.6c0.6-0.8,2.1-0.6,2.4-1.7c0.3-1.1-0.5-1.6-0.6-2.3
				c-0.5-2.1-0.3-3.3-2.4-4.2c-1.6-0.8-3.4-1.3-5.2-1.5c-1.5,0-2.6,2.5-4.6,0.3c-1-1.1,0-2.9-0.8-3.8c-0.8-1-3.5,0-4.5,0
				c-1,0-3.5,0.4-4.2-0.4v-1.6l-1.1-1.5c-0.4-1.6,1.2-1.8,1.1-3.4s-3-2-3.5-3.4l-0.4,0.5v-0.7c0.8-1.5,1-3.2,0.5-4.8
				c-2.5,0.6-5.2-0.2-7-2c-0.4-0.5,0-1.2-0.7-1.7s-1.5-0.8-2.1-1.2c-1.7-1.2-1.4-1.2-1.7-2.7c0,0,0.6-0.7,0.5-1.4
				c-0.2-0.6-1.5-1.3-2.7-1.6c-1.2-0.3-2.7,0-3.4-1.6c-0.7-1.6,0.8-2.9,0.5-3.4c-0.3-0.5-2.7-0.7-3.7,0c-3-2.4,1.5-3.9,1.4-5.6
				c-0.2-1.7-3.3-2.2-4.9-2c-1.6,0.2-1.7,0.8-3,1.2c-2.8,0.8-4.4-1.8-6.6-2.7c-1.4-0.5-2.7-1.2-3.9-2.1c-1.1-0.7-3.1-1.9-4.3-1.2
				c-1.2,0.7-0.4,2.4-1.2,3.4c-0.8,1-2.5,0-4.1,1.4c-1.6,1.4-1,3.8-2.9,2.1c-1.1-1,0-3.4-2.3-3.5c-1.3,0-3.3,2.1-4.6,2.6
				c-1.2,0.5-2.5,0-3.8,0.5c-1.2,0.4-2.4,1-3.5,1.7c-1.1,0.6-2.2,1-3.4,1.4c-2.1,0.5-2.5,0-4.1,1.5c-1,1.1-1.7,2.3-2,3.7
				c-0.6,1.6-0.4,2.1-2.5,2.5c-1.3,0.3-2.8,0-3.8-0.8c-0.7,4.1-2.5,1-4.8,3.3c-1,0.9-0.7,1.8-1,3c-0.5,2.4-0.7,1.4-2.7,2.2
				s-2.3,4.4-1.7,7c0.6,2.6,2.3,3.5-0.6,4.4c-1.5,0.6-3.3-0.1-3.9-1.7c0,0,0,0,0,0c-0.5-0.8,0-8.6-3-4.4c-0.7,1.1,0,2.7,0,3.8
				c-0.8,2.3-2.8,1-3.5,2.5c-0.7,1.5,1,2.4,0.3,3.5c-0.7,1.1-3.1,0.6-4.2,1.2c-1.1,0.6-0.7,1.3-1.7,1.7c-1,0.4-1.7,0-2.3,0
				c-0.6,0-1.4,0-1.2,2.1c0,3.1,1.6,2-1.6,3.4c-0.7,0.3-1,1-1.9,1.3c-0.9,0.3-2.3-0.5-2.8,0.7c-0.6,1.2,1,1.8,1.2,2.5
				c0.1,0.6,0.1,1.2,0,1.8c0,1.2-1.6,0-0.7,1.7c0.4,1,2.5,1.4,3.4,2c-0.5,1.2-0.7,2.5-0.6,3.8c0,1,0.8,1.4,1.1,2.1
				c0.2,0.7,0,1.6,0,2.3s2.2,1.6,2.4,2.6c0.3,0.8,0,1.7-0.7,2.3c-0.8,0.6-2,0-2.8,0l-0.7,1.5c-1.9,1.5-4.4,0.5-5.6,2.4
				c-1.2,1.9-0.4,2.4-1.4,3.5c-1,1.1-2.9,0.4-3.4,2.1c-0.8,2.9,3.7,1.7,4.6,3.8c0.3,0.8-0.3,2,0,2.8c0.4,2.4,0.9,0.7,1.7,1.8
				c0.8,1.1,0.3,1.8,1.1,2.6c1.9,2.2,5.6,0,8-0.5c-0.6,1.5-5.6,3-6,4.5c-0.3,1.5,3.9,1.7,3,4.6c1.4,1.1,3.3,0.3,4.8,0.6
				c1.5,0.6,3.2,0.8,4.8,0.6c-1.2,1.6-3.5,3.3-3.7,5.6c1.6,0,2.8,1.1,2,2.8c1,0.4,2.1,0.4,3,0c0.3,0.4,0.4,0.9,0.4,1.4
				c0.6-1.2,0.7-2.6,0.3-3.9l-0.7-0.7c1.8,0.5,3.3,1.9,3.8,3.7c0.3,1.1-0.7,3.3,0,4.2c1.2,1.7,7,0.7,8.7,1.2
				c1.7,0.5,2.4,1.6,3.7,2.1c1.3,0.5,4.3,0.7,3.8,3c-0.5,2.3-3.4,1.5-0.7,2.8c1.8,0.8,3.9,0.1,5-1.5c1.4,0.3,1.5,1.6,1.6,2.7
				c1,0,1.4-1.1,2.2-1.4c0.8-0.2,1.6,0,2.4,0c0.8,0,1.4-1.2,2.3-1.4c0.9-0.2,1.9,0.4,2.8,0c0.9-0.4,2-0.9,2.4-0.9l1.6,0.6
				c1.4,0,3.4-1.9,3.9,0.7c1.6,0.5,1.4-1.1,2.5-1.4c1.2-0.3,1.4,0.4,2.4,0.7c1,0.3,2.7,0,3.5,1c2.5,0,5.6-0.4,8.1-0.3l3.6-1.2
				c1.1-0.5,2.6,0,3.7,0c2-0.7,1.7-2.3,3.9-2.9c2.3-0.6,4.9-2.3,8-1.1c0.8,0.2,1.5,0.5,2.2,0.8l0.6,1.5h1.5c0.7,0.5,1.5,1,2.4,1.4
				h3.9c1.2,0,3,0,4.6,0.4c0,0,0.7,0.7,1.2,0.8c0.6,0.1,0.7-1.1,1.7-0.5c1,0.6,0.3,2.5,2.9,2.8c2.6,0.2,1.7-1.2,3.3-2.3
				c1.6-1.1,2.1,1.5,4.3,1.5c0.3-1.2,0.3-2.4,0-3.5l-2.5-2.3c-0.4,0-1.4,0-1.9,0c-0.6,0,0-1.2,0-1.4c0-0.2-2.5,0-3.3-1.5
				c-1.6-3.3,4.3-1,5.6-0.5c1.4,0.5,2.1,1.6,3.7,1.1c1.6-0.5,1.7-3.4,3.5-0.7c0.5-3.4,6.8,1.1,4-4.4c3.4-0.8,0-2.5,0-3.7
				c0-2.4,2-1.9,3.3-2.1c3.1-0.7,3.7-2.3,3.8-5.6c-0.1-1.3,0.3-2.7,1.1-3.7c1.1-1.8,0.6-1.5,2.6-2h1.2c0.9,0,1.2-0.8,1.9-1.1
				c0.7-0.3,2.6-0.8,2.6-1.4C325.1,168,319.3,168.8,317.9,168.3L317.9,168.3z"/>
		</g>
		<path class="st2" d="M363.6,265.5c-1.6-0.7-3.2-1.7-4.6-2.8c-1.1-0.7-1.9-0.7-2.5-2.3c-1.7-4.3,3.7-1.9,6.3-1.9c1,0,2.4,0.5,3-0.5
			c0.6-0.9-1.1-2.7-2-3.1c0.6-1.2,0.7-2.5,0.5-3.8c-1-2.4-1.7,0-3.4-0.6c-1.2-0.3-2.1-1.5-1.8-2.7c0-0.1,0-0.1,0.1-0.2
			c0.5-1.7,1.3-1,2.7-1.5c1.4-0.5,0.7-1,1.5-1.1c0.8-0.1,1.7,0.7,2.3,0.6c1.3-0.1,2.3-1.1,2.4-2.4c0-2.4-1.4-1-2.6-1.4
			c-1.3-0.4-1.2-1.4-2-2.4c-0.8-1.1-5.6-2.3-3.6-5.6c0.6-0.8,2.1-0.6,2.4-1.7s-0.5-1.7-0.6-2.4c-0.5-2-0.3-3.2-2.4-4.2
			c-1.6-0.8-3.4-1.3-5.2-1.4c-1.5,0-2.6,2.5-4.6,0.3c-1-1.1,0-2.9-0.8-3.8c-0.8-0.9-3.4,0-4.4,0c-1,0-3.5,0.4-4.2-0.4v-1.6l-1-1.5
			c-0.4-1.6,1.2-1.8,1-3.4c-0.2-1.6-3-2-3.5-3.4l-0.5,0.3V210c0.8-1.5,0.9-3.2,0.5-4.8c-2.6,0.6-5.3-0.2-7.2-2.1
			c-0.4-0.5,0-1.2-0.7-1.7c-0.6-0.5-1.3-0.9-2-1.2c-1.7-1.2-1.4-1.2-1.8-2.8c0,0,0.7-0.7,0.5-1.3c-0.2-0.6-1.5-1.3-2.6-1.6
			c-1.1-0.3-2.8,0-3.4-1.6c-0.6-1.6,0.7-2.9,0.5-3.4c-0.3-0.5-2.7-0.7-3.6,0c-3-2.4,1.5-3.9,1.3-5.6c-0.2-1.7-3.3-2.3-4.8-2.1
			c-1.6,0.2-1.7,0.9-3,1.3c-2.7,0.8-4.3-1.8-6.6-2.7c-1.4-0.5-2.7-1.3-3.9-2.1c-1-0.7-3-1.9-4.3-1.2c-1.2,0.7-0.4,2.4-1.2,3.4
			c-0.8,1-2.5,0-4.1,1.4c-1.6,1.4-1,3.8-2.9,2.1c-1.1-0.9,0-3.4-2.3-3.4c-1.4,0-3.4,2.1-4.6,2.6c-1.2,0.5-2.5,0-3.8,0.5
			c-1.2,0.5-2.4,1-3.5,1.6c-1.1,0.6-2.2,1.1-3.4,1.5c-2,0.5-2.5,0-4.1,1.5c-0.9,1.1-1.6,2.3-2,3.7c-0.6,1.6-0.3,2.1-2.5,2.5
			c-1.3,0.3-2.7,0-3.8-0.8c-0.7,4.1-2.5,1-4.9,3.3c-0.9,0.9-0.7,1.8-0.9,3c-0.5,2.4-0.7,1.4-2.7,2.2s-2.3,4.4-1.7,7
			c0.6,2.6,2.3,3.5-0.6,4.4c-1.4,0.5-2.9-0.1-3.7-1.4c-0.5-0.8,0-8.6-3-4.4c-0.8,1,0,2.7,0,3.8c-0.8,2.4-2.8,1.1-3.5,2.5
			c-0.7,1.5,1.1,2.4,0.4,3.5c-0.7,1.1-3.1,0.6-4.2,1.2c-1.1,0.7-0.7,1.3-1.7,1.7c-1,0.4-1.7,0-2.3,0s-1.4,0-1.2,2
			c0,3.1,1.6,2.1-1.5,3.5c-0.8,0.3-1,1-2,1.3c-1,0.3-2.3-0.5-2.8,0.7c-0.6,1.2,1.1,1.8,1.2,2.4c0.1,0.6,0.1,1.2,0,1.9
			c0,1.1-1.5,0-0.7,1.7c0.5,1,2.6,1.4,3.4,2c-0.5,1.2-0.7,2.5-0.6,3.8c0,1,0.8,1.4,1,2.1c0.2,0.8,0,1.6,0,2.3c0,0.6,2.2,1.6,2.5,2.6
			c0.3,0.8,0,1.7-0.7,2.3c-0.7,0.6-2-0.3-2.7,0l-0.7,1.5c-1.8,1.4-4.4,0.5-5.6,2.4c-0.8,1-0.4,2.4-1.4,3.4c-1,1-2.9,0.5-3.4,2.2
			c-0.8,2.9,3.7,1.7,4.6,3.8c0.3,0.9-0.3,2,0,2.8c0.4,2.3,0.9,0.7,1.7,1.8c0.8,1.1,0.3,1.7,1.1,2.6c1.9,2.2,5.6,0,8-0.5
			c-0.6,1.5-5.6,2.9-6,4.5c-0.4,1.6,4,1.7,3,4.5c1.3,1.1,3.3,0.4,4.8,0.6c1.6,0.2,2.6,1.1,4.7,0.7c-1.2,1.6-3.5,3.3-3.7,5.6
			c1.7,0,2.8,1,2.1,2.8c1,0.4,2.1,0.4,3,0c0.3,0.4,0.4,0.9,0.4,1.5c0.6-1.3,0.7-2.7,0.3-4l-0.7-0.7c1.8,0.5,3.2,1.9,3.7,3.7
			c0,1.1-0.6,3.4,0,4.2c1.2,1.7,7,0.7,8.7,1.2c1.7,0.5,2.4,1.7,3.7,2.1c1.3,0.5,4.3,0.7,3.8,3c-0.5,2.3-3.5,1.5-0.7,2.8
			c1.8,0.8,3.9,0.1,5-1.5c1.5,0,1.5,1.6,1.6,2.7c1,0,1.4-1.2,2.3-1.4s1.6,0,2.4,0c0.8,0,1.4-1.2,2.3-1.4c0.9-0.2,2,0.4,2.9,0.3
			s2-1,2.4-1l1.6,0.6c1.4,0,3.4-1.9,3.9,0.7c1.6,0.5,1.4-1.1,2.5-1.4c1.1-0.3,1.5,0.4,2.5,0.7c1.2,0.1,2.4,0.4,3.5,1
			c2.6,0,5.6-0.4,8.1-0.3l3.6-1.2c1.2-0.5,2.6,0,3.8,0s1.6-2.3,3.9-2.9c2.3-0.6,5-2.3,8.1-1.2c0.8,0.2,1.5,0.5,2.2,0.9l0.6,1.4h1.5
			c0.7,0.6,1.5,1.1,2.4,1.5h3.9c0,0,3,0,4.7,0.4c0,0,0.6,0.6,1.2,0.7c0.6,0.1,0.7-1,1.7-0.5c1,0.5,0.3,2.6,2.9,2.8s1.7-1.2,3.3-2.3
			c2.4-1.7,2.1,1.5,4.4,1.5c0.2-1.2,0.2-2.4,0-3.5l-2-2.2c-0.4,0-1.4,0-1.9,0c-0.6,0,0-1.2,0-1.5c0-0.2-2.5,0-3.3-1.5
			c-1.6-3.3,4.2-1,5.6-0.5c1.4,0.5,2,1.6,3.7,1.1c1.7-0.5,1.7-3.4,3.5-0.7c0.5-3.4,6.8,1.1,3.9-4.4c3.4-0.8,0-2.5,0-3.7
			c0-2.4,2-1.9,3.2-2.2c3.2-0.7,3.8-2.3,3.8-5.6c-0.1-1.3,0.3-2.7,1.1-3.7c1-1.8,0.6-1.5,2.6-2h1.3c0.9,0,1.1-0.8,1.9-1.1
			c0.7-0.3,2.8-0.7,3.2-1.6C370.9,265.1,365.1,266,363.6,265.5L363.6,265.5z"/>
		<path class="st2" d="M231,257.8c-1.6-0.8-3.1-1.7-4.6-2.8c-1.1-0.7-1.9-0.7-2.5-2.3c-1.7-4.3,3.7-1.9,6.3-1.9c1,0,2.4,0.5,2.9-0.5
			c0.6-0.9-1-2.7-2-3.1c0.6-1.2,0.8-2.5,0.5-3.8c-1-2.4-1.8,0-3.4-0.6c-1.2-0.3-2.1-1.5-1.8-2.7c0-0.1,0-0.1,0.1-0.2
			c0.5-1.7,1.2-1,2.6-1.5c1.4-0.5,0.8-1,1.6-1.1c0.8-0.1,1.6,0.6,2.3,0.6c1.3-0.1,2.4-1.1,2.4-2.4c0-2.5-1.3-1-2.6-1.4
			c-1.4-0.4-1.1-1.4-2-2.4c-0.8-1-5.6-2.3-3.7-5.6c0.6-0.8,2.1-0.7,2.4-1.8c0.3-1.1-0.5-1.6-0.6-2.3c-0.5-2-0.3-3.2-2.4-4.2
			c-1.6-0.8-3.4-1.3-5.2-1.4c-1.5,0-2.6,2.5-4.6,0c-1-1.1,0-2.9-0.8-3.8c-0.8-0.9-3.5,0-4.5,0c-1,0-3.4,0.5-4.2-0.4v-1.6l-1-1.4
			c-0.5-1.6,1.2-1.8,1-3.5c-0.2-1.7-3-2-3.5-3.4l-0.4,0.5v-0.6c0.8-1.5,1-3.2,0.5-4.8c-2.5,0.5-5.1-0.3-7-2c-0.4-0.5,0-1.2-0.7-1.7
			c-0.6-0.5-1.3-0.9-2.1-1.2c-1.7-1.2-1.4-1.3-1.7-2.8c0,0,0.6-0.7,0.5-1.3c-0.2-0.6-1.5-1.3-2.7-1.6c-1.2-0.3-2.7,0-3.4-1.6
			c-0.7-1.6,0.8-3,0.5-3.4c-0.3-0.4-2.7-0.7-3.7-0.3c-3-2.3,1.6-3.9,1.4-5.6c-0.2-1.7-3.3-2.3-4.9-2.1c-1.6,0.2-1.7,0.9-3,1.3
			c-2.7,0.8-4.4-1.8-6.6-2.7c-1.4-0.6-2.7-1.3-3.9-2.1c-1.1-0.7-3.1-2-4.3-1.2c-1.2,0.7-0.4,2.5-1.1,3.4c-0.7,1-2.5,0-4.2,1.4
			c-1.6,1.4-1,3.8-2.9,2.1c-1.1-1,0-3.4-2.3-3.4c-1.3,0-3.3,2.1-4.5,2.6c-1.2,0.6-2.5,0-3.9,0.5c-1.2,0.4-2.4,1-3.5,1.6
			c-1.1,0.6-2.2,1.1-3.4,1.4c-2.1,0.5-2.5,0-4.1,1.5c-1,1.1-1.7,2.3-2,3.7c-0.6,1.6-0.4,2.1-2.5,2.5c-1.3,0.3-2.7,0-3.8-0.8
			c-0.7,4.1-2.5,0.9-4.8,3.3c-1,1-0.7,1.9-1,3.1c-0.5,2.4-0.7,1.3-2.7,2.1c-2,0.8-2.3,4.4-1.7,7.1c0.6,2.6,2.3,3.4-0.6,4.4
			c-1.4,0.5-3-0.1-3.7-1.4c-0.5-0.8,0-8.5-3-4.4c-0.7,1,0,2.6,0,3.8c-0.8,2.3-2.8,1.1-3.5,2.5c-0.7,1.5,1,2.4,0.4,3.5
			c-0.6,1.1-3.2,0.6-4.3,1.2c-1.1,0.7-0.7,1.3-1.7,1.7c-1,0.4-1.7,0-2.3,0c-0.6,0-1.4,0.3-1.2,2.1c0,3.1,1.6,2.1-1.6,3.5
			c-0.7,0.3-1,1-1.9,1.3c-0.9,0.3-2.3-0.5-2.8,0.7c-0.6,1.2,1,1.7,1.2,2.4c0.1,0.6,0.1,1.2,0,1.9c0,1.1-1.6,0-0.7,1.7
			c0.4,1,2.5,1.5,3.4,2c-0.5,1.2-0.7,2.5-0.6,3.8c0,1,0.8,1.4,1,2.1c0.2,0.7,0,1.7,0,2.3c0,0.6,2.2,1.6,2.4,2.6
			c0.3,0.8,0,1.8-0.7,2.3c-0.8,0.6-2-0.3-2.8,0l-0.7,1.5c-1.9,1.4-4.4,0.5-5.6,2.4c-0.8,1-0.4,2.4-1.4,3.4c-1,1.1-2.9,0.5-3.4,2.1
			c-0.8,2.9,3.7,1.7,4.6,3.8c0.4,0.9-0.3,2,0,2.8c0.4,2.4,0.9,0.7,1.7,1.9c0.8,1.1,0.4,1.7,1.1,2.6c1.9,2.2,5.6,0,8-0.5
			c-0.6,1.5-5.6,2.9-6,4.4c-0.3,1.5,3.9,1.7,3,4.6c1.3,1.1,3.3,0.4,4.8,0.6c1.5,0.6,3.2,0.8,4.8,0.7c-1.2,1.6-3.5,3.3-3.7,5.6
			c1.6,0,2.8,1,2,2.8c1,0.4,2.1,0.4,3,0c0.3,0.4,0.4,0.9,0.5,1.4c0.6-1.2,0.7-2.6,0.3-3.9l-0.7-0.7c1.8,0.4,3.3,1.8,3.8,3.7
			c0.3,1.1-0.7,3.3,0,4.2c1.2,1.8,7,0.8,8.7,1.2c1.7,0.5,2.4,1.7,3.7,2.1c1.3,0.5,4.3,0.7,3.8,3c-0.5,2.3-3.4,1.4-0.7,2.8
			c1.8,0.8,3.9,0.1,5-1.5c1.4,0,1.5,1.6,1.6,2.6c1,0,1.4-1.1,2.2-1.4c0.8-0.2,1.6,0,2.4,0c0.8,0,1.4-1.2,2.3-1.5
			c0.9-0.2,1.9,0.5,2.8,0.3c0.9-0.1,2-1,2.4-1l1.6,0.6c1.4,0,3.4-2,3.9,0.7c1.6,0.5,1.4-1.1,2.5-1.5c1.2-0.3,1.4,0.4,2.4,0.7
			c1,0.3,2.7,0,3.5,1c2.5,0,5.6-0.5,8.1-0.4l3.6-1.2c1.2-0.4,2.6,0,3.8,0c2-0.7,1.6-2.3,3.9-2.8c2.3-0.6,4.9-2.3,8.1-1.2
			c0.8,0.2,1.5,0.5,2.1,0.9l0.6,1.4h1.5c0.7,0.6,1.5,1.1,2.4,1.5h3.9c1.2,0,3,0,4.6,0.3c0.3,0,0.7,0.7,1.2,0.8s0.7-1,1.7-0.5
			s0.3,2.6,2.9,2.8c2.6,0.2,1.7-1.2,3.3-2.3s2.1,1.5,4.4,1.4c0.1-1.2,0-2.4-0.3-3.5l-2-2.1c-0.4,0-1.4,0-1.9,0c-0.6,0,0-1.2,0-1.5
			c0-0.2-2.5,0-3.3-1.5c-1.6-3.3,4.3-1,5.6-0.6c1.4,0.4,2.1,1.7,3.7,1.2s1.7-3.4,3.5-0.7c0.5-3.4,6.7,1.1,3.9-4.3
			c3.4-0.8,0-2.5,0-3.8c0-2.4,2-1.9,3.3-2.1c3.1-0.7,3.7-2.3,3.8-5.6c-0.1-1.3,0.3-2.6,1.1-3.7c1.1-1.8,0.6-1.6,2.6-2.1h1.2
			c0.9,0,1.2-0.8,1.9-1.2c0.7-0.3,2.8-0.7,3.2-1.5C238.2,257.4,232.4,258.3,231,257.8L231,257.8z"/>
		<path class="st1" d="M160.2,277.1c-1.6-0.7-3.2-1.7-4.6-2.8c-1.1-0.7-1.9-0.6-2.5-2.2c-1.7-4.3,3.7-1.9,6.3-1.9
			c1,0,2.4,0.5,2.9-0.5c0.6-0.9-1-2.7-2-3.1c0.6-1.2,0.8-2.5,0.5-3.8c-1-2.4-1.8,0-3.4-0.6c-1.2-0.2-2-1.4-1.8-2.6
			c0-0.1,0-0.2,0.1-0.2c0.5-1.7,1.2-1,2.7-1.6c0.6,0,0.7-1,1.5-1.1c0.8-0.1,1.6,0.7,2.3,0.6c1.3-0.1,2.3-1.1,2.4-2.4
			c0-2.4-1.4-1-2.6-1.4c-1.3-0.5-1.2-1.4-2-2.4s-5.6-2.3-3.6-5.6c0.6-0.8,2-0.6,2.4-1.7c0.4-1.1-0.5-1.6-0.6-2.4
			c-0.5-2-0.3-3.2-2.4-4.2c-1.6-0.8-3.4-1.3-5.2-1.4c-1.6,0-2.6,2.5-4.6,0.3c-1-1.1,0-2.9-0.8-3.8s-3.4,0-4.5,0s-3.4,0.4-4.2-0.4
			v-1.6l-1-1.5c-0.4-1.6,1.2-1.8,1-3.4c-0.2-1.6-3-2-3.5-3.4l-0.3,0.5v-0.7c0.8-1.5,1-3.2,0.5-4.8c-2.5,0.6-5.1-0.2-6.9-2
			c-0.4-0.5,0-1.2-0.7-1.7c-0.7-0.5-1.5-0.8-2.1-1.2c-1.7-1.2-1.4-1.2-1.7-2.8c0,0,0.7-0.7,0.5-1.3c-0.2-0.6-1.5-1.3-2.7-1.6
			c-1.2-0.3-2.7,0-3.4-1.6c-0.7-1.6,0.8-2.9,0.5-3.4c-0.3-0.5-2.7-0.7-3.7,0c-3-2.4,1.6-3.9,1.4-5.6c-0.2-1.7-3.3-2.2-4.8-2
			c-1.6,0.2-1.7,0.8-3,1.2c-2.7,0.8-4.4-1.8-6.6-2.7c-1.4-0.5-2.7-1.3-3.9-2.1c-1-0.7-3-1.9-4.3-1.2c-1.3,0.7-0.4,2.4-1.1,3.4
			c-0.7,1-2.5,0-4.1,1.4c-1.6,1.4-1,3.8-2.9,2.1c-1.1-0.9,0-3.4-2.3-3.4c-1.4,0-3.4,2.1-4.6,2.6c-1.2,0.5-2.5,0-3.8,0.5
			c-1.2,0.4-2.4,1-3.5,1.7c-1.1,0.6-2.2,1-3.4,1.4c-2.1,0.5-2.5,0-4.1,1.5c-1,1.1-1.7,2.3-2,3.7c-0.6,1.6-0.4,2.1-2.5,2.5
			c-1.4,0.3-2.9-0.2-3.9-1.2c-0.7,4.1-2.5,1-4.9,3.3c-1,0.9-0.7,1.8-0.9,3c-0.5,2.4-0.7,1.4-2.7,2.2s-2.4,4.4-1.7,7
			c0.6,2.6,2.3,3.5-0.5,4.4c-1.4,0.6-3,0-3.7-1.4c-0.5-0.8,0-8.6-3-4.4c-0.8,1.1,0,2.7,0,3.8c-0.8,2.3-2.8,1-3.5,2.5
			c-0.7,1.5,1,2.4,0.4,3.5c-0.6,1.1-3.1,0.5-4.2,1.2c-1.1,0.7-0.7,1.3-1.7,1.7c-1,0.4-1.7,0-2.3,0c-0.6,0-1.4,0-1.2,2.1
			c0,3.1,1.6,2-1.6,3.4c-0.7,0.3-1,1-1.9,1.3c-1,0.3-2.3-0.5-2.8,0.7c-0.6,1.2,1.1,1.8,1.2,2.5c0.1,0.6,0.1,1.2,0,1.8
			c0,1.2-1.6,0-0.7,1.7c0.5,1,2.5,1.4,3.4,2c-0.5,1.2-0.7,2.5-0.6,3.8c0,1,0.8,1.4,1,2.1c0.2,0.7,0,1.6,0,2.3c0,0.6,2.2,1.6,2.5,2.6
			c0.2,0.8,0,1.7-0.7,2.3c-0.8,0.6-2,0-2.7,0l-0.7,1.5c-1.9,1.5-4.4,0.5-5.9,2.4c-0.7,1-0.4,2.4-1.3,3.5c-0.9,1.1-2.9,0.4-3.4,2.1
			c-0.9,2.9,3.7,1.7,4.6,3.8c0.3,0.8-0.3,2,0,2.8c0.5,2.3,0.9,0.7,1.7,1.8c0.8,1.1,0.4,1.7,1.1,2.6c1.9,2.2,5.6,0,7.9-0.5
			c-0.6,1.5-5.6,2.9-6,4.5c-0.3,1.6,3.9,1.7,3,4.6c1.3,1.1,3.3,0.3,4.8,0.6c1.5,0.6,3.2,0.8,4.8,0.6c-1.2,1.6-3.5,3.3-3.7,5.6
			c1.6,0.3,2.8,1.1,2.1,2.8c1,0.4,2,0.4,3,0c0.3,0.4,0.5,0.9,0.5,1.4c0.6-1.2,0.7-2.6,0.3-3.9l-0.7-0.7c1.8,0.5,3.3,1.9,3.8,3.7
			c0,1.1-0.7,3.3,0,4.2c1.2,1.7,7,0.7,8.7,1.2c1.7,0.5,2.4,1.6,3.7,2.1c1.2,0.5,4.3,0.7,3.8,3c-0.5,2.3-3.5,1.5-0.7,2.8
			c1.8,0.8,3.9,0.1,5-1.5c1.4,0,1.5,1.6,1.6,2.7c1,0,1.4-1.1,2.2-1.4c0.8-0.2,1.6,0,2.4,0c0.8,0,1.4-1.2,2.3-1.4s1.9,0.4,2.8,0.3
			s2.1-1,2.4-1l1.6,0.6c1.4,0,3.4-1.9,3.9,0.7c1.6,0.5,1.4-1.1,2.5-1.4c1.2-0.3,1.5,0.4,2.5,0.7c1,0.3,2.6,0,3.4,1
			c2.5,0,5.6-0.4,8.1-0.3l3.6-1.2c1.2-0.5,2.6,0,3.8,0c1.1,0,1.6-2.3,3.9-2.9c2.3-0.6,4.9-2.3,8.1-1.1c0.7,0.2,1.5,0.5,2.1,0.8
			l0.6,1.5h1.5c0.7,0.5,1.5,1,2.4,1.4h3.9c1.2,0,3,0,4.6,0.4c0.3,0,0.7,0.7,1.3,0.8c0.6,0.1,0.7-1.1,1.7-0.5c1,0.6,0.3,2.5,2.9,2.8
			c2.6,0.2,1.7-1.2,3.3-2.3c2.4-1.7,2.1,1.5,4.4,1.5c0.1-1.2,0-2.4-0.3-3.5l-1.9-2.2c-0.5,0-1.4,0-2,0s0-1.2,0-1.4s-2.5,0-3.3-1.5
			c-1.6-3.3,4.2-1,5.6-0.5c1.4,0.5,2.1,1.6,3.7,1.1c1.6-0.5,1.7-3.4,3.5-0.7c0.5-3.4,6.7,1.1,3.9-4.4c3.4-0.8,0-2.5,0-3.7
			c0-2.4,1.9-1.9,3.2-2.1c3.2-0.7,3.7-2.3,3.8-5.6c-0.1-1.3,0.3-2.7,1.1-3.7c1-1.8,0.6-1.5,2.6-2h1.3c0.9,0,1.1-0.8,1.9-1.1
			c0.7-0.3,2.8-0.7,3.2-1.5C167.6,276.7,161.8,277.6,160.2,277.1L160.2,277.1z"/>
		<path class="st0" d="M266.7,139.5c-1.6-0.8-3.1-1.7-4.6-2.8c-1.1-0.7-1.9-0.7-2.5-2.3c-1.7-4.3,3.7-1.9,6.3-1.9
			c1,0,2.4,0.5,2.9-0.5c0.6-0.9-1-2.7-2-3.1c0.6-1.2,0.8-2.5,0.5-3.8c-1-2.3-1.8,0-3.4-0.6c-1.2-0.2-2-1.4-1.8-2.6
			c0-0.1,0-0.2,0.1-0.3c0.5-1.7,1.2-1,2.6-1.5c1.4-0.6,0.8-1,1.6-1.1c0.8-0.1,1.6,0.7,2.3,0.6c1.3-0.1,2.4-1.1,2.4-2.4
			c0-2.4-1.3-1-2.6-1.4c-1.4-0.5-1.1-1.4-2-2.4c-0.8-1.1-5.6-2.3-3.7-5.6c0.6-0.8,2.1-0.6,2.5-1.7c0.4-1.1-0.5-1.7-0.6-2.4
			c-0.5-2-0.3-3.2-2.4-4.2c-1.6-0.8-3.4-1.3-5.2-1.4c-1.5,0-2.6,2.5-4.6,0.3c-1-1.1,0-2.9-0.8-3.8c-0.8-1-3.5,0-4.5,0
			c-1,0-3.4,0.4-4.2-0.4v-1.6l-1-1.5c-0.5-1.6,1.2-1.8,1-3.4c-0.2-1.6-3-2-3.5-3.4l-0.4,0.5v-0.7c0.8-1.5,1-3.2,0.5-4.8
			c-2.5,0.5-5.1-0.2-7-2c-0.4-0.5,0-1.2-0.7-1.7c-0.6-0.5-1.3-0.9-2.1-1.2c-1.7-1.2-1.4-1.2-1.7-2.8c0,0,0.6-0.7,0.5-1.3
			c-0.2-0.6-1.5-1.3-2.7-1.6c-1.2-0.3-2.7,0-3.4-1.6c-0.7-1.6,0.8-2.9,0.5-3.4c-0.3-0.5-2.7-0.7-3.7,0c-3-2.4,1.6-3.9,1.4-5.6
			c-0.2-1.7-3.3-2.2-4.9-2c-1.6,0.2-1.7,0.8-3,1.2c-2.7,0.8-4.4-1.8-6.6-2.7c-1.4-0.5-2.7-1.3-3.9-2.1c-1.1-0.7-3-1.9-4.3-1.2
			c-1.3,0.7-0.4,2.4-1.1,3.4c-0.7,1-2.5,0-4.2,1.4c-1.6,1.4-1,3.8-2.9,2.1c-1.9-1.7,0-3.4-2.3-3.4c-1.3,0-3.3,2.1-4.5,2.6
			c-1.2,0.5-2.5,0-3.9,0.5c-1.2,0.5-2.4,1-3.5,1.6c-1.1,0.6-2.2,1.1-3.4,1.5c-2.1,0.5-2.5,0-4.1,1.5c-1,1-1.7,2.3-2,3.7
			c-0.6,1.6-0.4,2.1-2.5,2.5c-1.3,0.3-2.7,0-3.8-0.8c-0.7,4.1-2.5,1-4.9,3.3c-1,0.9-0.7,1.8-1,3c-0.5,2.4-0.7,1.4-2.7,2.2
			c-2,0.8-2.3,4.4-1.7,7c0.6,2.6,2.3,3.5-0.6,4.4c-1.4,0.6-3,0-3.7-1.4c-0.5-0.8,0-8.6-3-4.4c-0.7,1.1,0,2.7,0,3.8
			c-0.8,2.3-2.8,1-3.5,2.5c-0.7,1.5,1,2.4,0.4,3.5c-0.6,1.1-3.2,0.5-4.3,1.2c-1.1,0.7-0.7,1.3-1.7,1.7c-1,0.4-1.7-0.3-2.3,0
			c-0.6,0.3-1.4,0-1.2,2.1c0,3,1.6,2-1.6,3.4c-0.7,0.3-1,1-1.9,1.3s-2.3-0.5-2.8,0.7c-0.6,1.2,1,1.8,1.2,2.5c0.1,0.6,0.1,1.2,0,1.8
			c0,1.1-1.6,0-0.7,1.7c0.4,1,2.5,1.4,3.4,2c-0.5,1.2-0.7,2.5-0.6,3.8c0,1,0.8,1.4,1,2.1c0.2,0.7,0,1.6,0,2.3c0,0.6,2.2,1.6,2.4,2.6
			c0.3,0.8,0,1.7-0.7,2.3c-0.8,0.6-2-0.3-2.8,0l-0.7,1.5c-1.9,1.4-4.4,0.5-5.9,2.4c-0.8,1-0.4,2.4-1.3,3.4c-0.9,1-2.9,0.5-3.4,2.2
			c-0.8,2.9,3.7,1.7,4.6,3.8c0.4,0.8-0.3,2,0,2.8c0.4,2.3,0.9,0.7,1.7,1.8c0.8,1.1,0.4,1.7,1.1,2.6c1.9,2.2,5.6,0,8-0.5
			c-0.6,1.5-5.6,2.9-6,4.5c-0.3,1.6,3.9,1.7,3,4.6c1.3,1.1,3.3,0.3,4.8,0.6c1.5,0.6,3.2,0.8,4.8,0.6c-1.2,1.6-3.5,3.3-3.7,5.6
			c1.6,0,2.8,1.1,2,2.8c1,0.4,2.1,0.4,3,0c0.3,0.4,0.4,0.9,0.5,1.5c0.6-1.3,0.7-2.7,0.3-4l-0.7-0.7c1.8,0.4,3.3,1.8,3.8,3.7
			c0.3,1.1-0.7,3.4,0,4.2c1.2,1.7,7,0.7,8.7,1.2c1.7,0.5,2.4,1.6,3.7,2.1c1.3,0.5,4.3,0.7,3.8,3c-0.6,2.3-3.4,1.5-0.7,2.8
			c1.8,0.8,3.9,0.1,5-1.5c1.4,0,1.5,1.6,1.6,2.7c1,0,1.4-1.1,2.2-1.4c0.8-0.2,1.6,0,2.4,0s1.4-1.2,2.3-1.4c0.9-0.2,1.9,0.4,2.8,0.3
			s2-1,2.4-1l1.6,0.6c1.4,0,3.4-1.9,3.9,0.7c1.6,0.5,1.4-1.1,2.5-1.4c1.2-0.3,1.4,0.4,2.4,0.7s2.7,0,3.5,1c2.5,0,5.3-0.4,8.1-0.3
			l3.6-1.2c1.2-0.5,2.6,0,3.8,0c1.1,0,1.6-2.3,3.9-2.9c2.3-0.6,4.9-2.3,8.1-1.1c0.7,0.2,1.5,0.5,2.1,0.8l0.6,1.5h1.4
			c0.7,0.6,1.5,1.1,2.4,1.5h3.9c1.2,0,3,0,4.6,0.4c0,0,0.7,0.6,1.2,0.7c0.6,0.1,0.7-1,1.7-0.5c1,0.6,0.3,2.5,2.9,2.8
			c2.6,0.2,1.7-1.2,3.3-2.3c1.6-1.1,2.1,1.5,4.4,1.5c0.1-1.2,0-2.4-0.3-3.5l-1.6-3c-0.5,0-1.4,0-2,0c-0.6,0,0-1.2,0-1.4
			s-2.5,0-3.3-1.5c-1.6-3.3,4.3-1,5.6-0.5c1.4,0.5,2.1,1.6,3.7,1.1c1.6-0.5,1.7-3.4,3.5-0.7c0.5-3.4,6.7,1.1,3.9-4.4
			c3.4-0.8,0-2.5,0-3.7c0-2.4,2-1.9,3.3-2.1c3.1-0.7,3.7-2.3,3.8-5.6c-0.1-1.3,0.3-2.7,1.1-3.7c1-1.8,0.6-1.5,2.6-2h0.2
			c0.9-0.3,1.2-0.8,1.9-1.1c0.7-0.3,2.8-0.7,3.2-1.6C274,139.1,268.2,140,266.7,139.5L266.7,139.5z"/>
		<path class="st1" d="M332.7,207.4c-1.6-0.8-3.1-1.7-4.6-2.8c-1.1-0.7-1.9-0.7-2.5-2.3c-1.7-4.3,3.7-1.9,6.3-1.9
			c1,0,2.4,0.5,2.9-0.5c0.6-0.9-1-2.7-2-3.1c0.6-1.2,0.8-2.5,0.5-3.8c-1-2.3-1.8,0-3.4-0.6c-1.2-0.2-2-1.4-1.8-2.6
			c0-0.1,0-0.2,0.1-0.3c0.5-1.7,1.2-1,2.6-1.5c1.4-0.5,0.8-1,1.6-1.1c0.8-0.1,1.6,0.7,2.3,0.6c1.3-0.1,2.4-1.1,2.4-2.4
			c0-2.4-1.3-1-2.6-1.4c-1.4-0.4-1.1-1.4-2-2.4c-0.8-1.1-5.6-2.3-3.7-5.6c0.6-0.8,2.1-0.6,2.5-1.7c0.4-1.1-0.5-1.7-0.6-2.4
			c-0.5-2-0.3-3.2-2.4-4.2c-1.6-0.8-3.4-1.3-5.2-1.4c-1.5,0-2.6,2.5-4.6,0.3c-1-1.1,0-2.8-0.8-3.8c-0.8-1-3.5,0-4.5,0
			c-1,0-3.4,0.4-4.2-0.4v-1.6l-1-1.5c-0.5-1.6,1.2-1.8,1-3.4c-0.2-1.6-3-2-3.5-3.4l-0.4,0.5V152c0.8-1.5,1-3.2,0.5-4.8
			c-2.5,0.5-5.1-0.2-7-2c-0.4-0.5,0-1.2-0.7-1.7c-0.6-0.5-1.3-0.9-2.1-1.2c-1.7-1.2-1.4-1.2-1.7-2.8c0,0,0.6-0.7,0.5-1.3
			c-0.2-0.6-1.5-1.3-2.7-1.6c-1.2-0.3-2.7,0-3.4-1.6c-0.7-1.6,0.8-2.9,0.5-3.4c-0.3-0.5-2.7-0.7-3.7,0c-3-2.4,1.6-3.9,1.4-5.6
			c-0.2-1.7-3.3-2.3-4.9-2c-1.6,0.2-1.7,0.8-3,1.2c-2.7,0.8-4.4-1.8-6.6-2.7c-1.4-0.5-2.7-1.3-3.9-2.1c-1.1-0.7-3-1.9-4.3-1.2
			c-1.3,0.7-0.4,2.4-1.1,3.4c-0.7,1-2.5,0-4.2,1.4c-1.6,1.4-1,3.8-2.9,2.1c-1.9-1.7,0-3.4-2.3-3.4c-1.4,0-3.4,2.1-4.6,2.6
			c-1.2,0.5-2.5,0-3.9,0.5c-1.2,0.5-2.4,1-3.5,1.6c-1.1,0.6-2.2,1.1-3.4,1.5c-2.1,0.5-2.5,0-4.1,1.5c-1,1-1.7,2.3-2,3.7
			c-0.6,1.6-0.4,2.1-2.5,2.5c-1.3,0.3-2.8,0-3.8-0.8c-0.7,4.1-2.5,1-4.8,3.3c-1,0.9-0.7,1.8-1,3c-0.5,2.4-0.7,1.4-2.7,2.2
			c-2,0.8-2.3,4.4-1.7,7c0.6,2.6,2.3,3.5-0.6,4.4c-1.5,0.7-3.3,0-4-1.5c-0.1-0.1-0.1-0.3-0.2-0.4c-0.5-0.8,0-8.6-3-4.4
			c-0.7,1,0,2.7,0,3.8c-0.8,2.3-2.8,1-3.5,2.5c-0.7,1.5,1,2.4,0.4,3.5c-0.6,1.1-3.2,0.5-4.3,1.2c-1.1,0.7-0.7,1.3-1.7,1.7
			c-1,0.4-1.7,0-2.3,0c-0.6,0-1.4,0.3-1.2,2.1c0,3,1.6,2-1.6,3.4c-0.7,0.3-1,1-1.9,1.3c-0.9,0.3-2.3-0.5-2.8,0.7
			c-0.6,1.2,1.1,1.8,1.2,2.4c0.1,0.6,0.1,1.2,0,1.9c0,1.1-1.6,0-0.7,1.7c0.4,1,2.5,1.4,3.4,2c-0.5,1.2-0.7,2.5-0.6,3.8
			c0,1,0.8,1.4,1,2.1c0.2,0.8,0,1.6,0,2.3c0,0.6,2.2,1.6,2.4,2.6c0.3,0.8,0,1.7-0.7,2.3c-0.8,0.6-2-0.3-2.8,0l-0.7,1.5
			c-1.9,1.4-4.4,0.5-5.6,2.4c-0.7,1-0.4,2.4-1.4,3.4c-1,1-2.9,0.5-3.4,2.2c-0.8,2.9,3.7,1.7,4.6,3.8c0.4,0.9-0.3,2,0,2.8
			c0.4,2.3,0.9,0.7,1.7,1.8c0.8,1.1,0.4,1.7,1.1,2.6c1.9,2.2,5.6,0,8-0.5c-0.6,1.5-5.6,2.9-6,4.5c-0.3,1.6,3.9,1.7,3,4.6
			c1.3,1.1,3.3,0.3,4.8,0.6c1.5,0.2,2.7,1.1,4.8,0.7c-1.2,1.6-3.5,3.3-3.7,5.6c1.6,0,2.8,1,2,2.8c1,0.4,2.1,0.4,3,0
			c0.3,0.4,0.4,0.9,0.5,1.5c0.6-1.3,0.7-2.7,0.3-4l-0.7-0.7c1.8,0.4,3.3,1.8,3.8,3.7c0,1.1-0.7,3.4,0,4.2c1.2,1.7,7,0.7,8.7,1.2
			c1.7,0.5,2.4,1.7,3.7,2.1c1.3,0.5,4.3,0.7,3.8,3c-0.6,2.3-3.4,1.5-0.7,2.8c1.8,0.8,3.9,0.1,5-1.5c1.4,0,1.5,1.6,1.6,2.7
			c1,0,1.4-1.1,2.2-1.4c0.8-0.2,1.6,0,2.4,0s1.4-1.2,2.3-1.4c0.9-0.2,1.9,0.4,2.8,0s2-1,2.4-1l1.6,0.6c1.4,0,3.4-1.9,3.9,0.7
			c1.6,0.5,1.4-1.1,2.5-1.4c1.2-0.3,1.4,0.4,2.4,0.7c1,0.3,2.7,0.3,3.5,1h0.3c2.5,0,5.3-0.4,8.1-0.3l3.6-1.2c1.2-0.5,2.6,0,3.8,0
			s1.6-2.3,3.9-2.9c2.3-0.6,4.9-2.3,8.1-1.2c0.7,0.2,1.5,0.5,2.1,0.9l0.6,1.4h1.5c0.7,0.6,1.5,1.1,2.4,1.5h3.9c1.2,0,3,0,4.6,0.4
			c0,0,0.7,0.6,1.2,0.7c0.6,0.1,0.7-1,1.7-0.5c1,0.5,0.3,2.6,2.9,2.8c2.6,0.2,1.7-1.2,3.3-2.3c1.6-1.1,2.1,1.5,4.4,1.5
			c0.1-1.2,0-2.4-0.3-3.5l-1.9-2.2c-0.5,0-1.4,0-2,0c-0.6,0,0-1.2,0-1.4s-2.5,0-3.3-1.5c-1.6-3.3,4.3-1,5.6-0.5
			c1.4,0.5,2.1,1.6,3.7,1.1c1.6-0.5,1.7-3.4,3.5-0.7c0.5-3.4,6.7,1.1,3.9-4.4c3.4-0.8,0-2.5,0-3.7c0-2.4,2-1.9,3.3-2.1
			c3.1-0.7,3.7-2.3,3.8-5.6c-0.1-1.3,0.3-2.7,1.1-3.7c1-1.8,0.6-1.5,2.6-2h1.2c0.9-0.3,1.2-0.8,1.9-1.1c0.7-0.3,2.8-0.7,3.2-1.6
			C340,207,334.2,207.9,332.7,207.4L332.7,207.4z"/>
		<g>
			<path class="st2" d="M436.1,168.3c-1.6-0.7-3.2-1.7-4.6-2.8c-1.1-0.7-1.9-0.6-2.5-2.2c-1.7-4.3,3.7-1.9,6.3-1.9
				c1,0,2.4,0.5,3-0.5c0.6-0.9-1.1-2.7-2-3.1c0.6-1.2,0.8-2.5,0.5-3.8c-1-2.4-1.8,0-3.4-0.6c-1.2-0.2-2-1.4-1.8-2.6
				c0-0.1,0-0.2,0.1-0.2c0.5-1.7,1.2-1,2.7-1.6c0.6,0,0.7-1,1.5-1.1c0.8-0.1,1.7,0.7,2.3,0.6c1.3-0.1,2.4-1.1,2.4-2.4
				c0-2.4-1.4-1-2.6-1.4c-1.3-0.4-1.2-1.4-2-2.4c-0.8-1.1-5.6-2.3-3.6-5.6c0.6-0.8,2-0.6,2.4-1.7c0.4-1.1-0.5-1.6-0.6-2.3
				c-0.5-2.1-0.3-3.3-2.4-4.2c-1.6-0.8-3.4-1.3-5.2-1.5c-1.5,0-2.6,2.5-4.6,0.3c-1-1.1,0-2.9-0.8-3.8c-0.8-1-3.4,0-4.4,0
				c-1,0-3.5,0.4-4.2-0.4v-1.6l-1-1.5c-0.4-1.6,1.2-1.8,1-3.4c-0.2-1.6-3-2-3.5-3.4l-0.4,0.5v-0.7c0.8-1.5,1-3.2,0.5-4.8
				c-2.5,0.6-5.1-0.2-6.9-2c-0.4-0.5,0-1.2-0.7-1.7c-0.7-0.5-1.5-0.8-2-1.2c-1.7-1.2-1.4-1.2-1.8-2.7c0,0,0.7-0.7,0.5-1.4
				c-0.2-0.6-1.5-1.3-2.6-1.6c-1.1-0.3-2.8,0-3.4-1.6c-0.6-1.6,0.7-2.9,0.5-3.4c-0.3-0.5-2.7-0.7-3.6,0c-3.1-2.4,1.5-3.9,1.3-5.6
				c-0.2-1.7-3.3-2.2-4.8-2c-1.6,0.2-1.7,0.8-3,1.2c-2.7,0.8-4.3-1.8-6.6-2.7c-1.4-0.5-2.7-1.3-3.9-2.1c-1-0.7-3-1.9-4.3-1.2
				c-1.2,0.7-0.4,2.4-1.2,3.4c-0.8,1-2.5,0-4.1,1.4s-1,3.8-2.9,2.1c-1.1-1,0-3.4-2.3-3.5c-1.4,0-3.4,2.1-4.6,2.6
				c-1.2,0.5-2.5,0-3.8,0.5c-1.2,0.4-2.4,1-3.5,1.7c-1.1,0.6-2.2,1-3.4,1.4c-2,0.5-2.5,0-4.1,1.5c-1,1.1-1.7,2.3-2,3.7
				c-0.6,1.6-0.3,2.1-2.5,2.5c-1.3,0.3-2.7,0-3.8-0.8c-0.7,4.1-2.5,1-4.9,3.3c-0.9,0.9-0.7,1.8-0.9,3c-0.5,2.4-0.7,1.4-2.7,2.2
				c-2,0.8-2.3,4.4-1.7,7c0.6,2.6,2.3,3.5-0.6,4.4c-1.4,0.6-3,0-3.7-1.4c-0.5-0.8,0-8.6-3-4.4c-0.8,1.1,0,2.7-0.3,3.8
				c-0.8,2.3-2.8,1-3.5,2.5c-0.7,1.5,1.1,2.4,0.4,3.5c-0.7,1.1-3.1,0.6-4.2,1.2c-1.1,0.6-0.7,1.3-1.7,1.7c-1,0.4-1.7,0-2.3,0
				c-0.6,0-1.4,0-1.2,2.1c0,3.1,1.6,2-1.5,3.4c-0.8,0.3-1,1-2,1.3c-1,0.3-2.3-0.5-2.8,0.7c-0.6,1.2,1.1,1.8,1.2,2.5
				c0.1,0.6,0.1,1.2,0,1.8c0,1.2-1.5,0-0.7,1.7c0.5,1,2.5,1.4,3.4,2c-0.5,1.2-0.7,2.5-0.6,3.8c0,1,0.8,1.4,1,2.1
				c0.2,0.7,0,1.6,0,2.3c0,0.7,2.2,1.6,2.5,2.6c0.2,0.8,0,1.7-0.7,2.3c-0.7,0.6-2,0-2.7,0l-0.7,1.5c-1.8,1.5-4.4,0.5-5.6,2.4
				c-1.2,1.9-0.5,2.4-1.4,3.5c-0.9,1.1-2.9,0.4-3.4,2.1c-0.8,2.9,3.7,1.7,4.6,3.8c0.3,0.8-0.3,2,0,2.8c0.4,2.4,0.9,0.7,1.7,1.8
				c0.8,1.1,0.3,1.8,1.1,2.6c1.9,2.2,5.6,0,7.9-0.5c-0.5,1.5-5.6,3-6,4.5c-0.3,1.5,3.9,1.7,3,4.6c1.3,1.1,3.3,0.3,4.8,0.6
				c1.5,0.6,3.1,0.8,4.7,0.6c-1.2,1.6-3.5,3.3-3.7,5.6c1.7,0,2.8,1.1,2.1,2.8c1,0.4,2.1,0.4,3,0c0.3,0.4,0.4,0.9,0.4,1.4
				c0.6-1.2,0.7-2.6,0.3-3.9l-0.7-0.7c1.8,0.5,3.3,1.9,3.8,3.7c0,1.1-0.7,3.3,0,4.2c1.2,1.7,7,0.7,8.7,1.2c1.7,0.5,2.4,1.6,3.7,2.1
				c1.3,0.5,4.3,0.7,3.8,3c-0.5,2.3-3.5,1.5-0.7,2.8c1.8,0.8,3.9,0.1,5-1.5c1.4,0.3,1.5,1.6,1.6,2.7c1,0,1.4-1.1,2.2-1.4
				c0.8-0.2,1.6,0,2.4,0c0.8,0,1.4-1.2,2.3-1.4c0.9-0.2,2,0.4,2.8,0c0.8-0.4,2.1-0.9,2.4-0.9l1.6,0.6c1.4,0,3.4-1.9,3.9,0.7
				c1.6,0.5,1.4-1.1,2.5-1.4c1.1-0.3,1.5,0.4,2.5,0.7c1,0.3,2.6,0,3.4,1c2.6,0,5.6-0.4,8.1-0.3l3.6-1.2c1.2-0.5,2.6,0,3.8,0
				c1.1,0,1.6-2.3,3.9-2.9c2.3-0.6,5-2.3,8.1-1.1c0.8,0.2,1.5,0.5,2.2,0.8l0.6,1.5h1.4c0.8,0.6,1.6,1,2.4,1.4h3.9c1.2,0,3,0,4.7,0.4
				c0,0,0.6,0.7,1.2,0.8s0.7-1.1,1.7-0.5c1,0.6,0,2.5,2.9,2.8c2.9,0.2,1.7-1.2,3.3-2.3c2.4-1.7,2.1,1.5,4.4,1.5
				c0.1-1.2,0-2.4-0.3-3.5l-2-2.2c-0.4,0-1.4,0-1.9,0c-0.6,0,0-1.2,0-1.4c0-0.2-2.5,0-3.3-1.5c-1.6-3.3,4.2-1,5.6-0.5s2,1.6,3.7,1.1
				c1.7-0.5,1.7-3.4,3.5-0.7c0.5-3.4,6.8,1.1,3.9-4.4c3.4-0.8,0-2.5,0-3.7c0-2.4,2-1.9,3.2-2.1c3.2-0.7,3.8-2.3,3.8-5.6
				c-0.1-1.3,0.3-2.7,1.1-3.7c1-1.8,0.6-1.5,2.6-2h1.3c0.9,0,1.1-0.8,1.9-1.1c0.7-0.3,2.8-0.7,3.2-1.5
				C443.4,168,437.6,168.8,436.1,168.3L436.1,168.3z"/>
			<path class="st2" d="M442.4,367.3c-1.6-0.7-3.2-1.7-4.6-2.8c-1.1-0.7-1.9-0.7-2.5-2.3c-1.7-4.3,3.7-1.9,6.3-1.9
				c1,0,2.4,0.5,2.9-0.5c0.6-0.9-1-2.7-2-3.1c0.6-1.2,0.8-2.5,0.5-3.8c-1-2.4-1.8,0-3.4-0.6c-1.3-0.3-2.1-1.6-1.8-2.8
				c0,0,0-0.1,0-0.1c0.5-1.7,1.2-1,2.7-1.5c0.6,0,0.7-1,1.5-1.1c0.8-0.1,1.6,0.7,2.3,0.6c1.3-0.1,2.3-1.1,2.4-2.4
				c0-2.5-1.4-1-2.6-1.4c-1.3-0.4-1.2-1.4-2-2.4c-0.8-1.1-5.6-2.3-3.6-5.6c0.6-0.8,2-0.6,2.4-1.7c0.4-1.1-0.5-1.7-0.6-2.4
				c-0.5-2-0.3-3.2-2.4-4.2c-1.6-0.8-3.4-1.3-5.2-1.4c-1.5,0-2.6,2.5-4.6,0c-1-1.1,0-2.9-0.8-3.8c-0.8-0.9-3.4,0-4.5,0
				c-1.1,0-3.4,0.5-4.2-0.3v-1.6l-1-1.5c-0.4-1.6,1.2-1.8,1-3.5c-0.2-1.7-3-2-3.5-3.4l-0.4,0.5v-0.7c0.8-1.5,1-3.2,0.5-4.8
				c-2.5,0.5-5.1-0.2-6.9-2c-0.4-0.5,0-1.2-0.7-1.7c-0.6-0.5-1.3-0.9-2-1.2c-1.7-1.2-1.4-1.2-1.8-2.8c0,0,0.7-0.7,0.5-1.3
				c-0.2-0.6-1.5-1.3-2.6-1.6c-1.1-0.3-2.8,0-3.4-1.6c-0.6-1.6,0.7-3,0.5-3.4s-2.7-0.7-3.6,0c-3.1-2.4,1.5-3.9,1.3-5.6
				c-0.2-1.7-3.3-2.3-4.8-2.1c-1.6,0.2-1.7,0.9-3,1.3c-2.7,0.8-4.3-1.8-6.6-2.7c-1.4-0.6-2.7-1.3-3.9-2.1c-1-0.7-3-1.9-4.3-1.2
				c-1.3,0.7-0.3,2.4-1.1,3.4c-0.8,1-2.5,0-4.1,1.4s-1,3.8-2.9,2.1c-1.1-0.9,0-3.4-2.3-3.4c-1.4,0-3.4,2.1-4.6,2.6
				c-1.2,0.6-2.5,0-3.8,0.5c-1.2,0.5-2.4,1-3.5,1.6c-1.1,0.6-2.2,1.1-3.4,1.5c-2,0.5-2.5,0-4.1,1.4c-1,1.1-1.6,2.3-2,3.7
				c-0.6,1.6-0.3,2.1-2.5,2.5c-1.3,0.3-2.7,0-3.8-0.8c-0.7,4.1-2.5,0.9-4.9,3.3c-0.9,0.9-0.7,1.8-0.9,3c-0.5,2.4-0.7,1.4-2.7,2.2
				c-2,0.8-2.3,4.4-1.7,7c0.6,2.6,2.3,3.4-0.5,4.4c-1.4,0.5-3,0-3.7-1.4c-0.5-0.8,0-8.6-3-4.4c-0.8,1,0,2.7,0,3.8
				c-0.8,2.4-2.8,1.1-3.5,2.5c-0.7,1.5,1.1,2.4,0.4,3.5c-0.7,1.1-3.1,0.5-4.2,1.2c-1.1,0.7-0.7,1.3-1.7,1.7c-1,0.4-1.7-0.3-2.3,0
				c-0.6,0.3-1.4,0-1.2,2c0,3.1,1.6,2.1-1.6,3.5c-0.7,0.3-1,1-1.9,1.3c-1,0.3-2.3-0.5-2.8,0.7c-0.6,1.2,1.1,1.8,1.2,2.4
				c0.1,0.6,0.1,1.2,0,1.9c0,1.1-1.5,0-0.7,1.7c0.5,1,2.5,1.4,3.4,2c-0.5,1.2-0.7,2.5-0.6,3.8c0,1,0.8,1.4,1,2.1
				c0.2,0.8,0,1.6,0,2.3c0,0.6,2.2,1.6,2.5,2.6c0.2,0.8,0,1.7-0.7,2.3c-0.7,0.6-2-0.3-2.7,0l-0.7,1.5c-1.8,1.4-4.4,0.5-5.6,2.4
				c-0.7,1-0.4,2.4-1.3,3.4s-2.9,0.5-3.4,2.2c-0.9,2.9,3.7,1.6,4.6,3.8c0.3,0.9-0.3,2,0,2.8c0.4,2.3,0.9,0.7,1.7,1.8
				c0.8,1.1,0.3,1.7,1.1,2.6c1.9,2.2,5.6,0,7.9-0.5c-0.5,1.5-5.6,2.9-6,4.5c-0.3,1.6,3.9,1.7,3,4.6c1.3,1.1,3.3,0.3,4.8,0.6
				c1.6,0.2,2.6,1.1,4.7,0.7c-1.2,1.6-3.5,3.3-3.7,5.6c1.6,0,2.8,1,2.1,2.8c1,0.4,2.1,0.4,3,0c0.3,0.4,0.4,0.9,0.4,1.5
				c0.6-1.3,0.7-2.7,0.3-4l-0.7-0.7c1.8,0.4,3.3,1.8,3.8,3.7c0,1.1-0.7,3.4,0,4.2c1.2,1.7,7,0.7,8.7,1.2s2.4,1.7,3.7,2.1
				c1.3,0.5,4.3,0.7,3.8,3c-0.5,2.3-3.5,1.5-0.7,2.8c1.8,0.8,3.9,0.1,5-1.5c1.4,0,1.5,1.6,1.6,2.7c1,0,1.4-1.2,2.2-1.4
				c0.8-0.2,1.6,0.3,2.4,0c0.8-0.3,1.4-1.2,2.3-1.4c0.9-0.2,1.9,0.4,2.8,0c0.9-0.4,2.1-1,2.4-1l1.6,0.6c1.4,0,3.4-1.9,3.9,0.7
				c1.6,0.5,1.4-1.1,2.5-1.4c1.1-0.3,1.5,0.4,2.5,0.7c1,0.3,2.6,0,3.4,1c2.6,0,5.6-0.5,8.1-0.3l3.6-1.3c1.2-0.4,2.6,0,3.8,0
				c2-0.7,1.6-2.3,3.9-2.9c2.3-0.6,4.9-2.3,8.1-1.2c0.7,0.2,1.5,0.5,2.1,0.9l0.7,1.4h1.4c0.7,0.6,1.6,1.1,2.4,1.5h3.9
				c1.2,0,3,0,4.7,0.3c0,0,0.6,0.7,1.2,0.8c0.6,0.1,0.7-1,1.7-0.5c1,0.5,0,2.6,2.9,2.8c2.9,0.2,1.7-1.2,3.3-2.3
				c2.4-1.7,2.1,1.5,4.4,1.5c0.1-1.2,0-2.4-0.3-3.5l-2-2.2c-0.4,0-1.4,0-1.9,0s0-1.2,0-1.5c0-0.2-2.5,0-3.3-1.5
				c-1.6-3.3,4.2-1,5.6-0.5c1.4,0.5,2,1.6,3.7,1.1c1.7-0.5,1.7-3.4,3.5-0.7c0.5-3.4,6.8,1.2,3.9-4.3c3.4-0.8,0-2.5,0-3.7
				c0-2.4,2-1.9,3.2-2.1c3.2-0.7,3.8-2.4,3.8-5.6c-0.1-1.3,0.3-2.7,1.1-3.7c1-1.8,0.6-1.5,2.6-2h1.3c0.9-0.3,1.1-0.8,1.9-1.1
				c0.7-0.3,2.8-0.7,3.2-1.6C449.7,366.9,443.8,367.8,442.4,367.3z"/>
			<path class="st2" d="M209.2,348c-1.6-0.7-3.2-1.6-4.6-2.8c-1.1-0.7-1.9-0.6-2.5-2.2c-1.7-4.3,3.7-1.9,6.3-1.9c1,0,2.4,0.4,3-0.5
				c0.6-0.9-1.1-2.7-2-3c0.6-1.2,0.8-2.5,0.5-3.8c-1-2.4-1.7,0-3.4-0.6c-1.2-0.2-2-1.4-1.8-2.5c0-0.1,0-0.2,0.1-0.3
				c0.5-1.7,1.2-1,2.6-1.6c1.4-0.6,0.7-1,1.5-1.1c0.8-0.1,1.7,0.7,2.3,0.6c1.3-0.1,2.4-1.2,2.4-2.5c0-2.4-1.4-1-2.6-1.4
				c-1.3-0.4-1.1-1.4-2-2.5c-0.9-1.1-5.6-2.3-3.6-5.6c0.6-0.8,2.1-0.6,2.4-1.7c0.3-1.1-0.5-1.6-0.6-2.3c-0.5-2.1-0.3-3.3-2.4-4.2
				c-1.6-0.9-3.4-1.4-5.2-1.6c-1.5,0-2.6,2.5-4.6,0.3c-1-1.1,0-2.9-0.8-3.8s-3.5,0-4.5,0s-3.5,0.5-4.2-0.4v-1.6l-1-1.5
				c-0.4-1.6,1.2-1.8,1.1-3.4c-0.2-1.6-3-2-3.5-3.4l-0.4,0.5v-0.7c0.8-1.5,0.9-3.2,0.5-4.8c-2.5,0.6-5.1-0.2-6.9-2
				c-0.4-0.5,0-1.1-0.7-1.7c-0.7-0.6-1.5-0.8-2.1-1.2c-1.7-1.1-1.4-1.2-1.8-2.7c0,0,0.7-0.7,0.5-1.4c-0.2-0.6-1.5-1.3-2.6-1.6
				c-1.1-0.3-2.8,0-3.4-1.6s0.7-2.9,0.5-3.3c-0.2-0.4-2.7-0.7-3.7-0.3c-3-2.4,1.5-3.9,1.4-5.6c-0.2-1.7-3.3-2.3-4.9-2.1
				c-1.6,0.2-1.7,0.8-3,1.2c-2.8,0.8-4.4-1.8-6.6-2.7c-1.4-0.5-2.7-1.3-3.9-2.1c-1-0.7-3-1.9-4.3-1.2c-1.2,0.7-0.4,2.4-1.2,3.4
				c-0.8,1-2.5,0-4.1,1.4s-1,3.8-2.9,2.1c-1.1-1,0-3.4-2.3-3.5c-1.3,0-3.4,2.1-4.6,2.7c-1.2,0.6-2.5,0-3.8,0.5
				c-1.2,0.5-2.4,1-3.5,1.7c-1.1,0.6-2.2,1-3.3,1.4c-2.1,0.5-2.5,0-4.1,1.5c-1,1-1.7,2.3-2,3.7c-0.6,1.6-0.4,2.1-2.5,2.5
				c-1.3,0.3-2.7,0-3.8-0.8c-0.7,4.1-2.5,1-4.9,3.3c-0.9,0.9-0.7,1.9-0.9,3c-0.5,2.5-0.7,1.4-2.7,2.2c-2,0.8-2.3,4.4-1.7,7
				c0.6,2.6,2.3,3.5-0.6,4.4c-1.4,0.6-3,0-3.7-1.4c-0.5-0.8,0-8.6-3-4.4c-0.7,1,0,2.6,0,3.8c-0.8,2.3-2.8,1.1-3.5,2.5
				c-0.7,1.4,1.1,2.5,0.4,3.5c-0.7,1.1-3.1,0.6-4.2,1.2c-1.1,0.6-0.7,1.4-1.7,1.7c-1,0.3-1.7,0-2.3,0s-1.4,0-1.2,2.1
				c0,3.1,1.6,2-1.5,3.4c-0.7,0.3-1,1-2,1.3c-1,0.3-2.3-0.5-2.8,0.7c-0.5,1.2,1,1.7,1.2,2.4c0.1,0.6,0.1,1.2,0,1.8
				c0,1.2-1.5,0-0.7,1.7c0.5,1,2.6,1.4,3.4,2c-0.5,1.2-0.7,2.5-0.6,3.8c0,1,0.8,1.4,1,2.1c0.2,0.7,0,1.6,0,2.3
				c0,0.7,2.2,1.6,2.5,2.6c0.3,0.8,0,1.7-0.7,2.3c-0.7,0.6-2,0-2.7,0l-0.7,1.5c-1.9,1.5-4.4,0.5-5.9,2.4c-1.5,1.9-0.4,2.4-1.4,3.5
				c-1,1.1-2.9,0.4-3.4,2.1c-0.8,2.9,3.7,1.7,4.6,3.8c0.3,0.8-0.3,2,0,2.8c0.4,2.4,0.9,0.7,1.7,1.9c0.8,1.1,0.3,1.7,1.1,2.5
				c1.9,2.2,5.6,0,8-0.5c-0.6,1.5-5.6,3-6,4.5c-0.4,1.5,4,1.7,3,4.6c1.3,1.1,3.3,0.3,4.8,0.6c1.6,0.3,2.6,1.1,4.7,0.6
				c-1.2,1.7-3.5,3.3-3.7,5.6c1.7,0,2.8,1.1,2.1,2.8c1,0.4,2.1,0.4,3,0c0.3,0.4,0.4,0.9,0.4,1.4c0.6-1.2,0.7-2.6,0.3-3.9l-0.6-0.8
				c1.8,0.5,3.2,1.9,3.7,3.7c0,1.1-0.6,3.3,0,4.2c1.2,1.8,7,0.7,8.7,1.2c1.7,0.5,2.4,1.6,3.7,2.1c1.3,0.5,4.3,0.7,3.8,3
				c-0.5,2.3-3.5,1.5-0.7,2.8c1.8,0.8,3.9,0.2,5-1.5c1.5,0,1.5,1.6,1.6,2.6c0.9,0,1.4-1.1,2.2-1.4c0.8-0.2,1.6,0,2.4,0
				s1.4-1.2,2.3-1.5c0.9-0.2,2,0.5,2.9,0.3c0.9-0.2,2-0.9,2.4-0.9l1.6,0.6c1.4,0,3.4-2,3.9,0.7c1.6,0.4,1.4-1.2,2.5-1.5
				c1.1-0.3,1.5,0.4,2.5,0.7c1,0.3,2.6,0,3.5,1.1c2.6,0,5.6-0.4,8.1-0.3l3.6-1.2c1.2-0.4,2.6,0,3.8,0c1.1,0,1.7-2.3,3.9-2.9
				s5-2.2,8.1-1.1c0.8,0.2,1.5,0.5,2.2,0.8l0.6,1.5h1.5c0.7,0.6,1.5,1,2.4,1.4h3.9c1.2,0,3,0,4.6,0.4c0,0,0.7,0.7,1.2,0.8
				c0.6,0.1,0.7-1.1,1.7-0.5c1,0.6,0.3,2.5,2.9,2.8c2.6,0.2,1.7-1.2,3.2-2.3c2.4-1.7,2.1,1.5,4.4,1.4c0.1-1.2,0-2.4-0.3-3.5l-2-2.1
				c-0.4,0-1.4,0-1.9,0c-0.6,0,0-1.2,0-1.5c0-0.2-2.5,0-3.3-1.5c-1.6-3.3,4.2-1,5.6-0.5c1.4,0.5,2,1.6,3.7,1.1
				c1.7-0.5,1.7-3.3,3.5-0.7c0.5-3.4,6.8,1.1,3.9-4.4c3.4-0.7,0-2.5,0-3.7c0-2.4,2-1.9,3.3-2.1c3.1-0.7,3.7-2.3,3.8-5.6
				c-0.1-1.3,0.3-2.6,1.1-3.7c1.1-1.8,0.6-1.6,2.6-2.1h1.2c0.9,0,1.1-0.8,1.9-1.1c0.7-0.3,2.9-0.7,3.2-1.5
				C216.5,347.6,210.9,348.5,209.2,348L209.2,348z"/>
			<path class="st2" d="M199.6,202.5c-1.6-0.8-3.1-1.7-4.6-2.8c-1.2-0.7-1.9-0.7-2.5-2.3c-1.7-4.3,3.7-1.9,6.3-1.9
				c0.9,0,2.4,0.5,2.9-0.5c0.6-0.9-1.1-2.7-2-3.1c0.6-1.2,0.8-2.5,0.5-3.8c-1-2.3-1.8,0-3.5-0.6c-1.2-0.3-2-1.5-1.7-2.8
				c0-0.1,0-0.1,0-0.2c0.5-1.7,1.2-1,2.6-1.5c1.4-0.5,0.8-1,1.5-1.1c0.7-0.1,1.7,0.7,2.3,0.6c1.3-0.1,2.4-1.1,2.4-2.4
				c0-2.4-1.4-1-2.6-1.4c-1.3-0.4-1.1-1.4-2-2.4c-0.8-1.1-5.6-2.3-3.7-5.6c0.6-0.8,2.1-0.6,2.4-1.7c0.3-1.1-0.5-1.7-0.6-2.4
				c-0.5-2-0.3-3.2-2.4-4.2c-1.6-0.8-3.4-1.3-5.2-1.4c-1.5,0-2.6,2.5-4.6,0c-1-1.1,0-2.9-0.8-3.8c-0.8-0.9-3.5-0.3-4.5,0
				c-1,0.3-3.5,0.4-4.2-0.4v-1.6l-1.1-1.5c-0.4-1.6,1.2-1.8,1.1-3.4c-0.2-1.6-3-2-3.5-3.4l-0.4,0.5v-0.7c0.8-1.5,1-3.2,0.5-4.8
				c-2.4,0.5-4.9-0.3-6.6-1.9c-0.4-0.5,0-1.2-0.7-1.7c-0.6-0.5-1.3-0.9-2.1-1.2c-1.7-1.2-1.4-1.2-1.7-2.8c0,0,0.6-0.7,0.5-1.3
				c-0.2-0.6-1.5-1.3-2.7-1.6c-1.2-0.3-2.8,0-3.4-1.6c-0.6-1.6,0.8-2.9,0.5-3.4c-0.3-0.5-2.7-0.7-3.7,0c-3-2.4,1.5-3.9,1.4-5.6
				c-0.2-1.7-3.3-2.3-4.9-2c-1.6,0.2-1.7,0.8-3,1.2c-2.8,0.8-4.4-1.8-6.6-2.7c-1.4-0.5-2.7-1.2-3.9-2.1c-1.1-0.7-3.1-1.9-4.3-1.2
				c-1.2,0.7-0.4,2.4-1.2,3.4c-0.8,1-2.5,0-4.1,1.4c-1.6,1.4-1,3.8-2.9,2.1c-1.1-0.9,0-3.4-2.3-3.4c-1.3,0-3.3,2.1-4.6,2.6
				c-1.2,0.5-2.5,0-3.8,0.5c-1.2,0.5-2.4,1-3.5,1.6c-1.1,0.6-2.2,1.1-3.4,1.5c-2.1,0.5-2.5,0-4.1,1.5c-1,1-1.7,2.3-2,3.7
				c-0.6,1.6-0.4,2.1-2.5,2.5c-1.3,0.3-2.7,0-3.8-0.8c-0.7,4.1-2.5,1-4.9,3.3c-0.9,0.9-0.6,1.8-0.9,3c-0.5,2.4-0.7,1.4-2.7,2.2
				c-2,0.8-2.3,4.4-1.7,7c0.6,2.6,2.3,3.5-0.6,4.4c-1.4,0.6-3,0-3.7-1.4c-0.5-0.8,0-8.6-3-4.4c-0.7,1,0,2.7,0,3.8
				c-0.8,2.3-2.8,1-3.5,2.5c-0.7,1.5,1,2.4,0.3,3.5c-0.7,1.1-3.1,0.5-4.2,1.2c-1.1,0.7-0.7,1.3-1.7,1.7c-1,0.4-1.7,0-2.3,0
				c-0.6,0-1.4,0-1.2,2.1c0,3,1.6,2-1.6,3.4c-0.7,0.3-1,1-1.9,1.3c-0.9,0.3-2.3-0.5-2.8,0.7c-0.6,1.2,1,1.8,1.2,2.4
				c0.1,0.6,0.1,1.2,0,1.9c0,1.1-1.6,0-0.7,1.7c0.4,1,2.5,1.4,3.4,2c-0.5,1.2-0.7,2.5-0.6,3.8c0,1,0.8,1.4,1.1,2.1
				c0.2,0.8,0,1.6,0,2.3s2.1,1.6,2.4,2.6c0.3,0.8,0,1.7-0.7,2.3c-0.8,0.6-2-0.3-2.8,0l-0.7,1.5c-1.9,1.4-4.4,0.5-5.6,2.4
				c-0.8,1-0.4,2.4-1.4,3.4c-1,1-2.9,0.5-3.4,2.2c-0.8,2.9,3.7,1.7,4.6,3.8c0.3,0.9-0.3,2,0,2.8c0.4,2.3,0.9,0.7,1.7,1.8
				c0.8,1.1,0.3,1.7,1.1,2.6c1.9,2.2,5.6,0,8-0.5c-0.6,1.5-5.6,2.9-6,4.5c-0.3,1.6,3.9,1.7,3,4.6c1.4,1.1,3.3,0.3,4.8,0.6
				c1.5,0.2,2.7,1.1,4.7,0.7c-1.2,1.6-3.5,3.3-3.6,5.6c1.6,0.3,2.8,1,2,2.8c1,0.4,2.1,0.4,3,0c0.3,0.4,0.4,0.9,0.4,1.5
				c0.6-1.5,0.5-3.1-0.2-4.5l-0.7-0.7c1.8,0.5,3.2,1.9,3.8,3.7c0,1.1-0.7,3.4,0,4.2c1.1,1.7,7,0.7,8.7,1.2c1.7,0.4,2.4,1.7,3.7,2.1
				s4.3,0.7,3.8,3c-0.5,2.3-3.4,1.5-0.7,2.8c1.8,0.8,3.9,0.1,4.9-1.5c1.5,0,1.5,1.6,1.6,2.7c0.9,0,1.4-1.1,2.2-1.4
				c0.8-0.2,1.6,0,2.4,0s1.4-1.2,2.2-1.4s2,0.4,2.9,0.3c0.9-0.1,2-1,2.4-1l1.6,0.6c1.4,0,3.4-1.9,3.9,0.7c1.6,0.5,1.4-1.1,2.5-1.4
				c1.2-0.3,1.4,0.4,2.4,0.7c1.2,0.1,2.4,0.4,3.5,1h0.3c2.5,0,5.3-0.4,8.1-0.3l3.6-1.2c1.1-0.5,2.6,0,3.7,0c2-0.7,1.7-2.3,3.9-2.9
				c2.3-0.6,4.9-2.3,8-1.2c0.8,0.2,1.5,0.5,2.2,0.9l0.6,1.4h1.5c0.7,0.6,1.5,1.1,2.4,1.5h3.9c1.2,0,3,0,4.6,0.4c0,0,0.7,0.6,1.2,0.7
				c0.6,0.1,0.7-1,1.7-0.5c1,0.5,0.3,2.6,2.9,2.8c2.6,0.2,1.7-1.2,3.3-2.3c1.6-1.1,2.1,1.5,4.3,1.5c0.2-1.2,0.1-2.4-0.3-3.5l-2-2.2
				c-0.4,0-1.4,0-1.9,0c-0.6,0,0-1.2,0-1.5c0-0.2-2.5,0-3.3-1.5c-1.6-3.3,4.3-1,5.6-0.5c1.4,0.5,2,1.6,3.7,1.1
				c1.7-0.5,1.7-3.4,3.5-0.7c0.5-3.4,6.8,1.1,4-4.4c3.4-0.8,0-2.5,0-3.7c0-2.4,2-1.9,3.3-2.1c3.1-0.7,3.7-2.3,3.8-5.6
				c-0.1-1.3,0.3-2.7,1.1-3.7c1.1-1.8,0.6-1.5,2.6-2h1.2c0.9,0,1.2-0.8,1.9-1.1c0.7-0.3,2.8-0.7,3.2-1.6
				C207.1,202.1,201.3,203,199.6,202.5L199.6,202.5z"/>
			<path class="st2" d="M357.3,88.5c-1.6-0.7-3.2-1.6-4.6-2.8c-1.1-0.7-1.9-0.6-2.5-2.2c-1.7-4.3,3.7-1.9,6.3-1.9c1,0,2.4,0.5,3-0.5
				c0.6-0.9-1.1-2.7-2-3.1c0.6-1.2,0.7-2.5,0.5-3.8c-1-2.4-1.7,0-3.4-0.6c-1.2-0.2-2-1.4-1.8-2.6c0-0.1,0-0.2,0.1-0.2
				c0.5-1.7,1.3-1,2.7-1.6c1.4-0.6,0.7-1,1.5-1.1c0.8-0.1,1.7,0.7,2.3,0.6c1.3-0.1,2.4-1.1,2.4-2.4c0-2.4-1.4-1-2.6-1.4
				c-1.3-0.4-1.1-1.4-2-2.5c-0.9-1.1-5.6-2.3-3.6-5.6c0.6-0.8,2.1-0.6,2.4-1.7c0.3-1.1-0.5-1.6-0.6-2.3c-0.5-2.1-0.3-3.3-2.4-4.2
				c-1.6-0.8-3.4-1.3-5.2-1.5c-1.5,0-2.6,2.5-4.6,0.3c-1-1.1,0-2.9-0.8-3.8c-0.8-1-3.5,0-4.5,0c-1,0-3.5,0.5-4.2-0.4v-1.6l-1-1.5
				c-0.4-1.6,1.2-1.8,1.1-3.4c-0.2-1.6-3-2-3.5-3.4l-0.4,0.5v-0.7c0.8-1.5,0.9-3.2,0.5-4.8c-2.5,0.6-5.1-0.2-6.9-2
				c-0.4-0.5,0-1.2-0.7-1.7c-0.7-0.5-1.4-0.8-2-1.2c-1.7-1.1-1.4-1.2-1.8-2.7c0,0,0.7-0.7,0.5-1.4c-0.2-0.6-1.5-1.3-2.6-1.6
				c-1.1-0.3-2.8,0-3.4-1.6c-0.6-1.6,0.7-2.9,0.5-3.4c-0.3-0.5-2.7-0.7-3.6,0c-3-2.4,1.5-3.9,1.4-5.6c-0.2-1.7-3.3-2.2-4.9-2
				c-1.6,0.2-1.7,0.8-3,1.2c-2.7,0.8-4.3-1.8-6.6-2.7c-1.4-0.5-2.7-1.3-3.9-2.1c-1-0.7-3-1.9-4.3-1.2c-1.2,0.7-0.4,2.4-1.2,3.4
				c-0.8,1-2.5,0-4.1,1.4c-1.6,1.4-1,3.8-2.9,2.1c-1.1-1,0-3.4-2.3-3.5c-1.4,0-3.4,2.1-4.6,2.7c-1.2,0.6-2.5,0-3.8,0.5
				c-1.2,0.5-2.4,1-3.5,1.7c-1.1,0.6-2.2,1.1-3.4,1.4c-2,0.5-2.5,0-4.1,1.5c-1,1-1.7,2.3-2,3.7c-0.6,1.6-0.4,2.1-2.5,2.5
				c-1.3,0.3-2.7,0-3.8-0.8c-0.7,4.1-2.5,1-4.9,3.3c-0.9,0.9-0.7,1.9-0.9,3c-0.5,2.4-0.7,1.4-2.7,2.2c-2,0.8-2.3,4.4-1.7,7
				c0.6,2.6,2.3,3.5-0.6,4.4c-1.4,0.6-3,0-3.7-1.4c-0.5-0.8,0-8.6-3-4.4c-0.8,1.1,0,2.7,0,3.8c-0.7,2.3-2.8,1-3.5,2.5
				c-0.7,1.5,1.1,2.4,0.4,3.5c-0.7,1.1-3.1,0.6-4.2,1.2c-1.1,0.6-0.7,1.3-1.7,1.7c-1,0.4-1.7,0-2.3,0c-0.6,0-1.4,0-1.2,2.1
				c0,3.1,1.6,2-1.5,3.4c-0.8,0.3-1,1-2,1.3c-1,0.3-2.3-0.5-2.8,0.7c-0.6,1.2,1.1,1.8,1.2,2.5c0.1,0.6,0.1,1.2,0,1.8
				c0,1.2-1.5,0-0.7,1.7c0.5,1,2.6,1.4,3.4,2c-0.5,1.2-0.7,2.5-0.6,3.8c0,1,0.8,1.4,1,2.1c0.2,0.7,0,1.6,0,2.3
				c0,0.7,2.2,1.6,2.5,2.6c0.3,0.8,0,1.7-0.7,2.3c-0.7,0.6-2,0-2.7,0l-0.7,1.5c-1.9,1.5-4.4,0.5-5.6,2.4c-1.2,1.9-0.4,2.4-1.4,3.5
				c-1,1.1-2.9,0.4-3.4,2.1c-0.8,2.9,3.7,1.7,4.6,3.8c0.3,0.8-0.3,2,0,2.8c0.4,2.4,0.9,0.7,1.7,1.9c0.8,1.1,0.3,1.7,1.1,2.5
				c1.9,2.2,5.6,0,8-0.5c-0.6,1.5-5.6,3-6,4.5c-0.4,1.5,4,1.7,3,4.6c1.3,1.1,3.3,0.3,4.8,0.6c1.6,0.3,2.6,1.1,4.7,0.6
				c-1.2,1.6-3.5,3.3-3.7,5.6c1.7,0,2.8,1.1,2.1,2.8c1,0.4,2.1,0.4,3,0c0.3,0.4,0.4,0.9,0.4,1.4c0.6-1.2,0.7-2.6,0.3-3.9l-0.7-0.7
				c1.8,0.5,3.2,1.9,3.7,3.7c0,1.1-0.6,3.3,0,4.2c1.2,1.8,7,0.7,8.7,1.2c1.7,0.5,2.4,1.6,3.7,2.1c1.3,0.5,4.3,0.7,3.8,3
				c-0.5,2.3-3.5,1.5-0.7,2.8c1.8,0.8,3.9,0.2,5-1.5c1.5,0,1.5,1.6,1.6,2.6c0.9,0,1.4-1.1,2.2-1.4c0.8-0.2,1.6,0,2.4,0
				s1.4-1.2,2.3-1.5c0.9-0.2,2,0.4,2.9,0c0.9-0.4,2-0.9,2.4-0.9l1.6,0.6c1.4,0,3.4-2,3.9,0.7c1.6,0.4,1.4-1.2,2.5-1.5
				c1.1-0.3,1.5,0.4,2.5,0.7c1.2,0.1,2.4,0.4,3.5,1c2.6,0,5.6-0.4,8.1-0.3l3.6-1.2c1.2-0.5,2.6,0,3.8,0c1.1,0,1.7-2.3,3.9-2.9
				c2.2-0.6,5-2.2,8.1-1.1c0.8,0.2,1.5,0.5,2.2,0.8l0.6,1.5h1.5c0.6,0,1.7,1.3,2.4,1.4c0.7,0.1,2.7,0,3.9,0c1.2,0,3.1,0,4.7,0.4
				c0,0,0.7,0.7,1.2,0.8c0.6,0.1,0.7-1.1,1.7-0.5c1,0.6,0.3,2.5,2.9,2.8c2.5,0.2,1.7-1.2,3.3-2.3c2.4-1.7,2.1,1.5,4.4,1.5
				c0.2-1.2,0.2-2.4,0-3.5l-2.8-2.5c-0.4,0-1.4,0-1.9,0c-0.6,0,0-1.2,0-1.4c0-0.2-2.5,0-3.3-1.5c-1.6-3.3,4.2-1,5.6-0.5
				c1.4,0.5,2,1.6,3.7,1.1c1.7-0.5,1.7-3.3,3.5-0.7c0.5-3.4,6.8,1.1,3.9-4.4c3.4-0.8,0-2.5,0-3.7c0-2.4,2-1.9,3.2-2.1
				c3.2-0.7,3.8-2.3,3.8-5.6c-0.1-1.3,0.3-2.6,1.1-3.7c1.1-1.9,0.6-1.6,2.6-2.1h1.2c0.9,0,1.1-0.8,1.9-1.1c0.7-0.3,2.8-0.7,3.2-1.5
				C364.6,88.1,358.8,89,357.3,88.5L357.3,88.5z"/>
		</g>
	</g>
</g>
</svg>
