<?xml version="1.0" encoding="utf-8"?>
<!-- Generator: Adobe Illustrator 24.3.0, SVG Export Plug-In . SVG Version: 6.00 Build 0)  -->
<svg version="1.1" id="Capa_1" xmlns="http://www.w3.org/2000/svg" xmlns:xlink="http://www.w3.org/1999/xlink" x="0px" y="0px"
	 viewBox="0 0 512 512" style="enable-background:new 0 0 512 512;" xml:space="preserve">
<style type="text/css">
	.st0{fill:#EDEBED;}
	.st1{fill:#DBD9DC;}
	.st2{fill:#C9C6CA;}
	.st3{fill:#FF9BA0;}
	.st4{fill:#FF8087;}
	.st5{fill:#AEA8AF;}
	.st6{fill:#E6646E;}
</style>
<path class="st0" d="M344.1,20.6H167.9c-6,0-11.8,2.4-16.1,6.7L27.3,151.8c-4.3,4.3-6.7,10.1-6.7,16.1v176.1c0,6,2.4,11.8,6.7,16.1
	l124.5,124.5c4.3,4.3,10.1,6.7,16.1,6.7h176.1c6,0,11.8-2.4,16.1-6.7l124.5-124.5c4.3-4.3,6.7-10.1,6.7-16.1V167.9
	c0-6-2.4-11.8-6.7-16.1L360.2,27.3C355.9,23,350.1,20.6,344.1,20.6z"/>
<g>
	<path class="st1" d="M331.9,445.8c-146.8,0-265.7-119-265.7-265.7c0-27.5,4.2-54.1,12-79.1l-50.9,50.9c-4.3,4.3-6.7,10.1-6.7,16.1
		v176.1c0,6,2.4,11.8,6.7,16.1l124.5,124.5c4.3,4.3,10.1,6.7,16.1,6.7h176.1c6,0,11.8-2.4,16.1-6.7l50.9-50.9
		C386,441.6,359.5,445.8,331.9,445.8z"/>
	<path class="st1" d="M334.6,461H177.4c-4,0-7.9-1.6-10.7-4.4L55.5,345.4c-2.8-2.8-4.4-6.7-4.4-10.7V177.4c0-4,1.6-7.9,4.4-10.7
		L166.6,55.5c2.8-2.8,6.7-4.4,10.7-4.4h157.2c4,0,7.9,1.6,10.7,4.4l111.2,111.2c2.8,2.8,4.4,6.7,4.4,10.7v157.2
		c0,4-1.6,7.9-4.4,10.7L345.4,456.5C342.5,459.4,338.6,461,334.6,461z M177.4,66.2L66.2,177.4v157.2l111.2,111.2h157.2l111.2-111.2
		V177.4L334.6,66.2H177.4z"/>
</g>
<path class="st2" d="M357.3,444.6c-7.5,0.7-15,1.1-22.7,1.2l0,0H177.4L66.2,334.6V177.4c0,0,0.5-15.2,1.2-22.7l-11.9,11.9
	c-2.8,2.8-4.4,6.7-4.4,10.7v157.2c0,4,1.6,7.9,4.4,10.7l111.2,111.2c2.8,2.8,6.7,4.4,10.7,4.4h157.2c4,0,7.9-1.6,10.7-4.4
	L357.3,444.6z"/>
<path class="st3" d="M22.4,159.2c-1.1,2.7-1.7,5.7-1.7,8.7v176.1c0,3,0.6,6,1.7,8.7L256,256C256,256,86.6,185.8,22.4,159.2z"/>
<path class="st4" d="M66.2,180.1c0-0.9,0-1.8,0-2.7c-14.8-6.1-29.5-12.2-43.8-18.1c-1.1,2.7-1.7,5.7-1.7,8.7v176.1
	c0,3,0.6,6,1.7,8.7l82.7-34.3C80.4,278.2,66.2,230.8,66.2,180.1z"/>
<g>
	<path class="st3" d="M489.6,159.2c1.1,2.7,1.7,5.7,1.7,8.7v176.1c0,3-0.6,6-1.7,8.7L256,256C256,256,425.4,185.8,489.6,159.2z"/>
	<path class="st3" d="M352.8,22.4c-2.7-1.1-5.7-1.7-8.7-1.7H167.9c-3,0-6,0.6-8.7,1.7L256,256C256,256,326.2,86.6,352.8,22.4z"/>
	<path class="st3" d="M352.8,489.6c-2.7,1.1-5.7,1.7-8.7,1.7H167.9c-3,0-6-0.6-8.7-1.7L256,256C256,256,326.2,425.4,352.8,489.6z"/>
</g>
<path class="st4" d="M334.6,445.8c-0.9,0-1.8,0-2.7,0c-50.7,0-98.1-14.2-138.4-38.9l-34.3,82.7c2.7,1.1,5.7,1.7,8.7,1.7h176.1
	c3,0,6-0.6,8.7-1.7C347.1,475.9,341,461.2,334.6,445.8z"/>
<circle class="st5" cx="256" cy="256" r="15.2"/>
<path class="st6" d="M66.2,177.4c-4.8-2-9.5-3.9-14-5.8c-0.8,1.8-1.2,3.8-1.2,5.8v157.2c0,2,0.4,4,1.2,5.8l14-5.8V177.4z"/>
<g>
	<path class="st4" d="M177.4,66.2h157.2c2-4.8,3.9-9.5,5.8-14c-1.8-0.8-3.8-1.2-5.8-1.2H177.4c-2,0-4,0.4-5.8,1.2L177.4,66.2z"/>
	<path class="st4" d="M461,334.6V177.4c0-2-0.4-4-1.2-5.8c-4.5,1.9-9.2,3.8-14,5.8v157.2l14,5.8C460.6,338.6,461,336.6,461,334.6z"
		/>
</g>
<path class="st6" d="M334.6,445.8H177.4l-5.8,14c1.8,0.8,3.8,1.2,5.8,1.2h157.2c2,0,4-0.4,5.8-1.2
	C338.6,455.3,336.6,450.6,334.6,445.8z"/>
</svg>
