<svg id="Layer_1" enable-background="new 0 0 65 65" height="512" viewBox="0 0 65 65" width="512" xmlns="http://www.w3.org/2000/svg"><g><path d="m58.6 17.7-20.7 6.3 11.1 5c.8.4 1.1 1.3.8 2.1-.2.4-.6.8-1 .9h-.1l-18.2 5 24.8 9c2.2.8 3.3 3.2 2.5 5.3-.6 1.5-1.9 2.5-3.4 2.7h-.2l-26.8 3.3-6.3 7.2h-18.3l18.9-15.1.5-.4c.7-.6 1.5-.9 2.3-.9l11.9-1-18.1-7.6-.3-.1c-1.7-.7-2.4-2.6-1.7-4.3.4-1.1 1.4-1.8 2.5-2l23.9-3.6-10.1-4.5c-.6-.3-1-1.2-.6-2 .2-.4.6-.8 1-.9l25-6.7c.6-.2 1.2.2 1.4.8.2.7-.2 1.3-.8 1.5z" fill="#788d9a"/><g><path d="m27.9 36.1c0 7.6-13.7 26.2-13.7 26.2s-13.7-18.7-13.7-26.2c0-7.6 6.1-13.7 13.7-13.7 7.6-.1 13.7 6.1 13.7 13.7z" fill="#f1786b"/><circle cx="14.2" cy="36.1" fill="#eff3f5" r="7.5"/></g><g><path d="m64.5 5.9c0 3-5.4 10.4-5.4 10.4s-5.4-7.4-5.4-10.4 2.4-5.4 5.4-5.4 5.4 2.4 5.4 5.4z" fill="#f1786b"/><circle cx="59.1" cy="5.9" fill="#eff3f5" r="3"/></g></g></svg>