<?xml version="1.0" encoding="utf-8"?>
<!-- Generator: Adobe Illustrator 24.3.0, SVG Export Plug-In . SVG Version: 6.00 Build 0)  -->
<svg version="1.1" id="Capa_1" xmlns="http://www.w3.org/2000/svg" xmlns:xlink="http://www.w3.org/1999/xlink" x="0px" y="0px"
	 viewBox="0 0 512 512" style="enable-background:new 0 0 512 512;" xml:space="preserve">
<style type="text/css">
	.st0{fill:#B06328;}
	.st1{fill:#B0C4D8;}
	.st2{fill:#99B4CD;}
	.st3{fill:#C4D7E5;}
	.st4{fill:#70B7E5;}
	.st5{fill:#4C9CD6;}
	.st6{fill:#B0C9DB;}
	.st7{fill:#E2E7F0;}
	.st8{fill:#A35425;}
	.st9{fill:#C97629;}
	.st10{fill:#D16161;}
</style>
<path class="st0" d="M512,471.3L512,471.3c0,22.1-18.6,40.7-40.7,40.7l0,0c-11.6,0-22.1-4.7-30.3-12.8l-130.3-142
	c-4.7-4.7-4.7-11.6,0-16.3l30.3-30.3c4.7-4.7,11.6-4.7,16.3,0l142,131.5C507.3,449.2,512,460.8,512,471.3z"/>
<rect x="292.1" y="283.9" transform="matrix(0.7071 -0.7071 0.7071 0.7071 -127.7295 308.3605)" class="st1" width="32.6" height="48.9"/>
<path class="st2" d="M320,320l5.8,5.8l11.6-11.6l-34.9-34.9l-23.3,23.3l17.5,17.5l0,0C303.7,313,313,313,320,320z"/>
<path class="st3" d="M174.5,0C78,0,0,78,0,174.5s78,174.5,174.5,174.5s174.5-78,174.5-174.5S271.1,0,174.5,0z M174.5,314.2
	c-76.8,0-139.6-62.8-139.6-139.6S97.7,34.9,174.5,34.9s139.6,62.8,139.6,139.6S251.3,314.2,174.5,314.2z"/>
<circle class="st4" cx="174.5" cy="174.5" r="139.6"/>
<path class="st5" d="M46.5,186.2c0-76.8,62.8-139.6,139.6-139.6c36.1,0,67.5,14,93.1,34.9c-25.6-29.1-62.8-46.5-104.7-46.5
	c-76.8,0-139.6,62.8-139.6,139.6c0,41.9,18.6,79.1,46.5,104.7C60.5,253.7,46.5,222.3,46.5,186.2z"/>
<path class="st6" d="M174.5,349.1L174.5,349.1c96.6,0,174.5-78,174.5-174.5l0,0c-5.8,0-11.6,4.7-11.6,11.6
	c-2.3,39.6-19.8,75.6-46.5,102.4c-26.8,27.9-64,45.4-104.7,48.9C179.2,337.5,174.5,343.3,174.5,349.1z"/>
<path class="st7" d="M174.5,0L174.5,0C78,0,0,78,0,174.5l0,0c5.8,0,11.6-4.7,11.6-11.6C14,124.5,30.3,89.6,54.7,64
	C82.6,34.9,121,15.1,162.9,11.6C169.9,11.6,174.5,5.8,174.5,0z"/>
<path class="st8" d="M498,441l-7-5.8c5.8,7,9.3,16.3,9.3,25.6l0,0c0,15.1-18.6,20.9-29.1,10.5L349.1,349.1c-7-7-17.5-7-24.4,0
	L313,360.7l126.8,136.1c7,7,16.3,12.8,25.6,14c12.8,1.2,25.6-3.5,33.7-11.6s12.8-20.9,11.6-33.7C510.8,456.1,505,448,498,441z"/>
<path class="st9" d="M378.2,360.7c-1.2,0-3.5,0-4.7-1.2l-29.1-29.1c-2.3-2.3-2.3-5.8,0-8.1s5.8-2.3,8.1,0l29.1,29.1
	c2.3,2.3,2.3,5.8,0,8.1C381.7,360.7,379.3,360.7,378.2,360.7z"/>
<path class="st10" d="M243.6,124.4c18.9,18.9,18.9,49.5,0,68.4c-60.4,60.4-68.2,68.2-69,69l0,0c0,0,0,0-0.1,0.1
	c-8.2-8.2-61-61-69.1-69.1c-18.9-18.9-18.9-49.5,0-68.4c18.9-18.9,49.5-18.9,68.4,0l0.7,0.7l0.7-0.7
	C194.1,105.5,224.7,105.5,243.6,124.4L243.6,124.4z"/>
</svg>
