<?xml version="1.0" encoding="utf-8"?>
<!-- Generator: Adobe Illustrator 24.3.0, SVG Export Plug-In . SVG Version: 6.00 Build 0)  -->
<svg version="1.1" id="Flat_Shadow" xmlns="http://www.w3.org/2000/svg" xmlns:xlink="http://www.w3.org/1999/xlink" x="0px"
	 y="0px" viewBox="0 0 492 412" style="enable-background:new 0 0 492 412;" xml:space="preserve">
<style type="text/css">
	.st0{fill:#467536;}
	.st1{fill:#4D873D;}
	.st2{fill:#E6455A;}
	.st3{fill:#B32437;}
	.st4{fill:#444444;}
</style>
<path class="st0" d="M303.8,385.9c24-18.1,38.2-46.4,38.2-76.5v-96H150v96c0,30.1,14.1,58.4,38.2,76.5H303.8z"/>
<path class="st1" d="M246,309.4c-0.1,35.5-23.7,66.7-57.8,76.5c34.2,26,81.5,26,115.7,0C269.7,376.1,246.1,344.9,246,309.4z"/>
<path class="st1" d="M6,189.4v40c0,26.5,21.5,48,48,48s48-21.5,48-48v-64c0-26.5,21.5-48,48-48h192c26.5,0,48,21.5,48,48v64
	c0,26.5,21.5,48,48,48s48-21.5,48-48v-40c0-88.4-71.6-160-160-160H166C77.6,29.4,6,101,6,189.4z"/>
<path class="st0" d="M326,29.4h-32c88.4,0,160,71.6,160,160v40c0,20.3-12.9,38.3-32,45.1c24.6,9.1,52-3.5,61.1-28.1
	c2-5.4,3-11.2,2.9-16.9v-40C486,101,414.4,29.4,326,29.4z"/>
<path class="st0" d="M38,229.4v-40c0-88.4,71.6-160,160-160h-32C77.6,29.4,6,101,6,189.4v40c-0.3,26.3,20.8,47.7,47.1,48
	c5.8,0.1,11.5-0.9,16.9-2.9C50.9,267.7,38,249.7,38,229.4z"/>
<path class="st0" d="M248,5.4c-81.9,0-149.6,63-154.4,143.8L86,277.4c0,44.2,36.3,80,81,80c44.7,0,81-35.8,81-80
	c0,44.2,36.3,80,81,80s81-35.8,81-80l-7.6-128.2C397.6,68.4,329.9,5.4,248,5.4z"/>
<path class="st2" d="M246,254.6h-90c0,49.6,40.4,90,90,90s90-40.4,90-90H246z"/>
<path class="st3" d="M336,254.6h-90v90C295.6,344.6,336,304.3,336,254.6z"/>
<path class="st1" d="M398.5,149.1c-1.7-29.5-11.9-57.8-29.5-81.5c-67.6-50.3-163.1-36.4-213.5,31.2c-17.8,23.9-28.2,52.5-30,82.3
	L118,309.4c0.1,13.3,3.5,26.4,10,38c11.6,6.5,24.7,9.9,38,10c44.2,0,80-35.8,80-80c0,44.2,35.8,80,80,80s80-35.8,80-80L398.5,149.1z
	"/>
<g>
	<path class="st4" d="M278,245.4c0,17.7-32,48-32,48s-32-30.3-32-48c0-17.7,14.3-32,32-32S278,227.7,278,245.4z"/>
	<circle class="st4" cx="310" cy="149.4" r="16"/>
	<circle class="st4" cx="182" cy="149.4" r="16"/>
</g>
</svg>
