<?xml version="1.0" encoding="utf-8"?>
<!-- Generator: Adobe Illustrator 24.3.0, SVG Export Plug-In . SVG Version: 6.00 Build 0)  -->
<svg version="1.1" id="Laag_1" xmlns="http://www.w3.org/2000/svg" xmlns:xlink="http://www.w3.org/1999/xlink" x="0px" y="0px"
	 viewBox="0 0 353.2 476.7" style="enable-background:new 0 0 353.2 476.7;" xml:space="preserve">
<style type="text/css">
	.st0{fill:#3F1A00;}
	.st1{fill:#FFD164;}
	.st2{fill:#FFE17D;}
	.st3{fill:#3F5C6C;}
</style>
<g id="Page-1">
	<g id="_x30_29---Happy-Girl">
		<path id="Shape_1_" class="st0" d="M17.7,211.9C-44.1,70.6,70.7,0,132.5,0s79.4,26.5,79.4,26.5s79.4-35.3,114.8,35.3
			s8.8,150.1,8.8,150.1H17.7z"/>
		<path id="Shape_2_" class="st0" d="M318.3,248.8c13,15.7,34.9,46.8,34.9,77.9c0,44.1-44.1,44.1-44.1,44.1s5,30-19,44.8H63.2
			c-24-14.8-19-44.8-19-44.8s-44.1,0-44.1-44.1c0-31.1,21.9-62.1,34.9-77.9H318.3z"/>
		<path id="Shape_3_" class="st1" d="M44.3,187.1c-4.9-2.7-10.7-2.8-15.7-0.3s-8.4,7.2-9.2,12.7c-7.4,26.2,10.9,58.3,38.2,56.4
			L44.3,187.1z"/>
		<path id="Shape_4_" class="st2" d="M343.9,432.3c-18.9,14.9-68.5,44.4-167.3,44.4S28.2,447.2,9.3,432.3
			c27.2-17.9,68.7-15.2,96.4-26.2c18-7.6,29.8-25.3,29.8-44.8c0.4-5.9,0.3-11.8-0.3-17.7h82.6c-0.6,5.9-0.7,11.8-0.3,17.7
			c0.1,19.6,11.8,37.2,29.8,44.8C275.2,417.1,316.7,414.4,343.9,432.3L343.9,432.3z"/>
		<path id="Shape_5_" class="st1" d="M308.9,187.1c4.9-2.7,10.7-2.8,15.7-0.3s8.4,7.2,9.2,12.7c7.4,26.2-10.9,58.3-38.2,56.4
			L308.9,187.1z"/>
		<path id="Shape_6_" class="st1" d="M217.7,361.2c-25.9,12.7-56.2,12.7-82.1,0c0.4-5.9,0.3-11.8-0.3-17.7h82.6
			C217.4,349.4,217.3,355.3,217.7,361.2L217.7,361.2z"/>
		<path id="Shape_7_" class="st2" d="M308.6,147.6c-10.8-59.6-96.7-68.2-96.7-68.2s-17.7,44.1-97.1,53c-20,1.6-39.4,7.3-57.1,16.6
			c-8.3,4.7-13.5,13.5-13.5,23.1v12.8c0,46.8,17.7,93.5,44.1,121.6s53,46.7,88.3,46.7s61.8-18.7,88.3-46.7S309,231.6,309,184.8
			v-32.3C309.1,150.9,308.9,149.2,308.6,147.6L308.6,147.6z"/>
		<path id="Shape_10_" class="st0" d="M79.5,176.6c-3.9,0-7.3-2.5-8.5-6.3c-1.1-3.7,0.3-7.7,3.5-9.9c1.2-0.8,30.4-19.9,60.7-9.9
			c4.6,1.5,7.1,6.5,5.6,11.2c-1.5,4.6-6.5,7.1-11.2,5.6c-22-7.3-45.1,7.7-45.3,7.8C82.9,176.1,81.2,176.6,79.5,176.6z"/>
		<path id="Shape_11_" class="st0" d="M273.7,176.6c-1.7,0-3.4-0.5-4.9-1.5c-0.3-0.2-23.4-15.1-45.3-7.8c-4.6,1.5-9.6-1-11.2-5.6
			c-1.5-4.6,1-9.6,5.6-11.2c30.2-10.1,59.4,9,60.7,9.9c3.3,2.2,4.7,6.2,3.6,9.9C281.1,174,277.6,176.6,273.7,176.6L273.7,176.6z"/>
		<path id="Shape_12_" class="st1" d="M185.5,256h-17.7c-4.9,0-8.8-4-8.8-8.8s4-8.8,8.8-8.8h17.7c4.9,0,8.8,4,8.8,8.8
			S190.3,256,185.5,256z"/>
		<path id="Shape_14_" class="st1" d="M185.5,326.6h-17.7c-4.9,0-8.8-4-8.8-8.8s4-8.8,8.8-8.8h17.7c4.9,0,8.8,4,8.8,8.8
			S190.3,326.6,185.5,326.6z"/>
	</g>
</g>
<path id="Shape_8_" class="st1" d="M203.1,293.6h-53c-4.9,0-8.8-4-8.8-8.8s4-8.8,8.8-8.8h53c4.9,0,8.8,4,8.8,8.8
	S208,293.6,203.1,293.6z"/>
<path id="Shape_9_" class="st3" d="M109.6,229.5c-4.9,0-8.8-4-8.8-8.8V203c0-4.9,4-8.8,8.8-8.8s8.8,4,8.8,8.8v17.7
	C118.4,225.6,114.5,229.5,109.6,229.5z"/>
<path id="Shape_13_" class="st3" d="M247.3,229.5c-4.9,0-8.8-4-8.8-8.8V203c0-4.9,4-8.8,8.8-8.8s8.8,4,8.8,8.8v17.7
	C256.1,225.6,252.2,229.5,247.3,229.5z"/>
</svg>
