<?xml version="1.0" encoding="utf-8"?>
<!-- Generator: Adobe Illustrator 24.3.0, SVG Export Plug-In . SVG Version: 6.00 Build 0)  -->
<svg version="1.1" id="Laag_1" xmlns="http://www.w3.org/2000/svg" xmlns:xlink="http://www.w3.org/1999/xlink" x="0px" y="0px"
	 viewBox="0 0 322.8 345.2" style="enable-background:new 0 0 322.8 345.2;" xml:space="preserve">
<style type="text/css">
	.st0{fill:#1F262A;}
	.st1{fill:#ECF0F1;}
	.st2{fill:#E36840;}
	.st3{fill:#FFB337;}
	.st4{fill:none;stroke:#ECF0F1;stroke-width:20;stroke-miterlimit:10;}
	.st5{fill:#2C2F38;}
</style>
<circle class="st0" cx="132.5" cy="136.4" r="99.1"/>
<ellipse transform="matrix(0.2134 -0.977 0.977 0.2134 -69.3557 213.4561)" class="st1" cx="97.9" cy="149.8" rx="13" ry="20"/>
<path class="st0" d="M0,345.2c0.4-9.7,2.1-23.9,8-40c0,0,4.6-12.6,11-23c27.7-44.9,196.7-47.3,223.1-1.1c0.8,1.3,6.1,10.9,11.5,24.5
	c6.3,16,9.6,29.9,11.5,39.6"/>
<rect x="121.5" y="227.2" class="st0" width="22" height="40"/>
<path class="st2" d="M0,96.1v17.4c0,4.7,3.9,8.5,8.6,8.5h247.8c4.8,0,8.6-3.8,8.6-8.5V96.1c0-4.7-3.9-8.5-8.6-8.5H8.6
	C3.9,87.6,0,91.4,0,96.1L0,96.1z"/>
<path class="st2" d="M240.9,113.8H25v-21C25,41.7,62.7,0,109.3,0H157c46.5,0,84.3,41.6,84.3,92.9L240.9,113.8z"/>
<path class="st3" d="M76,76.3"/>
<line class="st4" x1="131.4" y1="26.2" x2="131.4" y2="99.6"/>
<ellipse transform="matrix(0.9754 -0.2206 0.2206 0.9754 -28.9383 40.4449)" class="st1" cx="166.6" cy="149.8" rx="20" ry="13"/>
<line class="st4" x1="168.1" y1="62.9" x2="94.7" y2="62.9"/>
<path class="st5" d="M321.7,217c-1.3-1.1-3.3-1-4.4,0.3l-0.1,0.1v-2.2c0-12.9-5-24.9-14.1-34c-9.1-9.1-21.2-14.1-34-14.1
	c-7.8,0-15.5,1.9-22.3,5.5c-6.6,3.5-12.4,8.5-16.8,14.6c-1,1.4-0.7,3.4,0.7,4.4c1.4,1,3.4,0.7,4.4-0.7c3.8-5.3,8.8-9.7,14.6-12.7
	c5.9-3.1,12.6-4.8,19.4-4.8c23.1,0,41.8,18.8,41.8,41.8v2.2l-0.1-0.1c-1.1-1.3-3.1-1.4-4.4-0.3c-1.3,1.1-1.4,3.1-0.3,4.4l5.6,6.3
	c0.6,0.7,1.5,1.1,2.4,1.1c0.9,0,1.8-0.4,2.4-1.1l5.6-6.3C323.1,220.1,323,218.1,321.7,217z"/>
<path class="st5" d="M307.5,238.8c-1.4-1-3.4-0.7-4.4,0.7c-3.8,5.3-8.8,9.7-14.6,12.7c-5.9,3.1-12.6,4.8-19.4,4.8
	c-23.1,0-41.8-18.8-41.8-41.8v-2.2l0.1,0.1c1.1,1.3,3.1,1.4,4.4,0.3c1.3-1.1,1.4-3.1,0.3-4.4l-5.6-6.3c-0.6-0.7-1.5-1.1-2.4-1.1
	c-0.9,0-1.8,0.4-2.4,1.1l-5.6,6.3c-1.1,1.3-1,3.3,0.3,4.4c0.6,0.5,1.3,0.8,2.1,0.8c0.9,0,1.7-0.4,2.4-1.1l0.1-0.1v2.2
	c0,12.9,5,24.9,14.1,34c9.1,9.1,21.2,14.1,34,14.1c7.8,0,15.5-1.9,22.3-5.5c6.6-3.5,12.4-8.5,16.8-14.6
	C309.2,241.7,308.9,239.8,307.5,238.8z"/>
<path class="st5" d="M238.1,223.1c-0.2,0.8-0.1,1.7,0.3,2.4l6.3,10.9c0.4,0.7,1.1,1.2,1.9,1.5c0.8,0.2,1.7,0.1,2.4-0.3l4.6-2.7
	c1.8,1.4,3.9,2.6,6.1,3.5v5.3c0,1.7,1.4,3.1,3.1,3.1h12.6c1.7,0,3.1-1.4,3.1-3.1v-5.3c2.2-0.9,4.2-2.1,6.1-3.5l4.6,2.7
	c0.7,0.4,1.6,0.5,2.4,0.3c0.8-0.2,1.5-0.7,1.9-1.5l6.3-10.9c0.4-0.7,0.5-1.6,0.3-2.4c-0.2-0.8-0.7-1.5-1.5-1.9l-4.6-2.7
	c0.2-1.1,0.2-2.3,0.2-3.5c0-1.2-0.1-2.3-0.2-3.5l4.6-2.7c0.7-0.4,1.2-1.1,1.5-1.9c0.2-0.8,0.1-1.7-0.3-2.4l-6.3-10.9
	c-0.9-1.5-2.8-2-4.3-1.2l-4.7,2.7c-1.8-1.4-3.9-2.6-6-3.5v-5.4c0-1.7-1.4-3.1-3.1-3.1h-12.6c-1.7,0-3.1,1.4-3.1,3.1v5.4
	c-2.2,0.9-4.2,2.1-6,3.5l-4.7-2.7c-1.5-0.9-3.4-0.4-4.3,1.2l-6.3,10.9c-0.4,0.7-0.5,1.6-0.3,2.4c0.2,0.8,0.7,1.5,1.5,1.9l4.6,2.7
	c-0.2,1.2-0.2,2.3-0.2,3.5c0,1.2,0.1,2.3,0.2,3.5l-4.6,2.7C238.8,221.6,238.3,222.3,238.1,223.1z M269.1,205.7
	c5.2,0,9.4,4.2,9.4,9.4s-4.2,9.4-9.4,9.4c-5.2,0-9.4-4.2-9.4-9.4S263.9,205.7,269.1,205.7z"/>
</svg>
