<svg id="Capa_1" enable-background="new 0 0 512 512" height="512" viewBox="0 0 512 512" width="512" xmlns="http://www.w3.org/2000/svg"><g><path d="m512 67.8v162.6l-66.899 100.501h-75.301l-26.4-97.5 33.6-97.5-11.623-75 44.923-60.901z" fill="#824c19"/><path d="m233.099 208.999 12.6 84-47.399 84.001-17.45 65.7-80.05 69.3-100.8-134.401 68.399-102.9z" fill="#ab633d"/><g id="rock_2_"><g><g><g><path d="m364.499 373.4-83.1 31.8-83.099-28.2 34.799-168.001z" fill="#cd7f57"/></g></g></g><g><path d="m410.3 0-33.3 135.901-67.5 47.7-67.5-12.3v-137.701z" fill="#cd7f57"/><path d="m377 135.901-7.2 195-127.8-159.6z" fill="#ab633d"/></g><g><g><g><g><path d="m173.211 180.901h-42.422l-81.562-81.563 125.361-41.777 40.664 81.299z" fill="#cd7f57"/></g></g></g></g></g><path d="m364.499 373.4-34.499 138.6h-229.2l97.5-135z" fill="#824c19"/></g></svg>