<svg enable-background="new 0 0 512 512" height="512" viewBox="0 0 512 512" width="512" xmlns="http://www.w3.org/2000/svg"><g id="_x34_5_x2C__Shield_x2C__durable_x2C__defence_x2C__security_x2C__weapon_x2C__durable"><g><g><path d="m463.485 129.896-1.983-34.57v-.011l-34.497-3.13c-53.155-4.821-103.555-24.575-145.754-57.121l-24.699-19.064-24.584 19.221c-41.99 32.828-92.264 52.904-145.378 58.069l-36.407 3.548-1.763 34.592c-.25 4.069-4.779 100.675 27.266 174.626 42.146 97.242 118.278 152.87 159.903 177.371l21.37 12.573 21.6-12.897c41.468-24.772 117.235-80.89 158.744-178.404 31.566-74.15 26.422-170.723 26.182-174.803z" fill="#7fcb8f"/><path d="m414.858 140.153c-57.35-6.553-111.736-27.965-158.108-62.243-46.696 34.988-101.666 56.849-159.725 63.506-.657 29.531 2.431 96.365 23.583 145.169 35.447 81.767 99.026 129.965 136.163 152.473 36.96-22.665 100.487-71.312 135.485-153.538 22.519-52.894 23.082-122.692 22.602-145.367z" fill="#e5ecf9"/><path d="m325.683 194.268c18.877 18.877 18.887 49.482 0 68.369-60.365 60.365-68.191 68.191-68.995 68.984l-.021.021c-.01.01-.031.031-.063.063-8.223-8.223-61.012-61.012-69.078-69.068-18.856-18.866-18.877-49.492 0-68.369 18.887-18.887 49.503-18.887 68.379 0l.699.699.71-.699c18.887-18.887 49.492-18.887 68.369 0z" fill="#d16161"/></g></g></g></svg>