<?xml version="1.0" encoding="utf-8"?>
<!-- Generator: Adobe Illustrator 24.3.0, SVG Export Plug-In . SVG Version: 6.00 Build 0)  -->
<svg version="1.1" id="Capa_1" xmlns="http://www.w3.org/2000/svg" xmlns:xlink="http://www.w3.org/1999/xlink" x="0px" y="0px"
	 viewBox="0 0 445 433.1" style="enable-background:new 0 0 445 433.1;" xml:space="preserve">
<style type="text/css">
	.st0{fill:#467536;}
	.st1{fill:#985B3F;}
	.st2{fill:#539642;}
	.st3{fill:#4D873D;}
</style>
<g>
	<g>
		<path class="st0" d="M192.6,196.3c1.6-0.8,3.3-1.3,5-1.7c1.3-0.4,1.7-1,3.3-0.5c4.4,1.5-0.9,4-2.6,6c-0.6,0.7-1.9,1.5-1.5,2.5
			c0.3,1,2.7,1,3.6,0.4c0.5,1.2,1.4,2.2,2.6,2.9c2.5,0.7,1.2-1.4,2.7-2.2c1-0.8,2.4-0.7,3.2,0.3c0.1,0.1,0.1,0.1,0.2,0.2
			c1,1.5,0,1.6-0.5,3.1c-0.4,0.4,0.3,1.2-0.2,1.9c-0.4,0.7-1.6,0.8-1.9,1.4c-0.8,1-0.6,2.5,0.3,3.4c1.9,1.6,1.6-0.4,2.7-1.2
			c1.1-0.7,1.8,0,3.2,0c1.4,0,5.4-2.8,6.6,0.9c0.2,0.9-0.8,2-0.2,3c0.6,1,1.6,0.7,2.2,1c1.9,1,2.7,1.8,4.8,0.9
			c1.7-0.7,3.2-1.7,4.5-3c1-1.2-0.2-3.6,2.7-3.8c1.5-0.1,2.2,1.8,3.5,1.8c1.3,0,2.2-2.6,2.9-3.4c0.7-0.8,1.9-2.9,3-2.9l1.2,1
			l1.8,0.2c1.5,0.7,0.6,2.1,2,3c1.4,0.9,3.5-1,4.9-0.5l-0.2-0.6l0.6,0.5c0.6,1.6,1.8,2.8,3.3,3.5c1.2-2.3,3.4-3.8,6-4
			c0.6,0,0.9,0.7,1.8,0.5c0.9-0.2,1.5-0.6,2.3-0.8c1.9-0.6,1.8-0.2,3.2,0.4c0,0,0.1,1,0.7,1.2c0.6,0.2,2-0.3,2.9-1
			c0.9-0.7,1.8-2.1,3.5-1.6s1.7,2.5,2.3,2.6c0.5,0.1,2.3-1.6,2.4-2.8c3.8-0.8,2,3.7,3.4,4.7c1.4,0.9,3.8-1.1,4.7-2.4
			c0.9-1.3,0.5-1.9,1-3.1c1.1-2.6,4.2-2.2,6.3-3.3c1.3-0.7,2.7-1.2,4.1-1.6c1.2-0.3,3.4-1.1,3.7-2.6c0.3-1.5-1.6-1.9-1.9-3
			c-0.3-1.2,1.6-1.9,1.6-4.1s-2.3-3.2,0.2-3.6c1.4-0.2,2.6,2.2,4.1,0.5c0.9-1,0.5-4,0.9-5.2c0.3-1.3,1.6-1.9,2.1-3.2
			c0.5-1.1,0.9-2.3,1.2-3.5c0.3-1.2,0.6-2.4,1.1-3.5c0.9-1.9,1.6-1.9,1.5-4.1c-0.2-1.4-0.7-2.8-1.5-3.9c-0.9-1.5-1.3-1.6-0.3-3.5
			c0.6-1.2,1.7-2.1,3.1-2.3c-2.6-3.2,0.9-2.6,0.6-5.9c-0.1-1.3-0.9-1.7-1.7-2.6c-1.5-1.9-0.6-1.4,0.1-3.5c0.6-2.1-1.8-4.6-4.3-5.9
			c-2.4-1.2-4.2-0.5-3.1-3.3c0.5-1.4,1.9-2.3,3.4-2c1,0.2,6.6,5.5,5.4,0.5c-0.3-1.3-2.1-1.7-2.9-2.5c-1.3-2.1,1-2.8,0.3-4.3
			c-0.6-1.5-2.5-0.8-3-2c-0.5-1.2,1.6-2.7,1.8-4c0.2-1.3-0.5-1.4-0.2-2.4c0.3-1,1.1-1.3,1.5-1.8c0.4-0.4,0.7-1.3-0.8-2.3
			c-2.4-2-2.6-0.1-1.6-3.4c0.2-0.8-0.1-1.4,0.2-2.3c0.4-0.9,1.8-1.4,1.3-2.6c-0.5-1.2-2.1-0.3-2.7-0.6c-0.5-0.3-1-0.7-1.4-1.2
			c-0.9-0.8,1-1.2-0.9-1.6c-1-0.3-2.7,1-3.7,1.3c-0.6-1.2-1.5-2.1-2.6-2.9c-0.8-0.7-1.6-0.3-2.3-0.6c-0.7-0.3-1.2-1.1-1.8-1.5
			c-0.5-0.4-2.6,0.7-3.6,0.2c-0.8-0.3-1.3-1.1-1.3-2c0-1,1.5-1.3,1.7-2.1l-0.7-1.5c0.1-2.4,2.5-3.7,2-6c-0.3-1.2-1.6-1.9-1.8-3.2
			c-0.2-1.4,1.5-2.5,0.5-4c-1.7-2.6-3.7,1.8-5.9,1c-0.9-0.3-1.3-1.5-2.1-1.8c-2.1-1.2-1.1,0.2-2.5,0.1c-1.4-0.1-1.6-0.8-2.7-0.8
			c-2.9,0-3.6,4.3-4.8,6.4c-0.8-1.4,1.3-6.2,0.4-7.5c-0.9-1.2-3.9,1.9-5.4-0.6c-1.7,0.3-2.4,2.3-3.6,3.3c-1.4,0.8-2.6,1.9-3.6,3.3
			c-0.5-2-0.2-4.8-2-6.4c-1.1,1.2-2.6,1.4-3.5-0.2c-0.9,0.5-1.6,1.3-1.9,2.3c-0.5,0-1-0.2-1.4-0.6c0.6,1.2,1.6,2.2,2.8,2.8l1-0.1
			c-1.5,1.1-3.6,1.3-5.3,0.5c-1-0.5-2.1-2.7-3.2-2.7c-2.1-0.3-5.1,4.9-6.6,5.9c-1.5,1-2.8,0.8-3.9,1.5c-1.1,0.7-3.3,2.9-4.7,1
			c-1.4-1.9,1.1-3.6-1.6-2.3c-1.8,0.9-2.6,2.9-2.1,4.7c-0.9,1.1-2.1,0.1-3-0.5c-0.6,0.7,0,1.8-0.4,2.6c-0.4,0.8-1.1,1.2-1.6,1.9
			c-0.5,0.6,0.1,1.8-0.3,2.7c-0.4,0.8-1.5,1.2-1.8,2.2c-0.3,0.9-0.7,2.2-0.9,2.4l-1.5,0.8c-0.9,1.1-0.7,3.9-3.1,2.5
			c-1.4,1,0,1.8-0.5,2.9c-0.5,1.1-1.2,0.9-2.1,1.5c-0.9,0.6-1.7,2-3,1.9c-1.6,1.9-3.3,4.6-4.9,6.4l-1.4,3.6c-0.5,1.2-1.7,2-2.4,2.9
			c-0.7,0.9,0.7,2.7-0.3,4.8s-1.5,5.2-4.3,6.9c-0.6,0.4-1.3,0.8-2,1.1l-1.5-0.5l-0.9,1.1c-0.9,0.2-1.8,0.5-2.6,0.9l-2.5,3
			c-0.8,0.9-2,2.3-3.3,3.3c0,0-1,0.1-1.4,0.5c-0.5,0.4,0.4,1.2-0.7,1.6c-1.1,0.4-1.9-1.6-4,0.4c-2,2.1-0.2,2.1-0.3,4
			c-0.3,2.9-2.5,0.6-3.9,2.4c0.8,0.9,1.8,1.5,2.9,2l2.9-0.1c0.3-0.3,0.9-1,1.3-1.5c0.4-0.5,1,0.8,1.1,0.9c0.1,0.1,1.6-1.9,3.3-1.5
			c3.6,0.9-2,3.8-3.2,4.6c-1.3,0.8-2.6,0.5-3.3,2.1c-0.7,1.6,1.4,3.5-1.8,3.2c2.3,2.5-5.2,4.4,0.8,5.8c-1.6,3.1,1.9,1.6,2.8,2.4
			c1.9,1.6,0.2,2.7-0.4,3.8c-1.5,2.9-0.6,4.3,1.8,6.6c1,0.8,1.8,1.9,2.1,3.2c0.8,2,0.8,1.4-0.1,3.3l-0.8,1c-0.6,0.7-0.1,1.4-0.3,2.1
			c-0.2,0.8-1.3,2.6-0.9,3.4C188.2,202.1,191.3,197.1,192.6,196.3L192.6,196.3z"/>
		<path class="st1" d="M167.7,103.2c0,0-95.1-30.1-90.1-104.8L-0.6,91.5c0,0,104.3,37.8,129,76.6
			C153.2,206.8,167.7,103.2,167.7,103.2L167.7,103.2z"/>
		<path class="st2" d="M56.3,352.6c1.6-0.7,3.3-1.3,5-1.7c1.3-0.4,1.7-1,3.4-0.5c4.4,1.5-1,4-2.6,6c-0.6,0.7-1.9,1.5-1.5,2.5
			c0.3,1,2.8,0.9,3.6,0.5c0.5,1.2,1.4,2.2,2.6,2.9c2.5,0.7,1.2-1.4,2.7-2.3c1-0.8,2.5-0.6,3.2,0.5c0,0,0.1,0.1,0.1,0.1
			c1,1.5,0,1.6-0.5,3c-0.5,1.4,0.2,1.2-0.2,1.9s-1.6,0.9-1.9,1.4c-0.8,1-0.7,2.5,0.3,3.4c1.9,1.6,1.6-0.3,2.8-1.1
			c1.2-0.8,1.8,0,3.1,0c1.4,0,5.4-2.8,6.7,0.8c0.3,1-0.9,2-0.2,3c0.6,1,1.6,0.7,2.2,1.1c1.8,1,2.7,1.8,4.8,0.9
			c1.7-0.7,3.2-1.8,4.4-3.1c1-1.2-0.2-3.6,2.7-3.7c1.5-0.1,2.2,1.8,3.4,1.8c1.2-0.1,2.2-2.7,2.9-3.4c0.7-0.8,1.9-2.9,3-2.9l1.2,1.1
			l1.8,0.1c1.5,0.7,0.6,2.1,1.9,3c1.4,0.9,3.5-1,4.9-0.5l-0.1-0.6l0.5,0.4c0.6,1.5,1.8,2.8,3.3,3.5c1.2-2.3,3.5-3.8,6-4
			c0.6,0,0.9,0.8,1.7,0.6c0.8-0.2,1.6-0.4,2.3-0.8c2-0.5,1.8-0.2,3.2,0.4c0,0,0.1,0.9,0.7,1.2c0.6,0.3,2-0.3,3-1
			c1-0.7,1.8-2.1,3.4-1.6c1.6,0.5,1.7,2.5,2.3,2.6c0.5,0.1,2.3-1.6,2.4-2.8c3.8-0.8,2,3.7,3.4,4.7c1.4,1,3.9-1.1,4.7-2.4
			c0.9-1.3,0.4-1.9,0.9-3.1c1.1-2.7,4.2-2.2,6.3-3.3c1.3-0.7,2.7-1.3,4.1-1.6c1.2-0.4,3.5-1.1,3.7-2.6c0.2-1.4-1.6-1.9-1.8-3.1
			c-0.2-1.2,1.6-1.9,1.6-4.1c0-2.2-2.3-3.2,0.3-3.6c1.4-0.2,2.6,2.2,4.1,0.5c0.8-1,0.5-3.9,0.9-5.2c0.4-1.3,1.6-1.9,2.1-3.3
			c0.4-1.2,0.8-2.5,1-3.7c0.2-1.2,0.6-2.4,1.1-3.5c1-1.9,1.6-1.9,1.5-4.1c-0.2-1.4-0.7-2.7-1.5-3.9c-0.9-1.5-1.4-1.7-0.3-3.6
			c0.8-1.2,2.1-1.9,3.5-2c-2.7-3.1,0.9-2.5,0.6-5.9c-0.1-1.3-1-1.6-1.7-2.6c-1.5-1.9-0.6-1.4,0.1-3.5s-1.9-4.6-4.3-5.8
			c-2.4-1.2-4.2-0.5-3-3.3c0.5-1.4,2-2.2,3.4-2c0.9,0.2,6.6,5.5,5.4,0.5c-0.3-1.2-2.1-1.7-2.9-2.4c-1.3-2.1,1-2.8,0.3-4.3
			c-0.7-1.5-2.5-0.8-2.9-2c-0.4-1.2,1.6-2.7,1.8-4c0.2-1.3-0.6-1.4-0.2-2.4c0.3-1,1.1-1.3,1.5-1.8c0.4-0.4,0.9-1.1-0.8-2.3
			c-2.4-2-2.6-0.1-1.7-3.5c0.2-0.8-0.1-1.4,0.2-2.3c0.3-0.9,1.8-1.4,1.3-2.6c-0.5-1.2-2-0.4-2.6-0.7c-0.6-0.3-1-0.7-1.4-1.2
			c-0.9-0.7,1-1.2-0.9-1.6c-1-0.3-2.7,1-3.7,1.3c-0.6-1.2-1.5-2.2-2.5-2.9c-0.8-0.7-1.6-0.2-2.3-0.6c-0.7-0.3-1.2-1.1-1.7-1.4
			c-0.5-0.4-2.6,0.6-3.6,0.2c-0.8-0.3-1.3-1.1-1.3-2c0-1,1.5-1.3,1.8-2.1l-0.7-1.5c0.1-2.3,2.5-3.7,1.8-5.8
			c-0.3-1.3-1.6-1.9-1.8-3.2c-0.2-1.4,1.5-2.5,0.5-4c-1.7-2.5-3.7,1.8-5.8,1.1c-0.9-0.3-1.6-1.3-2.2-1.8c-2-1.2-1.1,0.3-2.5,0.1
			c-1.4-0.1-1.6-0.9-2.7-0.8c-2.9,0.1-3.6,4.3-4.8,6.4c-0.8-1.4,1.4-6.2,0.4-7.5c-1-1.3-3.9,1.9-5.4-0.7c-1.7,0.3-2.4,2.3-3.5,3.3
			c-1.2,1-2.6,1.3-3.6,3.2c-0.5-2-0.2-4.8-2-6.4c-1.3,1.1-2.6,1.5-3.5-0.3c-0.9,0.5-1.6,1.3-2,2.3c-0.5,0-1-0.3-1.4-0.6
			c0.6,1.3,1.6,2.3,2.8,2.8l1-0.1c-1.5,1-3.5,1.2-5.2,0.5c-0.9-0.7-2.2-2.7-3.2-2.7c-2.1-0.2-5.1,4.9-6.5,5.9c-1.5,1-2.8,0.7-4,1.4
			c-1.2,0.7-3.3,2.8-4.7,1s1.1-3.6-1.7-2.3c-1.7,0.9-2.6,2.9-2,4.7c-0.9,1.1-2.2,0.1-3.1-0.5c-0.4,0.9,0,1.8-0.3,2.6
			c-0.4,0.8-1,1.2-1.6,1.9c-0.5,0.6,0.1,1.8-0.3,2.6s-1.6,1.3-1.8,2.2s-0.6,2.2-0.8,2.4l-1.5,0.9c-0.9,1.1-0.7,3.8-3.1,2.5
			c-1.4,0.9,0,1.8-0.6,2.8c-0.5,1.1-1.2,0.8-2.1,1.4c-0.9,0.9-1.9,1.6-3,2c-1.6,1.9-3.3,4.6-4.9,6.4l-1.4,3.6
			c-0.4,1.2-1.7,2-2.4,2.8c-0.7,2,0.7,2.8-0.3,4.9c-1,2.1-1.4,5.2-4.2,6.9c-0.7,0.5-1.4,0.8-2.1,1.1l-1.5-0.4l-0.9,1.1
			c-0.9,0.2-1.8,0.5-2.6,0.9l-2.5,3c0,0-2,2.3-3.3,3.3c0,0-0.9,0.1-1.4,0.5c-0.4,0.4,0.3,1.2-0.7,1.6c-1,0.4-2.2-1.4-4,0.4
			c-1.8,1.8-0.2,2.1-0.3,4c-0.2,1.9-2.5,0.6-3.9,2.4c0.7,0.9,1.7,1.7,2.7,2.3l2.9-0.1c0.3-0.3,0.9-1,1.2-1.5
			c0.4-0.4,0.9,0.8,1.1,0.9c0.2,0.1,1.6-1.9,3.3-1.6c3.5,0.9-2,3.9-3.2,4.6c-1.2,0.7-2.6,0.5-3.3,2.1c-0.7,1.6,1.5,3.5-1.7,3.1
			c2.3,2.6-5.2,4.4,0.8,5.9c-1.6,3.1,1.9,1.6,2.8,2.4c1.9,1.6,0.2,2.7-0.5,3.9c-1.4,2.8-0.6,4.4,1.9,6.5c1.1,0.8,1.8,2,2.1,3.3
			c0.7,2,0.8,1.5-0.2,3.3l-0.8,0.9c-0.6,0.7-0.2,1.4-0.4,2.2c-0.2,0.8-1.3,2.6-0.9,3.5C51.9,358.5,55.1,353.5,56.3,352.6L56.3,352.6
			z"/>
		<path class="st3" d="M77.4,405.8c1.6-0.7,3.3-1.3,5-1.7c1.3-0.4,1.7-1,3.3-0.5c4.4,1.5-0.9,4-2.6,6c-0.6,0.7-1.9,1.5-1.5,2.5
			c0.3,1,2.7,1,3.6,0.5c0.5,1.2,1.4,2.2,2.6,2.8c2.5,0.7,1.2-1.4,2.7-2.2c1-0.8,2.5-0.6,3.2,0.4c0,0.1,0.1,0.1,0.1,0.2
			c1,1.5-0.1,1.6-0.6,3c-0.4,0.4,0.3,1.2-0.2,1.9c-0.4,0.7-1.6,0.8-1.9,1.4c-0.8,1-0.6,2.5,0.3,3.4c1.9,1.6,1.6-0.4,2.8-1.1
			c1.2-0.7,1.8,0,3.2,0c1.4,0,5.4-2.8,6.6,0.9c0.3,1-0.8,2-0.2,3c0.6,1,1.5,0.7,2.2,1c1.8,1,2.7,1.8,4.7,0.9c1.7-0.7,3.2-1.7,4.5-3
			c1-1.2-0.2-3.6,2.7-3.8c1.5-0.1,2.2,1.8,3.5,1.8s2.2-2.6,2.9-3.4c0.7-0.8,1.9-2.9,3-2.9l1.2,1l1.8,0.2c1.5,0.7,0.6,2.1,2,3
			c1.4,0.9,3.5-1,4.9-0.5l-0.2-0.6l0.6,0.5c0.6,1.6,1.8,2.8,3.3,3.5c1.2-2.3,3.4-3.8,6-4c0.6,0,0.9,0.8,1.8,0.5
			c0.8-0.2,1.6-0.4,2.3-0.8c2-0.5,1.8-0.2,3.2,0.4c0,0,0.1,1,0.7,1.2c0.6,0.2,2-0.3,3-1c1-0.7,1.7-2.1,3.4-1.6
			c1.6,0.5,1.7,2.5,2.3,2.6c0.5,0.1,2.3-1.6,2.4-2.8c3.8-0.8,2,3.7,3.4,4.7c1.4,0.9,4.6-0.8,5.6-1.9c0.9-1.1,0.5-1.9,1-3.1
			c1.1-2.6,4.2-2.2,6.3-3.3c1.3-0.7,2.7-1.3,4.1-1.6c1.2-0.3,3.4-1.1,3.7-2.6c0.3-1.5-1.6-1.9-1.9-3c-0.3-1.2,1.6-1.9,1.6-4.1
			c-0.1-2.1-2.3-3.2,0.3-3.6c1.4-0.2,2.6,2.2,4.1,0.5c0.9-1,0.5-4,0.9-5.2c0.4-1.2,1.6-1.9,2.1-3.3c0.5-1.2,0.8-2.5,1-3.8
			c0.3-1.2,0.6-2.4,1.1-3.5c1-1.8,1.6-1.9,1.5-4.1c-0.2-1.4-0.7-2.8-1.5-3.9c-0.8-1.5-1.3-1.6-0.3-3.5c0.6-1.2,1.7-2.1,3.1-2.3
			c-2.6-3.2,0.9-2.6,0.6-5.9c-0.1-1.3-0.9-1.7-1.7-2.6c-1.5-1.9-0.6-1.4,0.1-3.5c0.6-2.1-1.8-4.6-4.3-5.9c-2.4-1.2-4.2-0.5-3.1-3.3
			c0.5-1.4,1.9-2.3,3.4-2c1,0.2,6.6,5.5,5.4,0.5c-0.3-1.3-2.1-1.7-2.7-2.7c-1.3-2.1,1-2.8,0.3-4.3c-0.7-1.5-2.5-0.8-3-2
			c-0.5-1.2,1.6-2.7,1.8-4c0.2-1.3-0.5-1.4-0.2-2.4c0.3-1,1.3-1.2,1.5-1.8c0.1-0.6,0.9-1.1-0.8-2.3c-2.4-2-2.6-0.1-1.6-3.4
			c0.2-0.8-0.2-1.4,0.2-2.3c0.4-0.9,1.8-1.4,1.3-2.6c-0.5-1.2-2.1-0.3-2.7-0.6c-0.5-0.3-1-0.7-1.4-1.2c-0.9-0.8,1-1.2-0.9-1.6
			c-1-0.3-2.7,1-3.7,1.3c-0.6-1.2-1.5-2.1-2.6-2.9c-0.8-0.7-1.6-0.3-2.3-0.6c-0.7-0.3-1.2-1.1-1.8-1.5c-0.5-0.4-2.6,0.7-3.6,0.2
			c-0.8-0.3-1.3-1.1-1.3-2c0-1,1.3-1.5,1.7-2.1l-0.7-1.5c0.1-2.4,2.5-3.7,1.8-5.8c-0.3-1.2-1.6-1.9-1.8-3.2c-0.2-1.4,1.5-2.5,0.5-4
			c-1.7-2.6-3.7,1.8-5.9,1c-0.9-0.3-1.3-1.5-2.1-1.8c-2.1-1.2-1.1,0.2-2.5,0.1c-1.3-0.1-1.6-0.8-2.7-0.8c-2.9,0-3.6,4.3-4.8,6.4
			c-0.8-1.4,1.4-6.2,0.4-7.5c-1-1.3-3.9,1.9-5.4-0.6c-1.7,0.3-2.4,2.3-3.6,3.3c-1.4,0.8-2.6,1.9-3.6,3.3c-0.5-2-0.2-4.8-2-6.4
			c-1.1,1.3-2.6,1.4-3.5-0.2c-0.9,0.5-1.6,1.3-1.9,2.3c-0.5,0-1-0.2-1.4-0.6c0.6,1.2,1.6,2.2,2.8,2.8l1-0.1
			c-1.5,1.1-3.6,1.3-5.3,0.5c-0.8-0.7-2.1-2.7-3.2-2.7c-2.1-0.2-5.1,4.9-6.6,5.9c-1.5,1-2.8,0.8-3.9,1.5c-1.1,0.7-3.3,2.9-4.7,1
			c-1.4-1.9,1.1-3.6-1.6-2.3c-1.7,0.9-2.6,2.9-2,4.8c-0.9,1.1-2.2,0.1-3.1-0.5c-0.6,0.7,0,1.8-0.4,2.6c-0.4,0.8-1.1,1.2-1.6,1.9
			c-0.5,0.6,0,1.8-0.4,2.6c-0.4,0.8-1.5,1.2-1.8,2.2c-0.3,0.9-0.7,2.2-0.8,2.5l-1.5,0.2c-0.9,1.1-0.7,3.8-3.1,2.5
			c-1.4,1,0,1.8-0.6,2.8c-0.5,1.1-1.2,0.9-2.1,1.5c-0.9,0.6-1.7,2-3,2l-0.2,0.2c-1.6,1.9-3.1,4.3-4.9,6.4l-1.4,3.6
			c-0.4,1.2-1.7,2-2.4,2.9c-0.7,0.9,0.7,2.7-0.3,4.8c-1,2.1-1.4,5.2-4.3,6.9c-0.6,0.4-1.3,0.8-2,1.1l-1.5-0.5l-0.9,1.1
			c-0.9,0.2-1.8,0.5-2.6,0.9l-2.5,3c0,0-2,2.3-3.3,3.3c0,0-1,0.1-1.4,0.5c-0.4,0.4,0.3,1.2-0.7,1.5c-1,0.4-2.2-1.4-4,0.5
			c-1.8,1.8-0.2,2.1-0.3,4c-0.3,2.9-2.5,0.6-3.9,2.4c0.8,0.9,1.8,1.5,2.9,2l2.9-0.1c0.3-0.3,0.9-1,1.3-1.5c0.4-0.5,0.9,0.8,1.1,0.9
			c0.1,0.1,1.6-1.9,3.3-1.5c3.6,0.9-2,3.8-3.2,4.6c-1.2,0.8-2.6,0.5-3.3,2.1s1.5,3.5-1.8,3.2c2.3,2.5-5.2,4.4,0.8,5.8
			c-1.6,3.1,1.9,1.6,2.8,2.4c1.9,1.6,0.2,2.7-0.4,3.8c-1.4,2.8-0.6,4.3,1.8,6.6c1.1,0.8,1.8,2,2.1,3.3c0.7,1.9,0.8,1.4-0.1,3.3
			l-0.8,1c-0.6,0.7-0.1,1.4-0.3,2.1c-0.2,0.8-1.3,2.6-0.9,3.4C73.2,411.8,76.4,406.9,77.4,405.8L77.4,405.8z"/>
		<path class="st2" d="M105.8,195.7c1.6-0.7,3.3-1.3,5-1.7c1.3-0.4,1.7-1,3.4-0.5c4.4,1.5-1,4-2.6,6c-0.6,0.7-1.9,1.5-1.5,2.5
			c0.3,1,2.8,0.9,3.6,0.5c0.5,1.2,1.4,2.2,2.6,2.9c2.5,0.7,1.2-1.4,2.7-2.3c1-0.8,2.5-0.6,3.2,0.5c0,0,0.1,0.1,0.1,0.1
			c1,1.5,0,1.6-0.5,3c-0.5,1.4,0.2,1.2-0.2,1.9c-0.4,0.6-1.6,0.9-1.9,1.4c-0.8,1-0.7,2.5,0.3,3.4c1.9,1.6,1.6-0.3,2.8-1.1
			c1.2-0.8,1.8,0,3.1,0c1.4,0,5.4-2.8,6.7,0.8c0.3,1-0.9,2-0.2,3c0.6,1,1.6,0.7,2.2,1.1c1.8,1,2.7,1.8,4.8,0.9
			c1.7-0.7,3.2-1.8,4.4-3.1c1-1.2-0.2-3.6,2.9-3.5c1.5-0.1,2.2,1.8,3.4,1.8c1.2-0.1,2.2-2.7,2.9-3.4c0.7-0.8,1.9-2.9,3-2.9l1.3,1.1
			l1.8,0.1c1.5,0.7,0.6,2.1,1.9,3c1.4,0.9,3.5-0.9,4.9-0.5l-0.1-0.6l0.5,0.4c0.6,1.6,1.8,2.8,3.3,3.5c1.2-2.3,3.5-3.8,6-4
			c0.6,0,0.9,0.8,1.7,0.6c0.8-0.2,1.6-0.4,2.3-0.8c2-0.5,1.8-0.2,3.2,0.4c0,0,0.1,0.9,0.7,1.2c0.6,0.3,2-0.3,3-1
			c1-0.7,1.7-2.1,3.4-1.6c1.6,0.5,1.8,2.5,2.3,2.6c0.5,0,2.3-1.6,2.4-2.8c3.8-0.8,2,3.7,3.4,4.7c1.4,1,3.9-1.1,4.7-2.4
			c0.9-1.3,0.4-1.9,0.9-3.1c1.1-2.7,4.2-2.2,6.3-3.3c1.3-0.7,2.7-1.2,4.1-1.6c1.2-0.4,3.5-1.1,3.7-2.6c0.2-1.4-1.6-1.9-1.8-3.1
			c-0.2-1.2,1.6-1.9,1.6-4.1c0-2.2-2.3-3.2,0.3-3.6c1.4-0.2,2.6,2.2,4.1,0.5c0.8-1,0.5-3.9,0.9-5.2c0.4-1.3,1.6-1.9,2.1-3.3
			c0.4-1.2,0.8-2.5,1-3.7c0.2-1.2,0.6-2.4,1.1-3.5c1-1.9,1.6-1.9,1.6-4.1c-0.2-1.4-0.7-2.8-1.5-3.9c-0.9-1.5-1.4-1.7-0.3-3.5
			c0.6-1.2,1.8-2.1,3.1-2.4c-2.7-3.1,0.9-2.5,0.6-5.8c-0.1-1.3-0.9-1.7-1.7-2.7c-1.5-1.9-0.6-1.4,0.1-3.5c0.7-2.1-1.9-4.6-4.3-5.8
			c-2.4-1.2-4.1-0.4-3-3.3c0.5-1.4,2-2.2,3.4-2c0.9,0.2,6.6,5.5,5.4,0.5c-0.3-1.2-2.1-1.7-2.9-2.4c-1.3-2.1,1-2.8,0.3-4.3
			c-0.7-1.5-2.5-0.8-2.9-2c-0.4-1.2,1.6-2.7,1.8-4c0.2-1.3-0.6-1.4-0.2-2.4c0.3-1,1.1-1.3,1.5-1.8c0.4-0.4,0.9-1.1-0.8-2.3
			c-2.4-2-2.6-0.1-1.7-3.5c0.2-0.8-0.1-1.4,0.2-2.3c0.3-0.9,1.8-1.4,1.3-2.6c-0.5-1.2-2-0.4-2.6-0.7c-0.6-0.3-1-0.7-1.4-1.2
			c-0.9-0.7,1-1.2-0.9-1.6c-1-0.3-2.7,1-3.7,1.3c-0.6-1.2-1.5-2.2-2.5-2.9c-0.7-0.6-1.6-0.2-2.3-0.6c-0.7-0.3-1.2-1.1-1.7-1.4
			c-0.5-0.4-2.7,0.6-3.6,0.2c-0.8-0.3-1.3-1.1-1.3-2c0.1-1,1.5-1.3,1.8-2.1l-0.7-1.5c0.1-2.3,2.5-3.7,1.8-5.8
			c-0.3-1.3-1.6-1.8-1.8-3.2c-0.2-1.4,1.5-2.5,0.5-4c-1.7-2.5-3.6,1.8-5.8,1.1c-0.9-0.3-1.4-1.5-2.2-1.8c-2-1.2-1.1,0.3-2.5,0.1
			s-1.6-0.9-2.7-0.8c-2.9,0.1-3.6,4.3-4.8,6.4c-0.8-1.4,1.4-6.2,0.4-7.5c-1-1.3-3.9,1.9-5.4-0.6c-1.7,0.3-2.4,2.3-3.6,3.3
			c-1.2,1-2.6,1.3-3.6,3.2c-0.5-2-0.2-4.8-2-6.4c-1.1,1.2-2.6,1.5-3.5-0.3c-0.9,0.5-1.6,1.3-2,2.3c-0.5,0-1-0.3-1.4-0.6
			c0.6,1.3,1.6,2.3,2.8,2.8l1-0.1c-1.5,1.1-3.5,1.3-5.2,0.5c-1-0.5-2.2-2.7-3.2-2.7c-2.1-0.2-5.1,4.9-6.5,5.9c-1.5,1-2.8,0.7-4,1.4
			c-1.2,0.7-3.3,2.8-4.7,1c-1.4-1.9,1.1-3.6-1.7-2.3c-1.7,0.9-2.6,2.9-2,4.8c-0.9,1.1-2.2,0.1-3.1-0.5c-0.6,0.7,0,1.8-0.3,2.6
			c-0.4,0.8-1,1.2-1.6,1.9s0.1,1.8-0.4,2.6s-1.5,1.2-2,2c-0.5,0.8-0.6,2.2-0.8,2.4l-1.5,0.9c-0.9,1.1-0.7,3.8-3.1,2.5
			c-1.4,0.9,0,1.8-0.6,2.8c-0.5,1.1-1.2,0.8-2.1,1.4c-0.9,0.6-1.7,2.1-3,2c-1.6,1.9-3.3,4.6-4.9,6.4l-1.3,3.6
			c-0.4,1.1-1.7,2-2.4,2.8c-0.7,2,0.7,2.8-0.3,4.9c-1,2.1-1.4,5.2-4.2,6.9c-0.7,0.5-1.4,0.8-2.1,1.1l-1.5-0.4l-0.9,1.1
			c-0.9,0.2-1.8,0.5-2.6,0.9l-2.5,3c-0.8,0.9-2,2.3-3.2,3.3c0,0-1,0.1-1.4,0.4c-0.4,0.4,0.3,1.2-0.7,1.6c-1,0.4-2.2-1.4-4,0.4
			c-1.8,1.8-0.2,2.1-0.3,4c-0.2,1.9-2.5,0.6-3.9,2.4c0.7,1,1.7,1.7,2.7,2.3l3.6-0.4c0.3-0.3,0.9-1,1.2-1.5c0.4-0.4,0.9,0.8,1.1,0.9
			c0.2,0.1,1.6-1.9,3.3-1.6c3.5,0.9-2,3.9-3.2,4.6c-1.2,0.7-2.6,0.5-3.3,2.1c-0.7,1.6,1.5,3.5-1.7,3.1c2.3,2.6-5.2,4.4,0.7,5.9
			c-1.6,3.1,1.9,1.6,2.8,2.4c1.9,1.6,0.2,2.7-0.4,3.9c-1.5,2.8-0.6,4.3,1.9,6.5c1.1,0.8,1.8,2,2.1,3.3c0.7,2,0.8,1.5-0.2,3.3
			l-0.8,0.9c-0.6,0.7-0.2,1.4-0.4,2.2c-0.2,0.8-1.3,2.6-0.9,3.5C101.5,201.5,104.5,196.5,105.8,195.7L105.8,195.7z"/>
		<g>
			<path class="st0" d="M121.7,255.5c1.6-0.7,3.3-1.3,5-1.7c1.3-0.4,1.7-1,3.3-0.4c4.4,1.4-0.9,4-2.6,6c-0.6,0.7-1.9,1.5-1.5,2.5
				c0.3,1,2.7,1,3.6,0.5c0.5,1.2,1.4,2.2,2.6,2.8c2.5,0.7,1.2-1.4,2.7-2.2c1-0.8,2.4-0.7,3.2,0.3c0.1,0.1,0.1,0.1,0.2,0.2
				c1,1.5,0,1.6-0.5,3.1c-0.4,0.4,0.3,1.2-0.2,1.9c-0.4,0.7-1.6,0.8-1.9,1.4c-0.8,1-0.7,2.5,0.3,3.5c1.9,1.6,1.6-0.4,2.8-1.2
				c1.2-0.7,1.8,0,3.1,0c1.4,0,5.4-2.8,6.7,0.8c0.2,1-0.9,2-0.3,3c0.6,1,1.6,0.7,2.2,1c1.8,1,2.7,1.8,4.8,0.9
				c1.7-0.7,3.1-1.8,4.4-3.1c1-1.2-0.2-3.6,2.7-3.8c1.5-0.1,2.2,1.8,3.5,1.8c1.3,0,2.2-2.7,2.9-3.4c0.7-0.8,1.9-2.9,3-2.9l1.2,1
				l1.8,0.2c1.5,0.7,0.6,2.1,2,3c1.4,0.9,3.5-1,4.9-0.5l-0.1-0.5l0.5,0.4c0.6,1.6,1.8,2.8,3.3,3.5c1.2-2.3,3.4-3.8,6-4
				c0.6-0.1,0.9,0.8,1.8,0.5c0.8-0.2,1.6-0.4,2.3-0.8c2-0.5,1.8-0.2,3.2,0.4c0,0,0.1,0.9,0.7,1.2c0.6,0.3,2-0.3,3-1
				c1-0.7,1.7-2.1,3.4-1.6c1.6,0.5,1.7,2.5,2.3,2.6c0.5,0.1,2.3-1.6,2.4-2.8c3.8-0.8,2,3.7,3.4,4.7c1.4,0.9,3.8-1.1,4.7-2.4
				c0.9-1.3,0.4-1.8,1-3.1c1.1-2.6,4.2-2.2,6.3-3.3c1.3-0.7,2.7-1.3,4.1-1.6c1.2-0.4,3.4-1.1,3.7-2.6c0.3-1.5-1.6-1.9-1.9-3
				c-0.3-1.2,1.6-1.9,1.6-4.1c-0.1-2.1-2.3-3.2,0.3-3.6c1.4-0.2,2.6,2.2,4.1,0.5c0.9-1,0.5-4,0.9-5.2c0.4-1.2,1.6-1.9,2.1-3.3
				c0.5-1.2,0.8-2.5,1-3.8c0.2-1.2,0.6-2.4,1.1-3.5c1-1.9,1.6-1.9,1.5-4.1c-0.2-1.4-0.7-2.7-1.5-3.9c-0.9-1.5-1.4-1.7-0.3-3.5
				c0.6-1.2,1.7-2.1,3.1-2.3c-2.6-3.2,0.9-2.6,0.6-5.9c-0.1-1.3-0.9-1.7-1.7-2.7c-1.6-1.9-0.6-1.4,0.1-3.5c0.7-2.1-1.9-4.6-4.3-5.8
				c-2.4-1.2-4.2-0.5-3-3.3c0.5-1.4,1.9-2.3,3.4-2c0.9,0.2,6.6,5.5,5.3,0.6c-0.3-1.3-2.1-1.7-2.9-2.5c-1.3-2.1,1-2.8,0.3-4.3
				c-0.6-1.5-2.5-0.8-3-2c-0.5-1.2,1.6-2.7,1.8-4c0.2-1.3-0.6-1.4-0.2-2.4c0.3-1,1.1-1.3,1.5-1.8c0.4-0.4,0.9-1.1-0.8-2.3
				c-2.3-2-2.6-0.1-1.6-3.4c0.2-0.8-0.1-1.4,0.2-2.3c0.4-0.9,1.8-1.4,1.3-2.6c-0.5-1.2-2.1-0.3-2.7-0.6c-0.5-0.3-1-0.7-1.4-1.2
				c-0.9-0.7,1-1.2-0.9-1.6c-1-0.3-2.7,1-3.7,1.3c-0.6-1.2-1.5-2.1-2.6-2.9c-0.8-0.7-1.6-0.3-2.3-0.6c-0.7-0.3-1.2-1.1-1.7-1.4
				c-0.5-0.4-2.7,0.6-3.6,0.2c-0.8-0.3-1.3-1.1-1.3-2c0-1,1.3-1.5,1.8-2.1l-0.7-1.5c0.1-2.3,2.5-3.7,1.8-5.8
				c-0.3-1.2-1.6-1.9-1.8-3.2c-0.2-1.4,1.6-2.5,0.6-4c-1.7-2.5-3.7,1.8-5.9,1.1c-0.9-0.3-1.3-1.5-2.1-1.8c-2-1.2-1.1,0.2-2.5,0.1
				c-1.3-0.1-1.6-0.8-2.7-0.8c-2.9,0.1-3.6,4.3-4.8,6.4c-0.8-1.4,1.4-6.2,0.4-7.5c-1-1.3-3.9,1.9-5.4-0.6c-1.7,0.3-2.4,2.3-3.6,3.3
				c-1.4,0.8-2.6,1.9-3.6,3.3c-0.5-2-0.2-4.8-2-6.4c-1.1,1.2-2.6,1.4-3.5-0.2c-0.9,0.5-1.6,1.3-1.9,2.3c-0.5,0-1-0.2-1.4-0.6
				c0.6,1.2,1.6,2.2,2.8,2.8l1-0.1c-1.5,1.1-3.5,1.3-5.2,0.5c-0.9-0.7-2.2-2.7-3.2-2.7c-2.1-0.2-5.1,4.9-6.6,5.9
				c-1.5,1-2.8,0.8-3.9,1.5c-1.2,0.7-3.3,2.9-4.7,1c-1.4-1.9,1.1-3.6-1.7-2.3c-1.7,0.9-2.6,2.9-2,4.8c-0.9,1.1-2.2,0.1-3.1-0.5
				c-0.6,0.7,0,1.8-0.4,2.6c-0.4,0.8-1.1,1.2-1.6,1.9c-0.5,0.6,0.1,1.8-0.4,2.6c-0.5,0.8-1.5,1.2-1.8,2.2c-0.3,0.9-0.6,2.2-0.8,2.5
				L152,166c-0.9,1.1-0.7,3.8-3.1,2.5c-1.4,1,0,1.8-0.6,2.8c-0.5,1.1-1.2,0.8-2.1,1.4c-0.9,0.6-2,1.9-3,2c-1.6,1.9-3.3,4.6-4.9,6.4
				l-1.4,3.6c-0.4,1.2-1.7,2-2.4,2.9c-0.7,0.9,0.7,2.7-0.3,4.8c-1,2.1-1.4,5.2-4.3,6.9c-0.6,0.4-1.3,0.8-2,1.1l-1.5-0.5l-0.9,1.1
				c-0.9,0.2-1.8,0.5-2.6,0.9l-2.5,3c-0.8,0.9-2,2.3-3.3,3.3c-0.2,0.2-1,0.1-1.4,0.5c-0.4,0.4,0.3,1.2-0.7,1.6c-1,0.4-2.2-1.4-4,0.5
				c-1.8,1.8-0.2,2.1-0.3,4c-0.3,2.9-2.5,0.6-3.9,2.4c0.8,0.9,1.8,1.5,2.9,2l2.9-0.1c0.3-0.3,0.9-1.1,1.3-1.5s0.9,0.8,1.1,0.9
				c0.1,0.1,1.6-1.9,3.3-1.5c3.6,0.9-2,3.8-3.2,4.6c-1.3,0.8-2.6,0.5-3.3,2.1c-0.7,1.6,1.5,3.5-1.8,3.2c2.3,2.6-5.2,4.4,0.8,5.8
				c-1.6,3.1,1.9,1.6,2.8,2.4c1.9,1.6,0.2,2.7-0.5,3.9c-1.4,2.8-0.6,4.3,1.8,6.6c1.1,0.8,1.9,1.9,2.1,3.3c0.7,1.9,0.8,1.4-0.1,3.3
				l-0.8,0.9c-0.6,0.7-0.2,1.4-0.4,2.2c-0.2,0.8-1.3,2.6-0.9,3.4C117.3,261.3,120.4,256.3,121.7,255.5L121.7,255.5z"/>
			<path class="st0" d="M153.9,358.4c1.6-0.8,3.3-1.3,5-1.7c1.3-0.4,1.7-1,3.3-0.5c4.4,1.5-0.9,4.1-2.6,6c-0.6,0.7-1.8,1.6-1.5,2.5
				c0.3,1,2.8,0.9,3.6,0.5c0.5,1.2,1.4,2.2,2.6,2.9c2.5,0.7,1.2-1.4,2.7-2.3c1-0.8,2.5-0.6,3.2,0.5c0,0,0.1,0.1,0.1,0.1
				c1,1.5,0,1.6-0.5,3c-0.5,1.4,0.2,1.2-0.1,1.9c-0.3,0.7-1.6,0.9-2,1.4c-0.8,1.1-0.6,2.6,0.3,3.4c1.9,1.6,1.6-0.4,2.7-1.2
				c1.2-0.8,1.8,0,3.1,0c1.3,0,5.4-2.8,6.7,0.8c0.3,1-0.8,2-0.2,3c0.6,1,1.5,0.7,2.1,1.1c1.9,1,2.7,1.8,4.8,0.9
				c1.7-0.7,3.2-1.8,4.4-3.1c1-1.2-0.2-3.6,2.9-3.5c1.5-0.1,2.2,1.8,3.4,1.8c1.2-0.1,2.2-2.7,2.9-3.4c0.7-0.8,1.9-3,3-2.9l1.2,1
				l1.8,0.1c1.5,0.8,0.6,2.1,2,3.1c1.4,0.9,3.5-1,4.9-0.5l-0.1-0.6l0.6,0.5c0.6,1.6,1.8,2.8,3.3,3.5c1.2-2.3,3.5-3.8,6-4
				c0.6,0,0.9,0.7,1.7,0.6c0.9-0.2,1.5-0.6,2.3-0.8c1.9-0.6,1.8-0.2,3.2,0.4c0,0,0.2,0.9,0.7,1.2c0.6,0.3,1.9-0.4,2.9-1.1
				c1-0.7,1.8-2.1,3.4-1.5c1.6,0.6,1.7,2.5,2.2,2.5c0.5,0,2.3-1.6,2.6-2.6c3.8-0.8,2,3.7,3.4,4.7c1.4,1,3.9-1.1,4.7-2.4
				c0.9-1.3,0.4-1.8,0.9-3.1c1.1-2.7,4.2-2.2,6.3-3.3c1.3-0.7,2.7-1.2,4.2-1.6c1.2-0.4,3.5-1.1,3.7-2.6c0.2-1.4-1.6-1.9-1.8-3.1
				c-0.2-1.2,1.6-1.9,1.6-4.1c0-2.2-2.3-3.2,0.2-3.6c1.4-0.2,2.6,2.2,4.1,0.5c0.8-1,0.5-3.9,0.9-5.2c0.4-1.3,1.6-1.9,2.1-3.2
				c0.4-1.2,0.7-2.5,1-3.8c0.3-1.2,0.6-2.4,1.1-3.5c1-1.9,1.6-1.9,1.5-4.1c-0.2-1.4-0.7-2.8-1.5-3.9c-0.9-1.5-1.3-1.6-0.3-3.5
				c0.6-1.2,1.7-2.1,3-2.4c-2.6-3.1,0.9-2.5,0.6-5.8c-0.1-1.3-1-1.7-1.7-2.7c-1.6-2-0.6-1.4,0.1-3.5c0.7-2.1-1.9-4.6-4.3-5.8
				c-2.4-1.2-4.2-0.5-3.1-3.3c0.5-1.4,2-2.2,3.5-1.9c0.9,0.2,6.6,5.5,5.3,0.5c-0.3-1.2-2-1.7-2.9-2.4c-1.3-2.1,1-2.8,0.3-4.3
				c-0.7-1.5-2.5-0.8-2.9-2c-0.4-1.2,1.6-2.7,1.8-4c0.2-1.3-0.6-1.4-0.2-2.4c0.3-1,1.4-1.1,1.5-1.8c0.1-0.6,0.6-1.3-0.8-2.3
				c-2.4-2-2.6-0.1-1.7-3.5c0.3-0.7-0.1-1.4,0.2-2.3s1.8-1.4,1.3-2.6c-0.5-1.2-2-0.3-2.6-0.7c-0.5-0.3-1-0.7-1.4-1.2
				c-0.9-0.8,1-1.2-0.9-1.6c-1-0.3-2.7,1-3.7,1.3c-0.6-1.2-1.4-2.1-2.5-2.9c-0.8-0.7-1.6-0.3-2.3-0.6c-0.7-0.3-1.2-1.1-1.8-1.5
				c-0.5-0.4-2.6,0.6-3.5,0.2c-0.8-0.3-1.3-1.1-1.3-2c0.1-1,1.5-1.3,1.8-2.1l-0.7-1.5c0.1-2.4,2.5-3.7,1.8-5.8
				c-0.7-2.1-1.6-1.9-1.8-3.3c-0.2-1.4,1.5-2.5,0.5-4c-1.7-2.5-3.7,1.8-5.9,1c-0.9-0.3-1.5-1.3-2.1-1.8c-2.1-1.2-1.1,0.2-2.5,0.1
				c-1.4-0.1-1.6-0.9-2.7-0.8c-2.9,0.1-3.6,4.3-4.8,6.4c-0.8-1.4,1.4-6.2,0.4-7.4c-0.9-1.2-3.9,1.9-5.4-0.7
				c-1.7,0.3-2.4,2.3-3.6,3.3c-1.4,0.8-2.6,1.9-3.6,3.3c-0.5-2-0.2-4.8-2-6.4c-1.1,1.2-2.6,1.4-3.5-0.3c-0.9,0.5-1.6,1.3-2,2.3
				c-0.5,0-1-0.2-1.3-0.6c0.5,1.3,1.5,2.3,2.8,2.8l1,0c-1.6,1-3.5,1.2-5.3,0.5c-0.9-0.7-2.1-2.7-3.2-2.7c-2.1-0.3-5.1,4.9-6.6,5.9
				c-1.5,1-2.8,0.8-4,1.4c-1.2,0.7-3.2,2.9-4.7,1c-1.5-1.9,1.1-3.5-1.6-2.3c-1.8,0.9-2.6,2.9-2.1,4.7c-0.9,1.1-2.1,0.1-3-0.5
				c-0.6,0.7,0,1.8-0.4,2.6c-0.4,0.8-1,1.2-1.6,1.9c-0.5,0.6,0.1,1.8-0.3,2.7c-0.4,0.8-1.6,1.2-1.8,2.2c-0.2,1-0.6,2.1-0.8,2.4
				l-1.5,0.9c-0.9,1.1-0.7,3.9-3.1,2.5c-1.3,1,0,1.8-0.5,2.9c-0.5,1.1-1.2,0.8-2.1,1.4c-0.9,0.6-2,1.9-3.1,2
				c-1.6,1.9-3.3,4.6-4.9,6.4l-1.4,3.6c-0.4,1.1-1.7,2-2.4,2.8c-0.8,1.9,0.6,2.7-0.3,4.9c-1,2.1-1.5,5.2-4.3,6.8
				c-0.6,0.5-1.3,0.8-2.1,1.1L159,303l-0.9,1.1c-0.9,0.2-1.8,0.5-2.6,0.9l-2.5,3c0,0-2,2.3-3.3,3.3c0,0-1,0.1-1.4,0.4
				s0.3,1.2-0.7,1.6c-1,0.4-2.2-1.4-4,0.5c-1.8,1.8-0.2,2.1-0.4,3.9s-2.5,0.7-3.9,2.4c0.7,0.9,1.7,1.7,2.7,2.3l2.9-0.1
				c0.3-0.3,0.9-1,1.2-1.5c0.4-0.4,0.9,0.8,1.1,0.9s1.6-1.9,3.3-1.6c3.5,0.9-2,3.9-3.2,4.6c-1.2,0.7-2.6,0.5-3.3,2.1
				c-0.7,1.7,1.5,3.4-1.7,3.1c2.3,2.6-5.2,4.4,0.7,5.9c-1.6,3.1,1.9,1.6,2.9,2.4c1.9,1.6,0.2,2.7-0.5,3.9c-1.5,2.8-0.6,4.3,1.9,6.5
				c1,0.8,1.8,1.9,2.1,3.2c0.7,2,0.8,1.5-0.1,3.4l-0.8,0.9c-0.6,0.7-0.2,1.4-0.4,2.2c-0.2,0.8-1.3,2.6-0.9,3.4
				C149.5,364.2,152.6,359.2,153.9,358.4L153.9,358.4z"/>
			<path class="st0" d="M255.2,321.2c1.6-0.7,3.3-1.3,5-1.7c1.3-0.4,1.7-1,3.3-0.5c4.4,1.5-0.9,4.1-2.6,6.1
				c-0.6,0.7-1.9,1.5-1.5,2.5c0.3,1,2.8,0.9,3.6,0.5c0.5,1.2,1.4,2.2,2.6,2.8c2.5,0.7,1.2-1.4,2.7-2.3c1-0.8,2.4-0.6,3.2,0.4
				c0,0.1,0.1,0.1,0.1,0.2c1,1.5,0,1.6-0.5,3c-0.5,1.4,0.2,1.2-0.2,1.9c-0.4,0.6-1.6,0.9-1.9,1.4c-0.8,1-0.7,2.5,0.3,3.4
				c1.9,1.6,1.6-0.4,2.8-1.1c1.2-0.7,1.8,0,3.1,0c1.4,0,5.4-2.8,6.7,0.8c0.2,0.9-0.9,2-0.2,3s1.5,0.7,2.1,1.1c1.9,1,2.7,1.8,4.8,0.9
				c1.7-0.7,3.2-1.7,4.5-3.1c1-1.2-0.2-3.6,2.7-3.7c1.5-0.1,2.2,1.8,3.5,1.8c1.3,0,2.2-2.7,2.9-3.4c0.7-0.8,1.9-2.9,3-2.9l1.2,1
				l1.8,0.1c1.5,0.7,0.6,2.1,1.9,3c1.4,0.9,3.5-1,4.9-0.5l-0.1-0.6l0.6,0.5c0.6,1.6,1.8,2.8,3.3,3.5c1.2-2.3,3.5-3.8,6-4
				c0.6,0,0.9,0.8,1.7,0.6c0.8-0.2,1.5-0.6,2.3-0.8c2-0.5,1.8-0.2,3.2,0.4c0,0,0.2,0.9,0.7,1.2c0.6,0.3,2-0.3,2.9-1.1
				c1-0.7,1.7-2.1,3.4-1.5c1.7,0.5,1.7,2.5,2.3,2.6c0.5,0.1,2.3-1.6,2.4-2.8c3.8-0.8,2,3.7,3.4,4.7c1.4,1,3.8-1.1,4.7-2.4
				c0.9-1.3,0.4-1.8,1-3.1c1.1-2.7,4.2-2.2,6.3-3.3c1.3-0.7,2.7-1.3,4.1-1.6c1.2-0.4,3.5-1.1,3.7-2.6c0.2-1.4-1.6-1.9-1.8-3.1
				c-0.2-1.2,1.6-1.9,1.6-4.1c0-2.2-2.3-3.2,0.2-3.6c1.4-0.2,2.6,2.2,4.1,0.5c0.8-1,0.5-3.9,0.9-5.2c0.4-1.3,1.6-1.9,2.1-3.3
				c0.4-1.2,0.8-2.5,1-3.8c0.3-1.2,0.6-2.4,1.1-3.5c1-1.9,1.6-1.9,1.5-4.1c-0.2-1.4-0.7-2.8-1.5-3.9c-0.8-1.5-1.3-1.6-0.3-3.5
				c0.6-1.2,1.8-2.1,3.1-2.4c-2.7-3.1,0.9-2.5,0.6-5.8c-0.1-1.3-0.9-1.7-1.7-2.7c-1.5-1.9-0.6-1.4,0.1-3.5c0.7-2.1-1.9-4.6-4.3-5.8
				c-2.4-1.2-4.2-0.5-3-3.3c0.5-1.6,2.2-2.4,3.8-1.9c0,0,0,0,0,0c0.9,0.2,6.6,5.5,5.4,0.5c-0.3-1.2-2.1-1.7-2.9-2.5
				c-1.3-2.1,1-2.8,0.3-4.3c-0.7-1.5-2.5-0.8-2.9-2c-0.4-1.2,1.6-2.7,1.8-4c0.2-1.3-0.6-1.4-0.2-2.4c0.3-1,1.1-1.3,1.5-1.8
				c0.4-0.4,0.9-1.1-0.8-2.3c-2.4-2-2.6-0.1-1.6-3.4c0.2-0.8-0.1-1.4,0.2-2.3s1.8-1.4,1.3-2.6c-0.5-1.2-2-0.4-2.7-0.7
				c-0.5-0.3-1-0.7-1.4-1.2c-0.9-0.8,1-1.2-0.9-1.6c-1-0.3-2.7,1-3.7,1.3c-0.6-1.2-1.5-2.2-2.5-2.9c-0.8-0.7-1.6-0.3-2.3-0.6
				c-0.7-0.3-1.2-1.1-1.8-1.5c-0.5-0.4-2.6,0.7-3.5,0.2c-0.8-0.3-1.3-1.1-1.3-2c0-1,1.3-1.5,1.8-2.1l-0.7-1.5
				c0.1-2.4,2.5-3.7,1.8-5.8c-0.7-2.1-1.6-1.9-1.8-3.3c-0.2-1.4,1.5-2.5,0.5-4c-1.7-2.5-3.7,1.8-5.9,1c-0.9-0.3-1.3-1.5-2.1-1.8
				c-2.1-1.2-1.1,0.2-2.5,0.1c-1.3-0.1-1.6-0.9-2.7-0.8c-2.9,0.1-3.6,4.3-4.8,6.4c-0.8-1.4,1.3-6.2,0.4-7.5
				c-0.9-1.2-3.9,1.9-5.4-0.7c-1.7,0.3-2.4,2.3-3.6,3.3c-1.4,0.8-2.6,1.9-3.6,3.3c-0.5-2-0.2-4.8-2-6.4c-1.1,1.2-2.6,1.4-3.5-0.3
				c-0.9,0.5-1.6,1.3-2,2.3c-0.5,0-1-0.2-1.3-0.6c0.5,1.3,1.5,2.3,2.8,2.8l1,0c-1.5,1.1-3.6,1.3-5.3,0.5c-1-0.5-2.1-2.7-3.2-2.7
				c-2.1-0.2-5.1,4.9-6.6,5.9c-1.5,1-2.8,0.8-3.9,1.5c-1.2,0.7-3.3,2.8-4.7,1c-1.4-1.9,1.1-3.6-1.7-2.3c-1.7,0.9-2.6,2.9-2,4.8
				c-1.1,0.9-2.2,0.1-3.1-0.5c-0.6,0.7,0,1.8-0.4,2.6c-0.4,0.8-1,1.2-1.6,1.9c-0.5,0.6,0,1.8-0.4,2.6s-1.5,1.2-1.8,2.2
				s-0.6,2.1-0.8,2.4l-1.5,0.9c-0.9,1.1-0.7,3.8-3.1,2.5c-1.4,0.9,0,1.8-0.6,2.8c-0.5,1.1-1.2,0.8-2.1,1.4c-0.9,0.6-1.7,2.1-3,2
				c-1.6,1.9-3.3,4.6-4.9,6.4l-1.4,3.6c-0.4,1.2-1.7,2-2.4,2.8c-0.7,2,0.6,2.7-0.3,4.9c-1,2.1-1.4,5.2-4.3,6.8
				c-0.6,0.5-1.3,0.8-2.1,1.1l-1.5-0.5l-0.9,1.1c-0.9,0.2-1.8,0.5-2.6,0.9l-2.5,3c-0.8,0.9-2,2.3-3.3,3.3c0,0-1,0.1-1.4,0.4
				c-0.4,0.4,0.4,1.2-0.7,1.6c-1.1,0.4-2.2-1.4-4,0.5c-1.8,1.8-0.2,2.1-0.3,4c-0.2,1.9-2.5,0.6-3.9,2.4c0.7,0.9,1.7,1.7,2.7,2.3
				l3.3-0.4c0.3-0.3,0.9-1,1.2-1.5c0.4-0.4,0.9,0.8,1.1,0.9s1.6-1.9,3.3-1.6c3.5,0.9-2,3.9-3.2,4.6c-1.2,0.7-2.6,0.5-3.3,2.1
				s1.5,3.5-1.7,3.1c2.3,2.6-5.2,4.4,0.8,5.9c-1.6,3.1,1.9,1.6,2.8,2.4c1.9,1.6,0.2,2.7-0.5,3.9c-1.4,2.8-0.6,4.3,1.9,6.5
				c1.1,0.8,1.8,2,2.1,3.3c0.7,2,0.8,1.5-0.2,3.3l-0.8,0.9c-0.6,0.7-0.2,1.4-0.4,2.2c-0.2,0.8-1.1,2.5-0.6,2.9
				C250.8,327,253.9,322,255.2,321.2L255.2,321.2z"/>
		</g>
		<path class="st3" d="M151.4,293.7c1.6-0.8,3.3-1.4,5.1-1.8c1.3-0.4,1.7-1,3.3-0.4c4.4,1.4-0.9,4-2.6,6c-0.6,0.7-1.9,1.5-1.6,2.6
			c0.3,1.1,2.8,0.9,3.6,0.5c0.5,1.2,1.5,2.2,2.6,2.8c2.5,0.7,1.1-1.3,2.6-2.3c1-0.8,2.5-0.6,3.2,0.4c0,0.1,0.1,0.1,0.1,0.2
			c1,1.5-0.1,1.6-0.6,3c-0.5,1.4,0.3,1.2-0.2,1.9c-0.4,0.7-1.6,0.9-1.9,1.4c-0.8,1-0.6,2.5,0.3,3.4c1.9,1.6,1.6-0.4,2.8-1.1
			c1.1-0.7,1.8,0,3.2,0c1.4,0,5.4-2.8,6.6,0.9c0.3,1-0.9,2-0.2,3c0.6,1,1.6,0.7,2.2,1c1.8,1,2.7,1.8,4.8,0.9
			c1.7-0.7,3.2-1.8,4.4-3.1c1-1.2-0.2-3.6,2.7-3.8c1.5,0,2.2,1.9,3.5,1.8c1.2-0.1,2.2-2.6,2.9-3.4c0.7-0.8,1.9-2.9,3-3l1.2,1
			l1.8,0.2c1.5,0.7,0.6,2.1,2,3c1.4,0.9,3.5-1,4.9-0.5l0.1-0.6l0.5,0.4c0.6,1.5,1.8,2.8,3.4,3.4c1.2-2.4,3.6-3.9,6.2-4.2
			c0.6,0,0.9,0.8,1.8,0.5c0.8-0.1,1.5-0.4,2.3-0.8c2-0.5,1.8-0.2,3.3,0.4c0,0,0.1,1,0.7,1.2c0.6,0.2,2-0.3,3-1
			c1-0.6,1.8-2.1,3.4-1.6c1.6,0.5,1.8,2.4,2.3,2.5c0.5,0.1,2.3-1.6,2.3-2.8c3.8-0.8,2,3.7,3.5,4.6c1.4,0.9,3.8-1.1,4.7-2.4
			c0.9-1.3,0.4-1.9,1-3.2c1.1-2.6,4.2-2.2,6.3-3.3c1.3-0.7,2.7-1.3,4.2-1.6c1.2-0.3,3.4-1.1,3.7-2.5c0.2-1.4-1.6-1.9-1.8-3.1
			c-0.2-1.2,1.6-1.9,1.6-4.1c0-2.2-2.3-3.2,0.3-3.6c1.4-0.2,2.6,2.2,4.1,0.5c0.9-1,0.5-4,0.9-5.2c0.4-1.2,1.6-1.9,2.1-3.3
			c0.4-1.2,0.8-2.5,1-3.8c0.2-1.2,0.6-2.4,1.1-3.5c1-1.8,1.6-1.9,1.5-4.1c-0.2-1.4-0.7-2.7-1.5-3.9c-0.9-1.5-1.4-1.6-0.3-3.5
			c0.6-1.2,1.7-2.1,3.1-2.3c-2.7-3.1,0.9-2.5,0.6-5.9c-0.1-1.3-0.9-1.7-1.7-2.6c-1.5-1.9-0.6-1.4,0.1-3.5c0.6-2.1-1.9-4.6-4.3-5.8
			c-2.4-1.2-4.2-0.5-3-3.3c0.5-1.4,2-2.2,3.4-2c0.9,0.2,6.6,5.5,5.4,0.5c-0.3-1.3-2.1-1.7-2.9-2.4c-1.3-2.1,1-2.8,0.3-4.3
			c-0.6-1.5-2.5-0.7-2.9-1.9c-0.4-1.2,1.6-2.7,1.8-4c0.2-1.3-0.5-1.4-0.2-2.4c0.3-1,1.1-1.3,1.5-1.8c0.4-0.5,0.9-1-0.8-2.3
			c-2.4-2-2.6-0.1-1.7-3.4c0.2-0.8-0.1-1.4,0.3-2.3c0.4-1,1.8-1.4,1.3-2.6c-0.5-1.2-2.1-0.3-2.7-0.6c-0.6-0.3-1-0.7-1.4-1.2
			c-0.9-0.7,1-1.2-0.9-1.6c-1-0.3-2.7,1.1-3.7,1.4c-0.6-1.2-1.5-2.2-2.5-2.9c-0.7-0.6-1.6-0.2-2.3-0.6c-0.7-0.4-1.2-1.1-1.7-1.4
			c-0.5-0.4-2.7,0.6-3.6,0.2c-0.8-0.3-1.3-1.1-1.3-2c0-1,1.5-1.3,1.7-2.1l-0.7-1.5c0.1-2.3,2.5-3.7,1.8-5.8
			c-0.3-1.3-1.6-1.9-1.8-3.2c-0.2-1.4,1.5-2.5,0.5-4c-1.7-2.5-3.7,1.8-5.8,1.1c-0.9-0.3-1.3-1.6-2.2-1.8c-2-1.2-1.1,0.3-2.5,0.1
			c-1.4-0.1-1.6-0.9-2.7-0.8c-2.9,0.1-3.6,4.3-4.8,6.4c-0.8-1.4,1.4-6.2,0.4-7.5c-1-1.3-3.9,1.9-5.4-0.6c-1.7,0.3-2.4,2.2-3.6,3.3
			c-1.2,1.1-2.6,1.3-3.6,3.2c-0.5-2-0.2-4.8-2-6.4c-1.1,1.3-2.6,1.5-3.5-0.2c-0.9,0.5-1.6,1.3-2,2.3c-0.5-0.1-1-0.3-1.4-0.6
			c0.6,1.2,1.6,2.2,2.8,2.8l1-0.1c-1.5,1.1-3.5,1.3-5.2,0.5c-0.9-0.7-2.2-2.6-3.2-2.7c-2.1-0.2-5.1,4.9-6.5,5.9
			c-1.4,1-2.9,0.8-4,1.5c-1.2,0.7-3.3,2.8-4.7,1c-1.4-1.9,1.1-3.6-1.6-2.3c-1.8,0.9-2.6,2.9-2,4.8c-0.9,1.1-2.2,0.1-3.1-0.5
			c-0.6,0.7,0,1.8-0.4,2.6c-0.4,0.8-1,1.2-1.5,1.8c-0.5,0.6,0.1,1.8-0.4,2.6c-0.5,0.8-1.6,1.3-2.1,2s-0.6,2.2-0.8,2.4l-1.5,0.9
			c-0.9,1-0.7,3.8-3.1,2.5c-1.4,0.9,0,1.8-0.5,2.8c-0.5,1-1.2,0.9-2.1,1.5c-0.9,0.9-1.9,1.6-3,2c-1.7,2-3.3,4.6-4.9,6.4l-1.4,3.6
			c-0.4,1.2-1.7,2-2.4,2.9s0.7,2.7-0.3,4.8c-1,2.1-1.5,5.2-4.3,6.9c-0.7,0.5-1.4,0.8-2.1,1.1l-1.5-0.4l-0.9,1.1
			c-0.9,0.2-1.8,0.5-2.6,0.9l-2.5,3c0,0-2,2.3-3.3,3.3c0,0-0.9,0.1-1.4,0.5c-0.5,0.4,0.3,1.2-0.7,1.6c-1,0.4-2.2-1.4-4,0.4
			s-0.2,2.1-0.3,4c-0.3,2.9-2.5,0.6-3.9,2.4c0.7,0.9,1.7,1.7,2.7,2.3l2.9-0.1c0.3-0.3,0.9-1,1.2-1.5c0.4-0.4,0.9,0.8,1.1,0.9
			c0.2,0.1,1.6-1.9,3.2-1.6c3.6,0.9-2,3.8-3.2,4.6c-1.3,0.8-2.6,0.5-3.3,2.1c-0.7,1.6,1.5,3.5-1.7,3.1c2.3,2.6-5.2,4.4,0.8,5.8
			c-1.6,3.1,1.9,1.6,2.8,2.4c1.9,1.6,0.2,2.7-0.4,3.9c-1.5,2.8-0.7,4.3,1.8,6.6c1.1,0.8,1.8,2,2.1,3.3c0.7,1.9,0.8,1.5-0.1,3.3
			l-0.8,1c-0.6,0.7-0.1,1.4-0.3,2.1c-0.2,0.8-1.3,2.6-0.9,3.5C147,299.6,150,294.5,151.4,293.7L151.4,293.7z"/>
		<path class="st3" d="M242.6,197.1c1.6-0.7,3.3-1.3,5-1.7c1.3-0.4,1.7-1,3.3-0.4c4.4,1.4-0.9,4-2.6,6c-0.6,0.7-1.9,1.5-1.5,2.5
			c0.3,1,2.7,1,3.6,0.5c0.5,1.2,1.4,2.2,2.6,2.9c2.5,0.7,1.2-1.4,2.6-2.3c1-0.8,2.5-0.6,3.2,0.4c0,0.1,0.1,0.1,0.1,0.2
			c1,1.5,0,1.6-0.5,3c-0.5,1.4,0.2,1.2-0.2,1.9c-0.4,0.7-1.5,0.9-1.9,1.4c-0.8,1-0.7,2.5,0.3,3.4c1.9,1.6,1.6-0.3,2.8-1.1
			c1.2-0.8,1.8,0,3.1,0s5.4-2.8,6.7,0.8c0.3,1-0.8,2-0.2,3c0.6,1,1.5,0.7,2.1,1.1c1.8,1,2.7,1.8,4.8,0.9c1.7-0.7,3.2-1.8,4.4-3.1
			c1-1.2-0.2-3.6,2.9-3.5c1.5-0.1,2.2,1.8,3.4,1.8c1.2-0.1,2.2-2.7,2.9-3.4c0.7-0.8,1.9-2.9,3-2.9l1.2,1l1.7,0.1
			c1.5,0.7,0.6,2.1,2,3c1.4,1,3.5-1,4.9-0.5l-0.1-0.6l0.5,0.4c0.6,1.6,1.8,2.8,3.3,3.5c1.2-2.3,3.5-3.8,6-4c0.6,0,0.9,0.8,1.7,0.6
			c0.8-0.2,1.6-0.4,2.3-0.8c2-0.5,1.9-0.2,3.2,0.4c0,0,0.2,0.9,0.7,1.2c0.5,0.2,2-0.3,3-1c1-0.7,1.7-2.1,3.4-1.6
			c1.6,0.5,1.8,2.5,2.3,2.6c0.5,0,2.3-1.6,2.6-2.6c3.7-0.8,2,3.7,3.4,4.7c1.5,0.9,3.9-1.1,4.7-2.4c0.9-1.3,0.4-1.9,0.9-3.1
			c1.1-2.6,4.2-2.2,6.3-3.3c1.3-0.7,2.7-1.2,4.1-1.6c1.2-0.3,3.5-1.1,3.7-2.5c0.2-1.4-1.6-1.9-1.9-3.1c-0.3-1.2,1.6-1.9,1.6-4.1
			s-2.3-3.2,0.3-3.6c1.4-0.2,2.6,2.2,4.1,0.5c0.8-1,0.5-3.9,0.9-5.2c0.3-1.3,1.6-1.9,2.1-3.3c0.5-1.2,0.8-2.5,1-3.7
			c0.2-1.2,0.6-2.4,1.1-3.5c1-1.9,1.6-1.9,1.5-4.1c-0.2-1.4-0.7-2.8-1.5-3.9c-0.9-1.5-1.4-1.7-0.3-3.5c0.6-1.2,1.7-2.1,3.1-2.4
			c-2.7-3.1,0.9-2.5,0.6-5.8c-0.1-1.4-1-1.7-1.8-2.7c-1.6-1.9-0.6-1.4,0.1-3.4c0.7-2.1-1.9-4.6-4.3-5.9c-2.4-1.2-4.1-0.4-3-3.3
			c0.5-1.4,2-2.2,3.5-1.9c0.9,0.2,6.5,5.5,5.3,0.5c-0.3-1.2-2-1.7-2.9-2.4c-1.3-2.1,1-2.8,0.3-4.3c-0.6-1.5-2.5-0.8-2.9-1.9
			c-0.4-1.2,1.6-2.8,1.8-4.1c0.2-1.3-0.6-1.4-0.2-2.4c0.3-1,1.1-1.3,1.5-1.8c0.4-0.4,0.6-1.3-0.8-2.3c-2.4-2-2.6-0.1-1.7-3.5
			c0.2-0.8-0.1-1.4,0.2-2.3s1.8-1.4,1.3-2.6c-0.5-1.2-2-0.3-2.7-0.6c-0.6-0.3-1-0.7-1.4-1.2c-0.9-0.7,1-1.2-0.9-1.6
			c-1-0.3-2.8,1-3.7,1.3c-0.6-1.2-1.5-2.2-2.6-2.9c-0.7-0.6-1.5-0.3-2.2-0.6c-0.7-0.3-1.3-1.1-1.8-1.5c-0.5-0.4-2.6,0.7-3.5,0.2
			c-0.8-0.3-1.3-1.1-1.3-2c0.1-1,1.5-1.3,1.8-2.1l-0.7-1.5c0.1-2.3,2.5-3.7,1.8-5.8c-0.2-1.2-1.6-1.8-1.8-3.2
			c-0.2-1.4,1.5-2.5,0.5-4c-1.7-2.5-3.7,1.8-5.9,1c-0.9-0.3-1.3-1.5-2.1-1.8c-2.1-1.2-1.1,0.2-2.5,0.1c-1.4-0.1-1.6-0.8-2.7-0.8
			c-2.9,0.1-3.6,4.3-4.8,6.4c-0.8-1.4,1.4-6.2,0.4-7.4c-0.9-1.2-3.9,1.9-5.4-0.6c-1.7,0.3-2.4,2.2-3.6,3.3c-1.4,0.8-2.7,1.9-3.6,3.2
			c-0.5-2-0.2-4.8-2-6.4c-1.1,1.2-2.6,1.5-3.4-0.2c-0.9,0.5-1.6,1.3-2,2.3c-0.5-0.1-1-0.2-1.4-0.6c0.6,1.2,1.6,2.2,2.8,2.8l1-0.1
			c-1.5,1.1-3.5,1.3-5.2,0.5c-1-0.5-2.1-2.7-3.2-2.7c-2.1-0.3-5.1,4.8-6.6,5.9c-1.5,1-2.8,0.7-4,1.4c-1.2,0.7-3.3,2.8-4.7,1
			c-1.4-1.9,1.1-3.5-1.7-2.3c-1.7,0.9-2.6,2.9-2,4.8c-0.9,1.1-2.1,0.1-3-0.5c-0.6,0.7,0,1.8-0.4,2.6s-1.1,1.2-1.6,1.9
			c-0.5,0.6,0.1,1.8-0.3,2.7s-1.6,1.2-2.1,1.9c-0.5,0.8-0.6,2.2-0.8,2.5l-1.5,0.8c-0.9,1.1-0.7,3.9-3.1,2.5c-1.4,0.9,0,1.8-0.5,2.9
			c-0.5,1.1-1.2,0.8-2.1,1.4c-0.9,0.6-1.7,2.1-3,2c-1.6,1.9-3.3,4.6-4.9,6.4l-1.4,3.6c-0.5,1.2-1.7,2-2.4,2.9
			c-0.8,1.9,0.7,2.7-0.3,4.8c-1,2.1-1.4,5.2-4.3,6.9c-0.6,0.5-1.3,0.8-2.1,1.1l-1.5-0.4l-0.9,1.1c-0.9,0.2-1.8,0.5-2.6,0.9l-2.5,3
			c-0.8,0.9-2,2.3-3.2,3.3c-0.2,0.2-1,0.1-1.4,0.4c-0.4,0.4,0.3,1.2-0.7,1.6c-1,0.4-2.2-1.4-4,0.4c-1.8,1.8-0.2,2.1-0.3,4
			c-0.2,1.9-2.5,0.7-3.9,2.5c0.8,0.9,1.8,1.5,2.9,2l2.9-0.1c0.3-0.3,0.9-1,1.2-1.5c0.4-0.4,0.9,0.8,1.1,0.9c0.2,0.1,1.6-1.9,3.3-1.6
			c3.6,0.9-2,3.9-3.2,4.7c-1.2,0.8-2.6,0.5-3.3,2.1c-0.7,1.6,1.5,3.5-1.7,3.2c2.3,2.5-5.2,4.4,0.8,5.8c-1.6,3.1,1.9,1.6,2.9,2.4
			c1.8,1.5,0.2,2.7-0.5,3.9c-1.5,2.8-0.6,4.3,1.8,6.6c1.1,0.8,1.8,1.9,2.1,3.2c0.7,2,0.8,1.5-0.1,3.4l-0.8,0.9
			c-0.6,0.7-0.1,1.4-0.3,2.2c-0.2,0.8-1.3,2.6-0.9,3.4C238.2,203,241.3,198,242.6,197.1L242.6,197.1z"/>
		<path class="st2" d="M273.4,130.5c1.6-0.8,3.3-1.3,5-1.7c1.3-0.4,1.7-1,3.3-0.5c4.4,1.5-0.9,4-2.6,6c-0.6,0.7-1.9,1.5-1.5,2.5
			c0.3,1,2.7,1,3.6,0.5c0.5,1.2,1.4,2.2,2.6,2.8c2.5,0.7,1.2-1.4,2.7-2.2c1-0.8,2.4-0.7,3.2,0.3c0.1,0.1,0.1,0.1,0.2,0.2
			c1,1.5,0,1.6-0.5,3.1c-0.4,0.4,0.3,1.2-0.2,1.9c-0.4,0.7-1.6,0.8-1.9,1.4c-0.8,1-0.6,2.5,0.3,3.4c1.9,1.6,1.6-0.4,2.8-1.1
			c1.2-0.7,1.8,0,3.2,0s5.4-2.8,6.6,0.9c0.3,1-0.8,2-0.2,3c0.6,1,1.5,0.7,2.2,1c1.8,1,2.7,1.8,4.8,0.9c1.7-0.7,3.1-1.8,4.4-3.1
			c1-1.2-0.2-3.6,2.7-3.8c1.5-0.1,2.2,1.8,3.5,1.8s2.2-2.6,2.9-3.4c0.7-0.8,1.9-2.9,3-2.9l1.2,1l1.8,0.2c1.5,0.7,0.6,2.1,2,3
			c1.4,0.9,3.5-1,4.9-0.5l-0.2-0.6l0.6,0.5c0.6,1.6,1.8,2.8,3.3,3.5c1.2-2.3,3.4-3.8,6-4c0.6,0,0.9,0.8,1.8,0.5
			c0.9-0.2,1.5-0.6,2.3-0.8c2-0.5,1.8-0.2,3.2,0.4c0,0,0.1,1,0.7,1.2c0.6,0.2,2-0.3,3-1c1-0.7,1.7-2.1,3.4-1.6
			c1.6,0.5,1.7,2.5,2.3,2.6c0.5,0.1,2.3-1.6,2.4-2.8c3.8-0.8,2,3.7,3.4,4.7c1.4,0.9,3.8-1.1,4.7-2.4c0.9-1.3,0.5-1.9,1-3.1
			c1.1-2.6,4.2-2.2,6.3-3.3c1.3-0.7,2.7-1.2,4.1-1.6c1.2-0.3,3.4-1.1,3.7-2.6c0.3-1.5-1.6-1.9-1.9-3c-0.3-1.2,1.6-1.9,1.6-4.1
			c-0.1-2.1-2.3-3.2,0.3-3.6c1.4-0.2,2.6,2.2,4.1,0.5c0.9-1,0.5-4,0.9-5.2c0.4-1.2,1.6-1.9,2.1-3.3c0.5-1.2,0.8-2.5,1-3.8
			c0.3-1.2,0.6-2.4,1.1-3.5c1-1.9,1.6-1.9,1.5-4.1c-0.2-1.4-0.7-2.8-1.5-3.9c-0.8-1.5-1.3-1.6-0.3-3.5c0.7-1.3,2-2.1,3.4-2.2
			c-2.6-3.2,0.9-2.6,0.6-5.9c-0.1-1.3-0.9-1.7-1.7-2.6c-1.5-1.9-0.6-1.4,0.1-3.5c0.6-2.1-1.8-4.6-4.3-5.9c-2.4-1.2-4.2-0.5-3.1-3.3
			c0.5-1.4,1.9-2.3,3.4-2c1,0.2,6.6,5.5,5.4,0.5c-0.3-1.3-2.1-1.7-2.9-2.5c-1.3-2.1,1-2.8,0.3-4.3c-0.6-1.5-2.5-0.8-3-2
			c-0.5-1.2,1.6-2.7,1.8-4c0.2-1.3-0.5-1.4-0.2-2.4c0.3-1,1.1-1.3,1.5-1.8c0.4-0.4,0.9-1.1-0.8-2.3c-2.4-2-2.6-0.1-1.6-3.4
			c0.2-0.8-0.2-1.4,0.2-2.3c0.4-0.9,1.8-1.4,1.3-2.6c-0.5-1.2-2.1-0.3-2.7-0.6c-0.5-0.3-1-0.7-1.4-1.2c-0.9-0.8,1-1.2-0.9-1.6
			c-1-0.3-2.7,1-3.7,1.3c-0.6-1.2-1.5-2.1-2.6-2.9c-0.8-0.7-1.6-0.3-2.3-0.6c-0.7-0.3-1.2-1.1-1.7-1.4c-0.5-0.4-2.7,0.6-3.6,0.2
			c-0.8-0.3-1.3-1.1-1.3-2c0-1,1.3-1.5,1.7-2.1l-0.7-1.5c0.1-2.4,2.5-3.7,2-6c-0.3-1.2-1.6-1.9-1.8-3.2c-0.2-1.4,1.5-2.5,0.5-4
			c-1.7-2.6-3.7,1.8-5.9,1c-0.9-0.3-1.3-1.5-2.1-1.8c-2.1-1.1-1.1,0.2-2.5,0.1c-1.3-0.1-1.6-0.8-2.7-0.8c-2.9,0-3.6,4.3-4.8,6.4
			c-0.8-1.4,1.4-6.2,0.4-7.5c-1-1.3-3.9,1.9-5.4-0.6c-1.7,0.3-2.4,2.3-3.6,3.3c-1.4,0.8-2.6,1.9-3.6,3.3c-0.5-2-0.2-4.8-2-6.4
			c-1.3,1.1-2.6,1.4-3.5-0.2c-0.9,0.5-1.6,1.3-1.9,2.3c-0.5,0-1-0.2-1.4-0.6c0.6,1.2,1.6,2.2,2.8,2.8l1-0.1
			c-1.5,1.1-3.6,1.3-5.3,0.5c-0.8-0.7-2.1-2.7-3.2-2.7c-2.1-0.2-5.1,4.9-6.6,5.9c-1.5,1-2.8,0.8-3.9,1.5c-1.1,0.7-3.3,2.9-4.7,1
			c-1.4-1.9,1.1-3.6-1.6-2.3c-1.7,0.9-2.6,2.9-2,4.8c-0.9,1.1-2.2,0.1-3.1-0.5c-0.6,0.7,0,1.8-0.4,2.6c-0.4,0.8-1.1,1.2-1.6,1.9
			c-0.5,0.6,0,1.8-0.4,2.6c-0.4,0.8-1.5,1.2-2,2s-0.6,2.2-0.8,2.5l-1.5,0.8c-0.9,1.1-0.7,3.8-3.1,2.5c-1.4,1,0,1.8-0.6,2.8
			c-0.5,1.1-1.2,0.9-2.1,1.5c-0.9,0.6-1.7,2-3,2c-1.6,1.9-3.3,4.6-4.9,6.4l-1.4,3.6c-0.4,1.2-1.7,2-2.4,2.9
			c-0.7,0.9,0.7,2.7-0.3,4.8c-1,2.1-1.4,5.2-4.3,6.9c-0.6,0.4-1.3,0.8-2,1.1l-1.5-0.5l-0.9,1.1c-0.9,0.2-1.8,0.5-2.6,0.9l-2.5,3
			c-0.8,0.9-2,2.3-3.3,3.3c-0.2,0.2-1,0.1-1.4,0.5c-0.5,0.4,0.4,1.2-0.7,1.6c-1.1,0.4-2.1-1.4-4,0.4c-1.8,1.8-0.2,2.1-0.3,4
			c-0.3,2.9-2.5,0.6-3.9,2.4c0.8,0.9,1.8,1.5,2.9,2l2.9-0.1c0.3-0.3,0.9-1,1.3-1.5c0.4-0.5,0.9,0.8,1.1,0.9c0.1,0.1,1.6-1.9,3.3-1.5
			c3.6,0.9-2,3.9-3.2,4.6c-1.3,0.8-2.6,0.5-3.3,2.1c-0.7,1.6,1.5,3.5-1.8,3.2c2.3,2.5-5.2,4.4,0.8,5.8c-1.6,3.1,1.9,1.6,2.8,2.4
			c1.9,1.6,0.2,2.7-0.4,3.8c-1.5,2.9-0.6,4.3,1.8,6.6c1.1,0.8,1.8,2,2.1,3.3c0.7,1.9,0.8,1.4-0.1,3.3l-0.8,1
			c-0.6,0.7-0.1,1.4-0.3,2.1c-0.2,0.8-1.3,2.6-0.9,3.4C268.9,136.4,272,131.4,273.4,130.5L273.4,130.5z"/>
		<path class="st0" d="M310.2,300.6c1.6-0.7,3.3-1.3,5-1.7c1.3-0.4,1.7-1,3.3-0.4c4.4,1.4-0.9,4-2.6,6c-0.6,0.7-1.9,1.5-1.5,2.5
			c0.3,1,2.7,1,3.6,0.5c0.5,1.2,1.4,2.2,2.6,2.9c2.4,0.7,1.2-1.4,2.6-2.3c1-0.8,2.4-0.7,3.2,0.3c0.1,0.1,0.1,0.2,0.2,0.3
			c1,1.5-0.1,1.6-0.5,3c-0.5,1.4,0.2,1.2-0.2,1.9c-0.4,0.7-1.6,0.8-1.9,1.4c-0.8,1-0.7,2.5,0.3,3.4c1.9,1.6,1.6-0.4,2.8-1.1
			c1.2-0.7,1.8,0,3.1,0c1.4,0,5.4-2.8,6.7,0.8c0.3,1-0.9,2-0.3,3c0.6,1,1.6,0.7,2.2,1c1.8,1,2.7,1.8,4.8,0.9
			c1.7-0.7,3.2-1.8,4.4-3.1c1-1.2-0.2-3.6,2.7-3.7c1.5-0.1,2.2,1.8,3.5,1.8c1.3,0,2.2-2.7,2.9-3.4c0.7-0.8,1.9-2.9,3-2.9l1.2,1
			l1.8,0.2c1.5,0.7,0.6,2.1,2,3c1.4,0.9,3.5-1,4.9-0.5l-0.1-0.6l0.5,0.4c0.6,1.6,1.8,2.8,3.3,3.5c1.2-2.3,3.5-3.8,6-4
			c0.6,0,0.9,0.8,1.7,0.6c0.8-0.2,1.6-0.4,2.3-0.8c2-0.5,1.8-0.2,3.2,0.4c0,0,0.1,0.9,0.7,1.2c0.6,0.3,2-0.3,3-1
			c1-0.7,1.7-2.1,3.4-1.6c1.6,0.5,1.7,2.5,2.3,2.6c0.5,0.1,2.3-1.6,2.4-2.8c3.8-0.8,2,3.7,3.4,4.7c1.4,0.9,3.8-1.1,4.7-2.4
			c0.9-1.3,0.4-1.8,1-3.1c1.1-2.6,4.2-2.2,6.3-3.3c1.3-0.7,2.7-1.3,4.1-1.6c1.2-0.4,3.4-1.1,3.7-2.6c0.3-1.5-1.6-1.9-1.9-3
			c-0.3-1.2,1.6-1.9,1.6-4.1c0-2.2-2.3-3.2,0.3-3.5c2.6-0.3,2.6,2.2,4.1,0.4c0.8-1,0.5-3.9,0.9-5.2c0.4-1.2,1.6-1.9,2.1-3.3
			c0.4-1.2,0.8-2.5,1-3.7c0.2-1.2,0.6-2.4,1.1-3.5c1-1.9,1.6-1.9,1.5-4.1c-0.2-1.4-0.7-2.7-1.5-3.9c-0.9-1.5-1.4-1.7-0.3-3.5
			c0.6-1.2,1.7-2.1,3.1-2.3c-2.6-3.2,0.9-2.6,0.6-5.9c-0.1-1.3-0.9-1.7-1.7-2.7c-1.6-1.9-0.6-1.4,0.1-3.5c0.7-2.1-1.9-4.6-4.3-5.8
			c-2.4-1.2-4.2-0.5-3-3.3c0.5-1.4,1.9-2.3,3.4-2c0.9,0.2,6.6,5.5,5.4,0.5c-0.3-1.2-2.1-1.7-2.9-2.5c-1.3-2.1,1-2.8,0.3-4.3
			c-0.7-1.5-2.5-0.8-3-2c-0.5-1.2,1.6-2.7,1.8-4s-0.6-1.4-0.2-2.4c0.3-1,1.3-1.2,1.5-1.8c0.1-0.6,0.9-1.1-0.8-2.3
			c-2.3-2-2.6-0.1-1.6-3.4c0.2-0.8-0.1-1.4,0.2-2.3c0.3-0.9,1.8-1.4,1.3-2.6c-0.5-1.2-2-0.4-2.7-0.6c-0.5-0.3-1-0.7-1.4-1.2
			c-0.9-0.7,1-1.2-0.9-1.6c-1-0.3-2.7,1-3.7,1.3c-0.6-1.2-1.5-2.1-2.6-2.9c-0.8-0.7-1.6-0.3-2.3-0.6c-0.7-0.3-1.2-1.1-1.7-1.4
			c-0.5-0.4-2.7,0.6-3.6,0.2c-0.8-0.3-1.3-1.1-1.3-2c0-1,1.5-1.3,1.8-2.1l-0.7-1.5c0.1-2.3,2.5-3.7,2-6c-0.3-1.3-1.6-1.9-1.8-3.2
			c-0.2-1.3,1.5-2.5,0.5-4c-1.7-2.5-3.7,1.8-5.9,1c-0.9-0.2-1.3-1.5-2.1-1.8c-2-1.2-1.1,0.3-2.5,0.1c-1.4-0.1-1.6-0.8-2.7-0.8
			c-2.9,0.1-3.6,4.3-4.8,6.4c-0.8-1.4,1.4-6.2,0.4-7.5c-1-1.3-3.9,1.9-5.4-0.6c-1.7,0.3-2.4,2.3-3.6,3.3c-1.4,0.8-2.6,1.9-3.6,3.3
			c-0.5-2-0.2-4.8-2-6.4c-1.1,1.2-2.6,1.4-3.5-0.3c-0.9,0.5-1.7,1.3-2,2.3c-0.5-0.1-1-0.3-1.4-0.6c0.6,1.2,1.6,2.2,2.8,2.8l1-0.1
			c-1.5,1.1-3.5,1.3-5.2,0.5c-1-0.5-2.2-2.7-3.2-2.7c-2.1-0.2-5.1,4.9-6.6,5.9c-1.5,1-2.8,0.8-3.9,1.5c-1.2,0.7-3.3,2.9-4.7,1
			c-1.4-1.9,1.1-3.6-1.7-2.3c-1.7,0.9-2.6,2.9-2,4.8c-0.9,1.1-2.2,0.1-3.1-0.5c-0.6,0.7,0,1.8-0.4,2.6s-1.1,1.2-1.6,1.9
			c-0.5,0.6,0.1,1.8-0.4,2.6c-0.5,0.8-1.5,1.2-2,2c-0.5,0.8-0.6,2.2-0.8,2.5l-1.5,0.8c-0.9,1.1-0.7,3.8-3.1,2.5
			c-1.4,0.9,0,1.8-0.6,2.8c-0.5,1.1-1.2,0.8-2.1,1.4c-0.9,0.6-1.7,2.1-3,2c-1.6,1.9-3.1,4.3-4.9,6.4l-1.4,3.6
			c-0.4,1.2-1.7,2-2.4,2.9c-0.7,0.9,0.7,2.7-0.3,4.8s-1.4,5.2-4.3,6.9c-0.6,0.4-1.3,0.8-2,1.1l-1.5-0.5l-0.9,1
			c-0.9,0.2-1.8,0.5-2.6,0.9l-2.5,3c-0.8,0.9-2,2.3-3.3,3.3c0,0-0.9,0.1-1.4,0.5c-0.4,0.4,0.3,1.2-0.7,1.6s-2.2-1.4-4,0.5
			c-1.8,1.8-0.2,2.1-0.3,4c-0.2,1.9-2.5,0.6-3.9,2.4c0.8,0.9,1.8,1.5,2.9,2l3.3,0.7c0.3-0.3,0.9-1.1,1.3-1.5
			c0.4-0.4,0.9,0.8,1.1,0.9c0.1,0.1,1.6-1.9,3.3-1.6c3.5,0.9-2,3.9-3.2,4.6c-1.2,0.7-2.6,0.5-3.3,2.1s1.5,3.5-1.8,3.2
			c2.3,2.6-5.2,4.4,0.8,5.8c-1.6,3.1,1.9,1.6,2.8,2.4c1.9,1.6,0.2,2.7-0.5,3.9c-1.4,2.8-0.6,4.3,1.8,6.6c1.1,0.8,1.9,1.9,2.1,3.3
			c0.7,1.9,0.8,1.4-0.1,3.3l-0.1,0.1c-0.4,0.9-0.2,1.4-0.4,2.2c-0.2,0.8-1.3,2.6-0.9,3.5C305.8,306.4,308.9,301.4,310.2,300.6
			L310.2,300.6z"/>
		<path class="st2" d="M215.7,307.5c1.6-0.7,3.3-1.3,5-1.7c1.3-0.4,1.7-1,3.3-0.4c4.4,1.4-0.9,4-2.6,6c-0.6,0.7-1.9,1.5-1.5,2.5
			c0.3,1,2.7,1,3.6,0.5c0.5,1.2,1.4,2.2,2.6,2.9c2.4,0.7,1.2-1.4,2.6-2.3c1-0.8,2.4-0.7,3.2,0.3c0.1,0.1,0.1,0.2,0.2,0.3
			c1,1.5,0,1.6-0.5,3c-0.5,1.4,0.2,1.2-0.2,1.9c-0.4,0.7-1.6,0.8-1.9,1.4c-0.8,1-0.7,2.5,0.3,3.4c1.9,1.6,1.6-0.3,2.8-1.1
			c1.2-0.8,1.8,0,3.1,0c1.4,0,5.4-2.8,6.7,0.8c0.3,1-0.9,2-0.3,3c0.6,1,1.6,0.7,2.2,1c1.8,1,2.7,1.8,4.8,0.9
			c1.7-0.7,3.2-1.8,4.4-3.1c1-1.2-0.2-3.6,2.7-3.7c1.5-0.1,2.2,1.8,3.4,1.8s2.2-2.7,2.9-3.4c0.7-0.8,1.9-2.9,3-2.9l1.2,1l1.8,0.2
			c1.5,0.7,0.6,2.1,2,3c1.4,0.9,3.5-1,4.9-0.5l-0.1-0.6l0.5,0.4c0.6,1.6,1.8,2.8,3.3,3.5c1.2-2.3,3.5-3.8,6-4c0.6,0,0.9,0.8,1.7,0.6
			c0.8-0.2,1.6-0.4,2.3-0.8c2-0.5,1.8-0.2,3.2,0.4c0,0,0.1,0.9,0.7,1.2c0.6,0.3,2-0.3,3-1c1-0.7,1.7-2.1,3.4-1.6
			c1.6,0.5,1.7,2.5,2.3,2.6c0.5,0.1,2.3-1.6,2.4-2.8c3.8-0.8,2,3.7,3.4,4.7c1.4,0.9,3.9-1.1,4.7-2.4c0.8-1.4,0.4-1.8,1-3.1
			c1.1-2.6,4.2-2.2,6.3-3.3c1.3-0.7,2.7-1.3,4.1-1.6c1.2-0.4,3.4-1.1,3.7-2.6c0.3-1.5-1.6-1.9-1.9-3c-0.3-1.2,1.6-1.9,1.6-4.1
			c0-2.2-2.3-3.2,0.3-3.5c2.5-0.4,2.6,2.2,4.1,0.5c0.9-1,0.5-4,0.9-5.2c0.4-1.2,1.6-1.9,2.1-3.3c0.4-1.2,0.8-2.5,1-3.7
			c0.2-1.2,0.6-2.4,1.1-3.5c1-1.9,1.6-1.9,1.5-4.1c-0.2-1.4-0.7-2.7-1.5-3.9c-0.9-1.5-1.4-1.7-0.3-3.5c0.6-1.2,1.8-2.1,3.1-2.4
			c-2.7-3.1,0.9-2.5,0.6-5.8c-0.1-1.3-0.9-1.7-1.7-2.7c-1.6-1.9-0.6-1.4,0.1-3.5s-1.9-4.6-4.3-5.8c-2.4-1.2-4.2-0.5-3-3.3
			c0.4-1.6,2.1-2.5,3.7-2.1c0.1,0,0.3,0.1,0.4,0.2c0.9,0.2,6.6,5.5,5.4,0.5c-0.3-1.2-2.1-1.7-2.9-2.5c-1.3-2.1,1-2.8,0.3-4.3
			c-0.6-1.5-2.5-0.8-3-2c-0.5-1.2,1.6-2.7,1.8-4c0.2-1.3-0.6-1.4-0.2-2.4c0.3-1,1.1-1.3,1.5-1.8c0.4-0.4,0.7-1.3-0.8-2.3
			c-2.3-2-2.6-0.1-1.6-3.4c0.2-0.8-0.1-1.4,0.2-2.3c0.3-0.9,1.8-1.4,1.3-2.6c-0.5-1.2-2.1-0.3-2.7-0.6c-0.6-0.3-1-0.7-1.4-1.2
			c-0.9-0.7,1-1.2-0.9-1.6c-1-0.3-2.7,1-3.7,1.3c-0.6-1.2-1.5-2.1-2.6-2.9c-0.8-0.7-1.5-0.3-2.3-0.6s-1.2-1.1-1.7-1.4
			c-0.5-0.4-2.7,0.6-3.6,0.2c-0.8-0.3-1.3-1.1-1.3-2c0-1,1.5-1.3,1.8-2.1l-0.7-1.5c0.1-2.3,2.5-3.7,1.8-5.8
			c-0.3-1.2-1.6-1.9-1.8-3.2c-0.2-1.4,1.5-2.5,0.5-4c-1.7-2.5-3.7,1.8-5.8,1.1c-0.9-0.3-1.4-1.5-2.2-1.8c-2-1.2-1.1,0.3-2.5,0.1
			c-1.4-0.1-1.6-0.8-2.7-0.8c-2.9,0.1-3.6,4.3-4.8,6.4c-0.8-1.4,1.4-6.2,0.4-7.5c-1-1.3-3.9,1.9-5.4-0.6c-1.7,0.3-2.4,2.3-3.5,3.3
			c-1.2,1-2.6,1.3-3.6,3.2c-0.5-2-0.2-4.8-2-6.4c-1.1,1.2-2.6,1.5-3.5-0.3c-0.9,0.5-1.6,1.3-2,2.3c-0.5-0.1-1-0.3-1.4-0.6
			c0.6,1.2,1.6,2.2,2.8,2.8l1-0.1c-1.5,1.1-3.5,1.3-5.2,0.5c-0.9-0.7-2.2-2.7-3.2-2.7c-2.1-0.2-5.1,4.9-6.5,5.9
			c-1.5,1-2.8,0.7-4,1.4c-1.2,0.7-3.3,2.9-4.7,1c-1.4-1.9,1.1-3.6-1.7-2.3c-1.7,0.9-2.6,2.9-2,4.8c-0.9,1.1-2.2,0.1-3.1-0.5
			c-0.6,0.7,0,1.8-0.4,2.6c-0.4,0.8-1.1,1.2-1.6,1.9c-0.5,0.6,0.1,1.8-0.4,2.6c-0.5,0.8-1.5,1.2-1.8,2.2s-0.6,2.2-0.8,2.5l-1.5,0.8
			c-0.9,1.1-0.7,3.8-3.1,2.5c-1.4,0.9,0,1.8-0.6,2.8c-0.5,1.1-1.2,0.8-2.1,1.4c-0.9,0.6-2,1.9-3,2l-0.2,0.2
			c-1.6,1.9-3.1,4.3-4.9,6.4l-1.4,3.6c-0.4,1.2-1.7,2-2.4,2.9c-0.7,0.9,0.7,2.7-0.3,4.8c-1,2.1-1.4,5.2-4.3,6.9
			c-0.7,0.4-1.4,0.8-2.1,1.1l-1.5-0.4l-0.9,1.1c-0.9,0.2-1.8,0.5-2.6,0.9l-2.5,3c-0.8,0.9-2,2.3-3.3,3.3c0,0-0.9,0.1-1.4,0.5
			c-0.4,0.4,0.3,1.2-0.7,1.6c-1,0.4-2.2-1.4-4,0.4c-1.8,1.8-0.2,2.1-0.3,4c-0.2,1.9-2.5,0.6-3.9,2.4c0.8,0.9,1.8,1.5,2.9,2l2.9-0.1
			c0.3-0.3,0.9-1.1,1.3-1.5c0.4-0.4,0.9,0.8,1.1,0.9c0.1,0.1,1.6-1.9,3.3-1.6c3.5,0.9-2,3.9-3.2,4.6c-1.2,0.7-2.6,0.5-3.3,2.1
			s1.5,3.5-1.8,3.2c2.3,2.6-5.2,4.4,0.8,5.8c-1.6,3.1,1.9,1.6,2.8,2.4c1.9,1.6,0.2,2.7-0.5,3.9c-1.4,2.8-0.6,4.3,1.8,6.6
			c1.1,0.8,1.9,1.9,2.1,3.3c0.7,1.9,0.8,1.4-0.1,3.3l-0.8,0.9c-0.4,0.9-0.2,1.4-0.4,2.2c-0.2,0.8-1.3,2.6-0.9,3.5
			C211.4,313.3,214.4,308.3,215.7,307.5L215.7,307.5z"/>
		<g>
			<path class="st3" d="M179.1,411.8c1.6-0.8,3.3-1.4,5.1-1.8c1.3-0.4,1.7-1,3.3-0.5c4.4,1.5-0.9,4-2.6,6c-0.6,0.7-1.9,1.5-1.6,2.6
				c0.3,1.1,2.8,0.9,3.7,0.4c0.5,1.2,1.4,2.2,2.6,2.8c2.5,0.7,1.2-1.4,2.7-2.2c1-0.8,2.4-0.7,3.2,0.3c0.1,0.1,0.1,0.1,0.2,0.2
				c1,1.5,0,1.6-0.5,3.1c-0.4,0.5,0.3,1.2-0.2,1.9c-0.4,0.7-1.6,0.9-1.9,1.4c-0.8,1-0.7,2.5,0.3,3.4c1.9,1.6,1.6-0.4,2.8-1.1
				c1.2-0.7,1.8,0,3.2,0c1.4,0,5.4-2.8,6.6,0.9c0.2,0.9-0.8,2-0.2,3c0.6,1,1.5,0.7,2.2,1c1.9,1,2.7,1.8,4.8,0.9
				c1.7-0.7,3.2-1.7,4.5-3c1-1.2-0.2-3.6,2.7-3.8c1.5,0,2.2,1.8,3.5,1.8c1.3,0,2.2-2.6,2.9-3.4c0.7-0.8,1.9-2.9,3-3l1.2,1l1.8,0.2
				c1.5,0.7,0.6,2.1,2,3c1.4,0.9,3.5-1,4.9-0.5l-0.1-0.6l0.6,0.5c0.6,1.6,1.8,2.8,3.3,3.5c1.2-2.3,3.4-3.8,6-4
				c0.6,0,0.9,0.8,1.8,0.5c0.9-0.2,1.5-0.6,2.3-0.8c2-0.6,1.8-0.2,3.2,0.4c0,0,0.1,1,0.7,1.2c0.6,0.2,2-0.3,2.9-1
				c0.9-0.7,1.8-2.1,3.4-1.5c1.6,0.6,1.8,2.4,2.3,2.5c0.5,0.1,2.3-1.6,2.3-2.8c3.8-0.8,2,3.7,3.5,4.6c1.4,0.9,3.8-1.1,4.7-2.4
				s0.5-1.9,1-3.1c1.1-2.6,4.2-2.2,6.3-3.3c1.3-0.7,2.7-1.3,4.2-1.6c1.2-0.3,3.4-1.1,3.7-2.5c0.2-1.4-1.6-1.9-1.8-3.1
				c-0.2-1.2,1.6-1.9,1.6-4.1c-0.1-2.1-2.3-3.2,0.2-3.6c1.4-0.2,2.6,2.2,4.1,0.5c0.9-1,0.5-4,0.9-5.2c0.4-1.2,1.6-1.9,2.1-3.3
				c0.5-1.2,0.8-2.5,1-3.8c0.3-1.2,0.6-2.4,1.1-3.5c1-1.8,1.6-1.9,1.5-4.1c-0.2-1.4-0.7-2.8-1.5-3.9c-0.8-1.5-1.4-1.6-0.3-3.5
				c0.6-1.2,1.7-2.1,3.1-2.3c-2.7-3.1,0.9-2.5,0.6-5.9c-0.1-1.3-0.9-1.7-1.7-2.6c-1.5-1.9-0.6-1.4,0.1-3.5c0.6-2.1-1.9-4.6-4.3-5.8
				c-2.4-1.2-4.1-0.5-3-3.3c0.5-1.4,1.9-2.3,3.4-2c0.9,0.2,6.6,5.5,5.4,0.5c-0.3-1.3-2.1-1.7-2.7-2.7c-1.3-2.1,1-2.8,0.3-4.3
				c-0.6-1.5-2.5-0.7-3-2c-0.4-1.2,1.6-2.7,1.8-4c0.2-1.3-0.5-1.4-0.2-2.4s1.1-1.3,1.5-1.8c0.4-0.5,0.9-1-0.8-2.3
				c-2.4-2-2.6-0.1-1.7-3.4c0.2-0.8-0.1-1.4,0.3-2.3s1.8-1.4,1.3-2.6c-0.5-1.2-2.1-0.3-2.7-0.6c-0.5-0.3-1-0.7-1.4-1.2
				c-0.9-0.8,1-1.2-0.9-1.6c-1-0.3-2.7,1-3.7,1.3c-0.6-1.2-1.5-2.1-2.6-2.9c-0.8-0.7-1.6-0.3-2.3-0.6c-0.7-0.3-1.2-1.1-1.8-1.5
				c-0.5-0.4-2.6,0.7-3.6,0.2c-0.8-0.3-1.3-1.1-1.3-2c0-1,1.3-1.5,1.7-2.1l-0.7-1.5c0-2.3,2.5-3.7,1.8-5.8c-0.7-2.1-1.6-1.9-1.8-3.3
				c-0.2-1.4,1.5-2.5,0.5-4c-1.7-2.5-3.7,1.8-5.9,1c-0.9-0.3-1.3-1.5-2.1-1.8c-2.1-1.2-1.1,0.2-2.5,0.1c-1.3-0.1-1.6-0.9-2.7-0.8
				c-2.9,0.1-3.6,4.3-4.8,6.4c-0.8-1.4,1.3-6.2,0.4-7.5c-0.9-1.2-3.9,1.9-5.4-0.6c-1.7,0.3-2.4,2.3-3.6,3.3
				c-1.4,0.8-2.6,1.9-3.5,3.2c-0.5-2-0.2-4.8-2-6.4c-1.1,1.3-2.6,1.4-3.5-0.2c-0.9,0.5-1.6,1.3-2,2.3c-0.5-0.1-1-0.3-1.3-0.6
				c0.6,1.2,1.6,2.2,2.8,2.8l1-0.1c-1.5,1.1-3.6,1.3-5.3,0.5c-0.8-0.7-2.1-2.7-3.2-2.7c-2.1-0.2-5.1,4.9-6.6,5.9
				c-1.5,1-2.8,0.8-4,1.5c-1.2,0.7-3.3,2.8-4.7,1c-1.4-1.9,1.1-3.6-1.6-2.3c-1.8,0.9-2.6,2.9-2,4.8c-1.1,0.9-2.2,0.1-3.1-0.5
				c-0.6,0.7,0,1.8-0.4,2.6c-0.3,0.7-1.1,1.2-1.6,1.9s0,1.8-0.4,2.6c-0.4,0.8-1.6,1.3-1.8,2.2c-0.2,0.9-0.7,2.2-0.9,2.4l-1.5,0.9
				c-0.9,1-0.7,3.8-3.1,2.5c-1.4,0.9,0,1.8-0.5,2.8c-0.5,1-1.2,0.9-2.1,1.5c-0.9,0.6-1.7,2-3,2c-1.7,2-3.3,4.6-4.9,6.4l-1.4,3.6
				c-0.4,1.2-1.7,2-2.4,2.9c-0.7,0.9,0.7,2.7-0.3,4.8c-1,2.1-1.5,5.2-4.3,6.9c-0.6,0.5-1.3,0.8-2.1,1.1l-1.5-0.5l-0.9,1.1
				c-0.9,0.2-1.8,0.5-2.6,0.9l-2.5,3c-0.8,0.9-2,2.3-3.3,3.3c0,0-0.9,0-1.4,0.4c-0.5,0.4,0.4,1.2-0.7,1.6c-1.1,0.4-1.9-1.6-4,0.4
				c-2,2.1-0.2,2.1-0.3,4c-0.3,2.9-2.5,0.6-3.9,2.4c0.8,0.9,1.8,1.6,2.9,2.1l2.9-0.1c0.3-0.3,0.9-1,1.2-1.5c0.4-0.4,0.9,0.8,1.1,0.9
				c0.1,0.1,1.6-1.9,3.3-1.5c3.6,0.9-2,3.8-3.2,4.6c-1.2,0.8-2.6,0.5-3.3,2.1c-0.7,1.6,1.5,3.5-1.7,3.1c2.3,2.5-5.2,4.4,0.8,5.8
				c-1.6,3.1,1.9,1.6,2.8,2.4c1.9,1.6,0.2,2.7-0.4,3.8c-1.5,2.9-0.7,4.4,1.8,6.6c1.1,0.8,1.8,2,2.1,3.3c0.7,1.9,0.8,1.5-0.1,3.3
				l-0.8,1c-0.6,0.7-0.1,1.4-0.3,2.1c-0.2,0.8-1.3,2.6-0.9,3.4C174.7,417.6,177.8,412.6,179.1,411.8L179.1,411.8z"/>
			<path class="st3" d="M22.8,288.6c1.6-0.8,3.3-1.4,5.1-1.8c1.3-0.4,1.7-1,3.3-0.4c4.4,1.4-0.9,4-2.6,6c-0.6,0.7-1.9,1.5-1.5,2.5
				c0.3,1,2.7,1,3.6,0.5c0.5,1.2,1.4,2.2,2.6,2.9c2.5,0.7,1.2-1.4,2.6-2.3c1-0.8,2.5-0.6,3.3,0.5c0,0,0,0,0.1,0.1c1,1.5,0,1.6-0.6,3
				c-0.4,0.5,0.3,1.2-0.2,1.9c-0.4,0.7-1.6,0.8-1.9,1.4c-0.8,1-0.6,2.5,0.3,3.4c1.9,1.6,1.6-0.4,2.8-1.1c1.1-0.7,1.8,0,3.2,0
				c1.4,0,5.4-2.8,6.6,0.9c0.3,1-0.8,2-0.2,3s1.6,0.7,2.2,1c1.8,1,2.7,1.8,4.8,0.9c1.7-0.7,3.2-1.8,4.4-3.1c1-1.2-0.2-3.6,3-3.5
				c1.4,0,2.2,1.8,3.4,1.8c1.2-0.1,2.2-2.6,2.9-3.4c0.7-0.8,1.9-2.9,2.9-3l1.2,1l1.8,0.2c1.5,0.7,0.6,2.1,2,3c1.4,1,3.5-1,4.8-0.5
				l-0.1-0.6l0.5,0.4c0.6,1.6,1.8,2.8,3.3,3.5c1.2-2.3,3.5-3.8,6-4c0.6,0,0.9,0.8,1.8,0.5c0.8-0.2,1.5-0.4,2.3-0.8
				c2-0.6,1.8-0.2,3.3,0.4c0,0,0.1,1,0.7,1.2c0.6,0.2,2-0.3,3-1c1-0.6,1.8-2.1,3.4-1.6c1.6,0.5,1.8,2.5,2.3,2.5s2.3-1.6,2.3-2.8
				c3.8-0.8,2,3.7,3.5,4.6c1.4,0.9,3.8-1.1,4.7-2.4c0.9-1.3,0.4-1.9,1-3.2c1.1-2.6,4.2-2.2,6.3-3.3c1.3-0.7,2.7-1.3,4.2-1.6
				c1.2-0.3,3.4-1.1,3.7-2.6c0.3-1.5-1.6-1.8-1.9-3c-0.2-1.2,1.6-1.9,1.6-4.1c-0.1-2.1-2.2-3.2,0.3-3.6c1.4-0.2,2.6,2.2,4.1,0.5
				c0.9-1,0.6-3.9,0.9-5.2c0.3-1.3,1.6-1.9,2.1-3.3c0.4-1.2,0.8-2.5,1-3.8c0.2-1.2,0.6-2.4,1.1-3.5c1-1.8,1.6-1.9,1.6-4.1
				c-0.2-1.4-0.7-2.8-1.5-3.9c-0.9-1.5-1.4-1.6-0.3-3.5c0.6-1.2,1.7-2.1,3.1-2.3c-2.7-3.1,0.9-2.5,0.6-5.9c-0.1-1.3-0.9-1.7-1.7-2.6
				c-1.5-1.9-0.6-1.4,0.1-3.5s-1.9-4.6-4.3-5.9c-2.4-1.3-4.1-0.4-3.1-3.3c0.5-1.4,2-2.3,3.4-2c0.9,0.2,6.6,5.5,5.4,0.5
				c-0.3-1.3-2.1-1.7-2.9-2.4c-1.3-2.1,1-2.8,0.3-4.3c-0.6-1.5-2.5-0.7-3-2c-0.4-1.2,1.6-2.7,1.8-4c0.2-1.3-0.5-1.4-0.2-2.4
				c0.3-1,1.3-1.2,1.5-1.8c0.1-0.6,0.9-1-0.8-2.3c-2.4-2-2.6-0.1-1.7-3.5c0.2-0.8-0.1-1.3,0.2-2.3c0.4-0.9,1.8-1.4,1.3-2.6
				c-0.5-1.2-2.1-0.3-2.7-0.6c-0.6-0.3-1-0.7-1.4-1.2c-0.9-0.7,1-1.2-0.9-1.6c-1-0.3-2.7,1-3.7,1.3c-0.6-1.2-1.5-2.1-2.6-2.9
				c-0.8-0.7-1.6-0.2-2.3-0.6c-0.7-0.4-1.3-1.1-1.7-1.4c-0.5-0.4-2.7,0.6-3.6,0.2c-0.8-0.3-1.3-1.1-1.3-2c0-0.9,1.5-1.3,1.7-2.1
				l-0.7-1.5c0.1-2.3,2.5-3.7,1.8-5.8c-0.3-1.2-1.6-1.8-1.8-3.2s1.5-2.5,0.5-4c-1.6-2.5-3.6,1.8-5.8,1.1c-0.9-0.3-1.3-1.5-2.2-1.8
				c-2-1.2-1.1,0.3-2.5,0.1c-1.4-0.1-1.6-0.9-2.7-0.8c-2.9,0-3.6,4.3-4.8,6.4c-0.8-1.4,1.4-6.2,0.4-7.5c-1-1.3-3.9,1.9-5.4-0.6
				c-1.7,0.3-2.4,2.3-3.5,3.3c-1.2,1.1-2.6,1.3-3.6,3.2c-0.5-2-0.2-4.8-2-6.4c-1.1,1.2-2.6,1.5-3.5-0.2c-0.9,0.5-1.6,1.3-2,2.3
				c-0.5-0.1-1-0.3-1.4-0.6c0.6,1.2,1.6,2.2,2.8,2.8l1-0.1c-1.5,1.1-3.5,1.3-5.2,0.5c-0.9-0.7-2.2-2.7-3.2-2.7
				c-2.1-0.2-5.1,4.9-6.5,5.9c-1.5,1-2.9,0.8-4,1.5c-1.2,0.7-3.3,2.8-4.7,1c-1.4-1.9,1.1-3.6-1.6-2.3c-1.8,0.9-2.6,2.9-2,4.8
				c-0.9,1.1-2.2,0.1-3.1-0.5c-0.6,0.7,0,1.8-0.3,2.6c-0.3,0.7-1.3,1.1-1.6,1.9s0.1,1.8-0.4,2.6s-1.5,1.2-1.8,2.2s-0.6,2.2-0.8,2.5
				l-1.5,0.9c-0.9,1-0.7,3.8-3.1,2.5c-1.4,1,0,1.8-0.6,2.8c-0.5,1-1.2,0.9-2.1,1.5c-0.9,0.6-1.7,2-3,2c-1.7,2-3.3,4.6-4.9,6.4
				l-1.3,3.6c-0.5,1.2-1.7,2-2.4,2.9c-0.7,2,0.7,2.7-0.3,4.8c-1,2.1-1.4,5.2-4.3,6.9c-0.6,0.4-1.3,0.8-2.1,1.1l-1.5-0.4l-0.9,1.1
				c-0.9,0.2-1.8,0.5-2.7,0.9l-2.5,3c-0.8,0.9-2,2.3-3.3,3.4c0,0-0.9,0-1.4,0.4c-0.5,0.4,0.3,1.2-0.7,1.6c-1,0.4-2-1.7-4,0.4
				c-2,2.1-0.2,2.1-0.3,4c-0.3,2.9-2.5,0.6-3.9,2.4c0.8,0.9,1.8,1.6,2.9,2.1l2.9-0.1c0.3-0.3,0.9-1,1.2-1.5c0.4-0.4,0.9,0.8,1.1,0.9
				c0.2,0.1,1.6-1.9,3.2-1.6c3.6,0.9-2,3.8-3.2,4.6c-1.3,0.8-2.6,0.5-3.3,2.1c-0.7,1.6,1.5,3.5-1.7,3.1c2.3,2.5-5.3,4.4,0.8,5.8
				c-1.6,3.1,1.9,1.6,2.8,2.4c1.9,1.6,0.2,2.7-0.4,3.8c-1.5,2.9-0.6,4.4,1.8,6.6c1.1,0.8,1.8,2,2.1,3.3c0.7,1.9,0.8,1.4-0.1,3.3
				l-0.8,1c-0.4,0.9-0.1,1.4-0.3,2.1c-0.2,0.8-1.3,2.6-0.9,3.5C18.4,294.4,21.5,289.3,22.8,288.6z"/>
			<path class="st3" d="M187.6,122.5c1.6-0.8,3.3-1.4,5.1-1.8c1.3-0.4,1.7-1,3.3-0.5c4.4,1.5-0.9,4-2.6,6c-0.6,0.7-1.8,1.6-1.5,2.6
				c0.3,1.1,2.8,0.9,3.6,0.4c0.5,1.2,1.5,2.2,2.6,2.8c2.4,0.8,1.1-1.3,2.7-2.2c0.9-0.8,2.3-0.6,3.1,0.3c0.1,0.1,0.1,0.2,0.2,0.3
				c1,1.5,0,1.6-0.5,3c-0.5,1.4,0.3,1.2-0.2,1.9s-1.6,0.9-2,1.4c-0.8,1.1-0.6,2.6,0.3,3.4c1.9,1.6,1.6-0.4,2.7-1.2
				c1.1-0.7,1.8,0,3.2,0c1.4,0,5.4-2.8,6.6,0.9c0.2,0.9-0.9,2-0.2,3c0.6,1,1.5,0.7,2.2,1c1.9,1,2.7,1.8,4.8,0.9
				c1.7-0.7,3.3-1.7,4.6-2.9c1-1.2-0.2-3.6,2.7-3.7c1.5-0.1,2.2,1.8,3.5,1.8c1.3,0,2.2-2.7,2.9-3.4c0.7-0.8,1.9-3,3-3l1.2,1l1.8,0.2
				c1.5,0.7,0.6,2.1,1.9,3c1.4,0.9,3.5-1,4.9-0.5l-0.1-0.6l0.6,0.5c0.6,1.5,1.8,2.8,3.4,3.4c1.2-2.3,3.4-3.8,6-4
				c0.6,0,0.9,0.7,1.7,0.6c0.9-0.2,1.5-0.6,2.3-0.8c1.9-0.6,1.8-0.2,3.2,0.4c0,0,0.1,1,0.7,1.2c0.6,0.2,2-0.3,2.9-1
				c0.9-0.7,1.8-2.1,3.4-1.5c1.6,0.6,1.8,2.4,2.2,2.5c0.4,0.1,2.3-1.6,2.6-2.6c3.8-0.8,2,3.7,3.4,4.7c1.4,1,3.9-1.1,4.7-2.4
				c0.9-1.3,0.4-1.8,1-3.1c1.1-2.7,4.2-2.2,6.3-3.3c1.3-0.7,2.7-1.3,4.2-1.6c1.2-0.3,3.4-1.1,3.7-2.5c0.2-1.4-1.6-1.9-1.8-3.1
				c-0.2-1.2,1.6-1.9,1.6-4.1s-2.3-3.2,0.2-3.6c1.4-0.2,2.6,2.2,4.1,0.5c0.8-1,0.5-4,0.9-5.2c0.3-1.3,1.6-1.9,2.1-3.2
				c0.4-1.2,0.8-2.5,1-3.8c0.2-1.2,0.6-2.3,1.1-3.4c1-1.9,1.6-1.9,1.5-4.1c-0.2-1.4-0.7-2.8-1.5-3.9c-0.9-1.5-1.3-1.6-0.3-3.5
				c0.6-1.2,1.7-2.1,3.1-2.3c-2.7-3.1,0.9-2.5,0.6-5.9c-0.1-1.3-1-1.7-1.7-2.6c-1.6-2-0.6-1.4,0.1-3.5c0.7-2.1-1.9-4.6-4.3-5.8
				c-2.4-1.2-4.2-0.5-3-3.3c0.5-1.4,1.9-2.3,3.4-2c0.9,0.2,6.6,5.5,5.3,0.5c-0.3-1.2-2-1.7-2.9-2.4c-1.3-2.1,1-2.8,0.4-4.3
				c-0.6-1.5-2.6-0.8-3-2c-0.4-1.2,1.6-2.7,1.8-4c0.3-1.3-0.6-1.4-0.2-2.4c0.4-1,1.1-1.3,1.5-1.8c0.4-0.5,0.9-1-0.8-2.3
				c-2.4-2-2.6-0.1-1.7-3.4c0.2-0.8-0.1-1.4,0.3-2.3s1.8-1.4,1.2-2.6c-0.6-1.2-2-0.3-2.6-0.7c-0.5-0.3-1-0.7-1.4-1.2
				c-0.9-0.8,1-1.2-0.9-1.6c-1-0.3-2.7,1.1-3.7,1.4c-0.6-1.2-1.5-2.2-2.5-2.9c-0.8-0.7-1.6-0.3-2.3-0.6c-0.7-0.3-1.2-1.1-1.8-1.5
				c-0.5-0.4-2.6,0.7-3.6,0.2c-0.8-0.3-1.3-1.1-1.3-2c0-1,1.3-1.5,1.7-2.1l-0.7-1.5c0.1-2.4,2.5-3.7,2-6c-0.5-2.3-1.6-1.9-1.8-3.3
				c-0.2-1.4,1.5-2.5,0.5-4c-1.7-2.5-3.7,1.8-5.9,1c-0.9-0.3-1.3-1.5-2.1-1.8c-2.1-1.2-1.1,0.2-2.5,0.1c-1.4-0.1-1.6-0.9-2.6-0.8
				c-2.9,0.1-3.6,4.3-4.8,6.4c-0.8-1.4,1.3-6.2,0.4-7.5c-0.9-1.3-3.9,1.9-5.4-0.6c-1.7,0.3-2.4,2.3-3.6,3.3c-1.2,1-2.5,1.3-3.5,3.2
				c-0.5-2-0.3-4.8-2-6.4c-1.1,1.3-2.6,1.4-3.5-0.2c-0.9,0.5-1.6,1.3-2,2.3c-0.5-0.1-1-0.3-1.3-0.6c0.6,1.2,1.6,2.2,2.8,2.8l1,0
				c-1.5,1.1-3.5,1.3-5.2,0.5c-0.8-0.7-2.1-2.6-3.2-2.7c-2.1-0.3-5.1,4.9-6.6,5.9c-1.5,1-2.8,0.8-4,1.5c-1.2,0.7-3.3,2.8-4.7,1
				c-1.4-1.9,1.1-3.6-1.6-2.3c-1.8,0.9-2.6,2.9-2.1,4.7c-0.9,1.1-2.1,0.1-3.1-0.5c-0.6,0.7,0,1.8-0.4,2.6c-0.4,0.8-1,1.2-1.5,1.8
				c-0.5,0.6,0.1,1.8-0.3,2.7c-0.4,0.8-1.6,1.2-2.1,2c-0.5,0.8-0.6,2.1-0.8,2.4l-1.5,0.9c-0.9,1-0.7,3.9-3.1,2.5
				c-1.3,1,0,1.8-0.5,2.8c-0.5,1-1.2,0.9-2.1,1.5c-0.9,0.6-1.7,2-3.1,2c-1.7,2-3.3,4.6-4.9,6.4l-1.4,3.6c-0.5,1.2-1.7,2-2.4,2.9
				c-0.7,0.9,0.6,2.7-0.3,4.8c-0.9,2.1-1.5,5.2-4.3,6.9c-0.6,0.5-1.3,0.8-2.1,1.1l-1.5-0.5l-0.9,1.1c-0.9,0.2-1.8,0.5-2.6,0.9
				l-2.5,3c-0.8,0.9-2,2.3-3.3,3.3c0,0-1,0.1-1.4,0.4c-0.4,0.4,0.4,1.2-0.7,1.6c-1.1,0.4-2.2-1.4-4,0.5c-1.8,1.8-0.2,2.1-0.3,3.9
				c-0.2,3-2.5,0.7-3.9,2.5c0.8,0.9,1.8,1.6,2.9,2.1l2.9-0.1c0.3-0.3,0.9-1,1.2-1.5s0.9,0.8,1.1,0.9c0.2,0.1,1.6-1.9,3.3-1.5
				c3.6,0.9-2,3.8-3.2,4.6c-1.3,0.8-2.6,0.5-3.3,2.1c-0.7,1.6,1.5,3.4-1.7,3.1c2.3,2.6-5.2,4.4,0.8,5.8c-1.6,3.1,1.9,1.6,2.8,2.4
				c1.9,1.6,0.2,2.7-0.5,3.9c-1.4,2.8-0.6,4.3,1.9,6.5c1,0.8,1.8,1.9,2.1,3.2c0.7,2,0.8,1.5-0.1,3.4l-0.8,0.9
				c-0.6,0.7-0.1,1.4-0.3,2.1c-0.2,0.8-1.3,2.7-0.9,3.4C183.2,128.3,186.1,123.4,187.6,122.5L187.6,122.5z"/>
			<path class="st3" d="M305.1,208.7c1.6-0.7,3.3-1.3,5-1.7c1.3-0.4,1.7-1,3.4-0.5c4.4,1.5-1,4-2.6,6c-0.6,0.7-1.9,1.5-1.5,2.5
				c0.3,1,2.8,0.9,3.6,0.5c0.5,1.2,1.4,2.2,2.6,2.9c2.4,0.7,1.2-1.4,2.7-2.3c1-0.8,2.5-0.6,3.2,0.5c0,0,0.1,0.1,0.1,0.1
				c1,1.5,0,1.6-0.5,3c-0.5,1.4,0.2,1.2-0.2,1.9c-0.4,0.6-1.6,0.9-1.9,1.4c-0.8,1-0.7,2.5,0.3,3.4c1.9,1.6,1.6-0.4,2.8-1.1
				c1.1-0.7,1.8,0,3.1,0c1.4,0,5.4-2.8,6.7,0.8c0.3,1-0.9,2-0.2,3s1.6,0.7,2.2,1.1c1.8,1,2.7,1.8,4.8,0.9c1.7-0.7,3.2-1.8,4.4-3.1
				c1-1.2-0.2-3.6,2.9-3.5c1.5-0.1,2.2,1.8,3.4,1.8c1.2-0.1,2.5-2.5,2.9-3.4c0.4-1,1.9-2.9,3-2.9l1.2,1l1.8,0.1
				c1.5,0.7,0.6,2.1,1.9,3c1.4,0.9,3.5-1,4.9-0.5l-0.1-0.6l0.5,0.4c0.6,1.5,1.8,2.8,3.3,3.5c1.2-2.1,3.3-3.6,5.7-3.9
				c0.6,0,0.9,0.8,1.7,0.6c0.8-0.2,1.6-0.4,2.3-0.8c2-0.5,1.8-0.2,3.2,0.4c0,0,0.1,0.9,0.7,1.2c0.6,0.3,2-0.3,3-1
				c1-0.7,1.8-2.1,3.4-1.6c1.6,0.5,1.7,2.5,2.3,2.6c0.5,0.1,2.3-1.6,2.4-2.8c3.8-0.8,2,3.7,3.4,4.7c1.4,1,3.9-1.1,4.7-2.4
				c0.8-1.4,0.4-1.8,1-3.1c1.1-2.7,4.2-2.2,6.3-3.3c1.3-0.7,2.7-1.3,4.1-1.6c1.2-0.4,3.5-1.1,3.7-2.6c0.2-1.4-1.6-1.9-1.8-3.1
				c-0.2-1.2,1.6-1.9,1.6-4.1c0-2.2-2.3-3.2,0.3-3.6c1.4-0.2,2.6,2.2,4.1,0.5c0.8-1,0.5-3.9,0.9-5.2c0.4-1.3,1.6-1.9,2.1-3.3
				c0.4-1.2,0.8-2.5,1-3.7c0.2-1.2,0.6-2.4,1.1-3.5c1-1.9,1.6-1.9,1.5-4.1c-0.2-1.4-0.7-2.7-1.5-3.9c-0.9-1.5-1.4-1.7-0.3-3.6
				c0.6-1.2,1.7-2.1,3.1-2.3c-2.7-3.1,0.9-2.5,0.6-5.9c-0.1-1.3-1-1.6-1.7-2.6c-1.5-1.9-0.6-1.4,0.1-3.5c0.7-2.1-1.9-4.6-4.3-5.8
				c-2.4-1.2-4.2-0.5-3-3.3c0.5-1.4,1.9-2.3,3.4-2c0.9,0.2,6.6,5.5,5.4,0.5c-0.3-1.2-2.1-1.7-2.9-2.5c-1.3-2.1,1-2.8,0.3-4.3
				c-0.7-1.5-2.5-0.8-2.9-2c-0.4-1.2,1.6-2.7,1.8-4c0.2-1.3-0.6-1.4-0.2-2.4s1.1-1.3,1.5-1.8c0.4-0.4,0.9-1.1-0.8-2.3
				c-2.3-2-2.6-0.1-1.6-3.4c0.2-0.8-0.1-1.4,0.2-2.3c0.3-0.9,1.8-1.4,1.3-2.6c-0.5-1.2-2-0.4-2.6-0.7c-0.6-0.3-1-0.7-1.4-1.2
				c-0.9-0.7,1-1.2-0.9-1.6c-1-0.3-2.7,1-3.7,1.3c-0.6-1.2-1.5-2.2-2.5-2.9c-0.8-0.7-1.6-0.2-2.3-0.6c-0.7-0.3-1.2-1.1-1.7-1.4
				s-2.6,0.6-3.6,0.2c-0.8-0.3-1.3-1.1-1.3-2c0-1,1.5-1.3,1.8-2.1l-0.7-1.5c0.1-2.3,2.5-3.7,1.8-5.8c-0.3-1.3-1.6-1.9-1.8-3.2
				c-0.2-1.4,1.5-2.5,0.5-4c-1.7-2.5-3.7,1.8-5.8,1.1c-0.9-0.3-1.4-1.5-2.2-1.8c-2-1.2-1.1,0.3-2.5,0.1c-1.4-0.1-1.6-0.9-2.7-0.8
				c-2.9,0.1-3.6,4.3-4.8,6.4c-0.8-1.4,1.4-6.2,0.4-7.5c-1-1.3-3.9,1.9-5.4-0.7c-1.7,0.3-2.4,2.3-3.5,3.3c-1.2,1-2.6,1.3-3.6,3.2
				c-0.5-2-0.3-4.8-2-6.4c-1.3,1.1-2.6,1.5-3.5-0.3c-0.9,0.5-1.6,1.3-2,2.3c-0.5,0-1-0.3-1.4-0.6c0.8,1.4,2.1,2.4,3.6,2.7l1-0.1
				c-1.5,1-3.5,1.2-5.2,0.5c-0.9-0.7-2.2-2.7-3.2-2.7c-2.1-0.3-5.1,4.9-6.5,5.9c-1.5,1-2.8,0.7-4,1.4c-1.2,0.7-3.3,2.8-4.7,1
				c-1.4-1.9,1.1-3.6-1.7-2.3c-1.7,0.9-2.6,2.9-2,4.7c-0.9,1.1-2.2,0.1-3.1-0.5c-0.6,0.7,0,1.8-0.4,2.6s-1,1.2-1.6,1.9
				c-0.5,0.6,0.1,1.8-0.3,2.6c-0.4,0.8-1.6,1.3-2.1,2s-0.6,2.2-0.8,2.4l-1.5,0.9c-0.9,1.1-0.7,3.8-3.1,2.5c-1.4,0.9,0,1.8-0.6,2.8
				c-0.5,1.1-1.2,0.8-2.1,1.4c-0.9,0.9-1.9,1.6-3,2l-0.2,0.2c-1.6,1.9-3.1,4.3-4.9,6.4l-1.4,3.6c-0.4,1.2-1.7,2-2.4,2.8
				c-0.7,2,0.7,2.8-0.3,4.9c-1,2.1-1.4,5.2-4.2,6.9c-0.7,0.4-1.4,0.8-2.1,1.1l-1.5-0.4l-0.9,1.1c-0.9,0.2-1.8,0.5-2.6,0.9l-2.5,3
				c-0.8,0.9-2,2.3-3.3,3.3c0,0-0.9,0.1-1.4,0.5c-0.4,0.4,0.3,1.2-0.7,1.6c-1,0.4-2.2-1.4-4,0.4s-0.2,2.1-0.3,4
				c-0.2,1.9-2.5,0.6-3.9,2.4c0.8,0.9,1.8,1.6,2.9,2.1l2.9-0.1c0.3-0.3,0.9-1,1.2-1.5c0.4-0.4,0.9,0.8,1.1,0.9
				c0.2,0.1,1.6-1.9,3.3-1.6c3.5,0.9-2,3.9-3.2,4.6c-1.2,0.7-2.6,0.5-3.3,2.1c-0.7,1.6,1.5,3.5-1.7,3.1c2.3,2.6-5.2,4.4,0.8,5.9
				c-1.6,3.1,1.9,1.6,2.8,2.4c1.9,1.6,0.2,2.7-0.5,3.9c-1.4,2.8-0.6,4.3,1.9,6.5c1.1,0.8,1.8,2,2.1,3.3c0.7,2,0.8,1.5-0.2,3.3
				l-0.8,0.9c-0.6,0.7-0.2,1.4-0.4,2.2c-0.2,0.8-1.3,2.6-0.9,3.5C300.6,214.7,303.7,209.7,305.1,208.7L305.1,208.7z"/>
			<path class="st3" d="M291,402.8c1.6-0.8,3.3-1.4,5.1-1.8c1.3-0.4,1.7-1,3.3-0.5c4.4,1.5-0.9,4-2.6,6c-0.6,0.7-1.9,1.5-1.6,2.6
				c0.3,1.1,2.8,0.9,3.6,0.5c0.5,1.2,1.4,2.2,2.6,2.8c2.4,0.8,1.1-1.3,2.7-2.2c1-0.8,2.4-0.7,3.2,0.3c0.1,0.1,0.1,0.1,0.2,0.2
				c1,1.5-0.1,1.6-0.5,3.1c-0.5,1.4,0.3,1.2-0.2,1.9c-0.4,0.7-1.6,0.9-1.9,1.4c-0.8,1-0.7,2.5,0.3,3.4c1.9,1.6,1.6-0.4,2.7-1.2
				c1.1-0.7,1.8,0,3.2,0c1.4,0,5.4-2.8,6.6,0.9c0.2,0.9-0.9,2-0.2,3c0.6,1,1.5,0.7,2.2,1c1.9,1,2.7,1.8,4.8,0.9
				c1.7-0.7,3.2-1.7,4.5-3c1-1.2-0.2-3.6,2.7-3.7c1.5-0.1,2.2,1.8,3.5,1.8c1.3,0,2.2-2.7,2.9-3.4c0.7-0.8,1.9-3,3-3l1.2,1l1.8,0.2
				c1.5,0.7,0.6,2.1,1.9,3c1.4,0.9,3.5-1,4.9-0.5l-0.1-0.6l0.6,0.5c0.6,1.5,1.8,2.8,3.4,3.4c1.2-2.3,3.4-3.8,6-4
				c0.6,0,0.9,0.8,1.8,0.5c0.9-0.2,1.5-0.6,2.3-0.8c1.9-0.6,1.8-0.2,3.2,0.4c0,0,0.1,1,0.7,1.2c0.6,0.2,2-0.3,2.9-1
				c0.9-0.7,1.8-2.1,3.4-1.5c1.6,0.6,1.8,2.4,2.3,2.5c0.5,0.1,2.3-1.6,2.3-2.8c3.8-0.8,2,3.7,3.4,4.7c1.4,1,3.8-1.1,4.7-2.4
				c0.9-1.3,0.4-1.8,1-3.1c1.1-2.6,4.2-2.2,6.3-3.3c1.3-0.7,2.7-1.3,4.2-1.6c1.2-0.3,3.4-1.1,3.7-2.5c0.2-1.4-1.6-1.9-1.8-3.1
				c-0.2-1.2,1.6-1.9,1.6-4.1c0-2.2-2.3-3.2,0.2-3.6c1.4-0.2,2.6,2.2,4.1,0.5c0.9-1,0.5-4,0.9-5.2c0.3-1.3,1.6-1.9,2.1-3.2
				c0.4-1.2,0.8-2.5,1-3.8c0.2-1.2,0.6-2.4,1.1-3.5c0.9-1.9,1.6-1.9,1.5-4c-0.2-1.4-0.7-2.8-1.5-3.9c-0.9-1.5-1.3-1.6-0.3-3.5
				c0.6-1.2,1.7-2.1,3.1-2.3c-2.7-3.1,0.9-2.5,0.6-5.9c-0.1-1.3-1-1.7-1.7-2.6c-1.5-1.9-0.6-1.4,0.1-3.5c0.7-2.1-1.9-4.6-4.3-5.8
				c-2.4-1.2-4.2-0.5-3-3.3c0.5-1.4,1.9-2.3,3.4-2c0.9,0.2,6.6,5.5,5.4,0.5c-0.3-1.3-2.1-1.7-2.9-2.5c-1.3-2,1-2.8,0.3-4.3
				c-0.6-1.5-2.5-0.7-3-2c-0.4-1.2,1.6-2.7,1.8-4c0.2-1.3-0.5-1.4-0.2-2.4c0.3-1,1.1-1.3,1.5-1.8s0.9-1-0.8-2.3
				c-2.4-2-2.6-0.1-1.7-3.4c0.2-0.8-0.1-1.4,0.3-2.3c0.4-0.9,1.8-1.4,1.3-2.6c-0.5-1.2-2.1-0.3-2.7-0.6c-0.5-0.3-1-0.7-1.4-1.2
				c-0.9-0.8,1-1.2-0.9-1.6c-1-0.3-2.7,1.1-3.7,1.4c-0.6-1.2-1.5-2.2-2.5-2.9c-0.8-0.7-1.6-0.3-2.3-0.6c-0.7-0.3-1.2-1.1-1.8-1.5
				c-0.5-0.4-2.6,0.7-3.6,0.2c-0.8-0.3-1.3-1.1-1.3-2c0-1,1.3-1.5,1.7-2.1l-0.7-1.5c0.1-2.4,2.5-3.7,1.8-5.8
				c-0.7-2.1-1.6-1.9-1.8-3.3c-0.2-1.4,1.5-2.5,0.5-4c-1.7-2.5-3.7,1.8-5.9,1c-0.9-0.3-1.3-1.5-2.1-1.8c-2.1-1.2-1.1,0.2-2.5,0.1
				c-1.4-0.1-1.6-0.9-2.6-0.8c-2.9,0.1-3.6,4.3-4.8,6.4c-0.8-1.4,1.3-6.2,0.4-7.5c-0.9-1.3-3.9,1.9-5.4-0.6
				c-1.7,0.3-2.4,2.3-3.6,3.3c-1.2,1-2.5,1.3-3.5,3.2c-0.5-2-0.2-4.8-2-6.4c-1.1,1.3-2.6,1.4-3.5-0.2c-0.9,0.5-1.6,1.3-2,2.3
				c-0.5-0.1-1-0.3-1.3-0.6c0.6,1.2,1.6,2.2,2.8,2.8l1,0c-1.5,1.1-3.5,1.3-5.2,0.5c-0.8-0.7-2.1-2.6-3.2-2.7
				c-2.1-0.3-5.1,4.9-6.6,5.9c-1.5,1-2.8,0.8-4,1.5c-1.2,0.7-3.3,2.8-4.7,1c-1.4-1.9,1.1-3.6-1.6-2.3c-1.8,0.9-2.6,2.9-2.1,4.7
				c-0.9,1.1-2.1,0.1-3.1-0.5c-0.6,0.7,0,1.8-0.4,2.6s-1,1.2-1.5,1.8s0.1,1.8-0.3,2.7s-1.6,1.3-1.8,2.2s-0.6,2.1-0.8,2.4l-1.5,0.9
				c-0.9,1-0.7,3.9-3.1,2.5c-1.3,1,0,1.8-0.5,2.8c-0.5,1-1.2,0.9-2.1,1.5c-0.9,0.9-1.9,1.6-3,2c-1.7,2-3.3,4.6-4.9,6.4l-1.4,3.6
				c-0.4,1.2-1.7,2-2.4,2.9c-0.7,0.9,0.6,2.7-0.3,4.8s-1.5,5.2-4.3,6.9c-0.6,0.5-1.3,0.8-2.1,1.1l-1.5-0.5l-0.9,1.1
				c-0.4,0.4-2.1,0.5-2.6,0.9c-0.5,0.4-1.7,2.1-2.5,3s-2,2.4-3.3,3.3c0,0-1,0.1-1.4,0.4c-0.4,0.4,0.4,1.2-0.7,1.6
				c-1.1,0.4-2.2-1.4-4,0.4s-0.2,2.1-0.3,4c-0.3,2.9-2.5,0.6-3.9,2.4c0.7,0.9,1.7,1.7,2.7,2.3l3.8-0.5c0.3-0.3,0.9-1,1.2-1.5
				s0.9,0.8,1.1,0.9c0.1,0.1,1.6-1.9,3.3-1.5c3.6,0.9-2,3.8-3.2,4.6c-1.3,0.8-2.6,0.5-3.3,2.1c-0.7,1.6,1.5,3.4-1.7,3.1
				c2.3,2.6-5.2,4.4,0.8,5.8c-1.6,3.1,1.9,1.6,2.8,2.4c1.9,1.6,0.2,2.7-0.4,3.8c-1.5,2.9-0.7,4.4,1.8,6.6c1,0.8,1.8,1.9,2.1,3.2
				c0.7,2,0.8,1.5-0.1,3.4l-0.8,0.9c-0.6,0.7-0.1,1.4-0.3,2.1c-0.2,0.8-1.3,2.6-0.9,3.4C286.5,408.6,289.6,403.7,291,402.8
				L291,402.8z"/>
		</g>
	</g>
</g>
</svg>
